<svg width="208" height="45" viewBox="0 0 208 45" fill="none" xmlns="http://www.w3.org/2000/svg">
<path d="M42.2638 18.4501C41.8847 18.4501 41.5432 18.22 41.3986 17.8686L40.251 15.085L39.0967 12.2808C38.9521 11.9283 39.0318 11.5231 39.2993 11.2541C39.6647 10.8867 39.6647 10.2892 39.2993 9.92181L35.2874 5.8883C34.922 5.52089 34.3277 5.52089 33.9623 5.8883C33.6948 6.15728 33.2918 6.23854 32.9411 6.09204L30.152 4.93143L27.3833 3.77769C27.0326 3.63233 26.8049 3.28781 26.8049 2.90781C26.8049 2.38703 26.3849 1.96582 25.868 1.96582H20.194C19.6761 1.96582 19.2571 2.38817 19.2571 2.90781C19.2571 3.28896 19.0283 3.63233 18.6788 3.77769L15.9101 4.93143L13.1209 6.09204C12.7703 6.2374 12.3673 6.15728 12.0997 5.8883C11.7343 5.52089 11.14 5.52089 10.7746 5.8883L6.76275 9.92181C6.39731 10.2892 6.39731 10.8867 6.76275 11.2541C7.03029 11.5231 7.11111 11.9283 6.96539 12.2808L5.80874 15.0896L4.66347 17.8686C4.51889 18.2212 4.17622 18.4501 3.79826 18.4501C3.28027 18.4501 2.86133 18.8724 2.86133 19.3921V25.0967C2.86133 25.6175 3.28141 26.0387 3.79826 26.0387C4.17736 26.0387 4.51889 26.2687 4.66347 26.6201L5.81102 29.4037L6.96539 32.208C7.10998 32.5605 7.03029 32.9657 6.76275 33.2347C6.39731 33.6021 6.39731 34.1995 6.76275 34.567L10.7746 38.6005C11.14 38.9679 11.7343 38.9679 12.0997 38.6005C12.3673 38.3315 12.7703 38.2502 13.1209 38.3967L15.9101 39.5573L18.6788 40.7111C19.0294 40.8564 19.2571 41.2009 19.2571 41.581C19.2571 42.1017 19.6772 42.5229 20.194 42.5229H25.868C26.386 42.5229 26.8049 42.1006 26.8049 41.581C26.8049 41.1998 27.0338 40.8564 27.3833 40.7111L30.152 39.5573L32.9411 38.3967C33.2918 38.2514 33.6948 38.3315 33.9623 38.6005C34.3277 38.9679 34.922 38.9679 35.2874 38.6005L39.2993 34.567C39.6647 34.1995 39.6647 33.6021 39.2993 33.2347C39.0318 32.9657 38.9509 32.5605 39.0967 32.208L40.2533 29.3992L41.3986 26.6201C41.5432 26.2676 41.8858 26.0387 42.2638 26.0387C42.7818 26.0387 43.2007 25.6163 43.2007 25.0967V22.2444V19.3921C43.2007 18.8713 42.7806 18.4501 42.2638 18.4501ZM23.031 38.2685C14.2286 38.2685 7.0929 31.0943 7.0929 22.2444C7.0929 13.3945 14.2286 6.22023 23.031 6.22023C31.8334 6.22023 38.9692 13.3945 38.9692 22.2444C38.9692 31.0943 31.8334 38.2685 23.031 38.2685Z" fill="#323232"/>
<path d="M23.0318 7.54199C19.1531 7.54199 15.4338 9.09061 12.6902 11.8491C9.94769 14.6064 8.40625 18.3468 8.40625 22.2464H9.69724C9.69724 18.6662 11.0839 15.2988 13.6021 12.767C16.1203 10.2352 19.4684 8.84109 23.0306 8.84109C26.5928 8.84109 29.9409 10.2352 32.4592 12.767C34.9774 15.2988 36.364 18.665 36.364 22.2464H37.655C37.655 18.3468 36.1147 14.6075 33.371 11.8491C30.6286 9.09176 26.9081 7.54199 23.0295 7.54199H23.0318Z" fill="#FE4F02"/>
<path d="M23.0319 6.2207C18.8049 6.2207 14.7509 7.90896 11.7625 10.9146C8.77294 13.9192 7.09375 17.995 7.09375 22.2449H8.40751C8.40751 18.3453 9.94781 14.6059 12.6914 11.8475C15.4339 9.09017 19.1544 7.54041 23.033 7.54041C26.9117 7.54041 30.6309 9.08902 33.3746 11.8475C36.1171 14.6048 37.6585 18.3453 37.6585 22.2449H38.9723C38.9723 17.995 37.2931 13.9192 34.3035 10.9146C31.314 7.90896 27.2612 6.2207 23.0342 6.2207H23.0319Z" fill="#FE4F02"/>
<path d="M19.9377 21.0532V19.4886L19.9411 19.4691C19.9525 19.3913 19.9696 19.3089 19.9935 19.2161C20.0197 19.1154 20.0595 19.025 20.1153 18.9414C20.1791 18.8533 20.2644 18.7824 20.3703 18.7331C20.4751 18.6828 20.6026 18.6587 20.7619 18.6587H24.6907C24.8922 18.6587 25.1131 18.6221 25.3487 18.55C25.5844 18.4745 25.8064 18.3554 26.0079 18.1963C26.2071 18.0349 26.3767 17.822 26.5099 17.5634C26.6442 17.3058 26.7126 16.9831 26.7126 16.6019V15.8831C26.7126 15.7492 26.6955 15.6061 26.6613 15.4459C26.6317 15.2879 26.5816 15.1369 26.5099 14.9835C26.445 14.8335 26.3574 14.6859 26.2492 14.5463C26.1445 14.41 26.0147 14.2887 25.8633 14.1834C25.721 14.0781 25.5491 13.9923 25.3533 13.9282C25.1586 13.8641 24.9355 13.832 24.6907 13.832H19.4562V15.0407H24.6907C24.9468 15.0407 25.1483 15.1163 25.2906 15.2662C25.4318 15.4138 25.5024 15.6256 25.5024 15.8934V16.6008C25.5024 16.8606 25.4307 17.0678 25.2906 17.2154C25.1529 17.3608 24.9468 17.4352 24.6793 17.4352H20.7631C20.5149 17.4352 20.2895 17.4672 20.0948 17.5313C19.9001 17.5943 19.7248 17.6813 19.5757 17.7889C19.43 17.8919 19.3036 18.012 19.2 18.146C19.0975 18.2833 19.011 18.4321 18.9439 18.5866C18.8778 18.74 18.8266 18.898 18.7924 19.0559C18.7628 19.2116 18.748 19.3604 18.748 19.4989V22.263H26.7148V21.0543H19.9411L19.9377 21.0532Z" fill="#323232"/>
<path d="M18.7455 31.0575H17.5889V29.4837H13.0863V31.0575H11.9297V27.8515C11.9297 27.3833 12.0094 26.953 12.1699 26.5592C12.3304 26.1655 12.5524 25.8279 12.837 25.544C13.1216 25.2613 13.4586 25.0404 13.8468 24.8824C14.235 24.7245 14.6597 24.6455 15.1185 24.6455H18.1626C18.2423 24.6455 18.3186 24.6604 18.3892 24.6901C18.4598 24.7199 18.5224 24.7611 18.5759 24.8149C18.6294 24.8687 18.6704 24.9305 18.7 25.0026C18.7296 25.0736 18.7444 25.1503 18.7444 25.2304V31.0563H18.7455V31.0575ZM13.0875 28.3208H17.59V25.8084H15.1196C15.0843 25.8084 15.008 25.8141 14.893 25.8267C14.7803 25.8359 14.6483 25.8611 14.4969 25.9023C14.3489 25.9446 14.1918 26.0076 14.0256 26.0945C13.8593 26.1804 13.7068 26.3006 13.5679 26.4517C13.429 26.6039 13.3129 26.7939 13.2207 27.0239C13.1319 27.2506 13.0875 27.5264 13.0875 27.8515V28.3208ZM25.8562 25.8084H23.3084V31.0575H22.1517V25.8084H19.5993V24.6455H25.8562V25.8084Z" fill="#323232"/>
<path d="M34.1316 31.0584H32.967V27.2401L30.9166 30.8661C30.8666 30.9588 30.7948 31.0286 30.7026 31.0767C30.6138 31.1248 30.5171 31.1477 30.4135 31.1477C30.3099 31.1477 30.2176 31.1236 30.1288 31.0767C30.0435 31.0286 29.9752 30.9588 29.9239 30.8661L27.8656 27.2401V31.0584H26.709V25.1432C26.709 25.0093 26.7477 24.8902 26.8251 24.7861C26.9048 24.6819 27.0095 24.6121 27.1359 24.5755C27.1985 24.5606 27.26 24.556 27.3226 24.5617C27.3852 24.5652 27.4444 24.5778 27.5002 24.6018C27.5594 24.6224 27.6129 24.6544 27.6607 24.6956C27.7085 24.7346 27.7484 24.7826 27.7803 24.8387L30.4123 29.4388L33.0455 24.8387C33.1138 24.7254 33.2072 24.6453 33.3256 24.5972C33.4474 24.5491 33.5726 24.5423 33.7035 24.5743C33.8276 24.6098 33.9301 24.6808 34.0109 24.7849C34.0906 24.8891 34.1305 25.0081 34.1305 25.142V31.0572H34.1316V31.0584Z" fill="#323232"/>
<path d="M73.4601 20.5594C73.4601 20.7895 73.4191 21.0356 73.3383 21.3001C73.262 21.5635 73.1333 21.8085 72.9522 22.0329C72.7757 22.2584 72.5445 22.4473 72.2587 22.6008C71.9729 22.7496 71.6232 22.824 71.2076 22.824H64.1529C64.0196 22.824 63.8955 22.8 63.7816 22.7519C63.6677 22.7038 63.5675 22.6397 63.4821 22.5584C63.4013 22.4725 63.3364 22.3718 63.2885 22.2561C63.2419 22.1416 63.2168 22.0168 63.2168 21.8829V13.4608C63.2168 13.3315 63.2407 13.2089 63.2885 13.0945C63.3364 12.98 63.4013 12.8792 63.4821 12.7922C63.5675 12.7063 63.6677 12.6388 63.7816 12.5907C63.8955 12.5426 64.0196 12.5186 64.1529 12.5186H70.3706C70.5995 12.5186 70.8455 12.5598 71.1074 12.6411C71.3693 12.7224 71.613 12.854 71.8362 13.0361C72.0651 13.2135 72.253 13.4459 72.401 13.7333C72.5536 14.0207 72.6299 14.3733 72.6299 14.7901V15.1427C72.6299 15.4736 72.5753 15.8297 72.4659 16.2132C72.3566 16.5922 72.1801 16.9506 71.9364 17.2906C72.146 17.42 72.3418 17.5757 72.5229 17.7577C72.7096 17.9398 72.8714 18.1504 73.0091 18.3897C73.1481 18.629 73.2563 18.9004 73.3383 19.2015C73.4191 19.5037 73.4601 19.8358 73.4601 20.1998V20.5594ZM71.6027 20.1998C71.6027 19.956 71.5652 19.7373 71.4889 19.5461C71.4126 19.3492 71.3055 19.182 71.1677 19.0435C71.0288 18.9049 70.8625 18.7996 70.6667 18.7275C70.4708 18.6508 70.2522 18.613 70.0096 18.613H65.8212V16.7307H69.1737C69.4163 16.7307 69.6361 16.6952 69.8308 16.6231C70.0267 16.5464 70.1929 16.4388 70.3307 16.3002C70.4685 16.1617 70.5733 15.9957 70.645 15.8045C70.7213 15.6076 70.7589 15.3877 70.7589 15.1439V14.7912C70.7589 14.5233 70.6302 14.3894 70.3729 14.3894H65.0764V20.9578H71.2087C71.2418 20.9578 71.2828 20.9555 71.3306 20.9509C71.3784 20.9463 71.4217 20.9315 71.4593 20.9074C71.498 20.8834 71.531 20.8433 71.5595 20.7849C71.5879 20.7277 71.6027 20.6487 71.6027 20.5479V20.2033V20.1998Z" fill="#323232"/>
<path d="M83.2816 18.6118H77.4135V16.7296H83.2816V18.6118ZM84.1186 22.8229H77.4146C77.1572 22.8229 76.876 22.7771 76.5708 22.6866C76.2656 22.595 75.982 22.4473 75.7201 22.2412C75.4627 22.0306 75.2452 21.7592 75.0699 21.4295C74.8979 21.094 74.8125 20.6842 74.8125 20.201V13.4608C74.8125 13.3315 74.8364 13.2089 74.8842 13.0945C74.9321 12.98 74.997 12.8792 75.0778 12.7922C75.1632 12.7063 75.2635 12.6388 75.3773 12.5907C75.4912 12.5426 75.6153 12.5186 75.7486 12.5186H84.1186V14.3871H76.671V20.201C76.671 20.4449 76.7359 20.6326 76.8634 20.762C76.9921 20.8914 77.18 20.9555 77.4283 20.9555H84.1186V22.824V22.8229Z" fill="#323232"/>
<path d="M100.736 22.8221H98.878V20.2929H92.3448V22.8221H90.4863V17.6699C90.4863 16.9177 90.615 16.225 90.8724 15.593C91.1286 14.961 91.4862 14.4172 91.9451 13.9615C92.4029 13.5058 92.9427 13.152 93.5679 12.8979C94.1919 12.6437 94.8729 12.5166 95.612 12.5166H99.8004C99.9291 12.5166 100.051 12.5406 100.165 12.5887C100.279 12.6368 100.379 12.7032 100.464 12.7902C100.551 12.8761 100.617 12.9769 100.665 13.0925C100.711 13.207 100.736 13.3295 100.736 13.4589V22.8221ZM92.3448 18.4244H98.878V14.3863H95.6108C95.5539 14.3863 95.432 14.3954 95.2464 14.4149C95.0642 14.4298 94.8535 14.4698 94.6098 14.5374C94.3718 14.6049 94.119 14.708 93.8514 14.8465C93.5849 14.9851 93.339 15.1774 93.1158 15.4213C92.8914 15.6651 92.7058 15.972 92.5578 16.3406C92.4154 16.7047 92.3437 17.1478 92.3437 17.6699V18.4244H92.3448Z" fill="#323232"/>
<path d="M112.166 14.3871H108.071V22.824H106.212V14.3871H102.109V12.5186H112.166V14.3871Z" fill="#323232"/>
<path d="M125.468 22.8232H123.596V16.6865L120.301 22.5141C120.22 22.663 120.105 22.7752 119.958 22.8519C119.815 22.9286 119.66 22.9664 119.494 22.9664C119.327 22.9664 119.179 22.9286 119.036 22.8519C118.897 22.7752 118.789 22.663 118.707 22.5141L115.398 16.6865V22.8232H113.539V13.3158C113.539 13.1006 113.602 12.9082 113.726 12.741C113.855 12.5739 114.021 12.4605 114.227 12.4033C114.327 12.3793 114.427 12.3724 114.526 12.3815C114.627 12.3861 114.722 12.4079 114.812 12.4468C114.907 12.48 114.993 12.5304 115.068 12.5979C115.145 12.6598 115.21 12.7365 115.262 12.8281L119.494 20.2231L123.725 12.8281C123.835 12.646 123.985 12.5166 124.175 12.4399C124.371 12.3632 124.573 12.3518 124.783 12.4044C124.984 12.4617 125.148 12.575 125.276 12.7422C125.405 12.9094 125.469 13.1017 125.469 13.3169V22.8244L125.468 22.8232Z" fill="#323232"/>
<path d="M138.39 18.6561C138.39 19.2835 138.283 19.8605 138.067 20.3883C137.853 20.915 137.555 21.3707 137.175 21.7542C136.793 22.1378 136.341 22.4366 135.816 22.653C135.297 22.8636 134.73 22.969 134.116 22.969H131.599C130.984 22.969 130.415 22.8636 129.891 22.653C129.366 22.4377 128.914 22.1378 128.532 21.7542C128.152 21.3707 127.851 20.9161 127.632 20.3883C127.418 19.8617 127.311 19.2846 127.311 18.6561V16.6868C127.311 16.0639 127.418 15.4892 127.632 14.9625C127.85 14.4313 128.151 13.9756 128.532 13.5966C128.914 13.2131 129.366 12.9143 129.891 12.6979C130.415 12.4826 130.984 12.375 131.599 12.375H134.116C134.731 12.375 135.297 12.4826 135.816 12.6979C136.341 12.9131 136.793 13.2131 137.175 13.5966C137.556 13.9756 137.853 14.4301 138.067 14.9625C138.283 15.4892 138.39 16.0639 138.39 16.6868V18.6561ZM136.531 16.6868C136.531 16.3181 136.472 15.9849 136.352 15.6884C136.239 15.3861 136.073 15.1308 135.859 14.919C135.65 14.7038 135.395 14.5378 135.095 14.4233C134.799 14.303 134.473 14.2435 134.116 14.2435H131.599C131.237 14.2435 130.906 14.303 130.606 14.4233C130.31 14.5378 130.055 14.7038 129.841 14.919C129.627 15.1297 129.461 15.3861 129.341 15.6884C129.227 15.9849 129.17 16.3181 129.17 16.6868V18.6561C129.17 19.0247 129.227 19.3602 129.341 19.6624C129.461 19.959 129.627 20.2154 129.841 20.4318C130.055 20.6425 130.31 20.8074 130.606 20.9276C130.906 21.0421 131.237 21.1005 131.599 21.1005H134.101C134.463 21.1005 134.791 21.0432 135.087 20.9276C135.387 20.8074 135.644 20.6425 135.859 20.4318C136.073 20.2166 136.239 19.9601 136.352 19.6624C136.471 19.3602 136.531 19.0247 136.531 18.6561V16.6868Z" fill="#323232"/>
<path d="M149.405 22.8221H142.701C142.529 22.8221 142.343 22.8026 142.144 22.7648C141.948 22.7213 141.753 22.6572 141.557 22.5713C141.366 22.4855 141.183 22.3744 141.006 22.2404C140.831 22.1019 140.673 21.9359 140.535 21.7447C140.402 21.5478 140.294 21.3234 140.214 21.0692C140.133 20.8104 140.092 20.5208 140.092 20.2002V15.1408C140.092 14.9679 140.111 14.7836 140.149 14.5878C140.191 14.3863 140.256 14.1905 140.341 13.9981C140.427 13.8012 140.539 13.6146 140.677 13.4371C140.816 13.2597 140.98 13.1039 141.17 12.97C141.366 12.8315 141.589 12.7204 141.842 12.6391C142.095 12.5578 142.381 12.5166 142.7 12.5166H149.404V14.3851H142.7C142.457 14.3851 142.271 14.4504 142.143 14.5786C142.014 14.708 141.949 14.8992 141.949 15.1534V20.1979C141.949 20.4372 142.014 20.6238 142.143 20.7589C142.276 20.8883 142.462 20.9524 142.7 20.9524H149.404V22.8209L149.405 22.8221Z" fill="#323232"/>
<path d="M175.457 18.6118H169.588V16.7296H175.457V18.6118ZM176.292 22.8229H169.588C169.331 22.8229 169.05 22.7771 168.745 22.6866C168.439 22.595 168.156 22.4473 167.894 22.2412C167.637 22.0306 167.42 21.7592 167.244 21.4295C167.072 21.094 166.986 20.6842 166.986 20.201V13.4608C166.986 13.3315 167.01 13.2089 167.058 13.0945C167.106 12.98 167.171 12.8792 167.252 12.7922C167.337 12.7063 167.437 12.6388 167.551 12.5907C167.665 12.5426 167.789 12.5186 167.922 12.5186H176.292V14.3871H168.845V20.201C168.845 20.4449 168.91 20.6326 169.037 20.762C169.166 20.8914 169.354 20.9555 169.602 20.9555H176.292V22.824V22.8229Z" fill="#323232"/>
<path d="M188.303 15.9811C188.303 16.4071 188.25 16.7883 188.146 17.1238C188.041 17.4592 187.897 17.7558 187.716 18.0145C187.54 18.2687 187.335 18.4862 187.101 18.6683C186.868 18.8503 186.623 19.0014 186.366 19.1205C186.113 19.235 185.855 19.3197 185.594 19.3724C185.336 19.4251 185.094 19.4514 184.865 19.4514H180.663V17.5829H184.865C185.098 17.5634 185.31 17.5153 185.501 17.4386C185.697 17.3573 185.863 17.2497 186.002 17.1158C186.146 16.9818 186.254 16.8215 186.331 16.6337C186.408 16.4425 186.445 16.2239 186.445 15.98V14.8019C186.445 14.6965 186.431 14.6175 186.402 14.5649C186.378 14.5076 186.345 14.4664 186.302 14.4424C186.264 14.4137 186.221 14.3966 186.173 14.392C186.131 14.3874 186.09 14.3851 186.051 14.3851H179.919V22.8221H178.061V13.4589C178.061 13.3295 178.084 13.207 178.132 13.0925C178.179 12.978 178.244 12.8773 178.325 12.7902C178.41 12.7044 178.51 12.6368 178.624 12.5887C178.738 12.5406 178.862 12.5166 178.995 12.5166H186.05C186.465 12.5166 186.815 12.5933 187.101 12.7467C187.387 12.8956 187.618 13.0845 187.795 13.3146C187.976 13.5402 188.105 13.784 188.181 14.0474C188.262 14.3107 188.303 14.558 188.303 14.7881V15.9811Z" fill="#323232"/>
<path d="M165.424 15.9811C165.424 16.4071 165.371 16.7883 165.267 17.1238C165.162 17.4592 165.018 17.7558 164.837 18.0145C164.661 18.2687 164.456 18.4862 164.222 18.6683C163.989 18.8503 163.744 19.0014 163.487 19.1205C163.234 19.235 162.977 19.3197 162.715 19.3724C162.457 19.4251 162.215 19.4514 161.986 19.4514H159.641V17.5829H161.986C162.219 17.5634 162.431 17.5153 162.622 17.4386C162.818 17.3573 162.985 17.2497 163.124 17.1158C163.267 16.9818 163.375 16.8215 163.453 16.6337C163.529 16.4425 163.567 16.2239 163.567 15.98V14.8019C163.567 14.6965 163.552 14.6175 163.523 14.5649C163.499 14.5076 163.466 14.4664 163.423 14.4424C163.385 14.4137 163.342 14.3966 163.294 14.392C163.252 14.3874 163.211 14.3851 163.173 14.3851H158.898V22.8221H157.039V13.4589C157.039 13.3295 157.063 13.207 157.111 13.0925C157.157 12.978 157.222 12.8773 157.303 12.7902C157.389 12.7044 157.489 12.6368 157.603 12.5887C157.717 12.5406 157.841 12.5166 157.974 12.5166H163.17C163.585 12.5166 163.936 12.5933 164.221 12.7467C164.507 12.8956 164.738 13.0845 164.915 13.3146C165.096 13.5402 165.225 13.784 165.301 14.0474C165.382 14.3107 165.423 14.558 165.423 14.7881V15.9811H165.424Z" fill="#323232"/>
<path d="M150.515 14.7881C150.515 14.558 150.556 14.3118 150.637 14.0474C150.713 13.784 150.842 13.539 151.023 13.3146C151.199 13.0845 151.43 12.8956 151.716 12.7467C152.002 12.5933 152.352 12.5166 152.767 12.5166H157.964C158.097 12.5166 158.221 12.5406 158.335 12.5887C158.449 12.6368 158.549 12.7032 158.634 12.7902C158.715 12.8761 158.78 12.9769 158.827 13.0925C158.875 13.207 158.898 13.3295 158.898 13.4589V22.8221H157.04V14.3851H152.765C152.726 14.3851 152.686 14.3874 152.643 14.392C152.595 14.3966 152.552 14.4137 152.514 14.4424C152.471 14.4664 152.438 14.5076 152.414 14.5649C152.386 14.6175 152.371 14.6965 152.371 14.8019V15.98C152.371 16.2239 152.409 16.4425 152.485 16.6337C152.561 16.8204 152.671 16.9807 152.814 17.1158C152.953 17.2497 153.119 17.3573 153.315 17.4386C153.506 17.5153 153.717 17.5634 153.952 17.5829H156.296V19.4514H153.952C153.723 19.4514 153.48 19.4251 153.223 19.3724C152.961 19.3197 152.704 19.2362 152.451 19.1205C152.193 19.0003 151.949 18.8503 151.715 18.6683C151.482 18.4862 151.277 18.2687 151.1 18.0145C150.919 17.7558 150.776 17.4592 150.671 17.1238C150.566 16.7883 150.514 16.4071 150.514 15.9811V14.7881H150.515Z" fill="#323232"/>
<path d="M200.376 19.3587C200.376 18.9328 200.324 18.5515 200.219 18.216C200.114 17.8806 199.972 17.584 199.791 17.3253C199.614 17.0711 199.409 16.8536 199.176 16.6715C198.942 16.4895 198.696 16.3384 198.439 16.2193C198.187 16.1048 197.929 16.0201 197.667 15.9674C197.41 15.9147 197.167 15.8884 196.938 15.8884H192.736V17.7569H196.938C197.172 17.7764 197.383 17.8245 197.575 17.9C197.771 17.9813 197.937 18.0889 198.075 18.2229C198.218 18.3569 198.327 18.5171 198.404 18.7049C198.48 18.8961 198.518 19.1148 198.518 19.3587V20.5368C198.518 20.6421 198.503 20.7211 198.474 20.7738C198.45 20.831 198.417 20.8723 198.374 20.8963C198.337 20.9249 198.293 20.9421 198.245 20.9467C198.202 20.9513 198.162 20.9535 198.124 20.9535H191.991V12.5166H190.133V21.8798C190.133 22.0092 190.157 22.1317 190.205 22.2462C190.252 22.3607 190.317 22.4614 190.398 22.5484C190.484 22.6343 190.584 22.7018 190.698 22.7499C190.812 22.798 190.936 22.8221 191.069 22.8221H198.124C198.538 22.8221 198.889 22.7454 199.175 22.5919C199.461 22.4431 199.692 22.2542 199.868 22.024C200.049 21.7985 200.178 21.5546 200.254 21.2913C200.335 21.028 200.376 20.7807 200.376 20.5517V19.3587Z" fill="#323232"/>
<path d="M49.5078 22.8221V20.9822L50.5054 20.9535V17.6699C50.5054 16.9177 50.6341 16.225 50.8914 15.593C51.1488 14.961 51.5064 14.4172 51.963 13.9615C52.4208 13.5058 52.9617 13.152 53.5858 12.8979C54.2098 12.6437 54.8908 12.5166 55.6299 12.5166H59.8183C59.947 12.5166 60.0688 12.5406 60.1827 12.5887C60.2966 12.6368 60.3968 12.7032 60.4833 12.7902C60.5688 12.8761 60.6359 12.9769 60.6838 13.0925C60.7316 13.207 60.7555 13.3295 60.7555 13.4589V20.9833H61.9512V22.8232H49.5078V22.8221ZM52.3639 20.9547H58.897V14.3863H55.631C55.5741 14.3863 55.4522 14.3954 55.2666 14.4149C55.0855 14.4298 54.8737 14.4698 54.63 14.5374C54.392 14.6049 54.1392 14.708 53.8727 14.8465C53.6063 14.9851 53.3603 15.1774 53.1371 15.4213C52.9128 15.6651 52.7271 15.972 52.5791 16.3406C52.4356 16.7047 52.365 17.1478 52.365 17.6699V20.9535L52.3639 20.9547Z" fill="#323232"/>
<path d="M201.967 12.5215H203.797V22.8235H201.967V12.5215Z" fill="#323232"/>
<path d="M51.495 32.0809C50.2333 32.0809 49.6035 31.5977 49.6035 30.6303V29.0789C49.6035 28.1057 50.2344 27.6191 51.495 27.6191H54.022C54.2748 27.6191 54.4012 27.7451 54.4012 27.9958C54.4012 28.2466 54.2748 28.3725 54.022 28.3725H51.4654C50.7446 28.3725 50.3847 28.6049 50.3847 29.0698V30.6395C50.3847 31.1043 50.7446 31.3367 51.4654 31.3367H54.022C54.2748 31.3367 54.4012 31.4592 54.4012 31.7042C54.4012 31.9492 54.2748 32.0809 54.022 32.0809H51.495Z" fill="#323232"/>
<path d="M57.1344 28.3725H55.7611C55.5128 28.3725 55.3887 28.2477 55.3887 27.9958C55.3887 27.7439 55.5128 27.6191 55.7611 27.6191H59.289C59.5372 27.6191 59.6614 27.7451 59.6614 27.9958C59.6614 28.2466 59.5372 28.3725 59.289 28.3725H57.9156V31.742C57.9156 31.9996 57.7869 32.1279 57.5284 32.1279C57.2699 32.1279 57.1344 31.9996 57.1344 31.742V28.3725Z" fill="#323232"/>
<path d="M62.5692 32.0809C61.3075 32.0809 60.6777 31.5977 60.6777 30.6303V29.0789C60.6777 28.1057 61.3086 27.6191 62.5692 27.6191H63.9791C65.2408 27.6191 65.8706 28.1057 65.8706 29.0789V30.6303C65.8706 31.5977 65.2397 32.0809 63.9791 32.0809H62.5692ZM65.0894 29.0698C65.0894 28.6049 64.7261 28.3725 64.0007 28.3725H62.5396C61.8188 28.3725 61.4589 28.6049 61.4589 29.0698V30.6395C61.4589 31.1043 61.8188 31.3367 62.5396 31.3367H64.0007C64.7261 31.3367 65.0894 31.1043 65.0894 30.6395V29.0698Z" fill="#323232"/>
<path d="M75.7831 32.081C74.527 32.081 73.8984 31.5978 73.8984 30.6304V27.9593C73.8984 27.7016 74.0271 27.5734 74.2856 27.5734C74.5441 27.5734 74.6728 27.7016 74.6728 27.9593V30.6395C74.6728 31.1044 75.0156 31.3368 75.7023 31.3368H76.8638V27.9581C76.8638 27.7005 76.9902 27.5723 77.243 27.5723C77.4958 27.5723 77.6234 27.7005 77.6234 27.9581V31.3368H78.7485C79.4397 31.3368 79.7859 31.1044 79.7859 30.6395V27.9593C79.7859 27.7016 79.9146 27.5734 80.1731 27.5734C80.4316 27.5734 80.5603 27.7016 80.5603 27.9593V30.6304C80.5603 31.5978 79.9317 32.081 78.6756 32.081H75.7831Z" fill="#323232"/>
<path d="M86.3822 28.6941L82.7369 31.9434C82.6686 32.0052 82.6083 32.051 82.5547 32.0808C82.5012 32.1117 82.4226 32.1266 82.3213 32.1266C82.0924 32.1266 81.9785 31.9984 81.9785 31.7408V27.9499C81.9785 27.6992 82.1049 27.5732 82.3577 27.5732C82.6105 27.5732 82.7517 27.6992 82.7517 27.9499V30.9977L86.4038 27.7484C86.4664 27.6935 86.5268 27.6511 86.5826 27.6202C86.6384 27.5893 86.7033 27.5744 86.7762 27.5744C87.029 27.5744 87.1554 27.7026 87.1554 27.9602V31.7419C87.1554 31.9995 87.0267 32.1277 86.7682 32.1277C86.5097 32.1277 86.381 31.9995 86.381 31.7419V28.6941H86.3822Z" fill="#323232"/>
<path d="M92.9634 30.227H89.333V31.7417C89.333 31.9993 89.2043 32.1276 88.9458 32.1276C88.6873 32.1276 88.5586 31.9993 88.5586 31.7417V27.9601C88.5586 27.7024 88.6873 27.5742 88.9458 27.5742C89.2043 27.5742 89.333 27.7024 89.333 27.9601V29.484H92.9634V27.9601C92.9634 27.7024 93.0921 27.5742 93.3506 27.5742C93.6091 27.5742 93.7378 27.7024 93.7378 27.9601V31.7417C93.7378 31.9993 93.6091 32.1276 93.3506 32.1276C93.0921 32.1276 92.9634 31.9993 92.9634 31.7417V30.227Z" fill="#323232"/>
<path d="M96.997 32.0809C95.7352 32.0809 95.1055 31.5977 95.1055 30.6303V29.0789C95.1055 28.1057 95.7363 27.6191 96.997 27.6191H98.4068C99.6685 27.6191 100.298 28.1057 100.298 29.0789V30.6303C100.298 31.5977 99.6674 32.0809 98.4068 32.0809H96.997ZM99.5171 29.0698C99.5171 28.6049 99.1538 28.3725 98.4284 28.3725H96.9674C96.2465 28.3725 95.8867 28.6049 95.8867 29.0698V30.6395C95.8867 31.1043 96.2465 31.3367 96.9674 31.3367H98.4284C99.1538 31.3367 99.5171 31.1043 99.5171 30.6395V29.0698Z" fill="#323232"/>
<path d="M106.951 29.1063L105.059 31.9343C105.02 31.9961 104.973 32.043 104.917 32.0762C104.861 32.1094 104.784 32.1266 104.687 32.1266C104.59 32.1266 104.514 32.1094 104.46 32.0762C104.407 32.043 104.36 31.9926 104.321 31.9251L102.436 29.1155V31.7682C102.436 32.0064 102.308 32.1266 102.049 32.1266C101.791 32.1266 101.662 32.0075 101.662 31.7682V27.9591C101.662 27.7015 101.799 27.5732 102.071 27.5732C102.178 27.5732 102.261 27.5973 102.319 27.6465C102.377 27.6957 102.431 27.7541 102.48 27.8205L104.686 31.1065L106.899 27.8205C106.943 27.7473 106.995 27.6877 107.056 27.6419C107.117 27.5961 107.201 27.5732 107.308 27.5732C107.449 27.5732 107.554 27.6064 107.622 27.674C107.691 27.7415 107.725 27.8366 107.725 27.9591V31.7682C107.725 32.0064 107.593 32.1266 107.331 32.1266C107.069 32.1266 106.951 32.0075 106.951 31.7682V29.1063Z" fill="#323232"/>
<path d="M110.97 32.0809C109.708 32.0809 109.078 31.5977 109.078 30.6303V29.0789C109.078 28.1057 109.709 27.6191 110.97 27.6191H112.379C113.641 27.6191 114.271 28.1057 114.271 29.0789V30.6303C114.271 31.5977 113.64 32.0809 112.379 32.0809H110.97ZM113.49 29.0698C113.49 28.6049 113.126 28.3725 112.401 28.3725H110.94C110.219 28.3725 109.859 28.6049 109.859 29.0698V30.6395C109.859 31.1043 110.219 31.3367 110.94 31.3367H112.401C113.126 31.3367 113.49 31.1043 113.49 30.6395V29.0698Z" fill="#323232"/>
<path d="M120.042 30.227H116.411V31.7417C116.411 31.9993 116.282 32.1276 116.024 32.1276C115.765 32.1276 115.637 31.9993 115.637 31.7417V27.9601C115.637 27.7024 115.765 27.5742 116.024 27.5742C116.282 27.5742 116.411 27.7024 116.411 27.9601V29.484H120.042V27.9601C120.042 27.7024 120.17 27.5742 120.429 27.5742C120.687 27.5742 120.816 27.7024 120.816 27.9601V31.7417C120.816 31.9993 120.687 32.1276 120.429 32.1276C120.17 32.1276 120.042 31.9993 120.042 31.7417V30.227Z" fill="#323232"/>
<path d="M123.709 28.3725H122.335C122.087 28.3725 121.963 28.2477 121.963 27.9958C121.963 27.7439 122.087 27.6191 122.335 27.6191H125.863C126.111 27.6191 126.236 27.7451 126.236 27.9958C126.236 28.2466 126.111 28.3725 125.863 28.3725H124.49V31.742C124.49 31.9996 124.361 32.1279 124.103 32.1279C123.844 32.1279 123.709 31.9996 123.709 31.742V28.3725Z" fill="#323232"/>
<path d="M127.771 32.0807C126.729 32.0807 126.207 31.6743 126.207 30.8603V30.337C126.207 29.5287 126.729 29.1257 127.771 29.1257H130.875V28.9883C130.875 28.5601 130.575 28.346 129.976 28.346H128.947C128.703 28.346 128.581 28.2269 128.581 27.9876C128.581 27.7484 128.703 27.6201 128.947 27.6201H129.976C131.082 27.6201 131.634 28.0758 131.634 28.9883V30.787C131.634 31.6502 131.104 32.0819 130.042 32.0819H127.771V32.0807ZM129.998 31.3652C130.582 31.3652 130.875 31.1637 130.875 30.7595V29.7588H127.829C127.259 29.7588 126.975 29.9455 126.975 30.3187V30.7961C126.975 31.1763 127.259 31.3652 127.829 31.3652H129.998Z" fill="#323232"/>
<path d="M136.001 30.3646L133.59 31.9984C133.527 32.0419 133.47 32.0739 133.418 32.0945C133.367 32.1163 133.302 32.1266 133.225 32.1266C133.113 32.1266 133.024 32.0945 132.958 32.0304C132.892 31.9663 132.859 31.8724 132.859 31.7499C132.859 31.6766 132.875 31.6091 132.907 31.5484C132.939 31.4877 132.994 31.4328 133.071 31.3835L135.57 29.7955L133.079 28.3266C132.996 28.2774 132.937 28.2247 132.9 28.1663C132.864 28.1079 132.846 28.0358 132.846 27.9511C132.846 27.8354 132.878 27.7427 132.94 27.6751C133.004 27.6076 133.092 27.5744 133.203 27.5744C133.267 27.5744 133.327 27.5835 133.385 27.6019C133.444 27.6202 133.497 27.6454 133.546 27.6751L136 29.2265V27.9499C136 27.6992 136.124 27.5732 136.372 27.5732C136.621 27.5732 136.745 27.6992 136.745 27.9499V29.2357L139.199 27.6843C139.248 27.6534 139.301 27.6282 139.36 27.6064C139.418 27.5847 139.481 27.5744 139.55 27.5744C139.657 27.5744 139.742 27.6076 139.806 27.6751C139.869 27.7427 139.9 27.8343 139.9 27.9511C139.9 28.0369 139.882 28.1091 139.846 28.1663C139.809 28.2236 139.75 28.2785 139.667 28.3266L137.176 29.7955L139.682 31.3835C139.818 31.4694 139.887 31.5919 139.887 31.7511C139.887 31.8736 139.854 31.9663 139.788 32.0316C139.722 32.0957 139.633 32.1277 139.521 32.1277C139.448 32.1277 139.383 32.1174 139.328 32.0957C139.272 32.0739 139.215 32.0419 139.156 31.9995L136.745 30.3657V31.7431C136.745 32.0007 136.621 32.1289 136.372 32.1289C136.124 32.1289 136 32.0007 136 31.7431V30.3657L136.001 30.3646Z" fill="#323232"/>
<path d="M149.181 32.0807C148.139 32.0807 147.617 31.6743 147.617 30.8603V30.337C147.617 29.5287 148.138 29.1257 149.181 29.1257H152.285V28.9883C152.285 28.5601 151.986 28.346 151.387 28.346H150.357C150.113 28.346 149.992 28.2269 149.992 27.9876C149.992 27.7484 150.113 27.6201 150.357 27.6201H151.387C152.492 27.6201 153.045 28.0758 153.045 28.9883V30.787C153.045 31.6502 152.514 32.0819 151.453 32.0819H149.181V32.0807ZM151.409 31.3652C151.994 31.3652 152.286 31.1637 152.286 30.7595V29.7588H149.24C148.671 29.7588 148.385 29.9455 148.385 30.3187V30.7961C148.385 31.1763 148.669 31.3652 149.24 31.3652H151.409Z" fill="#323232"/>
<path d="M159.546 31.0436C159.546 31.7351 158.951 32.0809 157.764 32.0809H154.762C154.533 32.0809 154.418 31.9767 154.418 31.7683V27.9317C154.418 27.7233 154.532 27.6191 154.762 27.6191H157.618C158.859 27.6191 159.481 27.9867 159.481 28.7206V29.0514C159.481 29.3755 159.301 29.6262 158.94 29.8037C159.344 29.9868 159.546 30.2502 159.546 30.5937V31.0436ZM158.713 28.7675C158.713 28.4435 158.352 28.2809 157.633 28.2809H155.252C155.213 28.2809 155.193 28.2992 155.193 28.3359V29.4922H157.662C158.364 29.4922 158.715 29.3457 158.715 29.0514V28.7664L158.713 28.7675ZM158.786 30.5753C158.786 30.2754 158.44 30.1254 157.749 30.1254H155.192V31.3642C155.192 31.4008 155.212 31.4191 155.25 31.4191H157.749C158.44 31.4191 158.786 31.2657 158.786 30.96V30.5742V30.5753Z" fill="#323232"/>
<path d="M162.175 28.3725H160.802C160.554 28.3725 160.43 28.2477 160.43 27.9958C160.43 27.7439 160.554 27.6191 160.802 27.6191H164.33C164.578 27.6191 164.702 27.7451 164.702 27.9958C164.702 28.2466 164.578 28.3725 164.33 28.3725H162.957V31.742C162.957 31.9996 162.828 32.1279 162.569 32.1279C162.311 32.1279 162.175 31.9996 162.175 31.742V28.3725Z" fill="#323232"/>
<path d="M167.61 32.0809C166.348 32.0809 165.719 31.5977 165.719 30.6303V29.0789C165.719 28.1057 166.35 27.6191 167.61 27.6191H169.02C170.281 27.6191 170.912 28.1057 170.912 29.0789V30.6303C170.912 31.5977 170.281 32.0809 169.02 32.0809H167.61ZM170.13 29.0698C170.13 28.6049 169.767 28.3725 169.042 28.3725H167.581C166.86 28.3725 166.5 28.6049 166.5 29.0698V30.6395C166.5 31.1043 166.86 31.3367 167.581 31.3367H169.042C169.767 31.3367 170.13 31.1043 170.13 30.6395V29.0698Z" fill="#323232"/>
<path d="M177.566 29.1053L175.674 31.9333C175.636 31.9951 175.588 32.042 175.532 32.0752C175.476 32.1085 175.399 32.1256 175.302 32.1256C175.205 32.1256 175.129 32.1085 175.075 32.0752C175.022 32.042 174.975 31.9917 174.936 31.9241L173.052 29.1145V31.7673C173.052 32.0054 172.923 32.1256 172.665 32.1256C172.406 32.1256 172.277 32.0066 172.277 31.7673V27.9581C172.277 27.7005 172.414 27.5723 172.686 27.5723C172.793 27.5723 172.876 27.5963 172.934 27.6455C172.992 27.6948 173.046 27.7532 173.095 27.8196L175.301 31.1055L177.515 27.8196C177.558 27.7463 177.61 27.6868 177.672 27.641C177.733 27.5952 177.816 27.5723 177.923 27.5723C178.065 27.5723 178.169 27.6055 178.238 27.673C178.306 27.7406 178.34 27.8356 178.34 27.9581V31.7673C178.34 32.0054 178.209 32.1256 177.946 32.1256C177.683 32.1256 177.566 32.0066 177.566 31.7673V29.1053Z" fill="#323232"/>
<path d="M181.585 32.0809C180.323 32.0809 179.693 31.5977 179.693 30.6303V29.0789C179.693 28.1057 180.324 27.6191 181.585 27.6191H182.995C184.256 27.6191 184.886 28.1057 184.886 29.0789V30.6303C184.886 31.5977 184.255 32.0809 182.995 32.0809H181.585ZM184.105 29.0698C184.105 28.6049 183.742 28.3725 183.016 28.3725H181.555C180.834 28.3725 180.475 28.6049 180.475 29.0698V30.6395C180.475 31.1043 180.834 31.3367 181.555 31.3367H183.016C183.742 31.3367 184.105 31.1043 184.105 30.6395V29.0698Z" fill="#323232"/>
<path d="M190.657 28.6941L187.012 31.9434C186.943 32.0053 186.883 32.0511 186.829 32.0808C186.776 32.1117 186.697 32.1266 186.596 32.1266C186.367 32.1266 186.252 31.9984 186.252 31.7408V27.9499C186.252 27.6992 186.378 27.5733 186.632 27.5733C186.886 27.5733 187.026 27.6992 187.026 27.9499V30.9977L190.678 27.7484C190.741 27.6935 190.801 27.6511 190.857 27.6202C190.913 27.5893 190.978 27.5744 191.051 27.5744C191.304 27.5744 191.431 27.7026 191.431 27.9602V31.7419C191.431 31.9995 191.302 32.1278 191.044 32.1278C190.785 32.1278 190.657 31.9995 190.657 31.7419V28.6941ZM190.554 25.628C190.554 25.8479 190.518 26.0585 190.445 26.2566C190.372 26.4558 190.263 26.631 190.116 26.7844C189.97 26.9378 189.789 27.058 189.575 27.1473C189.361 27.2366 189.115 27.2802 188.837 27.2802C188.559 27.2802 188.314 27.2355 188.102 27.1473C187.891 27.0592 187.712 26.9378 187.566 26.7844C187.42 26.631 187.31 26.4558 187.237 26.2566C187.164 26.0574 187.128 25.8479 187.128 25.628C187.128 25.4872 187.149 25.3876 187.194 25.3292C187.237 25.2708 187.322 25.2422 187.449 25.2422C187.566 25.2422 187.647 25.2662 187.694 25.3155C187.74 25.3647 187.776 25.4322 187.8 25.517C187.819 25.6452 187.845 25.7757 187.876 25.9074C187.908 26.0391 187.96 26.1604 188.033 26.2703C188.106 26.3802 188.206 26.4707 188.333 26.5417C188.459 26.6127 188.627 26.647 188.837 26.647C189.047 26.647 189.214 26.6115 189.341 26.5417C189.468 26.4718 189.568 26.3814 189.641 26.2703C189.714 26.1604 189.766 26.0391 189.798 25.9074C189.83 25.7757 189.855 25.6452 189.874 25.517C189.898 25.4311 189.935 25.3636 189.984 25.3155C190.033 25.2662 190.115 25.2422 190.232 25.2422C190.349 25.2422 190.437 25.2708 190.484 25.3292C190.53 25.3876 190.553 25.4872 190.553 25.628H190.554Z" fill="#323232"/>
<path d="M193.606 30.3181V31.7413C193.606 31.9989 193.478 32.1271 193.219 32.1271C192.961 32.1271 192.832 31.9989 192.832 31.7413V27.9504C192.832 27.6997 192.961 27.5737 193.219 27.5737C193.478 27.5737 193.606 27.6997 193.606 27.9504V29.2728L196.719 27.694C196.792 27.6573 196.853 27.6264 196.901 27.6024C196.95 27.5783 197.003 27.5692 197.061 27.5749C197.183 27.5749 197.278 27.607 197.346 27.6711C197.414 27.7352 197.449 27.8291 197.449 27.9516C197.449 28.0374 197.43 28.1073 197.394 28.1622C197.358 28.2172 197.293 28.2699 197.2 28.3179L194.162 29.796L197.215 31.3932C197.313 31.4482 197.376 31.5066 197.405 31.5672C197.435 31.6291 197.449 31.6897 197.449 31.7504C197.449 32.0012 197.312 32.1271 197.04 32.1271C196.976 32.1271 196.923 32.1168 196.879 32.0951C196.836 32.0733 196.77 32.039 196.682 31.9897L193.606 30.3193V30.3181Z" fill="#323232"/>
<path d="M200.056 32.0807C199.014 32.0807 198.492 31.6743 198.492 30.8603V30.337C198.492 29.5287 199.013 29.1257 200.056 29.1257H203.16V28.9883C203.16 28.5601 202.861 28.346 202.262 28.346H201.232C200.988 28.346 200.867 28.2269 200.867 27.9876C200.867 27.7484 200.988 27.6201 201.232 27.6201H202.262C203.367 27.6201 203.92 28.0758 203.92 28.9883V30.787C203.92 31.6502 203.389 32.0819 202.328 32.0819H200.056V32.0807ZM202.283 31.3652C202.867 31.3652 203.16 31.1637 203.16 30.7595V29.7588H200.114C199.544 29.7588 199.259 29.9455 199.259 30.3187V30.7961C199.259 31.1763 199.543 31.3652 200.114 31.3652H202.283Z" fill="#323232"/>
</svg>
