<?xml version="1.0" encoding="UTF-8"?>
<svg id="logo" xmlns="http://www.w3.org/2000/svg" version="1.1" viewBox="0 0 2101.51 799.34">
  <!-- Generator: Adobe Illustrator 29.5.1, SVG Export Plug-In . SVG Version: 2.1.0 Build 141)  -->
  <defs>
    <style>
      .st0 {
        fill: #323232;
      }

      .st1 {
        fill: #fe4f02;
      }

      .st2 {
        fill: #fff;
      }

      .st3 {
        fill: #6b6b6a;
      }
    </style>
  </defs>
  <g>
    <path class="st2" d="M752.11,384.75c0,2.01-.36,4.16-1.07,6.47-.67,2.3-1.8,4.44-3.39,6.4-1.55,1.97-3.58,3.62-6.09,4.96-2.51,1.3-5.58,1.95-9.23,1.95h-61.95c-1.17,0-2.26-.21-3.26-.63s-1.88-.98-2.63-1.69c-.71-.75-1.28-1.63-1.7-2.64-.41-1-.63-2.09-.63-3.26v-73.56c0-1.13.21-2.2.63-3.2s.99-1.88,1.7-2.64c.75-.75,1.63-1.34,2.63-1.76s2.09-.63,3.26-.63h54.6c2.01,0,4.17.36,6.47,1.07,2.3.71,4.44,1.86,6.4,3.45,2.01,1.55,3.66,3.58,4.96,6.09,1.34,2.51,2.01,5.59,2.01,9.23v3.08c0,2.89-.48,6-1.44,9.35-.96,3.31-2.51,6.44-4.65,9.41,1.84,1.13,3.56,2.49,5.15,4.08,1.64,1.59,3.06,3.43,4.27,5.52,1.22,2.09,2.17,4.46,2.89,7.09.71,2.64,1.07,5.54,1.07,8.72v3.14h0ZM735.79,381.61c0-2.13-.33-4.04-1-5.71-.67-1.72-1.61-3.18-2.82-4.39-1.22-1.21-2.68-2.13-4.4-2.76-1.72-.67-3.64-1-5.77-1h-36.78v-16.44h29.44c2.13,0,4.06-.31,5.77-.94,1.72-.67,3.18-1.61,4.39-2.82,1.21-1.21,2.13-2.66,2.76-4.33.67-1.72,1-3.64,1-5.77v-3.08c0-2.34-1.13-3.51-3.39-3.51h-46.51v57.37h53.85c.29,0,.65-.02,1.07-.06s.8-.17,1.13-.38c.34-.21.63-.56.88-1.07.25-.5.38-1.19.38-2.07v-3.04h0Z"/>
    <path class="st2" d="M838.36,367.74h-51.53v-16.44h51.53v16.44ZM845.7,404.52h-58.87c-2.26,0-4.73-.4-7.41-1.19-2.68-.8-5.17-2.09-7.47-3.89-2.26-1.84-4.17-4.21-5.71-7.09-1.51-2.93-2.26-6.51-2.26-10.73v-58.87c0-1.13.21-2.2.63-3.2s.99-1.88,1.7-2.64c.75-.75,1.63-1.34,2.63-1.76s2.09-.63,3.26-.63h73.5v16.32h-65.4v50.78c0,2.13.57,3.77,1.69,4.9,1.13,1.13,2.78,1.69,4.96,1.69h58.75v16.32h0Z"/>
    <path class="st2" d="M991.63,404.52h-16.32v-22.09h-57.37v22.09h-16.32v-45c0-6.57,1.13-12.62,3.39-18.14,2.25-5.52,5.39-10.27,9.42-14.25,4.02-3.98,8.76-7.07,14.25-9.29,5.48-2.22,11.46-3.33,17.95-3.33h36.78c1.13,0,2.2.21,3.2.63s1.88,1,2.63,1.76c.76.75,1.34,1.63,1.76,2.64.41,1,.63,2.07.63,3.2v81.78h0ZM917.95,366.11h57.37v-35.27h-28.69c-.5,0-1.57.08-3.2.25-1.6.13-3.45.48-5.59,1.07-2.09.59-4.31,1.49-6.66,2.7-2.34,1.21-4.5,2.89-6.46,5.02-1.97,2.13-3.6,4.81-4.9,8.03-1.25,3.18-1.88,7.05-1.88,11.61v6.59h.01Z"/>
    <path class="st2" d="M1092,330.83h-35.96v73.69h-16.32v-73.69h-36.03v-16.32h88.31v16.32Z"/>
    <path class="st2" d="M1208.8,404.52h-16.44v-53.6l-28.93,50.9c-.71,1.3-1.72,2.28-3.01,2.95-1.26.67-2.62,1-4.08,1s-2.76-.33-4.02-1c-1.22-.67-2.17-1.65-2.89-2.95l-29.06-50.9v53.6h-16.32v-83.04c0-1.88.55-3.56,1.64-5.02,1.13-1.46,2.59-2.45,4.4-2.95.88-.21,1.76-.27,2.63-.19.88.04,1.72.23,2.51.57.83.29,1.59.73,2.25,1.32.67.54,1.24,1.21,1.7,2.01l37.16,64.59,37.16-64.59c.96-1.59,2.28-2.72,3.95-3.39,1.72-.67,3.49-.77,5.34-.31,1.76.5,3.2,1.49,4.33,2.95,1.13,1.46,1.69,3.14,1.69,5.02v83.04h0Z"/>
    <path class="st2" d="M1322.29,368.12c0,5.48-.94,10.52-2.83,15.13-1.88,4.6-4.5,8.58-7.84,11.93-3.35,3.35-7.32,5.96-11.93,7.85-4.56,1.84-9.54,2.76-14.93,2.76h-22.1c-5.4,0-10.4-.92-15-2.76-4.61-1.88-8.58-4.5-11.93-7.85-3.34-3.35-5.98-7.32-7.91-11.93-1.88-4.6-2.82-9.64-2.82-15.13v-17.2c0-5.44.94-10.46,2.82-15.06,1.92-4.64,4.56-8.62,7.91-11.93,3.35-3.35,7.32-5.96,11.93-7.85,4.6-1.88,9.6-2.82,15-2.82h22.1c5.4,0,10.37.94,14.93,2.82,4.61,1.88,8.58,4.5,11.93,7.85,3.35,3.31,5.96,7.28,7.84,11.93,1.89,4.6,2.83,9.62,2.83,15.06v17.2ZM1305.96,350.92c0-3.22-.52-6.13-1.57-8.72-1-2.64-2.45-4.87-4.33-6.72-1.84-1.88-4.08-3.33-6.71-4.33-2.6-1.05-5.46-1.57-8.6-1.57h-22.1c-3.18,0-6.09.52-8.72,1.57-2.6,1-4.84,2.45-6.72,4.33-1.88,1.84-3.34,4.08-4.39,6.72-1,2.59-1.5,5.5-1.5,8.72v17.2c0,3.22.5,6.15,1.5,8.79,1.05,2.59,2.51,4.83,4.39,6.72,1.88,1.84,4.12,3.28,6.72,4.33,2.63,1,5.54,1.51,8.72,1.51h21.97c3.18,0,6.06-.5,8.66-1.51,2.63-1.05,4.89-2.49,6.78-4.33,1.88-1.88,3.33-4.12,4.33-6.72,1.04-2.64,1.57-5.57,1.57-8.79v-17.2h0Z"/>
    <path class="st2" d="M1419.01,404.52h-58.87c-1.51,0-3.14-.17-4.89-.5-1.72-.38-3.43-.94-5.15-1.69-1.68-.75-3.29-1.72-4.84-2.89-1.54-1.21-2.93-2.66-4.14-4.33-1.17-1.72-2.11-3.68-2.82-5.9-.71-2.26-1.07-4.79-1.07-7.59v-44.19c0-1.51.17-3.12.5-4.83.37-1.76.94-3.47,1.69-5.15.75-1.72,1.74-3.35,2.95-4.9,1.22-1.55,2.66-2.91,4.33-4.08,1.72-1.21,3.68-2.18,5.9-2.89,2.22-.71,4.73-1.07,7.53-1.07h58.87v16.32h-58.87c-2.13,0-3.76.57-4.89,1.69-1.13,1.13-1.7,2.8-1.7,5.02v44.06c0,2.09.57,3.72,1.7,4.9,1.17,1.13,2.8,1.69,4.89,1.69h58.87v16.32h.01Z"/>
    <path class="st2" d="M1647.77,367.74h-51.53v-16.44h51.53v16.44ZM1655.12,404.52h-58.87c-2.26,0-4.73-.4-7.41-1.19-2.68-.8-5.17-2.09-7.47-3.89-2.26-1.84-4.16-4.21-5.71-7.09-1.51-2.93-2.26-6.51-2.26-10.73v-58.87c0-1.13.21-2.2.63-3.2s.99-1.88,1.7-2.64c.75-.75,1.63-1.34,2.63-1.76s2.09-.63,3.26-.63h73.5v16.32h-65.4v50.78c0,2.13.57,3.77,1.69,4.9,1.13,1.13,2.78,1.69,4.96,1.69h58.75v16.32h0Z"/>
    <path class="st2" d="M1760.59,344.77c0,3.72-.46,7.05-1.38,9.98-.92,2.93-2.18,5.52-3.77,7.78-1.55,2.22-3.35,4.12-5.4,5.71s-4.2,2.91-6.46,3.95c-2.22,1-4.48,1.74-6.78,2.2-2.26.46-4.39.69-6.4.69h-36.9v-16.32h36.9c2.05-.17,3.91-.59,5.59-1.26,1.72-.71,3.18-1.65,4.4-2.82,1.26-1.17,2.21-2.57,2.89-4.21.67-1.67,1-3.58,1-5.71v-10.29c0-.92-.13-1.61-.38-2.07-.21-.5-.5-.86-.88-1.07-.33-.25-.71-.4-1.13-.44-.37-.04-.73-.06-1.07-.06h-53.85v73.69h-16.32v-81.78c0-1.13.21-2.2.63-3.2.41-1,.98-1.88,1.69-2.64.75-.75,1.63-1.34,2.63-1.76s2.09-.63,3.26-.63h61.95c3.64,0,6.72.67,9.23,2.01,2.51,1.3,4.54,2.95,6.09,4.96,1.59,1.97,2.72,4.1,3.39,6.4.71,2.3,1.07,4.46,1.07,6.47v10.42h0Z"/>
    <g>
      <path class="st2" d="M1559.69,344.77c0,3.72-.46,7.05-1.38,9.98-.92,2.93-2.18,5.52-3.77,7.78-1.55,2.22-3.35,4.12-5.4,5.71s-4.2,2.91-6.46,3.95c-2.22,1-4.48,1.74-6.78,2.2-2.26.46-4.39.69-6.4.69h-20.59v-16.32h20.59c2.05-.17,3.91-.59,5.59-1.26,1.72-.71,3.18-1.65,4.4-2.82,1.26-1.17,2.21-2.57,2.89-4.21.67-1.67,1-3.58,1-5.71v-10.29c0-.92-.13-1.61-.38-2.07-.21-.5-.5-.86-.88-1.07-.33-.25-.71-.4-1.13-.44-.37-.04-.73-.06-1.07-.06h-37.54v73.69h-16.32v-81.78c0-1.13.21-2.2.63-3.2.41-1,.98-1.88,1.69-2.64.75-.75,1.63-1.34,2.63-1.76s2.09-.63,3.26-.63h45.63c3.64,0,6.72.67,9.23,2.01,2.51,1.3,4.54,2.95,6.09,4.96,1.59,1.97,2.72,4.1,3.39,6.4.71,2.3,1.07,4.46,1.07,6.47v10.42h.01Z"/>
      <path class="st2" d="M1428.75,334.35c0-2.01.36-4.16,1.07-6.47.67-2.3,1.8-4.44,3.39-6.4,1.55-2.01,3.58-3.66,6.09-4.96,2.51-1.34,5.58-2.01,9.23-2.01h45.63c1.17,0,2.26.21,3.26.63s1.88,1,2.63,1.76c.71.75,1.28,1.63,1.69,2.64.42,1,.63,2.07.63,3.2v81.78h-16.32v-73.69h-37.54c-.34,0-.69.02-1.07.06-.42.04-.8.19-1.13.44-.38.21-.67.57-.88,1.07-.25.46-.38,1.15-.38,2.07v10.29c0,2.13.33,4.04,1,5.71.67,1.63,1.63,3.03,2.89,4.21,1.22,1.17,2.68,2.11,4.4,2.82,1.68.67,3.53,1.09,5.59,1.26h20.59v16.32h-20.59c-2.01,0-4.14-.23-6.4-.69-2.3-.46-4.56-1.19-6.78-2.2-2.26-1.05-4.41-2.36-6.46-3.95-2.05-1.59-3.85-3.49-5.4-5.71-1.59-2.26-2.85-4.85-3.77-7.78s-1.38-6.26-1.38-9.98v-10.42h.01Z"/>
    </g>
    <path class="st2" d="M1866.61,374.27c0-3.72-.46-7.05-1.38-9.98-.92-2.93-2.17-5.52-3.76-7.78-1.55-2.22-3.35-4.12-5.4-5.71s-4.21-2.91-6.47-3.95c-2.21-1-4.48-1.74-6.78-2.2-2.26-.46-4.39-.69-6.4-.69h-36.9v16.32h36.9c2.05.17,3.91.59,5.59,1.25,1.72.71,3.18,1.65,4.39,2.82,1.26,1.17,2.22,2.57,2.89,4.21.67,1.67,1,3.58,1,5.71v10.29c0,.92-.13,1.61-.38,2.07-.21.5-.5.86-.88,1.07-.33.25-.71.4-1.13.44-.38.04-.73.06-1.07.06h-53.85v-73.69h-16.32v81.78c0,1.13.21,2.2.63,3.2s.99,1.88,1.7,2.64c.75.75,1.63,1.34,2.63,1.76s2.09.63,3.26.63h61.95c3.64,0,6.72-.67,9.23-2.01,2.51-1.3,4.54-2.95,6.09-4.96,1.59-1.97,2.72-4.1,3.39-6.4.71-2.3,1.07-4.46,1.07-6.46v-10.42h0Z"/>
    <path class="st2" d="M541.78,404.52v-16.07l8.76-.25v-28.68c0-6.57,1.13-12.62,3.39-18.14s5.4-10.27,9.41-14.25c4.02-3.98,8.77-7.07,14.25-9.29s11.46-3.33,17.95-3.33h36.78c1.13,0,2.2.21,3.2.63s1.88,1,2.64,1.76,1.34,1.63,1.76,2.64c.42,1,.63,2.07.63,3.2v65.72h10.5v16.07h-109.27ZM566.86,388.2h57.37v-57.37h-28.68c-.5,0-1.57.08-3.2.25-1.59.13-3.45.48-5.59,1.07-2.09.59-4.31,1.49-6.65,2.7s-4.5,2.89-6.46,5.02c-1.97,2.13-3.6,4.81-4.9,8.03-1.26,3.18-1.88,7.05-1.88,11.61v28.68h0Z"/>
    <path class="st2" d="M1880.57,314.54h16.07v89.98h-16.07v-89.98Z"/>
    <g>
      <path class="st2" d="M559.23,485.38c-11.08,0-16.61-4.22-16.61-12.67v-13.55c0-8.5,5.54-12.75,16.61-12.75h22.19c2.22,0,3.33,1.1,3.33,3.29s-1.11,3.29-3.33,3.29h-22.45c-6.33,0-9.49,2.03-9.49,6.09v13.71c0,4.06,3.16,6.09,9.49,6.09h22.45c2.22,0,3.33,1.07,3.33,3.21s-1.11,3.29-3.33,3.29h-22.19Z"/>
      <path class="st2" d="M608.75,452.99h-12.06c-2.18,0-3.27-1.09-3.27-3.29s1.09-3.29,3.27-3.29h30.98c2.18,0,3.27,1.1,3.27,3.29s-1.09,3.29-3.27,3.29h-12.06v29.43c0,2.25-1.13,3.37-3.4,3.37s-3.46-1.12-3.46-3.37v-29.43h0Z"/>
      <path class="st2" d="M656.47,485.38c-11.08,0-16.61-4.22-16.61-12.67v-13.55c0-8.5,5.54-12.75,16.61-12.75h12.38c11.08,0,16.61,4.25,16.61,12.75v13.55c0,8.45-5.54,12.67-16.61,12.67h-12.38ZM678.6,459.08c0-4.06-3.19-6.09-9.56-6.09h-12.83c-6.33,0-9.49,2.03-9.49,6.09v13.71c0,4.06,3.16,6.09,9.49,6.09h12.83c6.37,0,9.56-2.03,9.56-6.09v-13.71Z"/>
    </g>
    <g>
      <path class="st2" d="M772.52,485.38c-11.03,0-16.55-4.22-16.55-12.67v-23.33c0-2.25,1.13-3.37,3.4-3.37s3.4,1.12,3.4,3.37v23.41c0,4.06,3.01,6.09,9.04,6.09h10.2v-29.51c0-2.25,1.11-3.37,3.33-3.37s3.34,1.12,3.34,3.37v29.51h9.88c6.07,0,9.11-2.03,9.11-6.09v-23.41c0-2.25,1.13-3.37,3.4-3.37s3.4,1.12,3.4,3.37v23.33c0,8.45-5.52,12.67-16.55,12.67h-25.4Z"/>
      <path class="st2" d="M865.59,455.79l-32.01,28.38c-.6.54-1.13.94-1.6,1.2-.47.27-1.16.4-2.05.4-2.01,0-3.01-1.12-3.01-3.37v-33.11c0-2.19,1.11-3.29,3.33-3.29s3.46,1.1,3.46,3.29v26.62l32.07-28.38c.55-.48,1.08-.85,1.57-1.12s1.06-.4,1.7-.4c2.22,0,3.33,1.12,3.33,3.37v33.03c0,2.25-1.13,3.37-3.4,3.37s-3.4-1.12-3.4-3.37v-26.62h0Z"/>
      <path class="st2" d="M923.38,469.18h-31.88v13.23c0,2.25-1.13,3.37-3.4,3.37s-3.4-1.12-3.4-3.37v-33.03c0-2.25,1.13-3.37,3.4-3.37s3.4,1.12,3.4,3.37v13.31h31.88v-13.31c0-2.25,1.13-3.37,3.4-3.37s3.4,1.12,3.4,3.37v33.03c0,2.25-1.13,3.37-3.4,3.37s-3.4-1.12-3.4-3.37v-13.23Z"/>
      <path class="st2" d="M958.79,485.38c-11.08,0-16.61-4.22-16.61-12.67v-13.55c0-8.5,5.54-12.75,16.61-12.75h12.38c11.08,0,16.61,4.25,16.61,12.75v13.55c0,8.45-5.54,12.67-16.61,12.67h-12.38ZM980.92,459.08c0-4.06-3.19-6.09-9.56-6.09h-12.83c-6.33,0-9.49,2.03-9.49,6.09v13.71c0,4.06,3.16,6.09,9.49,6.09h12.83c6.37,0,9.56-2.03,9.56-6.09v-13.71Z"/>
      <path class="st2" d="M1046.22,459.4l-16.61,24.7c-.34.54-.76.95-1.25,1.24-.49.29-1.17.44-2.02.44s-1.52-.15-1.99-.44-.88-.73-1.22-1.32l-16.55-24.54v23.17c0,2.08-1.13,3.13-3.4,3.13s-3.4-1.04-3.4-3.13v-33.27c0-2.25,1.2-3.37,3.59-3.37.94,0,1.67.21,2.18.64.51.43.98.94,1.41,1.52l19.37,28.7,19.44-28.7c.38-.64.84-1.16,1.38-1.56.53-.4,1.27-.6,2.21-.6,1.24,0,2.16.29,2.76.88s.9,1.42.9,2.49v33.27c0,2.08-1.16,3.13-3.46,3.13s-3.34-1.04-3.34-3.13v-23.25Z"/>
      <path class="st2" d="M1081.5,485.38c-11.08,0-16.61-4.22-16.61-12.67v-13.55c0-8.5,5.54-12.75,16.61-12.75h12.38c11.08,0,16.61,4.25,16.61,12.75v13.55c0,8.45-5.54,12.67-16.61,12.67h-12.38ZM1103.63,459.08c0-4.06-3.19-6.09-9.56-6.09h-12.83c-6.33,0-9.49,2.03-9.49,6.09v13.71c0,4.06,3.16,6.09,9.49,6.09h12.83c6.37,0,9.56-2.03,9.56-6.09v-13.71Z"/>
      <path class="st2" d="M1161.16,469.18h-31.88v13.23c0,2.25-1.13,3.37-3.4,3.37s-3.4-1.12-3.4-3.37v-33.03c0-2.25,1.13-3.37,3.4-3.37s3.4,1.12,3.4,3.37v13.31h31.88v-13.31c0-2.25,1.13-3.37,3.4-3.37s3.4,1.12,3.4,3.37v33.03c0,2.25-1.13,3.37-3.4,3.37s-3.4-1.12-3.4-3.37v-13.23Z"/>
      <path class="st2" d="M1193.36,452.99h-12.06c-2.18,0-3.27-1.09-3.27-3.29s1.09-3.29,3.27-3.29h30.98c2.18,0,3.27,1.1,3.27,3.29s-1.09,3.29-3.27,3.29h-12.06v29.43c0,2.25-1.13,3.37-3.4,3.37s-3.46-1.12-3.46-3.37v-29.43h0Z"/>
      <path class="st2" d="M1229.03,485.38c-9.15,0-13.73-3.55-13.73-10.66v-4.57c0-7.06,4.58-10.58,13.73-10.58h27.26v-1.2c0-3.74-2.63-5.61-7.89-5.61h-9.04c-2.14,0-3.21-1.04-3.21-3.13s1.07-3.21,3.21-3.21h9.04c9.71,0,14.56,3.98,14.56,11.95v15.71c0,7.54-4.66,11.31-13.98,11.31h-19.95ZM1248.59,479.12c5.13,0,7.7-1.76,7.7-5.29v-8.74h-26.75c-5,0-7.5,1.63-7.5,4.89v4.17c0,3.32,2.5,4.97,7.5,4.97h19.05Z"/>
      <path class="st2" d="M1301.32,470.39l-21.17,14.27c-.56.38-1.06.66-1.51.84-.45.19-1.02.28-1.7.28-.98,0-1.76-.28-2.34-.84s-.87-1.38-.87-2.45c0-.64.14-1.23.42-1.76s.76-1.01,1.44-1.44l21.94-13.87-21.87-12.83c-.73-.43-1.25-.89-1.57-1.4-.32-.51-.48-1.14-.48-1.88,0-1.01.28-1.82.83-2.41.56-.59,1.33-.88,2.31-.88.56,0,1.09.08,1.6.24s.98.38,1.41.64l21.55,13.55v-11.15c0-2.19,1.09-3.29,3.27-3.29s3.27,1.1,3.27,3.29v11.23l21.55-13.55c.43-.27.9-.49,1.41-.68s1.07-.28,1.67-.28c.94,0,1.69.29,2.25.88.55.59.83,1.39.83,2.41,0,.75-.16,1.38-.48,1.88s-.84.98-1.57,1.4l-21.87,12.83,22,13.87c1.2.75,1.8,1.82,1.8,3.21,0,1.07-.29,1.88-.87,2.45-.58.56-1.36.84-2.34.84-.64,0-1.21-.09-1.7-.28s-.99-.47-1.51-.84l-21.17-14.27v12.03c0,2.25-1.09,3.37-3.27,3.37s-3.27-1.12-3.27-3.37v-12.03h0Z"/>
    </g>
    <g>
      <path class="st2" d="M1417.05,485.38c-9.15,0-13.73-3.55-13.73-10.66v-4.57c0-7.06,4.57-10.58,13.73-10.58h27.26v-1.2c0-3.74-2.63-5.61-7.89-5.61h-9.04c-2.14,0-3.21-1.04-3.21-3.13s1.07-3.21,3.21-3.21h9.04c9.71,0,14.56,3.98,14.56,11.95v15.71c0,7.54-4.66,11.31-13.98,11.31h-19.95ZM1436.61,479.12c5.13,0,7.7-1.76,7.7-5.29v-8.74h-26.75c-5,0-7.51,1.63-7.51,4.89v4.17c0,3.32,2.5,4.97,7.51,4.97h19.05Z"/>
      <path class="st2" d="M1508.07,476.32c0,6.04-5.22,9.06-15.65,9.06h-26.36c-2.01,0-3.02-.91-3.02-2.73v-33.51c0-1.82,1-2.73,3.02-2.73h25.08c10.9,0,16.36,3.21,16.36,9.62v2.89c0,2.83-1.58,5.02-4.75,6.57,3.55,1.6,5.32,3.9,5.32,6.9v3.93h0ZM1500.75,456.43c0-2.83-3.17-4.25-9.49-4.25h-20.91c-.34,0-.51.16-.51.48v10.1h21.68c6.16,0,9.24-1.28,9.24-3.85v-2.49h-.01ZM1501.39,472.23c0-2.62-3.04-3.93-9.11-3.93h-22.45v10.82c0,.32.17.48.51.48h21.94c6.07,0,9.11-1.34,9.11-4.01v-3.37h0Z"/>
      <path class="st2" d="M1531.16,452.99h-12.06c-2.18,0-3.27-1.09-3.27-3.29s1.09-3.29,3.27-3.29h30.98c2.18,0,3.27,1.1,3.27,3.29s-1.09,3.29-3.27,3.29h-12.06v29.43c0,2.25-1.13,3.37-3.4,3.37s-3.46-1.12-3.46-3.37v-29.43h0Z"/>
      <path class="st2" d="M1578.88,485.38c-11.08,0-16.61-4.22-16.61-12.67v-13.55c0-8.5,5.54-12.75,16.61-12.75h12.38c11.07,0,16.61,4.25,16.61,12.75v13.55c0,8.45-5.54,12.67-16.61,12.67h-12.38ZM1601.01,459.08c0-4.06-3.19-6.09-9.56-6.09h-12.83c-6.33,0-9.49,2.03-9.49,6.09v13.71c0,4.06,3.16,6.09,9.49,6.09h12.83c6.37,0,9.56-2.03,9.56-6.09v-13.71Z"/>
      <path class="st2" d="M1666.31,459.4l-16.61,24.7c-.34.54-.76.95-1.25,1.24-.49.29-1.17.44-2.02.44s-1.52-.15-1.99-.44-.88-.73-1.22-1.32l-16.55-24.54v23.17c0,2.08-1.13,3.13-3.4,3.13s-3.4-1.04-3.4-3.13v-33.27c0-2.25,1.2-3.37,3.59-3.37.94,0,1.67.21,2.18.64.51.43.98.94,1.41,1.52l19.37,28.7,19.44-28.7c.38-.64.84-1.16,1.38-1.56s1.27-.6,2.21-.6c1.24,0,2.16.29,2.76.88s.9,1.42.9,2.49v33.27c0,2.08-1.15,3.13-3.46,3.13s-3.34-1.04-3.34-3.13v-23.25Z"/>
      <path class="st2" d="M1701.59,485.38c-11.08,0-16.61-4.22-16.61-12.67v-13.55c0-8.5,5.54-12.75,16.61-12.75h12.38c11.08,0,16.61,4.25,16.61,12.75v13.55c0,8.45-5.54,12.67-16.61,12.67h-12.38ZM1723.72,459.08c0-4.06-3.19-6.09-9.56-6.09h-12.83c-6.33,0-9.49,2.03-9.49,6.09v13.71c0,4.06,3.16,6.09,9.49,6.09h12.83c6.37,0,9.56-2.03,9.56-6.09v-13.71Z"/>
      <path class="st2" d="M1781.25,455.79l-32.01,28.38c-.6.54-1.13.94-1.6,1.2-.47.27-1.16.4-2.05.4-2.01,0-3.02-1.12-3.02-3.37v-33.11c0-2.19,1.11-3.29,3.34-3.29s3.46,1.1,3.46,3.29v26.62l32.07-28.38c.55-.48,1.08-.85,1.57-1.12s1.06-.4,1.7-.4c2.22,0,3.34,1.12,3.34,3.37v33.03c0,2.25-1.13,3.37-3.4,3.37s-3.4-1.12-3.4-3.37v-26.62h0ZM1780.36,429.01c0,1.92-.32,3.76-.96,5.49-.64,1.74-1.6,3.27-2.89,4.61-1.28,1.34-2.87,2.39-4.75,3.17s-4.04,1.16-6.48,1.16-4.59-.39-6.45-1.16-3.43-1.83-4.71-3.17c-1.28-1.34-2.25-2.87-2.89-4.61s-.96-3.57-.96-5.49c0-1.23.19-2.1.58-2.61.38-.51,1.13-.76,2.24-.76,1.03,0,1.74.21,2.15.64.41.43.72,1.02.93,1.76.17,1.12.4,2.26.67,3.41.28,1.15.74,2.21,1.38,3.17.64.96,1.52,1.75,2.63,2.37s2.59.92,4.43.92,3.31-.31,4.43-.92c1.11-.61,1.99-1.4,2.63-2.37.64-.96,1.1-2.02,1.38-3.17.28-1.15.5-2.29.67-3.41.21-.75.53-1.34.96-1.76.43-.43,1.15-.64,2.18-.64s1.8.25,2.21.76c.41.51.61,1.38.61,2.61h0Z"/>
      <path class="st2" d="M1807.17,469.98v12.43c0,2.25-1.13,3.37-3.4,3.37s-3.4-1.12-3.4-3.37v-33.11c0-2.19,1.13-3.29,3.4-3.29s3.4,1.1,3.4,3.29v11.55l27.33-13.79c.64-.32,1.18-.59,1.6-.8.43-.21.9-.29,1.41-.24,1.07,0,1.9.28,2.5.84s.9,1.38.9,2.45c0,.75-.16,1.36-.48,1.84s-.89.94-1.7,1.36l-26.68,12.91,26.81,13.95c.86.48,1.41.99,1.67,1.52.26.54.38,1.07.38,1.6,0,2.19-1.2,3.29-3.59,3.29-.56,0-1.03-.09-1.41-.28s-.96-.49-1.73-.92l-27.01-14.59h0Z"/>
      <path class="st2" d="M1863.8,485.38c-9.15,0-13.73-3.55-13.73-10.66v-4.57c0-7.06,4.57-10.58,13.73-10.58h27.26v-1.2c0-3.74-2.63-5.61-7.89-5.61h-9.04c-2.14,0-3.21-1.04-3.21-3.13s1.07-3.21,3.21-3.21h9.04c9.71,0,14.56,3.98,14.56,11.95v15.71c0,7.54-4.66,11.31-13.98,11.31h-19.95ZM1883.37,479.12c5.13,0,7.7-1.76,7.7-5.29v-8.74h-26.75c-5,0-7.51,1.63-7.51,4.89v4.17c0,3.32,2.5,4.97,7.51,4.97h19.05Z"/>
    </g>
  </g>
  <g>
    <circle class="st2" cx="309.34" cy="399.65" r="140"/>
    <path class="st1" d="M309.34,259.67c-77.32,0-140,62.68-140,140h11.53s11.34.01,11.34.01c0-31.28,12.18-60.7,34.3-82.82s51.53-34.3,82.82-34.3,60.7,12.18,82.82,34.3,34.3,51.53,34.3,82.82h11.34s11.55-.01,11.55-.01c0-77.32-62.68-140-140-140h0Z"/>
    <path class="st3" d="M478.28,366.52c-3.33,0-6.33-2.01-7.6-5.08l-10.08-24.32-10.14-24.5c-1.27-3.08-.57-6.62,1.78-8.97,3.21-3.21,3.21-8.43,0-11.64l-35.24-35.24c-3.21-3.21-8.43-3.21-11.64,0-2.35,2.35-5.89,3.06-8.97,1.78l-24.5-10.14-24.32-10.08c-3.08-1.27-5.08-4.28-5.08-7.6,0-4.55-3.69-8.23-8.23-8.23h-49.84c-4.55,0-8.23,3.69-8.23,8.23,0,3.33-2.01,6.33-5.08,7.6l-24.32,10.08-24.5,10.14c-3.08,1.27-6.62.57-8.97-1.78-3.21-3.21-8.43-3.21-11.64,0l-35.24,35.24c-3.21,3.21-3.21,8.43,0,11.64,2.35,2.35,3.06,5.89,1.78,8.97l-10.16,24.54-10.06,24.28c-1.27,3.08-4.28,5.08-7.6,5.08-4.55,0-8.23,3.69-8.23,8.23v49.84c0,4.55,3.69,8.23,8.23,8.23,3.33,0,6.33,2.01,7.6,5.08l10.08,24.32,10.14,24.5c1.27,3.08.57,6.62-1.78,8.97-3.21,3.21-3.21,8.43,0,11.64l35.24,35.24c3.21,3.21,8.43,3.21,11.64,0,2.35-2.35,5.89-3.06,8.97-1.78l24.5,10.14,24.32,10.08c3.08,1.27,5.08,4.28,5.08,7.6,0,4.55,3.69,8.23,8.23,8.23h49.84c4.55,0,8.23-3.69,8.23-8.23,0-3.33,2.01-6.33,5.08-7.6l24.32-10.08,24.5-10.14c3.08-1.27,6.62-.57,8.97,1.78,3.21,3.21,8.43,3.21,11.64,0l35.24-35.24c3.21-3.21,3.21-8.43,0-11.64-2.35-2.35-3.06-5.89-1.78-8.97l10.16-24.54,10.06-24.28c1.27-3.08,4.28-5.08,7.6-5.08,4.55,0,8.23-3.69,8.23-8.23v-24.92h0v-24.92c0-4.55-3.69-8.23-8.23-8.23h0ZM309.34,539.67c-77.32,0-140-62.68-140-140s62.68-140,140-140,140,62.68,140,140-62.68,140-140,140Z"/>
    <path class="st0" d="M282.15,389.27v-13.67l.03-.17c.1-.68.25-1.4.46-2.21.23-.88.58-1.67,1.07-2.4.56-.77,1.31-1.39,2.24-1.82.92-.44,2.04-.65,3.44-.65h34.51c1.77,0,3.71-.32,5.78-.95,2.07-.66,4.02-1.7,5.79-3.09,1.75-1.41,3.24-3.27,4.41-5.53,1.18-2.25,1.78-5.07,1.78-8.4v-6.28c0-1.17-.15-2.42-.45-3.82-.26-1.38-.7-2.7-1.33-4.04-.57-1.31-1.34-2.6-2.29-3.82-.92-1.19-2.06-2.25-3.39-3.17-1.25-.92-2.76-1.67-4.48-2.23-1.71-.56-3.67-.84-5.82-.84h-45.98v10.56h45.98c2.25,0,4.02.66,5.27,1.97,1.24,1.29,1.86,3.14,1.86,5.48v6.18c0,2.27-.63,4.08-1.86,5.37-1.21,1.27-3.02,1.92-5.37,1.92h-34.4c-2.18,0-4.16.28-5.87.84-1.71.55-3.25,1.31-4.56,2.25-1.28.9-2.39,1.95-3.3,3.12-.9,1.2-1.66,2.5-2.25,3.85-.58,1.34-1.03,2.72-1.33,4.1-.26,1.36-.39,2.66-.39,3.87v24.15h69.98v-10.56h-59.53Z"/>
    <g>
      <path class="st0" d="M271.7,476.67h-10.16v-13.75h-39.55v13.75h-10.16v-28.01c0-4.09.7-7.85,2.11-11.29s3.36-6.39,5.86-8.87c2.5-2.47,5.46-4.4,8.87-5.78,3.41-1.38,7.14-2.07,11.17-2.07h26.74c.7,0,1.37.13,1.99.39s1.17.62,1.64,1.09.83,1.01,1.09,1.64c.26.62.39,1.29.39,1.99v50.9h.01ZM222,452.76h39.55v-21.95h-21.7c-.31,0-.98.05-1.99.16-.99.08-2.15.3-3.48.66-1.3.37-2.68.92-4.14,1.68-1.46.75-2.8,1.8-4.02,3.12-1.22,1.33-2.24,2.99-3.05,5-.78,1.98-1.17,4.39-1.17,7.23v4.1h0ZM334.16,430.81h-22.38v45.86h-10.16v-45.86h-22.42v-10.16h54.96v10.16h0Z"/>
      <path class="st0" d="M406.86,476.67h-10.23v-33.36l-18.01,31.68c-.44.81-1.07,1.42-1.88,1.84-.78.42-1.63.62-2.54.62s-1.72-.21-2.5-.62c-.75-.42-1.35-1.03-1.8-1.84l-18.08-31.68v33.36h-10.16v-51.68c0-1.17.34-2.21,1.02-3.12.7-.91,1.62-1.52,2.73-1.84.55-.13,1.09-.17,1.64-.12.55.03,1.07.14,1.56.35.52.18.99.46,1.41.82.42.34.77.76,1.05,1.25l23.12,40.19,23.13-40.19c.6-.99,1.42-1.69,2.46-2.11,1.07-.42,2.17-.48,3.32-.2,1.09.31,1.99.93,2.7,1.84.7.91,1.05,1.95,1.05,3.12v51.68h.01Z"/>
    </g>
  </g>
</svg>