<svg width="47" height="47" viewBox="0 0 47 47" fill="none" xmlns="http://www.w3.org/2000/svg">
<path d="M44.7305 19.3341C44.312 19.3341 43.935 19.0815 43.7754 18.6957L42.5086 15.6395L41.2344 12.5606C41.0748 12.1735 41.1627 11.7287 41.458 11.4333C41.8614 11.0299 41.8614 10.374 41.458 9.97056L37.0295 5.54201C36.6261 5.13861 35.9701 5.13861 35.5667 5.54201C35.2714 5.83733 34.8265 5.92655 34.4395 5.7657L31.3606 4.49142L28.3043 3.22468C27.9173 3.06508 27.6659 2.68682 27.6659 2.2696C27.6659 1.69781 27.2022 1.23535 26.6317 1.23535H20.3684C19.7966 1.23535 19.3341 1.69907 19.3341 2.2696C19.3341 2.68808 19.0815 3.06508 18.6957 3.22468L15.6395 4.49142L12.5606 5.7657C12.1735 5.9253 11.7287 5.83733 11.4333 5.54201C11.0299 5.13861 10.374 5.13861 9.97056 5.54201L5.54201 9.97056C5.13861 10.374 5.13861 11.0299 5.54201 11.4333C5.83733 11.7287 5.92655 12.1735 5.7657 12.5606L4.48891 15.6445L3.22468 18.6957C3.06508 19.0828 2.68682 19.3341 2.2696 19.3341C1.69781 19.3341 1.23535 19.7978 1.23535 20.3684V26.6317C1.23535 27.2035 1.69907 27.6659 2.2696 27.6659C2.68808 27.6659 3.06508 27.9185 3.22468 28.3043L4.49142 31.3606L5.7657 34.4395C5.9253 34.8265 5.83733 35.2714 5.54201 35.5667C5.13861 35.9701 5.13861 36.6261 5.54201 37.0295L9.97056 41.458C10.374 41.8614 11.0299 41.8614 11.4333 41.458C11.7287 41.1627 12.1735 41.0735 12.5606 41.2344L15.6395 42.5086L18.6957 43.7754C19.0828 43.935 19.3341 44.3132 19.3341 44.7305C19.3341 45.3022 19.7978 45.7647 20.3684 45.7647H26.6317C27.2035 45.7647 27.6659 45.301 27.6659 44.7305C27.6659 44.312 27.9185 43.935 28.3043 43.7754L31.3606 42.5086L34.4395 41.2344C34.8265 41.0748 35.2714 41.1627 35.5667 41.458C35.9701 41.8614 36.6261 41.8614 37.0295 41.458L41.458 37.0295C41.8614 36.6261 41.8614 35.9701 41.458 35.5667C41.1627 35.2714 41.0735 34.8265 41.2344 34.4395L42.5112 31.3556L43.7754 28.3043C43.935 27.9173 44.3132 27.6659 44.7305 27.6659C45.3022 27.6659 45.7647 27.2022 45.7647 26.6317V23.5V20.3684C45.7647 19.7966 45.301 19.3341 44.7305 19.3341ZM23.5 41.0936C13.7833 41.0936 5.90645 33.2167 5.90645 23.5C5.90645 13.7833 13.7833 5.90645 23.5 5.90645C33.2167 5.90645 41.0936 13.7833 41.0936 23.5C41.0936 33.2167 33.2167 41.0936 23.5 41.0936Z" fill="#323232"/>
<path d="M23.5001 7.35645C19.2186 7.35645 15.113 9.05674 12.0844 12.0853C9.05576 15.114 7.35547 19.2195 7.35547 23.5011H8.78055C8.78055 19.5702 10.3112 15.873 13.091 13.0932C15.8708 10.3134 19.5667 8.78278 23.4988 8.78278C27.431 8.78278 31.1269 10.3134 33.9067 13.0932C36.6865 15.873 38.2171 19.5689 38.2171 23.5011H39.6422C39.6422 19.2195 37.9419 15.114 34.9133 12.0853C31.886 9.058 27.7791 7.35645 23.4976 7.35645H23.5001Z" fill="#FE4F02"/>
<path d="M23.4998 5.90625C18.8338 5.90625 14.3587 7.75986 11.0599 11.0599C7.75986 14.3587 5.90625 18.8338 5.90625 23.4998H7.35646C7.35646 19.2183 9.05676 15.1127 12.0854 12.0841C15.1127 9.05676 19.2196 7.35521 23.5011 7.35521C27.7826 7.35521 31.8882 9.0555 34.9168 12.0841C37.9442 15.1115 39.6457 19.2183 39.6457 23.4998H41.0959C41.0959 18.8338 39.2423 14.3587 35.9423 11.0599C32.6422 7.75986 28.1684 5.90625 23.5023 5.90625H23.4998Z" fill="#FE4F02"/>
<path d="M20.0828 22.1931V20.4752L20.0865 20.4538C20.0991 20.3684 20.118 20.2779 20.1443 20.1761C20.1732 20.0655 20.2172 19.9662 20.2788 19.8745C20.3492 19.7777 20.4434 19.6998 20.5603 19.6458C20.6759 19.5905 20.8167 19.5641 20.9926 19.5641H25.3294C25.5519 19.5641 25.7957 19.5239 26.0558 19.4447C26.3159 19.3618 26.561 19.2311 26.7834 19.0564C27.0033 18.8792 27.1906 18.6455 27.3376 18.3614C27.4859 18.0787 27.5613 17.7243 27.5613 17.3058V16.5166C27.5613 16.3696 27.5424 16.2125 27.5047 16.0366C27.4721 15.8632 27.4168 15.6973 27.3376 15.5289C27.266 15.3642 27.1692 15.2021 27.0498 15.0488C26.9342 14.8993 26.7909 14.7661 26.6238 14.6505C26.4667 14.5348 26.277 14.4406 26.0608 14.3702C25.8459 14.2998 25.5996 14.2646 25.3294 14.2646H19.5512V15.5917H25.3294C25.6122 15.5917 25.8346 15.6746 25.9917 15.8393C26.1475 16.0014 26.2254 16.2339 26.2254 16.5279V17.3046C26.2254 17.5898 26.1463 17.8173 25.9917 17.9794C25.8396 18.139 25.6122 18.2207 25.3169 18.2207H20.9939C20.7199 18.2207 20.4711 18.2559 20.2562 18.3263C20.0413 18.3954 19.8478 18.4909 19.6831 18.609C19.5223 18.7221 19.3828 18.8541 19.2684 19.0011C19.1553 19.1519 19.0598 19.3153 18.9857 19.4849C18.9128 19.6533 18.8562 19.8267 18.8185 20.0002C18.7859 20.1711 18.7695 20.3344 18.7695 20.4865V23.5214H27.5638V22.1943H20.0865L20.0828 22.1931Z" fill="#323232"/>
<path d="M18.7699 33.1767H17.4931V31.4487H12.5229V33.1767H11.2461V29.6567C11.2461 29.1427 11.3341 28.6702 11.5113 28.2379C11.6884 27.8056 11.9335 27.4349 12.2477 27.1232C12.5618 26.8128 12.9338 26.5703 13.3624 26.3969C13.7909 26.2234 14.2596 26.1367 14.7661 26.1367H18.1264C18.2144 26.1367 18.2986 26.1531 18.3765 26.1857C18.4544 26.2184 18.5236 26.2636 18.5826 26.3227C18.6417 26.3818 18.6869 26.4496 18.7196 26.5288C18.7523 26.6067 18.7686 26.6909 18.7686 26.7789V33.1754H18.7699V33.1767ZM12.5229 30.1719H17.4931V27.4135H14.7661C14.7271 27.4135 14.6429 27.4198 14.516 27.4336C14.3916 27.4437 14.2458 27.4713 14.0787 27.5166C13.9153 27.5631 13.7419 27.6322 13.5584 27.7277C13.3749 27.8219 13.2065 27.9539 13.0532 28.1198C12.8999 28.2869 12.7717 28.4955 12.6699 28.7481C12.5719 28.9969 12.5229 29.2998 12.5229 29.6567V30.1719ZM26.6179 27.4135H23.8054V33.1767H22.5286V27.4135H19.7111V26.1367H26.6179V27.4135Z" fill="#323232"/>
<path d="M35.7551 33.1768H34.4695V28.9845L32.2062 32.9657C32.1509 33.0675 32.0718 33.1441 31.97 33.1969C31.872 33.2497 31.7651 33.2748 31.6508 33.2748C31.5364 33.2748 31.4346 33.2484 31.3366 33.1969C31.2424 33.1441 31.167 33.0675 31.1104 32.9657L28.8383 28.9845V33.1768H27.5615V26.6823C27.5615 26.5352 27.6042 26.4045 27.6897 26.2902C27.7777 26.1758 27.8933 26.0992 28.0328 26.0589C28.1019 26.0426 28.1698 26.0376 28.2389 26.0439C28.308 26.0476 28.3733 26.0615 28.4349 26.0879C28.5003 26.1105 28.5593 26.1457 28.6121 26.1909C28.6649 26.2336 28.7089 26.2864 28.7441 26.348L31.6495 31.3986L34.5562 26.348C34.6316 26.2236 34.7347 26.1356 34.8654 26.0828C34.9998 26.03 35.1381 26.0225 35.2826 26.0577C35.4196 26.0967 35.5327 26.1746 35.6219 26.2889C35.7099 26.4033 35.7539 26.534 35.7539 26.681V33.1756H35.7551V33.1768Z" fill="#323232"/>
</svg>
