<svg width="273" height="58" viewBox="0 0 273 58" fill="none" xmlns="http://www.w3.org/2000/svg">
<path d="M29.2911 49.8188C40.8574 49.8188 50.2337 40.4775 50.2337 28.9543C50.2337 17.4312 40.8574 8.08984 29.2911 8.08984C17.7249 8.08984 8.34863 17.4312 8.34863 28.9543C8.34863 40.4775 17.7249 49.8188 29.2911 49.8188Z" fill="white"/>
<path d="M54.5635 24.0144C54.0653 24.0144 53.6166 23.7148 53.4266 23.2573L51.9187 19.6328L50.4019 15.9815C50.2119 15.5225 50.3166 14.995 50.6681 14.6447C51.1483 14.1663 51.1483 13.3884 50.6681 12.91L45.3966 7.65811C44.9164 7.17972 44.1356 7.17972 43.6554 7.65811C43.3039 8.00833 42.7743 8.11415 42.3136 7.92339L38.6486 6.4122L35.0106 4.90996C34.5499 4.72069 34.2507 4.2721 34.2507 3.77731C34.2507 3.09922 33.6987 2.55078 33.0196 2.55078H25.564C24.8834 2.55078 24.3329 3.10071 24.3329 3.77731C24.3329 4.27359 24.0323 4.72069 23.573 4.90996L19.935 6.4122L16.2701 7.92339C15.8093 8.11266 15.2798 8.00833 14.9282 7.65811C14.4481 7.17972 13.6672 7.17972 13.187 7.65811L7.91549 12.91C7.43531 13.3884 7.43531 14.1663 7.91549 14.6447C8.26703 14.995 8.37323 15.5225 8.18176 15.9815L6.66193 19.6388L5.15706 23.2573C4.96708 23.7163 4.51682 24.0144 4.02018 24.0144C3.33955 24.0144 2.78906 24.5643 2.78906 25.2409V32.6687C2.78906 33.3468 3.34105 33.8952 4.02018 33.8952C4.51832 33.8952 4.96708 34.1948 5.15706 34.6523L6.66492 38.2767L8.18176 41.928C8.37174 42.3871 8.26703 42.9146 7.91549 43.2648C7.43531 43.7432 7.43531 44.5212 7.91549 44.9996L13.187 50.2515C13.6672 50.7299 14.4481 50.7299 14.9282 50.2515C15.2798 49.9012 15.8093 49.7954 16.2701 49.9862L19.935 51.4974L23.573 52.9996C24.0337 53.1889 24.3329 53.6375 24.3329 54.1323C24.3329 54.8104 24.8849 55.3588 25.564 55.3588H33.0196C33.7002 55.3588 34.2507 54.8089 34.2507 54.1323C34.2507 53.636 34.5514 53.1889 35.0106 52.9996L38.6486 51.4974L42.3136 49.9862C42.7743 49.7969 43.3039 49.9012 43.6554 50.2515C44.1356 50.7299 44.9164 50.7299 45.3966 50.2515L50.6681 44.9996C51.1483 44.5212 51.1483 43.7432 50.6681 43.2648C50.3166 42.9146 50.2104 42.3871 50.4019 41.928L51.9217 38.2708L53.4266 34.6523C53.6166 34.1933 54.0668 33.8952 54.5635 33.8952C55.2441 33.8952 55.7946 33.3453 55.7946 32.6687V28.9548V25.2409C55.7946 24.5628 55.2426 24.0144 54.5635 24.0144ZM29.2918 49.8193C17.7256 49.8193 8.3493 40.478 8.3493 28.9548C8.3493 17.4316 17.7256 8.0903 29.2918 8.0903C40.8581 8.0903 50.2343 17.4316 50.2343 28.9548C50.2343 40.478 40.8581 49.8193 29.2918 49.8193Z" fill="#323232"/>
<path d="M29.2911 8.08984C17.7249 8.08984 8.34863 17.4312 8.34863 28.9543H10.0734L11.7697 28.9558C11.7697 24.2941 13.5917 19.9096 16.9007 16.613C20.2096 13.3164 24.609 11.5012 29.2897 11.5012C33.9703 11.5012 38.3697 13.3164 41.6786 16.613C44.9876 19.9096 46.8096 24.2926 46.8096 28.9558H48.5059L50.2337 28.9543C50.2337 17.4312 40.8574 8.08984 29.2911 8.08984Z" fill="#FE4F02"/>
<path d="M25.2263 27.4049V25.3676L25.2308 25.3423C25.2457 25.2409 25.2682 25.1336 25.2996 25.0129C25.334 24.8818 25.3864 24.764 25.4597 24.6552C25.5434 24.5405 25.6556 24.4481 25.7947 24.384C25.9324 24.3184 26.0999 24.2871 26.3093 24.2871H31.4717C31.7364 24.2871 32.0266 24.2394 32.3363 24.1455C32.6459 24.0472 32.9376 23.8922 33.2024 23.685C33.4642 23.4749 33.6871 23.1977 33.8621 22.8609C34.0386 22.5256 34.1284 22.1053 34.1284 21.609V20.6731C34.1284 20.4987 34.1059 20.3124 34.061 20.1038C34.0222 19.8981 33.9563 19.7014 33.8621 19.5017C33.7768 19.3065 33.6616 19.1142 33.5195 18.9324C33.3819 18.7551 33.2114 18.5971 33.0124 18.46C32.8254 18.3229 32.5996 18.2111 32.3423 18.1276C32.0865 18.0442 31.7933 18.0024 31.4717 18.0024H24.5935V19.5762H31.4717C31.8082 19.5762 32.073 19.6746 32.26 19.8698C32.4455 20.0621 32.5382 20.3378 32.5382 20.6865V21.6075C32.5382 21.9458 32.444 22.2156 32.26 22.4078C32.079 22.5971 31.8082 22.694 31.4567 22.694H26.3108C25.9847 22.694 25.6885 22.7357 25.4327 22.8192C25.1769 22.9011 24.9466 23.0144 24.7506 23.1545C24.5591 23.2886 24.3931 23.4451 24.257 23.6195C24.1223 23.7983 24.0086 23.992 23.9204 24.1932C23.8336 24.3929 23.7663 24.5986 23.7214 24.8043C23.6825 25.0069 23.6631 25.2007 23.6631 25.381V28.9801H34.1314V27.4064H25.2263V27.4049Z" fill="#323232"/>
<path d="M23.661 40.4303H22.1412V38.3811H16.2249V40.4303H14.7051V36.2559C14.7051 35.6464 14.8098 35.086 15.0207 34.5734C15.2316 34.0607 15.5233 33.621 15.8973 33.2514C16.2713 32.8833 16.7141 32.5957 17.2242 32.39C17.7343 32.1844 18.2922 32.0815 18.8951 32.0815H22.8951C22.9998 32.0815 23.1 32.1009 23.1928 32.1397C23.2855 32.1784 23.3678 32.2321 23.4381 32.3021C23.5084 32.3722 23.5623 32.4526 23.6012 32.5465C23.6401 32.6389 23.6595 32.7388 23.6595 32.8431V40.4288H23.661V40.4303ZM16.2264 36.867H22.1427V33.5957H18.8966C18.8502 33.5957 18.75 33.6032 18.5989 33.6196C18.4508 33.6315 18.2773 33.6643 18.0783 33.7179C17.8839 33.7731 17.6774 33.855 17.459 33.9683C17.2406 34.0801 17.0402 34.2365 16.8577 34.4333C16.6752 34.6315 16.5226 34.8789 16.4014 35.1784C16.2847 35.4735 16.2264 35.8327 16.2264 36.2559V36.867ZM33.0044 33.5957H29.6565V40.4303H28.1367V33.5957H24.7829V32.0815H33.0044V33.5957Z" fill="#323232"/>
<path d="M43.8802 40.4302H42.3499V35.4584L39.6558 40.1798C39.59 40.3005 39.4957 40.3914 39.3745 40.454C39.2579 40.5166 39.1307 40.5464 38.9946 40.5464C38.8585 40.5464 38.7373 40.5151 38.6206 40.454C38.5084 40.3914 38.4187 40.3005 38.3514 40.1798L35.6468 35.4584V40.4302H34.127V32.7282C34.127 32.5538 34.1778 32.3988 34.2795 32.2632C34.3842 32.1276 34.5219 32.0367 34.6879 31.989C34.7702 31.9696 34.851 31.9636 34.9332 31.9711C35.0155 31.9756 35.0933 31.992 35.1666 32.0233C35.2444 32.0501 35.3147 32.0918 35.3775 32.1455C35.4403 32.1961 35.4927 32.2587 35.5346 32.3317L38.9931 38.3213L42.4531 32.3317C42.5428 32.1842 42.6655 32.0799 42.8211 32.0173C42.9811 31.9547 43.1457 31.9458 43.3177 31.9875C43.4808 32.0337 43.6154 32.1261 43.7216 32.2617C43.8263 32.3973 43.8787 32.5523 43.8787 32.7267V40.4287H43.8802V40.4302Z" fill="#323232"/>
<path d="M95.5269 26.7546C95.5269 27.0542 95.473 27.3746 95.3668 27.7188C95.2666 28.0616 95.0975 28.3805 94.8597 28.6726C94.6278 28.9662 94.3242 29.2121 93.9487 29.4118C93.5732 29.6056 93.114 29.7025 92.568 29.7025H83.3009C83.1259 29.7025 82.9628 29.6712 82.8132 29.6086C82.6637 29.546 82.532 29.4625 82.4198 29.3567C82.3136 29.2449 82.2284 29.1138 82.1655 28.9633C82.1042 28.8142 82.0713 28.6518 82.0713 28.4774V17.5146C82.0713 17.3462 82.1027 17.1867 82.1655 17.0377C82.2284 16.8887 82.3136 16.7575 82.4198 16.6443C82.532 16.5325 82.6637 16.4446 82.8132 16.382C82.9628 16.3194 83.1259 16.2881 83.3009 16.2881H91.4685C91.7692 16.2881 92.0923 16.3417 92.4363 16.4476C92.7804 16.5534 93.1005 16.7248 93.3937 16.9617C93.6944 17.1927 93.9412 17.4952 94.1357 17.8693C94.3361 18.2434 94.4363 18.7024 94.4363 19.2449V19.7039C94.4363 20.1346 94.3645 20.5981 94.2209 21.0974C94.0773 21.5906 93.8455 22.0571 93.5254 22.4997C93.8006 22.6681 94.0579 22.8708 94.2957 23.1078C94.5411 23.3448 94.7535 23.619 94.9345 23.9304C95.117 24.2419 95.2591 24.5951 95.3668 24.9871C95.473 25.3805 95.5269 25.8127 95.5269 26.2866V26.7546ZM93.087 26.2866C93.087 25.9692 93.0377 25.6846 92.9375 25.4357C92.8372 25.1793 92.6966 24.9618 92.5156 24.7814C92.3331 24.6011 92.1147 24.464 91.8574 24.3701C91.6001 24.2702 91.3129 24.2211 90.9943 24.2211H85.4924V21.771H89.8963C90.2149 21.771 90.5036 21.7248 90.7594 21.6309C91.0167 21.531 91.2351 21.3909 91.4161 21.2106C91.5971 21.0303 91.7348 20.8142 91.829 20.5653C91.9292 20.309 91.9786 20.0228 91.9786 19.7054V19.2464C91.9786 18.8976 91.8096 18.7233 91.4715 18.7233H84.5141V27.2732H92.5695C92.6129 27.2732 92.6667 27.2703 92.7295 27.2643C92.7924 27.2583 92.8492 27.239 92.8986 27.2077C92.9494 27.1764 92.9928 27.1242 93.0302 27.0482C93.0676 26.9737 93.087 26.8709 93.087 26.7397V26.2866Z" fill="#323232"/>
<path d="M108.429 24.2196H100.72V21.7695H108.429V24.2196ZM109.528 29.701H100.722C100.384 29.701 100.014 29.6414 99.6134 29.5236C99.2125 29.4044 98.84 29.2121 98.4959 28.9439C98.1579 28.6697 97.8722 28.3165 97.6418 27.8873C97.4159 27.4506 97.3037 26.9171 97.3037 26.2881V17.5146C97.3037 17.3462 97.3351 17.1867 97.398 17.0377C97.4608 16.8887 97.546 16.7575 97.6523 16.6443C97.7644 16.5325 97.8961 16.4446 98.0457 16.382C98.1953 16.3194 98.3583 16.2881 98.5333 16.2881H109.528V18.7203H99.745V26.2881C99.745 26.6056 99.8303 26.85 99.9978 27.0184C100.167 27.1868 100.414 27.2703 100.74 27.2703H109.528V29.7025V29.701Z" fill="#323232"/>
<path d="M131.359 29.701H128.918V26.4089H120.336V29.701H117.895V22.9946C117.895 22.0154 118.064 21.1138 118.402 20.2911C118.738 19.4685 119.208 18.7606 119.811 18.1674C120.412 17.5743 121.121 17.1137 121.942 16.7829C122.762 16.452 123.657 16.2866 124.628 16.2866H130.129C130.298 16.2866 130.459 16.3179 130.608 16.3805C130.758 16.4431 130.889 16.5295 131.002 16.6428C131.115 16.7546 131.202 16.8857 131.265 17.0363C131.326 17.1853 131.359 17.3447 131.359 17.5132V29.701ZM120.336 23.9767H128.918V18.7203H124.626C124.551 18.7203 124.391 18.7322 124.147 18.7576C123.908 18.7769 123.631 18.8291 123.311 18.917C122.999 19.005 122.666 19.1391 122.315 19.3194C121.965 19.4997 121.642 19.7501 121.349 20.0676C121.054 20.385 120.81 20.7844 120.616 21.2643C120.429 21.7382 120.334 22.315 120.334 22.9946V23.9767H120.336Z" fill="#323232"/>
<path d="M146.37 18.7203H140.991V29.7025H138.55V18.7203H133.16V16.2881H146.37V18.7203Z" fill="#323232"/>
<path d="M163.843 29.7012H161.384V21.7131L157.056 29.2988C156.95 29.4926 156.799 29.6386 156.606 29.7385C156.418 29.8383 156.214 29.8875 155.996 29.8875C155.777 29.8875 155.583 29.8383 155.395 29.7385C155.212 29.6386 155.07 29.4926 154.962 29.2988L150.615 21.7131V29.7012H148.174V17.3256C148.174 17.0454 148.256 16.795 148.419 16.5775C148.588 16.3599 148.807 16.2123 149.077 16.1378C149.209 16.1065 149.341 16.0976 149.471 16.1095C149.602 16.1155 149.728 16.1438 149.846 16.1944C149.97 16.2377 150.084 16.3032 150.183 16.3912C150.283 16.4716 150.368 16.5715 150.437 16.6907L155.996 26.3167L161.555 16.6907C161.698 16.4538 161.896 16.2854 162.145 16.1855C162.403 16.0856 162.668 16.0707 162.944 16.1393C163.208 16.2138 163.423 16.3614 163.592 16.5789C163.761 16.7965 163.845 17.0469 163.845 17.3271V29.7027L163.843 29.7012Z" fill="#323232"/>
<path d="M180.819 24.276C180.819 25.0927 180.679 25.8438 180.396 26.5308C180.115 27.2164 179.723 27.8095 179.223 28.3088C178.722 28.8081 178.128 29.197 177.438 29.4787C176.756 29.7529 176.011 29.89 175.205 29.89H171.899C171.091 29.89 170.343 29.7529 169.655 29.4787C168.966 29.1985 168.372 28.8081 167.871 28.3088C167.371 27.8095 166.976 27.2179 166.687 26.5308C166.406 25.8453 166.266 25.0942 166.266 24.276V21.7126C166.266 20.9019 166.406 20.1538 166.687 19.4682C166.975 18.7767 167.37 18.1836 167.871 17.6903C168.372 17.191 168.966 16.802 169.655 16.5204C170.343 16.2402 171.091 16.1001 171.899 16.1001H175.205C176.013 16.1001 176.756 16.2402 177.438 16.5204C178.128 16.8005 178.722 17.191 179.223 17.6903C179.724 18.1836 180.115 18.7752 180.396 19.4682C180.679 20.1538 180.819 20.9019 180.819 21.7126V24.276ZM178.378 21.7126C178.378 21.2328 178.3 20.7991 178.143 20.4131C177.993 20.0196 177.777 19.6873 177.495 19.4116C177.22 19.1314 176.885 18.9153 176.492 18.7663C176.103 18.6098 175.675 18.5323 175.205 18.5323H171.899C171.423 18.5323 170.988 18.6098 170.595 18.7663C170.206 18.9153 169.871 19.1314 169.589 19.4116C169.308 19.6858 169.09 20.0196 168.933 20.4131C168.783 20.7991 168.708 21.2328 168.708 21.7126V24.276C168.708 24.7559 168.783 25.1925 168.933 25.586C169.09 25.972 169.308 26.3058 169.589 26.5875C169.871 26.8617 170.206 27.0763 170.595 27.2328C170.988 27.3818 171.423 27.4578 171.899 27.4578H175.186C175.661 27.4578 176.092 27.3833 176.481 27.2328C176.874 27.0763 177.213 26.8617 177.495 26.5875C177.777 26.3073 177.993 25.9735 178.143 25.586C178.299 25.1925 178.378 24.7559 178.378 24.276V21.7126Z" fill="#323232"/>
<path d="M195.287 29.701H186.481C186.255 29.701 186.011 29.6757 185.749 29.6265C185.492 29.5698 185.236 29.4864 184.979 29.3746C184.728 29.2628 184.487 29.1183 184.255 28.9439C184.025 28.7636 183.817 28.5475 183.636 28.2986C183.461 28.0423 183.32 27.7502 183.214 27.4193C183.108 27.0825 183.054 26.7054 183.054 26.2882V19.7024C183.054 19.4774 183.079 19.2375 183.129 18.9826C183.184 18.7203 183.269 18.4655 183.381 18.2151C183.493 17.9588 183.642 17.7158 183.823 17.4848C184.005 17.2538 184.221 17.0512 184.47 16.8768C184.728 16.6965 185.021 16.5519 185.353 16.4461C185.685 16.3403 186.06 16.2866 186.479 16.2866H195.286V18.7188H186.479C186.161 18.7188 185.917 18.8038 185.748 18.9707C185.579 19.1391 185.494 19.388 185.494 19.7188V26.2852C185.494 26.5967 185.579 26.8396 185.748 27.0154C185.923 27.1838 186.167 27.2673 186.479 27.2673H195.286V29.6995H195.287V29.701Z" fill="#323232"/>
<path d="M229.51 24.2196H221.802V21.7695H229.51V24.2196ZM230.608 29.701H221.802C221.464 29.701 221.094 29.6414 220.693 29.5236C220.293 29.4044 219.92 29.2121 219.576 28.9439C219.238 28.6697 218.954 28.3165 218.722 27.8873C218.496 27.4506 218.384 26.9171 218.384 26.2881V17.5146C218.384 17.3462 218.415 17.1867 218.478 17.0377C218.541 16.8887 218.626 16.7575 218.732 16.6443C218.845 16.5325 218.976 16.4446 219.126 16.382C219.275 16.3194 219.438 16.2881 219.613 16.2881H230.608V18.7203H220.825V26.2881C220.825 26.6056 220.91 26.85 221.078 27.0184C221.247 27.1868 221.494 27.2703 221.82 27.2703H230.608V29.7025V29.701Z" fill="#323232"/>
<path d="M246.386 20.7963C246.386 21.3507 246.317 21.847 246.179 22.2837C246.042 22.7203 245.853 23.1063 245.615 23.4431C245.383 23.774 245.114 24.0571 244.808 24.2941C244.501 24.5311 244.179 24.7278 243.841 24.8828C243.509 25.0318 243.171 25.1421 242.827 25.2107C242.489 25.2792 242.17 25.3135 241.87 25.3135H236.35V22.8813H241.87C242.176 22.856 242.455 22.7934 242.706 22.6935C242.963 22.5877 243.182 22.4476 243.364 22.2732C243.552 22.0989 243.695 21.8902 243.796 21.6458C243.897 21.3969 243.946 21.1123 243.946 20.7948V19.2613C243.946 19.1242 243.926 19.0214 243.889 18.9528C243.858 18.8783 243.814 18.8246 243.757 18.7933C243.708 18.7561 243.651 18.7337 243.588 18.7278C243.533 18.7218 243.479 18.7188 243.428 18.7188H235.373V29.701H232.932V17.5132C232.932 17.3447 232.963 17.1853 233.026 17.0363C233.087 16.8872 233.172 16.7561 233.279 16.6428C233.391 16.531 233.523 16.4431 233.672 16.3805C233.822 16.3179 233.985 16.2866 234.16 16.2866H243.427C243.971 16.2866 244.432 16.3865 244.808 16.5862C245.183 16.7799 245.487 17.0258 245.719 17.3254C245.956 17.619 246.125 17.9364 246.226 18.2792C246.332 18.622 246.386 18.9439 246.386 19.2434V20.7963Z" fill="#323232"/>
<path d="M216.333 20.7963C216.333 21.3507 216.264 21.847 216.126 22.2837C215.989 22.7203 215.8 23.1063 215.562 23.4431C215.33 23.774 215.061 24.0571 214.754 24.2941C214.448 24.5311 214.126 24.7278 213.788 24.8828C213.456 25.0318 213.118 25.1421 212.774 25.2107C212.436 25.2792 212.117 25.3135 211.817 25.3135H208.736V22.8813H211.817C212.123 22.856 212.401 22.7934 212.653 22.6935C212.91 22.5877 213.128 22.4476 213.311 22.2732C213.499 22.0989 213.642 21.8902 213.743 21.6458C213.843 21.3969 213.893 21.1123 213.893 20.7948V19.2613C213.893 19.1242 213.873 19.0214 213.836 18.9528C213.805 18.8783 213.761 18.8246 213.704 18.7933C213.655 18.7561 213.598 18.7337 213.535 18.7278C213.48 18.7218 213.426 18.7188 213.375 18.7188H207.76V29.701H205.318V17.5132C205.318 17.3447 205.35 17.1853 205.413 17.0363C205.474 16.8872 205.559 16.7561 205.665 16.6428C205.778 16.531 205.909 16.4431 206.059 16.3805C206.208 16.3179 206.371 16.2866 206.546 16.2866H213.372C213.917 16.2866 214.378 16.3865 214.753 16.5862C215.128 16.7799 215.432 17.0258 215.664 17.3254C215.902 17.619 216.071 17.9364 216.171 18.2792C216.277 18.622 216.331 18.9439 216.331 19.2434V20.7963H216.333Z" fill="#323232"/>
<path d="M196.747 19.2434C196.747 18.9439 196.8 18.6234 196.907 18.2792C197.007 17.9364 197.176 17.6175 197.414 17.3254C197.646 17.0258 197.949 16.7799 198.325 16.5862C198.7 16.3865 199.159 16.2866 199.705 16.2866H206.531C206.706 16.2866 206.869 16.3179 207.019 16.3805C207.168 16.4431 207.3 16.5295 207.412 16.6428C207.519 16.7546 207.604 16.8857 207.665 17.0363C207.728 17.1853 207.759 17.3447 207.759 17.5132V29.701H205.318V18.7188H199.702C199.652 18.7188 199.599 18.7218 199.542 18.7278C199.48 18.7337 199.423 18.7561 199.373 18.7933C199.317 18.8246 199.273 18.8783 199.242 18.9528C199.204 19.0214 199.185 19.1242 199.185 19.2613V20.7948C199.185 21.1123 199.234 21.3969 199.335 21.6458C199.435 21.8887 199.578 22.0974 199.767 22.2732C199.949 22.4476 200.168 22.5877 200.425 22.6935C200.676 22.7934 200.953 22.856 201.261 22.8813H204.341V25.3135H201.261C200.961 25.3135 200.642 25.2792 200.304 25.2107C199.96 25.1421 199.622 25.0333 199.29 24.8828C198.952 24.7263 198.63 24.5311 198.323 24.2941C198.017 24.0571 197.747 23.774 197.515 23.4431C197.278 23.1063 197.089 22.7203 196.952 22.2837C196.814 21.847 196.745 21.3507 196.745 20.7963V19.2434H196.747Z" fill="#323232"/>
<path d="M262.244 25.1928C262.244 24.6384 262.175 24.1421 262.037 23.7054C261.9 23.2688 261.713 22.8828 261.475 22.546C261.243 22.2151 260.974 21.932 260.667 21.695C260.36 21.458 260.037 21.2613 259.699 21.1063C259.369 20.9573 259.029 20.847 258.685 20.7784C258.347 20.7099 258.028 20.6756 257.728 20.6756H252.208V23.1078H257.728C258.034 23.1332 258.312 23.1957 258.564 23.2941C258.821 23.3999 259.039 23.54 259.22 23.7144C259.409 23.8887 259.553 24.0974 259.653 24.3418C259.753 24.5907 259.802 24.8753 259.802 25.1928V26.7263C259.802 26.8634 259.783 26.9663 259.746 27.0348C259.714 27.1093 259.671 27.163 259.614 27.1943C259.565 27.2315 259.508 27.2539 259.445 27.2598C259.388 27.2658 259.336 27.2688 259.285 27.2688H251.229V16.2866H248.788V28.4745C248.788 28.6429 248.82 28.8023 248.882 28.9514C248.945 29.1004 249.03 29.2315 249.137 29.3448C249.249 29.4566 249.38 29.5445 249.53 29.6071C249.68 29.6697 249.843 29.701 250.018 29.701H259.285C259.829 29.701 260.29 29.6011 260.665 29.4014C261.041 29.2077 261.345 28.9618 261.576 28.6622C261.814 28.3686 261.983 28.0512 262.084 27.7084C262.19 27.3657 262.244 27.0438 262.244 26.7457V25.1928Z" fill="#323232"/>
<path d="M64.0645 29.701V27.306L65.3749 27.2688V22.9946C65.3749 22.0154 65.5439 21.1138 65.882 20.2911C66.22 19.4685 66.6897 18.7606 67.2896 18.1674C67.8909 17.5743 68.6015 17.1137 69.4212 16.7829C70.241 16.452 71.1355 16.2866 72.1064 16.2866H77.6083C77.7773 16.2866 77.9374 16.3179 78.087 16.3805C78.2366 16.4431 78.3682 16.5295 78.4819 16.6428C78.5956 16.7561 78.6823 16.8857 78.7452 17.0363C78.808 17.1853 78.8394 17.3447 78.8394 17.5132V27.3075H80.4101V29.7025H64.0645V29.701ZM67.8161 27.2703H76.3981V18.7203H72.1079C72.0331 18.7203 71.873 18.7322 71.6292 18.7576C71.3913 18.7769 71.1131 18.8291 70.793 18.917C70.4803 19.005 70.1482 19.1391 69.7982 19.3194C69.4482 19.4997 69.1251 19.7501 68.8319 20.0676C68.5372 20.385 68.2933 20.7844 68.0989 21.2643C67.9104 21.7382 67.8176 22.315 67.8176 22.9946V27.2688L67.8161 27.2703Z" fill="#323232"/>
<path d="M264.334 16.2915H266.738V29.7014H264.334V16.2915Z" fill="#323232"/>
<path d="M66.6741 41.7516C65.0167 41.7516 64.1895 41.1227 64.1895 39.8634V37.844C64.1895 36.5772 65.0182 35.9438 66.6741 35.9438H69.9935C70.3256 35.9438 70.4917 36.1078 70.4917 36.4342C70.4917 36.7605 70.3256 36.9245 69.9935 36.9245H66.6352C65.6883 36.9245 65.2156 37.227 65.2156 37.8321V39.8753C65.2156 40.4804 65.6883 40.7829 66.6352 40.7829H69.9935C70.3256 40.7829 70.4917 40.9424 70.4917 41.2613C70.4917 41.5802 70.3256 41.7516 69.9935 41.7516H66.6741Z" fill="#323232"/>
<path d="M74.0813 36.9245H72.2772C71.9511 36.9245 71.7881 36.762 71.7881 36.4342C71.7881 36.1063 71.9511 35.9438 72.2772 35.9438H76.9115C77.2376 35.9438 77.4007 36.1078 77.4007 36.4342C77.4007 36.7605 77.2376 36.9245 76.9115 36.9245H75.1075V41.3105C75.1075 41.6458 74.9384 41.8127 74.5989 41.8127C74.2593 41.8127 74.0813 41.6458 74.0813 41.3105V36.9245Z" fill="#323232"/>
<path d="M81.22 41.7516C79.5626 41.7516 78.7354 41.1227 78.7354 39.8634V37.844C78.7354 36.5772 79.5641 35.9438 81.22 35.9438H83.072C84.7294 35.9438 85.5566 36.5772 85.5566 37.844V39.8634C85.5566 41.1227 84.7279 41.7516 83.072 41.7516H81.22ZM84.5305 37.8321C84.5305 37.227 84.0533 36.9245 83.1004 36.9245H81.1811C80.2342 36.9245 79.7615 37.227 79.7615 37.8321V39.8753C79.7615 40.4804 80.2342 40.7829 81.1811 40.7829H83.1004C84.0533 40.7829 84.5305 40.4804 84.5305 39.8753V37.8321Z" fill="#323232"/>
<path d="M98.5802 41.7517C96.9302 41.7517 96.1045 41.1228 96.1045 39.8635V36.3865C96.1045 36.0512 96.2735 35.8843 96.6131 35.8843C96.9527 35.8843 97.1217 36.0512 97.1217 36.3865V39.8754C97.1217 40.4805 97.572 40.783 98.474 40.783H99.9998V36.385C99.9998 36.0497 100.166 35.8828 100.498 35.8828C100.83 35.8828 100.998 36.0497 100.998 36.385V40.783H102.475C103.384 40.783 103.838 40.4805 103.838 39.8754V36.3865C103.838 36.0512 104.007 35.8843 104.347 35.8843C104.686 35.8843 104.855 36.0512 104.855 36.3865V39.8635C104.855 41.1228 104.03 41.7517 102.38 41.7517H98.5802Z" fill="#323232"/>
<path d="M112.504 37.3433L107.716 41.5728C107.626 41.6533 107.547 41.7129 107.477 41.7517C107.406 41.7919 107.303 41.8113 107.17 41.8113C106.869 41.8113 106.72 41.6444 106.72 41.309V36.3746C106.72 36.0482 106.886 35.8843 107.218 35.8843C107.55 35.8843 107.735 36.0482 107.735 36.3746V40.3418L112.533 36.1123C112.615 36.0408 112.694 35.9856 112.768 35.9454C112.841 35.9051 112.926 35.8858 113.022 35.8858C113.354 35.8858 113.52 36.0527 113.52 36.388V41.3105C113.52 41.6459 113.351 41.8128 113.011 41.8128C112.672 41.8128 112.503 41.6459 112.503 41.3105V37.3433H112.504Z" fill="#323232"/>
<path d="M121.149 39.3393H116.38V41.311C116.38 41.6463 116.211 41.8132 115.872 41.8132C115.532 41.8132 115.363 41.6463 115.363 41.311V36.3885C115.363 36.0531 115.532 35.8862 115.872 35.8862C116.211 35.8862 116.38 36.0531 116.38 36.3885V38.3721H121.149V36.3885C121.149 36.0531 121.318 35.8862 121.658 35.8862C121.998 35.8862 122.167 36.0531 122.167 36.3885V41.311C122.167 41.6463 121.998 41.8132 121.658 41.8132C121.318 41.8132 121.149 41.6463 121.149 41.311V39.3393Z" fill="#323232"/>
<path d="M126.446 41.7516C124.788 41.7516 123.961 41.1227 123.961 39.8634V37.844C123.961 36.5772 124.79 35.9438 126.446 35.9438H128.298C129.955 35.9438 130.782 36.5772 130.782 37.844V39.8634C130.782 41.1227 129.953 41.7516 128.298 41.7516H126.446ZM129.756 37.8321C129.756 37.227 129.279 36.9245 128.326 36.9245H126.407C125.46 36.9245 124.987 37.227 124.987 37.8321V39.8753C124.987 40.4804 125.46 40.7829 126.407 40.7829H128.326C129.279 40.7829 129.756 40.4804 129.756 39.8753V37.8321Z" fill="#323232"/>
<path d="M139.522 37.8798L137.037 41.5609C136.987 41.6414 136.924 41.7025 136.85 41.7457C136.777 41.7889 136.675 41.8113 136.548 41.8113C136.421 41.8113 136.321 41.7889 136.251 41.7457C136.18 41.7025 136.119 41.6369 136.068 41.549L133.592 37.8917V41.3448C133.592 41.6548 133.423 41.8113 133.084 41.8113C132.744 41.8113 132.575 41.6563 132.575 41.3448V36.3865C132.575 36.0512 132.755 35.8843 133.112 35.8843C133.253 35.8843 133.362 35.9156 133.438 35.9797C133.515 36.0437 133.585 36.1197 133.649 36.2062L136.547 40.4834L139.455 36.2062C139.512 36.1108 139.58 36.0333 139.661 35.9737C139.741 35.9141 139.851 35.8843 139.992 35.8843C140.177 35.8843 140.315 35.9275 140.405 36.0154C140.494 36.1034 140.539 36.2271 140.539 36.3865V41.3448C140.539 41.6548 140.366 41.8113 140.022 41.8113C139.678 41.8113 139.522 41.6563 139.522 41.3448V37.8798Z" fill="#323232"/>
<path d="M144.8 41.7516C143.143 41.7516 142.315 41.1227 142.315 39.8634V37.844C142.315 36.5772 143.144 35.9438 144.8 35.9438H146.652C148.309 35.9438 149.137 36.5772 149.137 37.844V39.8634C149.137 41.1227 148.308 41.7516 146.652 41.7516H144.8ZM148.111 37.8321C148.111 37.227 147.633 36.9245 146.68 36.9245H144.761C143.814 36.9245 143.342 37.227 143.342 37.8321V39.8753C143.342 40.4804 143.814 40.7829 144.761 40.7829H146.68C147.633 40.7829 148.111 40.4804 148.111 39.8753V37.8321Z" fill="#323232"/>
<path d="M156.719 39.3393H151.95V41.311C151.95 41.6463 151.781 41.8132 151.441 41.8132C151.102 41.8132 150.933 41.6463 150.933 41.311V36.3885C150.933 36.0531 151.102 35.8862 151.441 35.8862C151.781 35.8862 151.95 36.0531 151.95 36.3885V38.3721H156.719V36.3885C156.719 36.0531 156.888 35.8862 157.227 35.8862C157.567 35.8862 157.736 36.0531 157.736 36.3885V41.311C157.736 41.6463 157.567 41.8132 157.227 41.8132C156.888 41.8132 156.719 41.6463 156.719 41.311V39.3393Z" fill="#323232"/>
<path d="M161.534 36.9245H159.73C159.404 36.9245 159.241 36.762 159.241 36.4342C159.241 36.1063 159.404 35.9438 159.73 35.9438H164.365C164.691 35.9438 164.854 36.1078 164.854 36.4342C164.854 36.7605 164.691 36.9245 164.365 36.9245H162.561V41.3105C162.561 41.6458 162.392 41.8127 162.052 41.8127C161.712 41.8127 161.534 41.6458 161.534 41.3105V36.9245Z" fill="#323232"/>
<path d="M166.868 41.7521C165.5 41.7521 164.814 41.223 164.814 40.1634V39.4823C164.814 38.4302 165.5 37.9056 166.868 37.9056H170.946V37.7267C170.946 37.1694 170.553 36.8907 169.766 36.8907H168.414C168.093 36.8907 167.933 36.7357 167.933 36.4242C167.933 36.1127 168.093 35.9458 168.414 35.9458H169.766C171.218 35.9458 171.944 36.539 171.944 37.7267V40.068C171.944 41.1917 171.247 41.7536 169.853 41.7536H166.868V41.7521ZM169.794 40.8206C170.562 40.8206 170.946 40.5583 170.946 40.0323V38.7297H166.945C166.197 38.7297 165.823 38.9726 165.823 39.4585V40.08C165.823 40.5747 166.197 40.8206 166.945 40.8206H169.794Z" fill="#323232"/>
<path d="M177.682 39.5177L174.515 41.6444C174.432 41.701 174.357 41.7427 174.29 41.7696C174.222 41.7979 174.137 41.8113 174.035 41.8113C173.889 41.8113 173.772 41.7696 173.685 41.6861C173.598 41.6026 173.555 41.4804 173.555 41.321C173.555 41.2256 173.576 41.1377 173.618 41.0587C173.66 40.9797 173.732 40.9081 173.833 40.8441L177.115 38.777L173.844 36.8649C173.735 36.8008 173.657 36.7323 173.609 36.6563C173.561 36.5803 173.537 36.4864 173.537 36.3761C173.537 36.2256 173.579 36.1048 173.661 36.0169C173.745 35.929 173.86 35.8858 174.007 35.8858C174.091 35.8858 174.17 35.8977 174.246 35.9215C174.322 35.9454 174.393 35.9782 174.457 36.0169L177.681 38.0363V36.3746C177.681 36.0482 177.844 35.8843 178.17 35.8843C178.496 35.8843 178.659 36.0482 178.659 36.3746V38.0482L181.883 36.0288C181.947 35.9886 182.017 35.9558 182.094 35.9275C182.17 35.8992 182.254 35.8858 182.343 35.8858C182.484 35.8858 182.596 35.929 182.68 36.0169C182.762 36.1048 182.804 36.2241 182.804 36.3761C182.804 36.4879 182.78 36.5817 182.732 36.6563C182.684 36.7308 182.607 36.8023 182.498 36.8649L179.226 38.777L182.517 40.8441C182.696 40.9558 182.786 41.1153 182.786 41.3225C182.786 41.4819 182.743 41.6026 182.656 41.6876C182.569 41.771 182.453 41.8128 182.306 41.8128C182.21 41.8128 182.125 41.7994 182.052 41.771C181.978 41.7427 181.904 41.701 181.826 41.6459L178.659 39.5192V41.312C178.659 41.6473 178.496 41.8143 178.17 41.8143C177.844 41.8143 177.681 41.6473 177.681 41.312V39.5192L177.682 39.5177Z" fill="#323232"/>
<path d="M194.994 41.7521C193.626 41.7521 192.94 41.223 192.94 40.1634V39.4823C192.94 38.4302 193.624 37.9056 194.994 37.9056H199.072V37.7267C199.072 37.1694 198.679 36.8907 197.892 36.8907H196.54C196.219 36.8907 196.059 36.7357 196.059 36.4242C196.059 36.1127 196.219 35.9458 196.54 35.9458H197.892C199.344 35.9458 200.07 36.539 200.07 37.7267V40.068C200.07 41.1917 199.373 41.7536 197.979 41.7536H194.994V41.7521ZM197.922 40.8206C198.689 40.8206 199.074 40.5583 199.074 40.0323V38.7297H195.072C194.324 38.7297 193.949 38.9726 193.949 39.4585V40.08C193.949 40.5747 194.323 40.8206 195.072 40.8206H197.922Z" fill="#323232"/>
<path d="M208.611 40.4014C208.611 41.3016 207.83 41.7516 206.27 41.7516H202.327C202.026 41.7516 201.875 41.616 201.875 41.3448V36.3507C201.875 36.0795 202.025 35.9438 202.327 35.9438H206.078C207.709 35.9438 208.526 36.4222 208.526 37.3775V37.8082C208.526 38.23 208.289 38.5564 207.815 38.7874C208.346 39.0258 208.611 39.3686 208.611 39.8157V40.4014ZM207.518 37.4386C207.518 37.0169 207.043 36.8053 206.098 36.8053H202.97C202.919 36.8053 202.894 36.8291 202.894 36.8768V38.382H206.137C207.058 38.382 207.519 38.1912 207.519 37.8082V37.4371H207.518V37.4386ZM207.613 39.7919C207.613 39.4014 207.158 39.2062 206.25 39.2062H202.892V40.8187C202.892 40.8664 202.918 40.8902 202.969 40.8902H206.25C207.158 40.8902 207.613 40.6905 207.613 40.2926V39.7904V39.7919Z" fill="#323232"/>
<path d="M212.065 36.9245H210.261C209.935 36.9245 209.771 36.762 209.771 36.4342C209.771 36.1063 209.935 35.9438 210.261 35.9438H214.895C215.221 35.9438 215.384 36.1078 215.384 36.4342C215.384 36.7605 215.221 36.9245 214.895 36.9245H213.091V41.3105C213.091 41.6458 212.922 41.8127 212.582 41.8127C212.243 41.8127 212.065 41.6458 212.065 41.3105V36.9245Z" fill="#323232"/>
<path d="M219.204 41.7516C217.547 41.7516 216.72 41.1227 216.72 39.8634V37.844C216.72 36.5772 217.548 35.9438 219.204 35.9438H221.056C222.712 35.9438 223.541 36.5772 223.541 37.844V39.8634C223.541 41.1227 222.712 41.7516 221.056 41.7516H219.204ZM222.515 37.8321C222.515 37.227 222.038 36.9245 221.085 36.9245H219.166C218.219 36.9245 217.746 37.227 217.746 37.8321V39.8753C217.746 40.4804 218.219 40.7829 219.166 40.7829H221.085C222.038 40.7829 222.515 40.4804 222.515 39.8753V37.8321Z" fill="#323232"/>
<path d="M232.282 37.8798L229.797 41.5609C229.746 41.6414 229.684 41.7025 229.61 41.7457C229.537 41.7889 229.435 41.8113 229.308 41.8113C229.181 41.8113 229.081 41.7889 229.01 41.7457C228.94 41.7025 228.879 41.6369 228.828 41.549L226.352 37.8917V41.3448C226.352 41.6548 226.183 41.8113 225.844 41.8113C225.504 41.8113 225.335 41.6563 225.335 41.3448V36.3865C225.335 36.0512 225.514 35.8843 225.872 35.8843C226.013 35.8843 226.122 35.9156 226.198 35.9797C226.274 36.0437 226.345 36.1197 226.409 36.2062L229.307 40.4834L232.215 36.2062C232.271 36.1108 232.34 36.0333 232.421 35.9737C232.502 35.9141 232.611 35.8843 232.752 35.8843C232.937 35.8843 233.075 35.9275 233.164 36.0154C233.254 36.1034 233.299 36.2271 233.299 36.3865V41.3448C233.299 41.6548 233.127 41.8113 232.782 41.8113C232.436 41.8113 232.282 41.6563 232.282 41.3448V37.8798Z" fill="#323232"/>
<path d="M237.56 41.7516C235.902 41.7516 235.075 41.1227 235.075 39.8634V37.844C235.075 36.5772 235.904 35.9438 237.56 35.9438H239.412C241.069 35.9438 241.896 36.5772 241.896 37.844V39.8634C241.896 41.1227 241.068 41.7516 239.412 41.7516H237.56ZM240.87 37.8321C240.87 37.227 240.393 36.9245 239.44 36.9245H237.521C236.574 36.9245 236.101 37.227 236.101 37.8321V39.8753C236.101 40.4804 236.574 40.7829 237.521 40.7829H239.44C240.393 40.7829 240.87 40.4804 240.87 39.8753V37.8321Z" fill="#323232"/>
<path d="M249.478 37.3434L244.689 41.5729C244.599 41.6534 244.52 41.713 244.45 41.7518C244.38 41.792 244.276 41.8114 244.143 41.8114C243.842 41.8114 243.691 41.6445 243.691 41.3092V36.3747C243.691 36.0483 243.857 35.8844 244.191 35.8844C244.525 35.8844 244.709 36.0483 244.709 36.3747V40.3419L249.506 36.1124C249.588 36.0409 249.667 35.9857 249.741 35.9455C249.814 35.9053 249.899 35.8859 249.995 35.8859C250.327 35.8859 250.495 36.0528 250.495 36.3881V41.3106C250.495 41.646 250.326 41.8129 249.986 41.8129C249.647 41.8129 249.478 41.646 249.478 41.3106V37.3434ZM249.343 33.3523C249.343 33.6385 249.295 33.9127 249.199 34.1705C249.104 34.4298 248.96 34.6579 248.767 34.8576C248.576 35.0573 248.338 35.2137 248.056 35.33C247.775 35.4462 247.452 35.5029 247.087 35.5029C246.722 35.5029 246.4 35.4447 246.122 35.33C245.844 35.2152 245.609 35.0573 245.418 34.8576C245.226 34.6579 245.081 34.4298 244.985 34.1705C244.89 33.9112 244.842 33.6385 244.842 33.3523C244.842 33.169 244.87 33.0394 244.929 32.9634C244.985 32.8874 245.098 32.8501 245.264 32.8501C245.418 32.8501 245.524 32.8814 245.585 32.9455C245.647 33.0096 245.693 33.0975 245.724 33.2078C245.75 33.3747 245.784 33.5446 245.825 33.716C245.866 33.8874 245.935 34.0453 246.031 34.1884C246.127 34.3315 246.258 34.4492 246.424 34.5416C246.59 34.634 246.812 34.6787 247.087 34.6787C247.362 34.6787 247.582 34.6325 247.75 34.5416C247.916 34.4507 248.047 34.333 248.143 34.1884C248.239 34.0453 248.308 33.8874 248.35 33.716C248.392 33.5446 248.424 33.3747 248.45 33.2078C248.481 33.096 248.529 33.0081 248.593 32.9455C248.658 32.8814 248.765 32.8501 248.92 32.8501C249.074 32.8501 249.189 32.8874 249.25 32.9634C249.311 33.0394 249.341 33.169 249.341 33.3523H249.343Z" fill="#323232"/>
<path d="M253.353 39.4582V41.3107C253.353 41.646 253.184 41.8129 252.845 41.8129C252.505 41.8129 252.336 41.646 252.336 41.3107V36.3762C252.336 36.0498 252.505 35.8859 252.845 35.8859C253.184 35.8859 253.353 36.0498 253.353 36.3762V38.0975L257.441 36.0424C257.537 35.9947 257.618 35.9545 257.681 35.9232C257.745 35.8919 257.815 35.88 257.892 35.8874C258.052 35.8874 258.176 35.9291 258.266 36.0126C258.355 36.096 258.4 36.2183 258.4 36.3777C258.4 36.4895 258.376 36.5804 258.328 36.6519C258.281 36.7235 258.195 36.792 258.074 36.8546L254.083 38.7786L258.094 40.8576C258.222 40.9292 258.305 41.0052 258.343 41.0842C258.382 41.1646 258.4 41.2436 258.4 41.3226C258.4 41.649 258.221 41.8129 257.863 41.8129C257.779 41.8129 257.709 41.7995 257.652 41.7712C257.595 41.7429 257.509 41.6982 257.394 41.6341L253.353 39.4597V39.4582Z" fill="#323232"/>
<path d="M261.826 41.7521C260.458 41.7521 259.772 41.223 259.772 40.1634V39.4823C259.772 38.4302 260.456 37.9056 261.826 37.9056H265.904V37.7267C265.904 37.1694 265.511 36.8907 264.724 36.8907H263.372C263.051 36.8907 262.891 36.7357 262.891 36.4242C262.891 36.1127 263.051 35.9458 263.372 35.9458H264.724C266.176 35.9458 266.902 36.539 266.902 37.7267V40.068C266.902 41.1917 266.205 41.7536 264.811 41.7536H261.826V41.7521ZM264.752 40.8206C265.52 40.8206 265.904 40.5583 265.904 40.0323V38.7297H261.903C261.155 38.7297 260.779 38.9726 260.779 39.4585V40.08C260.779 40.5747 261.153 40.8206 261.903 40.8206H264.752Z" fill="#323232"/>
</svg>
