<svg width="330" height="70" viewBox="0 0 330 70" fill="none" xmlns="http://www.w3.org/2000/svg">
<path d="M35.4069 60.2209C49.3881 60.2209 60.7221 48.9292 60.7221 35.0001C60.7221 21.071 49.3881 9.7793 35.4069 9.7793C21.4258 9.7793 10.0918 21.071 10.0918 35.0001C10.0918 48.9292 21.4258 60.2209 35.4069 60.2209Z" fill="white"/>
<path d="M65.9555 29.028C65.3534 29.028 64.8109 28.6659 64.5813 28.1129L62.7586 23.7316L60.925 19.318C60.6954 18.7631 60.822 18.1254 61.2469 17.7021C61.8274 17.1238 61.8274 16.1834 61.2469 15.6051L54.8747 9.2567C54.2943 8.67842 53.3504 8.67842 52.77 9.2567C52.345 9.68005 51.7049 9.80795 51.148 9.57736L46.7178 7.75066L42.3202 5.93476C41.7633 5.70597 41.4017 5.16372 41.4017 4.56563C41.4017 3.74595 40.7344 3.08301 39.9135 3.08301H30.9013C30.0786 3.08301 29.4131 3.74776 29.4131 4.56563C29.4131 5.16553 29.0497 5.70597 28.4946 5.93476L24.097 7.75066L19.6668 9.57736C19.1099 9.80615 18.4698 9.68005 18.0448 9.2567C17.4644 8.67842 16.5205 8.67842 15.9401 9.2567L9.56787 15.6051C8.98743 16.1834 8.98743 17.1238 9.56787 17.7021C9.99281 18.1254 10.1212 18.7631 9.88974 19.318L8.05258 23.7389L6.23351 28.1129C6.00387 28.6677 5.45959 29.028 4.85926 29.028C4.03652 29.028 3.37109 29.6928 3.37109 30.5106V39.4892C3.37109 40.3089 4.03833 40.9719 4.85926 40.9719C5.4614 40.9719 6.00387 41.334 6.23351 41.887L8.0562 46.2682L9.88974 50.6819C10.1194 51.2367 9.99281 51.8745 9.56787 52.2978C8.98743 52.8761 8.98743 53.8165 9.56787 54.3947L15.9401 60.7432C16.5205 61.3215 17.4644 61.3215 18.0448 60.7432C18.4698 60.3198 19.1099 60.1919 19.6668 60.4225L24.097 62.2492L28.4946 64.0651C29.0515 64.2939 29.4131 64.8362 29.4131 65.4342C29.4131 66.2539 30.0804 66.9169 30.9013 66.9169H39.9135C40.7362 66.9169 41.4017 66.2521 41.4017 65.4342C41.4017 64.8344 41.7651 64.2939 42.3202 64.0651L46.7178 62.2492L51.148 60.4225C51.7049 60.1937 52.345 60.3198 52.77 60.7432C53.3504 61.3215 54.2943 61.3215 54.8747 60.7432L61.2469 54.3947C61.8274 53.8165 61.8274 52.8761 61.2469 52.2978C60.822 51.8745 60.6936 51.2367 60.925 50.6819L62.7622 46.261L64.5813 41.887C64.8109 41.3322 65.3552 40.9719 65.9555 40.9719C66.7783 40.9719 67.4437 40.3071 67.4437 39.4892V34.9999V30.5106C67.4437 29.691 66.7765 29.028 65.9555 29.028ZM35.4074 60.2207C21.4262 60.2207 10.0923 48.929 10.0923 34.9999C10.0923 21.0709 21.4262 9.77913 35.4074 9.77913C49.3886 9.77913 60.7225 21.0709 60.7225 34.9999C60.7225 48.929 49.3886 60.2207 35.4074 60.2207Z" fill="#323232"/>
<path d="M35.4069 9.7793C21.4257 9.7793 10.0918 21.071 10.0918 35.0001H12.1767L14.2272 35.0019C14.2272 29.3669 16.4296 24.0669 20.4294 20.082C24.4292 16.0971 29.7472 13.9029 35.4051 13.9029C41.063 13.9029 46.381 16.0971 50.3808 20.082C54.3806 24.0669 56.583 29.365 56.583 35.0019H58.6336L60.7221 35.0001C60.7221 21.071 49.3881 9.7793 35.4069 9.7793Z" fill="#FE4F02"/>
<path d="M30.4931 33.1263V30.6637L30.4985 30.6331C30.5166 30.5106 30.5437 30.3809 30.5817 30.2349C30.6233 30.0764 30.6866 29.9341 30.7752 29.8026C30.8765 29.6639 31.0121 29.5522 31.1802 29.4747C31.3466 29.3954 31.5491 29.3576 31.8023 29.3576H38.0424C38.3625 29.3576 38.7133 29.3 39.0876 29.1865C39.4619 29.0676 39.8145 28.8802 40.1346 28.6298C40.451 28.3758 40.7204 28.0407 40.932 27.6336C41.1454 27.2283 41.2538 26.7202 41.2538 26.1203V24.989C41.2538 24.7782 41.2267 24.553 41.1725 24.3008C41.1255 24.0522 41.0459 23.8144 40.932 23.573C40.8289 23.337 40.6897 23.1047 40.5179 22.8849C40.3515 22.6705 40.1454 22.4795 39.9049 22.3138C39.6789 22.1481 39.4058 22.0129 39.0948 21.9121C38.7856 21.8112 38.4312 21.7607 38.0424 21.7607H29.7282V23.6631H38.0424C38.4493 23.6631 38.7693 23.782 38.9954 24.018C39.2196 24.2504 39.3317 24.5837 39.3317 25.0052V26.1185C39.3317 26.5275 39.2178 26.8535 38.9954 27.0859C38.7766 27.3147 38.4493 27.4318 38.0244 27.4318H31.8041C31.4099 27.4318 31.0518 27.4823 30.7426 27.5831C30.4334 27.6822 30.155 27.8191 29.9181 27.9885C29.6866 28.1506 29.4859 28.3398 29.3214 28.5505C29.1586 28.7667 29.0212 29.0009 28.9145 29.2441C28.8097 29.4855 28.7283 29.7341 28.674 29.9827C28.627 30.2277 28.6035 30.4619 28.6035 30.6799V35.0305H41.2575V33.1281H30.4931V33.1263Z" fill="#323232"/>
<path d="M28.6012 48.8717H26.7641V46.3947H19.6125V48.8717H17.7754V43.8258C17.7754 43.0889 17.902 42.4116 18.1569 41.7919C18.4119 41.1722 18.7645 40.6407 19.2165 40.194C19.6686 39.749 20.2038 39.4013 20.8204 39.1527C21.437 38.9041 22.1115 38.7798 22.8402 38.7798H27.6754C27.802 38.7798 27.9231 38.8032 28.0352 38.85C28.1474 38.8969 28.2468 38.9617 28.3318 39.0464C28.4168 39.1311 28.4819 39.2284 28.5289 39.3418C28.5759 39.4535 28.5994 39.5742 28.5994 39.7003V48.8699H28.6012V48.8717ZM19.6144 44.5644H26.7659V40.6101H22.842C22.786 40.6101 22.6648 40.6191 22.4822 40.6389C22.3032 40.6533 22.0934 40.693 21.8529 40.7578C21.6179 40.8245 21.3683 40.9236 21.1043 41.0605C20.8403 41.1956 20.598 41.3847 20.3774 41.6225C20.1568 41.8621 19.9724 42.1612 19.8259 42.5233C19.6849 42.88 19.6144 43.3141 19.6144 43.8258V44.5644ZM39.8954 40.6101H35.8486V48.8717H34.0114V40.6101H29.9574V38.7798H39.8954V40.6101Z" fill="#323232"/>
<path d="M53.0416 48.8716H51.1918V42.8618L47.9351 48.5689C47.8556 48.7149 47.7417 48.8247 47.5952 48.9004C47.4542 48.9761 47.3005 49.0121 47.1359 49.0121C46.9714 49.0121 46.8249 48.9743 46.6839 48.9004C46.5482 48.8247 46.4397 48.7149 46.3584 48.5689L43.0891 42.8618V48.8716H41.252V39.5615C41.252 39.3507 41.3134 39.1634 41.4364 38.9994C41.563 38.8355 41.7293 38.7256 41.93 38.668C42.0295 38.6445 42.1271 38.6373 42.2266 38.6463C42.326 38.6518 42.4201 38.6716 42.5087 38.7094C42.6027 38.7418 42.6877 38.7923 42.7636 38.8571C42.8396 38.9184 42.9029 38.994 42.9535 39.0823L47.1341 46.3225L51.3165 39.0823C51.425 38.904 51.5733 38.7779 51.7613 38.7022C51.9548 38.6265 52.1537 38.6157 52.3617 38.6662C52.5588 38.722 52.7215 38.8337 52.8499 38.9976C52.9765 39.1616 53.0398 39.3489 53.0398 39.5597V48.8698H53.0416V48.8716Z" fill="#323232"/>
<path d="M115.472 32.3408C115.472 32.7029 115.407 33.0902 115.279 33.5064C115.157 33.9207 114.953 34.3062 114.666 34.6593C114.385 35.0142 114.018 35.3115 113.564 35.5529C113.11 35.787 112.555 35.9041 111.895 35.9041H100.693C100.482 35.9041 100.285 35.8663 100.104 35.7907C99.9231 35.715 99.764 35.6141 99.6283 35.4862C99.5 35.3511 99.3969 35.1926 99.321 35.0106C99.2468 34.8305 99.207 34.6341 99.207 34.4233V21.1716C99.207 20.968 99.245 20.7753 99.321 20.5951C99.3969 20.415 99.5 20.2564 99.6283 20.1195C99.764 19.9844 99.9231 19.8781 100.104 19.8025C100.285 19.7268 100.482 19.689 100.693 19.689H110.566C110.93 19.689 111.32 19.7538 111.736 19.8817C112.152 20.0096 112.539 20.2168 112.893 20.5032C113.257 20.7825 113.555 21.1482 113.79 21.6003C114.033 22.0525 114.154 22.6074 114.154 23.2631V23.818C114.154 24.3386 114.067 24.8989 113.893 25.5024C113.72 26.0987 113.44 26.6625 113.053 27.1976C113.385 27.4011 113.696 27.6461 113.984 27.9326C114.28 28.219 114.537 28.5505 114.756 28.927C114.977 29.3035 115.148 29.7304 115.279 30.2042C115.407 30.6798 115.472 31.2023 115.472 31.7751V32.3408ZM112.523 31.7751C112.523 31.3914 112.463 31.0473 112.342 30.7465C112.221 30.4366 112.051 30.1736 111.832 29.9556C111.611 29.7377 111.347 29.5719 111.036 29.4584C110.725 29.3377 110.378 29.2783 109.993 29.2783H103.342V26.3166H108.666C109.051 26.3166 109.4 26.2608 109.709 26.1473C110.02 26.0266 110.284 25.8573 110.503 25.6393C110.722 25.4213 110.888 25.1601 111.002 24.8592C111.123 24.5494 111.183 24.2035 111.183 23.8198V23.2649C111.183 22.8434 110.979 22.6326 110.57 22.6326H102.16V32.9677H111.897C111.95 32.9677 112.015 32.9641 112.091 32.9569C112.167 32.9497 112.235 32.9263 112.295 32.8885C112.356 32.8506 112.409 32.7876 112.454 32.6957C112.499 32.6056 112.523 32.4813 112.523 32.3228V31.7751Z" fill="#323232"/>
<path d="M131.068 29.2765H121.75V26.3148H131.068V29.2765ZM132.397 35.9023H121.752C121.343 35.9023 120.897 35.8303 120.412 35.688C119.927 35.5438 119.477 35.3115 119.061 34.9872C118.653 34.6557 118.307 34.2288 118.029 33.7099C117.756 33.1821 117.62 32.5372 117.62 31.7769V21.1716C117.62 20.968 117.658 20.7753 117.734 20.5951C117.81 20.415 117.913 20.2564 118.041 20.1195C118.177 19.9844 118.336 19.8781 118.517 19.8025C118.698 19.7268 118.895 19.689 119.106 19.689H132.397V22.629H120.571V31.7769C120.571 32.1607 120.674 32.4561 120.877 32.6597C121.081 32.8632 121.379 32.9641 121.774 32.9641H132.397V35.9041V35.9023Z" fill="#323232"/>
<path d="M158.785 35.9027H155.834V31.9232H145.46V35.9027H142.509V27.796C142.509 26.6124 142.713 25.5225 143.122 24.5281C143.529 23.5337 144.096 22.678 144.825 21.961C145.552 21.244 146.409 20.6873 147.402 20.2874C148.393 19.8875 149.474 19.6875 150.648 19.6875H157.298C157.503 19.6875 157.696 19.7253 157.877 19.801C158.058 19.8767 158.217 19.9811 158.352 20.1181C158.49 20.2532 158.595 20.4117 158.671 20.5936C158.745 20.7738 158.785 20.9666 158.785 21.1701V35.9027ZM145.46 28.9832H155.834V22.6293H150.646C150.555 22.6293 150.362 22.6437 150.067 22.6744C149.778 22.6978 149.443 22.7608 149.056 22.8671C148.678 22.9734 148.277 23.1355 147.852 23.3535C147.429 23.5715 147.038 23.8742 146.684 24.2579C146.328 24.6416 146.033 25.1244 145.798 25.7045C145.572 26.2773 145.458 26.9745 145.458 27.796V28.9832H145.46Z" fill="#323232"/>
<path d="M176.931 22.629H170.429V35.9041H167.478V22.629H160.963V19.689H176.931V22.629Z" fill="#323232"/>
<path d="M198.053 35.9025H195.081V26.2465L189.85 35.4161C189.721 35.6503 189.539 35.8268 189.305 35.9475C189.077 36.0682 188.832 36.1276 188.568 36.1276C188.304 36.1276 188.068 36.0682 187.841 35.9475C187.62 35.8268 187.448 35.6503 187.318 35.4161L182.063 26.2465V35.9025H179.112V20.9429C179.112 20.6042 179.212 20.3016 179.409 20.0386C179.613 19.7756 179.877 19.5972 180.204 19.5071C180.364 19.4693 180.523 19.4585 180.68 19.4729C180.839 19.4801 180.991 19.5143 181.134 19.5756C181.284 19.6278 181.421 19.7071 181.541 19.8134C181.662 19.9107 181.765 20.0314 181.848 20.1755L188.568 31.8113L195.287 20.1755C195.46 19.8891 195.699 19.6855 196.001 19.5648C196.312 19.4441 196.632 19.4261 196.967 19.5089C197.285 19.599 197.545 19.7774 197.75 20.0404C197.954 20.3034 198.055 20.606 198.055 20.9447V35.9043L198.053 35.9025Z" fill="#323232"/>
<path d="M218.573 29.3449C218.573 30.3321 218.403 31.24 218.061 32.0705C217.721 32.8992 217.247 33.6162 216.643 34.2197C216.038 34.8232 215.32 35.2934 214.486 35.6339C213.662 35.9653 212.761 36.1311 211.786 36.1311H207.79C206.814 36.1311 205.91 35.9653 205.078 35.6339C204.244 35.2952 203.526 34.8232 202.921 34.2197C202.317 33.6162 201.839 32.901 201.49 32.0705C201.15 31.2418 200.98 30.3339 200.98 29.3449V26.2463C200.98 25.2663 201.15 24.362 201.49 23.5333C201.838 22.6974 202.315 21.9804 202.921 21.3841C203.526 20.7806 204.244 20.3104 205.078 19.9699C205.91 19.6312 206.814 19.4619 207.79 19.4619H211.786C212.763 19.4619 213.662 19.6312 214.486 19.9699C215.32 20.3086 216.038 20.7806 216.643 21.3841C217.249 21.9804 217.721 22.6956 218.061 23.5333C218.403 24.362 218.573 25.2663 218.573 26.2463V29.3449ZM215.622 26.2463C215.622 25.6662 215.528 25.142 215.338 24.6754C215.157 24.1998 214.895 23.7981 214.555 23.4648C214.222 23.1261 213.817 22.8649 213.341 22.6848C212.871 22.4956 212.354 22.4019 211.786 22.4019H207.79C207.215 22.4019 206.689 22.4956 206.213 22.6848C205.743 22.8649 205.338 23.1261 204.998 23.4648C204.658 23.7963 204.394 24.1998 204.205 24.6754C204.024 25.142 203.933 25.6662 203.933 26.2463V29.3449C203.933 29.9249 204.024 30.4528 204.205 30.9284C204.394 31.395 204.658 31.7985 204.998 32.139C205.338 32.4704 205.743 32.7299 206.213 32.919C206.689 33.0992 207.215 33.191 207.79 33.191H211.763C212.338 33.191 212.859 33.101 213.329 32.919C213.804 32.7299 214.213 32.4704 214.555 32.139C214.895 31.8003 215.157 31.3968 215.338 30.9284C215.526 30.4528 215.622 29.9249 215.622 29.3449V26.2463Z" fill="#323232"/>
<path d="M236.062 35.9027H225.417C225.144 35.9027 224.849 35.872 224.533 35.8126C224.222 35.7441 223.913 35.6433 223.602 35.5081C223.298 35.373 223.007 35.1983 222.726 34.9875C222.448 34.7695 222.197 34.5083 221.978 34.2075C221.766 33.8976 221.596 33.5445 221.468 33.1446C221.34 32.7375 221.274 32.2817 221.274 31.7773V23.8165C221.274 23.5445 221.305 23.2544 221.365 22.9464C221.432 22.6293 221.535 22.3213 221.67 22.0186C221.806 21.7088 221.985 21.4151 222.204 21.1359C222.424 20.8567 222.685 20.6117 222.987 20.4009C223.298 20.1829 223.652 20.0082 224.054 19.8803C224.455 19.7523 224.909 19.6875 225.415 19.6875H236.06V22.6275H225.415C225.03 22.6275 224.735 22.7302 224.531 22.932C224.327 23.1355 224.224 23.4364 224.224 23.8363V31.7737C224.224 32.1502 224.327 32.4438 224.531 32.6564C224.743 32.86 225.037 32.9608 225.415 32.9608H236.06V35.9009H236.062V35.9027Z" fill="#323232"/>
<path d="M277.429 29.2765H268.111V26.3148H277.429V29.2765ZM278.756 35.9023H268.111C267.703 35.9023 267.256 35.8303 266.771 35.688C266.287 35.5438 265.837 35.3115 265.421 34.9872C265.012 34.6557 264.668 34.2288 264.388 33.7099C264.115 33.1821 263.979 32.5372 263.979 31.7769V21.1716C263.979 20.968 264.017 20.7753 264.093 20.5951C264.169 20.415 264.272 20.2564 264.401 20.1195C264.536 19.9844 264.696 19.8781 264.876 19.8025C265.057 19.7268 265.254 19.689 265.466 19.689H278.756V22.629H266.931V31.7769C266.931 32.1607 267.034 32.4561 267.236 32.6597C267.44 32.8632 267.739 32.9641 268.133 32.9641H278.756V35.9041V35.9023Z" fill="#323232"/>
<path d="M297.83 25.1388C297.83 25.8089 297.746 26.4088 297.58 26.9367C297.414 27.4645 297.186 27.9311 296.898 28.3382C296.618 28.7382 296.293 29.0804 295.922 29.3669C295.551 29.6533 295.162 29.8911 294.754 30.0785C294.352 30.2586 293.944 30.3919 293.528 30.4748C293.119 30.5577 292.734 30.5991 292.371 30.5991H285.698V27.6591H292.371C292.741 27.6285 293.078 27.5528 293.381 27.4321C293.692 27.3042 293.956 27.1348 294.177 26.9241C294.405 26.7133 294.577 26.4611 294.7 26.1656C294.821 25.8648 294.88 25.5207 294.88 25.137V23.2833C294.88 23.1175 294.857 22.9932 294.812 22.9104C294.774 22.8203 294.721 22.7554 294.653 22.7176C294.593 22.6726 294.524 22.6455 294.448 22.6383C294.381 22.6311 294.316 22.6275 294.255 22.6275H284.517V35.9027H281.566V21.1701C281.566 20.9666 281.604 20.7738 281.68 20.5936C281.754 20.4135 281.858 20.255 281.986 20.1181C282.122 19.9829 282.281 19.8767 282.461 19.801C282.642 19.7253 282.839 19.6875 283.051 19.6875H294.253C294.911 19.6875 295.468 19.8082 295.922 20.0496C296.376 20.2838 296.743 20.581 297.023 20.9431C297.311 21.298 297.515 21.6817 297.636 22.0961C297.764 22.5104 297.83 22.8995 297.83 23.2616V25.1388Z" fill="#323232"/>
<path d="M261.5 25.1388C261.5 25.8089 261.417 26.4088 261.251 26.9367C261.085 27.4645 260.857 27.9311 260.569 28.3382C260.289 28.7382 259.963 29.0804 259.593 29.3669C259.222 29.6533 258.833 29.8911 258.425 30.0785C258.023 30.2586 257.615 30.3919 257.199 30.4748C256.79 30.5577 256.405 30.5991 256.041 30.5991H252.318V27.6591H256.041C256.412 27.6285 256.748 27.5528 257.052 27.4321C257.363 27.3042 257.627 27.1348 257.848 26.9241C258.076 26.7133 258.247 26.4611 258.37 26.1656C258.492 25.8648 258.551 25.5207 258.551 25.137V23.2833C258.551 23.1175 258.528 22.9932 258.483 22.9104C258.445 22.8203 258.392 22.7554 258.323 22.7176C258.264 22.6726 258.195 22.6455 258.119 22.6383C258.052 22.6311 257.987 22.6275 257.926 22.6275H251.138V35.9027H248.187V21.1701C248.187 20.9666 248.224 20.7738 248.3 20.5936C248.375 20.4135 248.478 20.255 248.606 20.1181C248.742 19.9829 248.901 19.8767 249.082 19.801C249.262 19.7253 249.46 19.6875 249.671 19.6875H257.922C258.58 19.6875 259.137 19.8082 259.591 20.0496C260.045 20.2838 260.412 20.581 260.692 20.9431C260.98 21.298 261.184 21.6817 261.305 22.0961C261.434 22.5104 261.499 22.8995 261.499 23.2616V25.1388H261.5Z" fill="#323232"/>
<path d="M237.825 23.2616C237.825 22.8995 237.89 22.5122 238.019 22.0961C238.14 21.6817 238.344 21.2962 238.632 20.9431C238.912 20.581 239.279 20.2838 239.733 20.0496C240.187 19.8082 240.742 19.6875 241.402 19.6875H249.653C249.864 19.6875 250.061 19.7253 250.242 19.801C250.423 19.8767 250.582 19.9811 250.718 20.1181C250.846 20.2532 250.949 20.4117 251.023 20.5936C251.099 20.7738 251.137 20.9666 251.137 21.1701V35.9027H248.186V22.6275H241.398C241.337 22.6275 241.273 22.6311 241.205 22.6383C241.129 22.6455 241.06 22.6726 241 22.7176C240.932 22.7554 240.879 22.8203 240.841 22.9104C240.796 22.9932 240.772 23.1175 240.772 23.2833V25.137C240.772 25.5207 240.832 25.8648 240.953 26.1656C241.074 26.4593 241.248 26.7115 241.476 26.9241C241.696 27.1348 241.96 27.3042 242.271 27.4321C242.575 27.5528 242.91 27.6285 243.282 27.6591H247.005V30.5991H243.282C242.919 30.5991 242.534 30.5577 242.125 30.4748C241.709 30.3919 241.3 30.2604 240.899 30.0785C240.49 29.8893 240.102 29.6533 239.731 29.3669C239.36 29.0804 239.035 28.7382 238.754 28.3382C238.467 27.9311 238.239 27.4645 238.073 26.9367C237.906 26.4088 237.823 25.8089 237.823 25.1388V23.2616H237.825Z" fill="#323232"/>
<path d="M316.998 30.4532C316.998 29.783 316.915 29.1831 316.749 28.6553C316.582 28.1275 316.356 27.6609 316.069 27.2537C315.789 26.8538 315.463 26.5115 315.093 26.2251C314.722 25.9387 314.331 25.7009 313.923 25.5135C313.523 25.3334 313.113 25.2 312.697 25.1172C312.288 25.0343 311.903 24.9929 311.539 24.9929H304.867V27.9329H311.539C311.91 27.9635 312.246 28.0392 312.55 28.1581C312.861 28.286 313.125 28.4553 313.344 28.6661C313.572 28.8769 313.745 29.1291 313.867 29.4245C313.988 29.7254 314.047 30.0695 314.047 30.4532V32.3069C314.047 32.4726 314.024 32.5969 313.979 32.6798C313.941 32.7699 313.888 32.8347 313.82 32.8726C313.76 32.9176 313.691 32.9446 313.615 32.9518C313.546 32.959 313.483 32.9626 313.422 32.9626H303.684V19.6875H300.733V34.4201C300.733 34.6236 300.771 34.8164 300.847 34.9965C300.923 35.1767 301.026 35.3352 301.155 35.4721C301.29 35.6072 301.449 35.7135 301.63 35.7892C301.811 35.8648 302.008 35.9027 302.22 35.9027H313.422C314.08 35.9027 314.637 35.782 315.091 35.5406C315.545 35.3064 315.912 35.0091 316.192 34.647C316.479 34.2921 316.684 33.9084 316.805 33.4941C316.933 33.0797 316.998 32.6906 316.998 32.3303V30.4532Z" fill="#323232"/>
<path d="M77.4395 35.9027V33.0077L79.0235 32.9626V27.796C79.0235 26.6124 79.2278 25.5225 79.6364 24.5281C80.0451 23.5337 80.6129 22.678 81.338 21.961C82.0649 21.244 82.9238 20.6873 83.9147 20.2874C84.9056 19.8875 85.9869 19.6875 87.1605 19.6875H93.8111C94.0154 19.6875 94.2089 19.7253 94.3897 19.801C94.5706 19.8767 94.7297 19.9811 94.8671 20.1181C95.0045 20.255 95.1094 20.4117 95.1854 20.5936C95.2613 20.7738 95.2993 20.9666 95.2993 21.1701V33.0095H97.1979V35.9045H77.4395V35.9027ZM81.9745 32.9645H92.3483V22.6293H87.1623C87.0719 22.6293 86.8784 22.6437 86.5836 22.6744C86.2961 22.6978 85.9598 22.7608 85.5728 22.8671C85.1949 22.9734 84.7935 23.1355 84.3704 23.3535C83.9472 23.5715 83.5567 23.8742 83.2023 24.2579C82.846 24.6416 82.5513 25.1244 82.3162 25.7045C82.0884 26.2773 81.9763 26.9745 81.9763 27.796V32.9626L81.9745 32.9645Z" fill="#323232"/>
<path d="M319.524 19.6929H322.43V35.9026H319.524V19.6929Z" fill="#323232"/>
<path d="M80.5953 50.4691C78.5918 50.4691 77.5918 49.7089 77.5918 48.1866V45.7456C77.5918 44.2144 78.5936 43.4487 80.5953 43.4487H84.6077C85.0091 43.4487 85.2098 43.6469 85.2098 44.0414C85.2098 44.4359 85.0091 44.6341 84.6077 44.6341H80.5482C79.4036 44.6341 78.8322 44.9998 78.8322 45.7312V48.2011C78.8322 48.9325 79.4036 49.2982 80.5482 49.2982H84.6077C85.0091 49.2982 85.2098 49.4909 85.2098 49.8764C85.2098 50.2619 85.0091 50.4691 84.6077 50.4691H80.5953Z" fill="#323232"/>
<path d="M89.5494 44.6341H87.3686C86.9744 44.6341 86.7773 44.4377 86.7773 44.0414C86.7773 43.6451 86.9744 43.4487 87.3686 43.4487H92.9705C93.3647 43.4487 93.5618 43.6469 93.5618 44.0414C93.5618 44.4359 93.3647 44.6341 92.9705 44.6341H90.7898V49.9359C90.7898 50.3412 90.5855 50.543 90.175 50.543C89.7645 50.543 89.5494 50.3412 89.5494 49.9359V44.6341Z" fill="#323232"/>
<path d="M98.1783 50.4691C96.1748 50.4691 95.1748 49.7089 95.1748 48.1866V45.7456C95.1748 44.2144 96.1766 43.4487 98.1783 43.4487H100.417C102.42 43.4487 103.42 44.2144 103.42 45.7456V48.1866C103.42 49.7089 102.419 50.4691 100.417 50.4691H98.1783ZM102.18 45.7312C102.18 44.9998 101.603 44.6341 100.451 44.6341H98.1313C96.9867 44.6341 96.4153 44.9998 96.4153 45.7312V48.2011C96.4153 48.9325 96.9867 49.2982 98.1313 49.2982H100.451C101.603 49.2982 102.18 48.9325 102.18 48.2011V45.7312Z" fill="#323232"/>
<path d="M119.163 50.4693C117.168 50.4693 116.17 49.709 116.17 48.1868V43.9839C116.17 43.5786 116.374 43.3768 116.785 43.3768C117.195 43.3768 117.4 43.5786 117.4 43.9839V48.2012C117.4 48.9326 117.944 49.2983 119.034 49.2983H120.879V43.9821C120.879 43.5768 121.079 43.375 121.481 43.375C121.882 43.375 122.085 43.5768 122.085 43.9821V49.2983H123.871C124.969 49.2983 125.518 48.9326 125.518 48.2012V43.9839C125.518 43.5786 125.723 43.3768 126.133 43.3768C126.544 43.3768 126.748 43.5786 126.748 43.9839V48.1868C126.748 49.709 125.75 50.4693 123.755 50.4693H119.163Z" fill="#323232"/>
<path d="M135.993 45.1406L130.205 50.2532C130.097 50.3505 130.001 50.4226 129.916 50.4694C129.831 50.518 129.706 50.5415 129.545 50.5415C129.182 50.5415 129.001 50.3397 129.001 49.9344V43.9696C129.001 43.5751 129.202 43.377 129.603 43.377C130.005 43.377 130.229 43.5751 130.229 43.9696V48.7652L136.028 43.6526C136.127 43.5661 136.223 43.4994 136.312 43.4508C136.4 43.4022 136.503 43.3788 136.619 43.3788C137.02 43.3788 137.221 43.5805 137.221 43.9859V49.9362C137.221 50.3415 137.017 50.5433 136.606 50.5433C136.196 50.5433 135.992 50.3415 135.992 49.9362V45.1406H135.993Z" fill="#323232"/>
<path d="M146.443 47.5525H140.679V49.9358C140.679 50.3412 140.474 50.5429 140.064 50.5429C139.654 50.5429 139.449 50.3412 139.449 49.9358V43.9855C139.449 43.5802 139.654 43.3784 140.064 43.3784C140.474 43.3784 140.679 43.5802 140.679 43.9855V46.3833H146.443V43.9855C146.443 43.5802 146.648 43.3784 147.058 43.3784C147.469 43.3784 147.673 43.5802 147.673 43.9855V49.9358C147.673 50.3412 147.469 50.5429 147.058 50.5429C146.648 50.5429 146.443 50.3412 146.443 49.9358V47.5525Z" fill="#323232"/>
<path d="M152.846 50.4691C150.843 50.4691 149.843 49.7089 149.843 48.1866V45.7456C149.843 44.2144 150.845 43.4487 152.846 43.4487H155.085C157.088 43.4487 158.088 44.2144 158.088 45.7456V48.1866C158.088 49.7089 157.087 50.4691 155.085 50.4691H152.846ZM156.848 45.7312C156.848 44.9998 156.271 44.6341 155.119 44.6341H152.799C151.655 44.6341 151.083 44.9998 151.083 45.7312V48.2011C151.083 48.9325 151.655 49.2982 152.799 49.2982H155.119C156.271 49.2982 156.848 48.9325 156.848 48.2011V45.7312Z" fill="#323232"/>
<path d="M168.653 45.7891L165.65 50.2388C165.588 50.3361 165.512 50.41 165.424 50.4622C165.335 50.5144 165.212 50.5415 165.059 50.5415C164.905 50.5415 164.784 50.5144 164.699 50.4622C164.614 50.41 164.54 50.3307 164.478 50.2244L161.485 45.8036V49.9776C161.485 50.3523 161.281 50.5415 160.871 50.5415C160.46 50.5415 160.256 50.3541 160.256 49.9776V43.9841C160.256 43.5787 160.473 43.377 160.905 43.377C161.075 43.377 161.207 43.4148 161.299 43.4922C161.391 43.5697 161.476 43.6616 161.554 43.7661L165.057 48.9363L168.572 43.7661C168.641 43.6508 168.724 43.5571 168.821 43.485C168.917 43.413 169.051 43.377 169.221 43.377C169.445 43.377 169.612 43.4292 169.72 43.5355C169.829 43.6418 169.883 43.7913 169.883 43.9841V49.9776C169.883 50.3523 169.673 50.5415 169.257 50.5415C168.841 50.5415 168.653 50.3541 168.653 49.9776V45.7891Z" fill="#323232"/>
<path d="M175.033 50.4691C173.029 50.4691 172.029 49.7089 172.029 48.1866V45.7456C172.029 44.2144 173.031 43.4487 175.033 43.4487H177.271C179.275 43.4487 180.275 44.2144 180.275 45.7456V48.1866C180.275 49.7089 179.273 50.4691 177.271 50.4691H175.033ZM179.034 45.7312C179.034 44.9998 178.458 44.6341 177.306 44.6341H174.986C173.841 44.6341 173.27 44.9998 173.27 45.7312V48.2011C173.27 48.9325 173.841 49.2982 174.986 49.2982H177.306C178.458 49.2982 179.034 48.9325 179.034 48.2011V45.7312Z" fill="#323232"/>
<path d="M189.44 47.5525H183.675V49.9358C183.675 50.3412 183.471 50.5429 183.06 50.5429C182.65 50.5429 182.445 50.3412 182.445 49.9358V43.9855C182.445 43.5802 182.65 43.3784 183.06 43.3784C183.471 43.3784 183.675 43.5802 183.675 43.9855V46.3833H189.44V43.9855C189.44 43.5802 189.644 43.3784 190.054 43.3784C190.465 43.3784 190.669 43.5802 190.669 43.9855V49.9358C190.669 50.3412 190.465 50.5429 190.054 50.5429C189.644 50.5429 189.44 50.3412 189.44 49.9358V47.5525Z" fill="#323232"/>
<path d="M195.261 44.6341H193.081C192.686 44.6341 192.489 44.4377 192.489 44.0414C192.489 43.6451 192.686 43.4487 193.081 43.4487H198.682C199.077 43.4487 199.274 43.6469 199.274 44.0414C199.274 44.4359 199.077 44.6341 198.682 44.6341H196.502V49.9359C196.502 50.3412 196.297 50.543 195.887 50.543C195.476 50.543 195.261 50.3412 195.261 49.9359V44.6341Z" fill="#323232"/>
<path d="M201.709 50.4693C200.055 50.4693 199.227 49.8297 199.227 48.5489V47.7256C199.227 46.4538 200.055 45.8196 201.709 45.8196H206.638V45.6035C206.638 44.9297 206.163 44.5928 205.212 44.5928H203.577C203.19 44.5928 202.997 44.4055 202.997 44.029C202.997 43.6525 203.19 43.4507 203.577 43.4507H205.212C206.968 43.4507 207.845 44.1677 207.845 45.6035V48.4336C207.845 49.7919 207.002 50.4711 205.317 50.4711H201.709V50.4693ZM205.246 49.3433C206.174 49.3433 206.638 49.0263 206.638 48.3904V46.8159H201.801C200.897 46.8159 200.445 47.1095 200.445 47.6968V48.448C200.445 49.0461 200.897 49.3433 201.801 49.3433H205.246Z" fill="#323232"/>
<path d="M214.781 47.769L210.953 50.3397C210.852 50.4082 210.761 50.4586 210.68 50.491C210.599 50.5252 210.496 50.5415 210.373 50.5415C210.195 50.5415 210.054 50.491 209.95 50.3901C209.845 50.2893 209.792 50.1415 209.792 49.9488C209.792 49.8335 209.818 49.7272 209.868 49.6317C209.919 49.5362 210.006 49.4498 210.129 49.3723L214.096 46.8736L210.141 44.5623C210.009 44.4849 209.915 44.402 209.857 44.3101C209.799 44.2182 209.771 44.1048 209.771 43.9714C209.771 43.7895 209.821 43.6436 209.921 43.5373C210.022 43.431 210.161 43.3788 210.338 43.3788C210.44 43.3788 210.535 43.3932 210.628 43.422C210.72 43.4508 210.805 43.4904 210.883 43.5373L214.779 45.9783V43.9696C214.779 43.5751 214.976 43.377 215.371 43.377C215.765 43.377 215.962 43.5751 215.962 43.9696V45.9927L219.859 43.5517C219.936 43.5031 220.021 43.4634 220.114 43.4292C220.206 43.395 220.307 43.3788 220.416 43.3788C220.585 43.3788 220.721 43.431 220.822 43.5373C220.922 43.6436 220.972 43.7877 220.972 43.9714C220.972 44.1066 220.944 44.22 220.886 44.3101C220.828 44.4002 220.734 44.4867 220.602 44.5623L216.647 46.8736L220.625 49.3723C220.842 49.5074 220.951 49.7002 220.951 49.9506C220.951 50.1433 220.898 50.2893 220.793 50.3919C220.689 50.4928 220.548 50.5433 220.37 50.5433C220.255 50.5433 220.152 50.5271 220.063 50.4928C219.974 50.4586 219.884 50.4081 219.79 50.3415L215.962 47.7708V49.938C215.962 50.3433 215.765 50.5451 215.371 50.5451C214.976 50.5451 214.779 50.3433 214.779 49.938V47.7708L214.781 47.769Z" fill="#323232"/>
<path d="M235.708 50.4693C234.054 50.4693 233.226 49.8297 233.226 48.5489V47.7256C233.226 46.4538 234.052 45.8196 235.708 45.8196H240.637V45.6035C240.637 44.9297 240.162 44.5928 239.211 44.5928H237.576C237.189 44.5928 236.996 44.4055 236.996 44.029C236.996 43.6525 237.189 43.4507 237.576 43.4507H239.211C240.967 43.4507 241.844 44.1677 241.844 45.6035V48.4336C241.844 49.7919 241.001 50.4711 239.316 50.4711H235.708V50.4693ZM239.247 49.3433C240.175 49.3433 240.639 49.0263 240.639 48.3904V46.8159H235.802C234.898 46.8159 234.444 47.1095 234.444 47.6968V48.448C234.444 49.0461 234.896 49.3433 235.802 49.3433H239.247Z" fill="#323232"/>
<path d="M252.167 48.837C252.167 49.9251 251.223 50.4691 249.337 50.4691H244.571C244.207 50.4691 244.024 50.3052 244.024 49.9773V43.9405C244.024 43.6127 244.205 43.4487 244.571 43.4487H249.106C251.076 43.4487 252.064 44.027 252.064 45.1818V45.7024C252.064 46.2122 251.778 46.6067 251.205 46.886C251.847 47.1742 252.167 47.5885 252.167 48.129V48.837ZM250.845 45.2556C250.845 44.7458 250.272 44.49 249.129 44.49H245.348C245.287 44.49 245.256 44.5188 245.256 44.5765V46.396H249.176C250.29 46.396 250.847 46.1654 250.847 45.7024V45.2538H250.845V45.2556ZM250.961 48.1002C250.961 47.6282 250.411 47.3922 249.313 47.3922H245.254V49.3414C245.254 49.399 245.285 49.4279 245.346 49.4279H249.313C250.411 49.4279 250.961 49.1865 250.961 48.7055V48.0984V48.1002Z" fill="#323232"/>
<path d="M256.342 44.6341H254.162C253.767 44.6341 253.57 44.4377 253.57 44.0414C253.57 43.6451 253.767 43.4487 254.162 43.4487H259.763C260.158 43.4487 260.355 43.6469 260.355 44.0414C260.355 44.4359 260.158 44.6341 259.763 44.6341H257.583V49.9359C257.583 50.3412 257.378 50.543 256.968 50.543C256.558 50.543 256.342 50.3412 256.342 49.9359V44.6341Z" fill="#323232"/>
<path d="M264.972 50.4691C262.969 50.4691 261.969 49.7089 261.969 48.1866V45.7456C261.969 44.2144 262.971 43.4487 264.972 43.4487H267.211C269.212 43.4487 270.214 44.2144 270.214 45.7456V48.1866C270.214 49.7089 269.212 50.4691 267.211 50.4691H264.972ZM268.974 45.7312C268.974 44.9998 268.397 44.6341 267.245 44.6341H264.925C263.781 44.6341 263.209 44.9998 263.209 45.7312V48.2011C263.209 48.9325 263.781 49.2982 264.925 49.2982H267.245C268.397 49.2982 268.974 48.9325 268.974 48.2011V45.7312Z" fill="#323232"/>
<path d="M280.78 45.7891L277.777 50.2388C277.715 50.3361 277.639 50.41 277.551 50.4622C277.462 50.5144 277.339 50.5415 277.185 50.5415C277.032 50.5415 276.911 50.5144 276.826 50.4622C276.741 50.41 276.666 50.3307 276.605 50.2244L273.612 45.8036V49.9776C273.612 50.3523 273.408 50.5415 272.998 50.5415C272.587 50.5415 272.383 50.3541 272.383 49.9776V43.9841C272.383 43.5787 272.6 43.377 273.032 43.377C273.202 43.377 273.334 43.4148 273.426 43.4922C273.518 43.5697 273.603 43.6616 273.681 43.7661L277.184 48.9363L280.699 43.7661C280.768 43.6508 280.851 43.5571 280.948 43.485C281.046 43.413 281.178 43.377 281.348 43.377C281.572 43.377 281.739 43.4292 281.847 43.5355C281.956 43.6418 282.01 43.7913 282.01 43.9841V49.9776C282.01 50.3523 281.802 50.5415 281.384 50.5415C280.966 50.5415 280.78 50.3541 280.78 49.9776V45.7891Z" fill="#323232"/>
<path d="M287.16 50.4691C285.156 50.4691 284.156 49.7089 284.156 48.1866V45.7456C284.156 44.2144 285.158 43.4487 287.16 43.4487H289.398C291.402 43.4487 292.402 44.2144 292.402 45.7456V48.1866C292.402 49.7089 291.4 50.4691 289.398 50.4691H287.16ZM291.161 45.7312C291.161 44.9998 290.584 44.6341 289.433 44.6341H287.113C285.968 44.6341 285.397 44.9998 285.397 45.7312V48.2011C285.397 48.9325 285.968 49.2982 287.113 49.2982H289.433C290.584 49.2982 291.161 48.9325 291.161 48.2011V45.7312Z" fill="#323232"/>
<path d="M301.566 45.1405L295.777 50.2531C295.669 50.3504 295.573 50.4224 295.488 50.4693C295.403 50.5179 295.278 50.5413 295.117 50.5413C294.754 50.5413 294.571 50.3396 294.571 49.9342V43.9695C294.571 43.575 294.772 43.3768 295.175 43.3768C295.578 43.3768 295.801 43.575 295.801 43.9695V48.7651L301.6 43.6524C301.699 43.566 301.795 43.4993 301.884 43.4507C301.972 43.402 302.075 43.3786 302.191 43.3786C302.593 43.3786 302.795 43.5804 302.795 43.9857V49.936C302.795 50.3414 302.591 50.5431 302.18 50.5431C301.77 50.5431 301.566 50.3414 301.566 49.936V45.1405ZM301.403 40.3161C301.403 40.662 301.345 40.9934 301.229 41.3051C301.113 41.6186 300.94 41.8942 300.707 42.1356C300.475 42.377 300.188 42.5661 299.848 42.7067C299.508 42.8472 299.117 42.9156 298.676 42.9156C298.235 42.9156 297.846 42.8454 297.51 42.7067C297.173 42.5679 296.889 42.377 296.658 42.1356C296.427 41.8942 296.251 41.6186 296.135 41.3051C296.02 40.9916 295.962 40.662 295.962 40.3161C295.962 40.0945 295.996 39.9378 296.067 39.8459C296.135 39.754 296.271 39.709 296.472 39.709C296.658 39.709 296.786 39.7468 296.861 39.8243C296.935 39.9017 296.991 40.008 297.029 40.1413C297.059 40.3431 297.101 40.5485 297.15 40.7556C297.2 40.9628 297.284 41.1538 297.399 41.3267C297.515 41.4997 297.674 41.642 297.875 41.7537C298.076 41.8654 298.343 41.9194 298.676 41.9194C299.009 41.9194 299.274 41.8636 299.477 41.7537C299.678 41.6438 299.837 41.5015 299.953 41.3267C300.068 41.1538 300.151 40.9628 300.202 40.7556C300.253 40.5485 300.292 40.3431 300.323 40.1413C300.361 40.0062 300.419 39.8999 300.497 39.8243C300.575 39.7468 300.705 39.709 300.891 39.709C301.077 39.709 301.217 39.754 301.291 39.8459C301.365 39.9378 301.401 40.0945 301.401 40.3161H301.403Z" fill="#323232"/>
<path d="M306.251 47.6969V49.9361C306.251 50.3415 306.047 50.5432 305.636 50.5432C305.226 50.5432 305.021 50.3415 305.021 49.9361V43.9714C305.021 43.5769 305.226 43.3787 305.636 43.3787C306.047 43.3787 306.251 43.5769 306.251 43.9714V46.0521L311.193 43.5679C311.309 43.5102 311.406 43.4616 311.482 43.4238C311.56 43.3859 311.645 43.3715 311.737 43.3805C311.931 43.3805 312.081 43.431 312.189 43.5319C312.298 43.6327 312.352 43.7805 312.352 43.9732C312.352 44.1083 312.323 44.2182 312.265 44.3047C312.207 44.3912 312.104 44.474 311.958 44.5497L307.133 46.8754L311.981 49.3885C312.137 49.475 312.236 49.5668 312.283 49.6623C312.33 49.7596 312.352 49.8551 312.352 49.9505C312.352 50.3451 312.135 50.5432 311.703 50.5432C311.602 50.5432 311.517 50.527 311.448 50.4928C311.379 50.4586 311.274 50.4045 311.135 50.3271L306.251 47.6987V47.6969Z" fill="#323232"/>
<path d="M316.492 50.4693C314.838 50.4693 314.01 49.8297 314.01 48.5489V47.7256C314.01 46.4538 314.836 45.8196 316.492 45.8196H321.422V45.6035C321.422 44.9297 320.946 44.5928 319.995 44.5928H318.36C317.973 44.5928 317.78 44.4055 317.78 44.029C317.78 43.6525 317.973 43.4507 318.36 43.4507H319.995C321.751 43.4507 322.628 44.1677 322.628 45.6035V48.4336C322.628 49.7919 321.785 50.4711 320.1 50.4711H316.492V50.4693ZM320.029 49.3433C320.957 49.3433 321.422 49.0263 321.422 48.3904V46.8159H316.585C315.681 46.8159 315.227 47.1095 315.227 47.6968V48.448C315.227 49.0461 315.679 49.3433 316.585 49.3433H320.029Z" fill="#323232"/>
</svg>
