<svg width="330" height="70" viewBox="0 0 330 70" fill="none" xmlns="http://www.w3.org/2000/svg">
<path d="M116.125 32.4046C116.125 32.7693 116.059 33.1594 115.931 33.5785C115.809 33.9958 115.604 34.3841 115.315 34.7397C115.034 35.0972 114.666 35.3965 114.211 35.6397C113.755 35.8755 113.198 35.9935 112.536 35.9935H101.297C101.085 35.9935 100.887 35.9554 100.706 35.8792C100.524 35.8029 100.364 35.7013 100.228 35.5725C100.1 35.4364 99.9962 35.2768 99.92 35.0935C99.8456 34.9121 99.8057 34.7143 99.8057 34.502V21.1554C99.8057 20.9503 99.8438 20.7562 99.92 20.5747C99.9962 20.3933 100.1 20.2336 100.228 20.0958C100.364 19.9597 100.524 19.8526 100.706 19.7764C100.887 19.7002 101.085 19.6621 101.297 19.6621H111.203C111.567 19.6621 111.959 19.7274 112.376 19.8563C112.794 19.9851 113.182 20.1937 113.538 20.4822C113.902 20.7634 114.202 21.1318 114.437 21.5872C114.681 22.0426 114.802 22.6014 114.802 23.2619V23.8207C114.802 24.3451 114.715 24.9093 114.541 25.5172C114.367 26.1177 114.085 26.6856 113.697 27.2245C114.031 27.4295 114.343 27.6763 114.632 27.9648C114.929 28.2533 115.187 28.5871 115.406 28.9663C115.628 29.3455 115.8 29.7755 115.931 30.2527C116.059 30.7317 116.125 31.2579 116.125 31.8349V32.4046ZM113.164 31.8349C113.164 31.4484 113.104 31.1019 112.982 30.7989C112.861 30.4868 112.69 30.2219 112.471 30.0023C112.249 29.7828 111.985 29.6159 111.673 29.5016C111.36 29.38 111.012 29.3201 110.626 29.3201H103.953V26.3373H109.294C109.681 26.3373 110.031 26.281 110.341 26.1667C110.653 26.0451 110.918 25.8746 111.137 25.655C111.357 25.4355 111.524 25.1724 111.638 24.8694C111.76 24.5573 111.819 24.209 111.819 23.8225V23.2637C111.819 22.8391 111.614 22.6268 111.204 22.6268H102.766V33.036H112.536C112.589 33.036 112.654 33.0324 112.73 33.0251C112.806 33.0179 112.875 32.9943 112.935 32.9562C112.997 32.9181 113.05 32.8546 113.095 32.762C113.14 32.6713 113.164 32.5461 113.164 32.3864V31.8349Z" fill="white"/>
<path d="M131.774 29.3183H122.425V26.3354H131.774V29.3183ZM133.105 35.9916H122.425C122.015 35.9916 121.567 35.9191 121.08 35.7757C120.594 35.6306 120.143 35.3965 119.725 35.0699C119.315 34.7361 118.969 34.3061 118.689 33.7835C118.415 33.2519 118.279 32.6024 118.279 31.8367V21.1554C118.279 20.9503 118.317 20.7562 118.394 20.5747C118.47 20.3933 118.573 20.2336 118.702 20.0958C118.838 19.9597 118.998 19.8526 119.179 19.7764C119.361 19.7002 119.558 19.6621 119.771 19.6621H133.105V22.6232H121.24V31.8367C121.24 32.2232 121.344 32.5207 121.547 32.7257C121.752 32.9308 122.051 33.0324 122.447 33.0324H133.105V35.9935V35.9916Z" fill="white"/>
<path d="M159.579 35.992H156.618V31.984H146.21V35.992H143.249V27.8272C143.249 26.6352 143.454 25.5375 143.864 24.5359C144.272 23.5344 144.842 22.6725 145.573 21.9504C146.302 21.2283 147.162 20.6676 148.158 20.2648C149.153 19.862 150.237 19.6606 151.415 19.6606H158.088C158.293 19.6606 158.487 19.6987 158.668 19.775C158.85 19.8512 159.009 19.9564 159.145 20.0943C159.283 20.2304 159.388 20.39 159.465 20.5733C159.539 20.7547 159.579 20.9489 159.579 21.1539V35.992ZM146.212 29.0229H156.62V22.6235H151.415C151.324 22.6235 151.13 22.6381 150.834 22.6689C150.544 22.6925 150.208 22.756 149.82 22.863C149.441 22.9701 149.038 23.1334 148.612 23.3529C148.187 23.5725 147.795 23.8773 147.44 24.2638C147.082 24.6502 146.787 25.1365 146.551 25.7207C146.324 26.2977 146.21 26.9999 146.21 27.8272V29.0229H146.212Z" fill="white"/>
<path d="M177.789 22.6217H171.265V35.992H168.304V22.6217H161.768V19.6606H177.789V22.6217Z" fill="white"/>
<path d="M198.978 35.9915H195.995V26.2663L190.747 35.5016C190.618 35.7375 190.434 35.9153 190.2 36.0368C189.972 36.1584 189.725 36.2183 189.46 36.2183C189.195 36.2183 188.959 36.1584 188.731 36.0368C188.51 35.9153 188.337 35.7375 188.207 35.5016L182.934 26.2663V35.9915H179.974V20.9248C179.974 20.5836 180.073 20.2788 180.271 20.0139C180.476 19.749 180.741 19.5694 181.069 19.4787C181.229 19.4406 181.389 19.4297 181.547 19.4442C181.706 19.4515 181.859 19.4859 182.002 19.5476C182.153 19.6002 182.29 19.6801 182.41 19.7871C182.532 19.8851 182.635 20.0067 182.719 20.1518L189.46 31.871L196.202 20.1518C196.376 19.8633 196.616 19.6583 196.918 19.5367C197.231 19.4152 197.552 19.397 197.887 19.4805C198.207 19.5712 198.468 19.7508 198.673 20.0157C198.878 20.2806 198.979 20.5855 198.979 20.9266V35.9933L198.978 35.9915Z" fill="white"/>
<path d="M219.568 29.3869C219.568 30.3811 219.397 31.2956 219.054 32.132C218.713 32.9667 218.238 33.6888 217.632 34.2966C217.024 34.9044 216.304 35.378 215.467 35.7209C214.64 36.0548 213.737 36.2217 212.759 36.2217H208.749C207.77 36.2217 206.863 36.0548 206.028 35.7209C205.192 35.3798 204.471 34.9044 203.864 34.2966C203.258 33.6888 202.779 32.9685 202.429 32.132C202.088 31.2974 201.917 30.383 201.917 29.3869V26.2661C201.917 25.2791 202.088 24.3682 202.429 23.5336C202.777 22.6918 203.256 21.9696 203.864 21.3691C204.471 20.7612 205.192 20.2877 206.028 19.9448C206.863 19.6037 207.77 19.4331 208.749 19.4331H212.759C213.738 19.4331 214.64 19.6037 215.467 19.9448C216.304 20.2859 217.024 20.7612 217.632 21.3691C218.24 21.9696 218.713 22.6899 219.054 23.5336C219.397 24.3682 219.568 25.2791 219.568 26.2661V29.3869ZM216.605 26.2661C216.605 25.6819 216.511 25.1539 216.32 24.684C216.139 24.205 215.876 23.8003 215.535 23.4647C215.201 23.1236 214.794 22.8605 214.317 22.6791C213.846 22.4885 213.327 22.3942 212.757 22.3942H208.748C208.171 22.3942 207.643 22.4885 207.166 22.6791C206.694 22.8605 206.287 23.1236 205.946 23.4647C205.605 23.7985 205.34 24.205 205.15 24.684C204.969 25.1539 204.878 25.6819 204.878 26.2661V29.3869C204.878 29.9711 204.969 30.5027 205.15 30.9817C205.34 31.4516 205.605 31.8581 205.946 32.201C206.287 32.5348 206.694 32.7961 207.166 32.9866C207.643 33.1681 208.171 33.2606 208.748 33.2606H212.733C213.31 33.2606 213.833 33.1699 214.305 32.9866C214.782 32.7961 215.192 32.5348 215.535 32.201C215.876 31.8599 216.139 31.4535 216.32 30.9817C216.509 30.5027 216.605 29.9711 216.605 29.3869V26.2661Z" fill="white"/>
<path d="M237.115 35.992H226.435C226.161 35.992 225.865 35.9611 225.548 35.9013C225.236 35.8323 224.925 35.7307 224.613 35.5946C224.308 35.4586 224.016 35.2826 223.735 35.0703C223.456 34.8507 223.204 34.5876 222.984 34.2846C222.772 33.9726 222.601 33.617 222.472 33.2142C222.344 32.8041 222.278 32.3451 222.278 31.837V23.8192C222.278 23.5453 222.309 23.2531 222.369 22.9429C222.436 22.6235 222.54 22.3133 222.676 22.0085C222.812 21.6964 222.991 21.4006 223.211 21.1194C223.432 20.8382 223.693 20.5914 223.996 20.3791C224.308 20.1596 224.664 19.9836 225.067 19.8548C225.47 19.726 225.925 19.6606 226.433 19.6606H237.113V22.6217H226.433C226.046 22.6217 225.751 22.7252 225.546 22.9284C225.341 23.1334 225.237 23.4364 225.237 23.8392V31.8334C225.237 32.2126 225.341 32.5084 225.546 32.7225C225.758 32.9275 226.054 33.0291 226.433 33.0291H237.113V35.9902H237.115V35.992Z" fill="white"/>
<path d="M278.617 29.3183H269.269V26.3354H278.617V29.3183ZM279.951 35.9916H269.271C268.86 35.9916 268.412 35.9191 267.926 35.7757C267.44 35.6306 266.988 35.3965 266.571 35.0699C266.161 34.7361 265.816 34.3061 265.535 33.7835C265.261 33.2519 265.125 32.6024 265.125 31.8367V21.1554C265.125 20.9503 265.163 20.7562 265.239 20.5747C265.315 20.3933 265.419 20.2336 265.548 20.0958C265.684 19.9597 265.843 19.8526 266.025 19.7764C266.206 19.7002 266.404 19.6621 266.616 19.6621H279.951V22.6232H268.086V31.8367C268.086 32.2232 268.189 32.5207 268.392 32.7257C268.597 32.9308 268.897 33.0324 269.292 33.0324H279.951V35.9935V35.9916Z" fill="white"/>
<path d="M299.086 25.151C299.086 25.8259 299.002 26.4301 298.835 26.9618C298.668 27.4934 298.44 27.9633 298.151 28.3734C297.87 28.7762 297.544 29.1209 297.172 29.4094C296.8 29.6979 296.41 29.9374 296 30.1261C295.597 30.3075 295.187 30.4418 294.77 30.5252C294.36 30.6087 293.973 30.6504 293.609 30.6504H286.914V27.6893H293.609C293.98 27.6585 294.318 27.5823 294.623 27.4607C294.935 27.3319 295.2 27.1613 295.421 26.9491C295.65 26.7368 295.822 26.4828 295.945 26.1852C296.067 25.8822 296.127 25.5356 296.127 25.1492V23.2822C296.127 23.1152 296.103 22.9901 296.058 22.9066C296.02 22.8159 295.967 22.7506 295.898 22.7124C295.838 22.6671 295.769 22.6399 295.693 22.6326C295.626 22.6254 295.561 22.6217 295.499 22.6217H285.729V35.992H282.769V21.1539C282.769 20.9489 282.807 20.7547 282.883 20.5733C282.957 20.3918 283.061 20.2322 283.189 20.0943C283.326 19.9582 283.485 19.8512 283.667 19.775C283.848 19.6987 284.046 19.6606 284.258 19.6606H295.497C296.158 19.6606 296.716 19.7822 297.172 20.0253C297.627 20.2612 297.995 20.5606 298.277 20.9253C298.565 21.2827 298.77 21.6692 298.892 22.0865C299.02 22.5038 299.086 22.8957 299.086 23.2604V25.151Z" fill="white"/>
<path d="M262.637 25.151C262.637 25.8259 262.554 26.4301 262.387 26.9618C262.22 27.4934 261.992 27.9633 261.703 28.3734C261.422 28.7762 261.095 29.1209 260.723 29.4094C260.352 29.6979 259.961 29.9374 259.551 30.1261C259.149 30.3075 258.739 30.4418 258.321 30.5252C257.911 30.6087 257.525 30.6504 257.16 30.6504H253.425V27.6893H257.16C257.532 27.6585 257.87 27.5823 258.174 27.4607C258.486 27.3319 258.751 27.1613 258.973 26.9491C259.201 26.7368 259.374 26.4828 259.497 26.1852C259.619 25.8822 259.678 25.5356 259.678 25.1492V23.2822C259.678 23.1152 259.655 22.9901 259.609 22.9066C259.571 22.8159 259.519 22.7506 259.45 22.7124C259.39 22.6671 259.321 22.6399 259.245 22.6326C259.178 22.6254 259.112 22.6217 259.051 22.6217H252.24V35.992H249.279V21.1539C249.279 20.9489 249.317 20.7547 249.394 20.5733C249.468 20.3918 249.571 20.2322 249.7 20.0943C249.836 19.9582 249.996 19.8512 250.177 19.775C250.359 19.6987 250.557 19.6606 250.769 19.6606H259.047C259.707 19.6606 260.266 19.7822 260.722 20.0253C261.177 20.2612 261.545 20.5606 261.826 20.9253C262.115 21.2827 262.32 21.6692 262.441 22.0865C262.57 22.5038 262.636 22.8957 262.636 23.2604V25.151H262.637Z" fill="white"/>
<path d="M238.882 23.2604C238.882 22.8957 238.947 22.5056 239.076 22.0865C239.197 21.6692 239.402 21.2809 239.691 20.9253C239.972 20.5606 240.34 20.2612 240.796 20.0253C241.251 19.7822 241.808 19.6606 242.47 19.6606H250.749C250.961 19.6606 251.159 19.6987 251.34 19.775C251.521 19.8512 251.681 19.9564 251.817 20.0943C251.946 20.2304 252.049 20.39 252.124 20.5733C252.2 20.7547 252.238 20.9489 252.238 21.1539V35.992H249.277V22.6217H242.467C242.405 22.6217 242.341 22.6254 242.272 22.6326C242.196 22.6399 242.127 22.6671 242.067 22.7124C241.999 22.7506 241.946 22.8159 241.908 22.9066C241.862 22.9901 241.839 23.1152 241.839 23.2822V25.1492C241.839 25.5356 241.899 25.8822 242.02 26.1852C242.142 26.4809 242.316 26.735 242.545 26.9491C242.766 27.1613 243.031 27.3319 243.343 27.4607C243.648 27.5823 243.983 27.6585 244.357 27.6893H248.093V30.6504H244.357C243.992 30.6504 243.606 30.6087 243.196 30.5252C242.779 30.4418 242.369 30.3093 241.966 30.1261C241.556 29.9355 241.166 29.6979 240.794 29.4094C240.422 29.1209 240.095 28.7762 239.814 28.3734C239.526 27.9633 239.297 27.4934 239.13 26.9618C238.963 26.4301 238.88 25.8259 238.88 25.151V23.2604H238.882Z" fill="white"/>
<path d="M318.32 30.5035C318.32 29.8285 318.236 29.2243 318.07 28.6927C317.903 28.1611 317.676 27.6911 317.387 27.2811C317.106 26.8783 316.78 26.5336 316.408 26.2451C316.036 25.9566 315.644 25.7171 315.234 25.5284C314.833 25.347 314.421 25.2127 314.004 25.1292C313.594 25.0458 313.207 25.004 312.843 25.004H306.148V27.9651H312.843C313.215 27.996 313.552 28.0722 313.857 28.1919C314.169 28.3207 314.434 28.4913 314.653 28.7036C314.882 28.9159 315.056 29.1699 315.178 29.4674C315.299 29.7704 315.359 30.117 315.359 30.5035V32.3705C315.359 32.5374 315.336 32.6626 315.29 32.746C315.252 32.8368 315.199 32.9021 315.131 32.9402C315.071 32.9855 315.002 33.0128 314.926 33.02C314.857 33.0273 314.793 33.0309 314.731 33.0309H304.962V19.6606H302.001V34.4987C302.001 34.7038 302.039 34.8979 302.115 35.0794C302.191 35.2608 302.295 35.4205 302.424 35.5584C302.56 35.6944 302.719 35.8015 302.901 35.8777C303.082 35.9539 303.28 35.992 303.492 35.992H314.731C315.392 35.992 315.951 35.8704 316.406 35.6273C316.861 35.3914 317.23 35.0921 317.511 34.7274C317.799 34.3699 318.004 33.9835 318.126 33.5661C318.255 33.1488 318.32 32.7569 318.32 32.3941V30.5035Z" fill="white"/>
<path d="M77.9658 35.992V33.0763L79.5551 33.0309V27.8272C79.5551 26.6352 79.7601 25.5375 80.1701 24.5359C80.5801 23.5344 81.1498 22.6725 81.8773 21.9504C82.6066 21.2283 83.4684 20.6676 84.4626 20.2648C85.4568 19.862 86.5417 19.6606 87.7191 19.6606H94.3918C94.5968 19.6606 94.7909 19.6987 94.9724 19.775C95.1538 19.8512 95.3134 19.9564 95.4513 20.0943C95.5892 20.2322 95.6944 20.39 95.7706 20.5733C95.8468 20.7547 95.8849 20.9489 95.8849 21.1539V33.0781H97.7899V35.9938H77.9658V35.992ZM82.5159 33.0309H92.9241V22.6217H87.7209C87.6302 22.6217 87.4361 22.6362 87.1403 22.6671C86.8519 22.6907 86.5144 22.7542 86.1262 22.8612C85.747 22.9683 85.3443 23.1316 84.9197 23.3511C84.4952 23.5707 84.1033 23.8755 83.7478 24.2619C83.3904 24.6484 83.0946 25.1347 82.8588 25.7189C82.6302 26.2959 82.5177 26.998 82.5177 27.8254V33.0291L82.5159 33.0309Z" fill="white"/>
<path d="M320.853 19.666H323.768V35.9919H320.853V19.666Z" fill="white"/>
<path d="M81.1326 50.6625C79.1224 50.6625 78.1191 49.8968 78.1191 48.3636V45.9051C78.1191 44.3629 79.1242 43.5918 81.1326 43.5918H85.1583C85.5611 43.5918 85.7625 43.7914 85.7625 44.1887C85.7625 44.5861 85.5611 44.7857 85.1583 44.7857H81.0854C79.937 44.7857 79.3637 45.154 79.3637 45.8906V48.3782C79.3637 49.1148 79.937 49.4831 81.0854 49.4831H85.1583C85.5611 49.4831 85.7625 49.6773 85.7625 50.0655C85.7625 50.4538 85.5611 50.6625 85.1583 50.6625H81.1326Z" fill="white"/>
<path d="M90.1162 44.7857H87.9282C87.5327 44.7857 87.335 44.5879 87.335 44.1887C87.335 43.7896 87.5327 43.5918 87.9282 43.5918H93.5487C93.9442 43.5918 94.1419 43.7914 94.1419 44.1887C94.1419 44.5861 93.9442 44.7857 93.5487 44.7857H91.3607V50.1254C91.3607 50.5337 91.1557 50.7369 90.7439 50.7369C90.3321 50.7369 90.1162 50.5337 90.1162 50.1254V44.7857Z" fill="white"/>
<path d="M98.7732 50.6625C96.763 50.6625 95.7598 49.8968 95.7598 48.3636V45.9051C95.7598 44.3629 96.7648 43.5918 98.7732 43.5918H101.019C103.029 43.5918 104.033 44.3629 104.033 45.9051V48.3636C104.033 49.8968 103.028 50.6625 101.019 50.6625H98.7732ZM102.788 45.8906C102.788 45.154 102.209 44.7857 101.054 44.7857H98.726C97.5776 44.7857 97.0043 45.154 97.0043 45.8906V48.3782C97.0043 49.1148 97.5776 49.4831 98.726 49.4831H101.054C102.209 49.4831 102.788 49.1148 102.788 48.3782V45.8906Z" fill="white"/>
<path d="M119.828 50.6631C117.827 50.6631 116.825 49.8975 116.825 48.3643V44.1313C116.825 43.7231 117.03 43.5199 117.442 43.5199C117.854 43.5199 118.059 43.7231 118.059 44.1313V48.3788C118.059 49.1155 118.605 49.4838 119.699 49.4838H121.549V44.1295C121.549 43.7213 121.751 43.5181 122.154 43.5181C122.556 43.5181 122.76 43.7213 122.76 44.1295V49.4838H124.552C125.653 49.4838 126.205 49.1155 126.205 48.3788V44.1313C126.205 43.7231 126.41 43.5199 126.822 43.5199C127.233 43.5199 127.438 43.7231 127.438 44.1313V48.3643C127.438 49.8975 126.437 50.6631 124.436 50.6631H119.828Z" fill="white"/>
<path d="M136.712 45.2944L130.905 50.4436C130.796 50.5416 130.7 50.6142 130.614 50.6613C130.529 50.7103 130.404 50.7339 130.242 50.7339C129.878 50.7339 129.696 50.5307 129.696 50.1225V44.115C129.696 43.7177 129.898 43.5181 130.3 43.5181C130.703 43.5181 130.928 43.7177 130.928 44.115V48.9449L136.746 43.7957C136.846 43.7086 136.942 43.6414 137.031 43.5925C137.12 43.5435 137.224 43.5199 137.34 43.5199C137.742 43.5199 137.944 43.7231 137.944 44.1313V50.1243C137.944 50.5325 137.739 50.7357 137.327 50.7357C136.915 50.7357 136.71 50.5325 136.71 50.1243V45.2944H136.712Z" fill="white"/>
<path d="M147.197 47.724H141.413V50.1244C141.413 50.5326 141.208 50.7359 140.797 50.7359C140.385 50.7359 140.18 50.5326 140.18 50.1244V44.1315C140.18 43.7232 140.385 43.52 140.797 43.52C141.208 43.52 141.413 43.7232 141.413 44.1315V46.5464H147.197V44.1315C147.197 43.7232 147.402 43.52 147.814 43.52C148.226 43.52 148.431 43.7232 148.431 44.1315V50.1244C148.431 50.5326 148.226 50.7359 147.814 50.7359C147.402 50.7359 147.197 50.5326 147.197 50.1244V47.724Z" fill="white"/>
<path d="M153.621 50.6625C151.611 50.6625 150.607 49.8968 150.607 48.3636V45.9051C150.607 44.3629 151.613 43.5918 153.621 43.5918H155.867C157.877 43.5918 158.88 44.3629 158.88 45.9051V48.3636C158.88 49.8968 157.875 50.6625 155.867 50.6625H153.621ZM157.636 45.8906C157.636 45.154 157.057 44.7857 155.901 44.7857H153.574C152.425 44.7857 151.852 45.154 151.852 45.8906V48.3782C151.852 49.1148 152.425 49.4831 153.574 49.4831H155.901C157.057 49.4831 157.636 49.1148 157.636 48.3782V45.8906Z" fill="white"/>
<path d="M169.482 45.9495L166.468 50.431C166.407 50.529 166.331 50.6034 166.242 50.656C166.153 50.7086 166.029 50.7359 165.875 50.7359C165.721 50.7359 165.599 50.7086 165.514 50.656C165.429 50.6034 165.355 50.5236 165.293 50.4165L162.29 45.964V50.168C162.29 50.5453 162.085 50.7359 161.673 50.7359C161.262 50.7359 161.057 50.5472 161.057 50.168V44.1315C161.057 43.7232 161.274 43.52 161.708 43.52C161.878 43.52 162.011 43.5581 162.103 43.6361C162.196 43.7142 162.281 43.8067 162.359 43.9119L165.873 49.1192L169.4 43.9119C169.469 43.7958 169.553 43.7015 169.651 43.6289C169.747 43.5563 169.881 43.52 170.052 43.52C170.277 43.52 170.443 43.5726 170.552 43.6797C170.661 43.7867 170.716 43.9373 170.716 44.1315V50.168C170.716 50.5453 170.505 50.7359 170.088 50.7359C169.671 50.7359 169.482 50.5472 169.482 50.168V45.9495Z" fill="white"/>
<path d="M175.883 50.6625C173.872 50.6625 172.869 49.8968 172.869 48.3636V45.9051C172.869 44.3629 173.874 43.5918 175.883 43.5918H178.129C180.139 43.5918 181.142 44.3629 181.142 45.9051V48.3636C181.142 49.8968 180.137 50.6625 178.129 50.6625H175.883ZM179.897 45.8906C179.897 45.154 179.319 44.7857 178.163 44.7857H175.835C174.687 44.7857 174.114 45.154 174.114 45.8906V48.3782C174.114 49.1148 174.687 49.4831 175.835 49.4831H178.163C179.319 49.4831 179.897 49.1148 179.897 48.3782V45.8906Z" fill="white"/>
<path d="M190.336 47.724H184.552V50.1244C184.552 50.5326 184.347 50.7359 183.935 50.7359C183.523 50.7359 183.318 50.5326 183.318 50.1244V44.1315C183.318 43.7232 183.523 43.52 183.935 43.52C184.347 43.52 184.552 43.7232 184.552 44.1315V46.5464H190.336V44.1315C190.336 43.7232 190.541 43.52 190.953 43.52C191.364 43.52 191.569 43.7232 191.569 44.1315V50.1244C191.569 50.5326 191.364 50.7359 190.953 50.7359C190.541 50.7359 190.336 50.5326 190.336 50.1244V47.724Z" fill="white"/>
<path d="M196.178 44.7857H193.99C193.594 44.7857 193.396 44.5879 193.396 44.1887C193.396 43.7896 193.594 43.5918 193.99 43.5918H199.61C200.006 43.5918 200.203 43.7914 200.203 44.1887C200.203 44.5861 200.006 44.7857 199.61 44.7857H197.422V50.1254C197.422 50.5337 197.217 50.7369 196.805 50.7369C196.394 50.7369 196.178 50.5337 196.178 50.1254V44.7857Z" fill="white"/>
<path d="M202.649 50.6626C200.989 50.6626 200.158 50.0185 200.158 48.7285V47.8993C200.158 46.6183 200.989 45.9797 202.649 45.9797H207.595V45.7619C207.595 45.0834 207.118 44.7441 206.163 44.7441H204.523C204.135 44.7441 203.941 44.5554 203.941 44.1762C203.941 43.797 204.135 43.5938 204.523 43.5938H206.163C207.925 43.5938 208.805 44.3159 208.805 45.7619V48.6124C208.805 49.9804 207.959 50.6644 206.269 50.6644H202.649V50.6626ZM206.198 49.5268C207.128 49.5268 207.595 49.2075 207.595 48.567V46.9812H202.742C201.835 46.9812 201.381 47.277 201.381 47.8685V48.6251C201.381 49.2274 201.835 49.5268 202.742 49.5268H206.198Z" fill="white"/>
<path d="M215.764 47.9435L211.923 50.5326C211.821 50.6016 211.731 50.6524 211.649 50.6851C211.567 50.7195 211.464 50.7359 211.34 50.7359C211.163 50.7359 211.021 50.6851 210.916 50.5834C210.811 50.4818 210.758 50.3331 210.758 50.1389C210.758 50.0228 210.784 49.9158 210.834 49.8196C210.885 49.7234 210.972 49.6363 211.096 49.5583L215.076 47.0418L211.108 44.7139C210.976 44.6359 210.881 44.5524 210.823 44.4599C210.765 44.3673 210.736 44.253 210.736 44.1188C210.736 43.9355 210.787 43.7885 210.887 43.6815C210.988 43.5744 211.128 43.5218 211.306 43.5218C211.408 43.5218 211.504 43.5363 211.596 43.5654C211.689 43.5944 211.774 43.6343 211.852 43.6815L215.762 46.14V44.117C215.762 43.7196 215.959 43.52 216.355 43.52C216.75 43.52 216.948 43.7196 216.948 44.117V46.1545L220.858 43.696C220.936 43.647 221.021 43.6071 221.114 43.5726C221.206 43.5382 221.308 43.5218 221.417 43.5218C221.587 43.5218 221.723 43.5744 221.825 43.6815C221.925 43.7885 221.975 43.9337 221.975 44.1188C221.975 44.2548 221.946 44.3692 221.888 44.4599C221.83 44.5506 221.736 44.6377 221.604 44.7139L217.636 47.0418L221.627 49.5583C221.845 49.6944 221.954 49.8885 221.954 50.1407C221.954 50.3349 221.901 50.4818 221.796 50.5853C221.691 50.6869 221.549 50.7377 221.371 50.7377C221.255 50.7377 221.152 50.7213 221.063 50.6869C220.974 50.6524 220.883 50.6016 220.789 50.5345L216.948 47.9453V50.128C216.948 50.5363 216.75 50.7395 216.355 50.7395C215.959 50.7395 215.762 50.5363 215.762 50.128V47.9453L215.764 47.9435Z" fill="white"/>
<path d="M236.76 50.6626C235.1 50.6626 234.27 50.0185 234.27 48.7285V47.8993C234.27 46.6183 235.099 45.9797 236.76 45.9797H241.706V45.7619C241.706 45.0834 241.229 44.7441 240.275 44.7441H238.635C238.246 44.7441 238.052 44.5554 238.052 44.1762C238.052 43.797 238.246 43.5938 238.635 43.5938H240.275C242.036 43.5938 242.916 44.3159 242.916 45.7619V48.6124C242.916 49.9804 242.071 50.6644 240.38 50.6644H236.76V50.6626ZM240.309 49.5268C241.24 49.5268 241.706 49.2075 241.706 48.567V46.9812H236.853C235.946 46.9812 235.491 47.277 235.491 47.8685V48.6251C235.491 49.2274 235.944 49.5268 236.853 49.5268H240.309Z" fill="white"/>
<path d="M253.273 49.0186C253.273 50.1145 252.326 50.6625 250.434 50.6625H245.651C245.287 50.6625 245.104 50.4974 245.104 50.1672V44.0871C245.104 43.7569 245.285 43.5918 245.651 43.5918H250.201C252.179 43.5918 253.17 44.1742 253.17 45.3372V45.8616C253.17 46.3751 252.883 46.7724 252.308 47.0537C252.952 47.344 253.273 47.7613 253.273 48.3056V49.0186ZM251.945 45.4098C251.945 44.8963 251.37 44.6387 250.223 44.6387H246.43C246.368 44.6387 246.337 44.6677 246.337 44.7258V46.5583H250.27C251.388 46.5583 251.947 46.3261 251.947 45.8598V45.408H251.945V45.4098ZM252.061 48.2766C252.061 47.8012 251.51 47.5635 250.408 47.5635H246.335V49.5267C246.335 49.5847 246.366 49.6138 246.428 49.6138H250.408C251.51 49.6138 252.061 49.3706 252.061 48.8862V48.2747V48.2766Z" fill="white"/>
<path d="M257.463 44.7857H255.275C254.879 44.7857 254.682 44.5879 254.682 44.1887C254.682 43.7896 254.879 43.5918 255.275 43.5918H260.895C261.291 43.5918 261.489 43.7914 261.489 44.1887C261.489 44.5861 261.291 44.7857 260.895 44.7857H258.707V50.1254C258.707 50.5337 258.502 50.7369 258.091 50.7369C257.679 50.7369 257.463 50.5337 257.463 50.1254V44.7857Z" fill="white"/>
<path d="M266.12 50.6625C264.11 50.6625 263.106 49.8968 263.106 48.3636V45.9051C263.106 44.3629 264.112 43.5918 266.12 43.5918H268.366C270.374 43.5918 271.379 44.3629 271.379 45.9051V48.3636C271.379 49.8968 270.374 50.6625 268.366 50.6625H266.12ZM270.135 45.8906C270.135 45.154 269.556 44.7857 268.4 44.7857H266.073C264.924 44.7857 264.351 45.154 264.351 45.8906V48.3782C264.351 49.1148 264.924 49.4831 266.073 49.4831H268.4C269.556 49.4831 270.135 49.1148 270.135 48.3782V45.8906Z" fill="white"/>
<path d="M281.981 45.949L278.967 50.4306C278.906 50.5285 278.83 50.6029 278.741 50.6555C278.652 50.7082 278.528 50.7354 278.374 50.7354C278.22 50.7354 278.098 50.7082 278.013 50.6555C277.928 50.6029 277.854 50.5231 277.792 50.416L274.789 45.9635V50.1675C274.789 50.5449 274.584 50.7354 274.173 50.7354C273.761 50.7354 273.556 50.5467 273.556 50.1675V44.131C273.556 43.7227 273.773 43.5195 274.207 43.5195C274.378 43.5195 274.51 43.5576 274.602 43.6356C274.695 43.7137 274.78 43.8062 274.858 43.9114L278.372 49.1187L281.899 43.9114C281.968 43.7953 282.052 43.701 282.15 43.6284C282.248 43.5558 282.38 43.5195 282.551 43.5195C282.776 43.5195 282.942 43.5721 283.051 43.6792C283.16 43.7862 283.215 43.9368 283.215 44.131V50.1675C283.215 50.5449 283.006 50.7354 282.587 50.7354C282.168 50.7354 281.981 50.5467 281.981 50.1675V45.949Z" fill="white"/>
<path d="M288.383 50.6625C286.372 50.6625 285.369 49.8968 285.369 48.3636V45.9051C285.369 44.3629 286.374 43.5918 288.383 43.5918H290.629C292.639 43.5918 293.642 44.3629 293.642 45.9051V48.3636C293.642 49.8968 292.637 50.6625 290.629 50.6625H288.383ZM292.397 45.8906C292.397 45.154 291.819 44.7857 290.663 44.7857H288.335C287.187 44.7857 286.614 45.154 286.614 45.8906V48.3782C286.614 49.1148 287.187 49.4831 288.335 49.4831H290.663C291.819 49.4831 292.397 49.1148 292.397 48.3782V45.8906Z" fill="white"/>
<path d="M302.835 45.2941L297.027 50.4434C296.919 50.5413 296.822 50.6139 296.737 50.6611C296.652 50.7101 296.527 50.7337 296.365 50.7337C296.001 50.7337 295.817 50.5305 295.817 50.1222V44.1148C295.817 43.7174 296.019 43.5178 296.423 43.5178C296.828 43.5178 297.051 43.7174 297.051 44.1148V48.9447L302.869 43.7954C302.969 43.7083 303.065 43.6412 303.154 43.5922C303.243 43.5432 303.346 43.5196 303.463 43.5196C303.865 43.5196 304.068 43.7229 304.068 44.1311V50.124C304.068 50.5323 303.863 50.7355 303.452 50.7355C303.04 50.7355 302.835 50.5323 302.835 50.124V45.2941ZM302.673 40.4352C302.673 40.7835 302.615 41.1174 302.499 41.4313C302.383 41.747 302.209 42.0246 301.975 42.2677C301.743 42.5108 301.454 42.7014 301.113 42.8429C300.772 42.9844 300.38 43.0533 299.938 43.0533C299.495 43.0533 299.105 42.9826 298.767 42.8429C298.43 42.7032 298.145 42.5108 297.913 42.2677C297.681 42.0246 297.505 41.747 297.389 41.4313C297.272 41.1156 297.214 40.7835 297.214 40.4352C297.214 40.212 297.249 40.0542 297.32 39.9616C297.389 39.8691 297.525 39.8237 297.726 39.8237C297.913 39.8237 298.042 39.8618 298.116 39.9398C298.19 40.0179 298.247 40.1249 298.285 40.2592C298.316 40.4624 298.357 40.6692 298.406 40.8779C298.457 41.0865 298.541 41.2789 298.657 41.4531C298.773 41.6272 298.932 41.7706 299.134 41.8831C299.335 41.9956 299.604 42.05 299.938 42.05C300.271 42.05 300.538 41.9937 300.741 41.8831C300.943 41.7724 301.102 41.629 301.218 41.4531C301.334 41.2789 301.418 41.0865 301.469 40.8779C301.519 40.6692 301.559 40.4624 301.59 40.2592C301.628 40.1231 301.686 40.0161 301.764 39.9398C301.842 39.8618 301.973 39.8237 302.16 39.8237C302.347 39.8237 302.486 39.8691 302.561 39.9616C302.635 40.0542 302.672 40.212 302.672 40.4352H302.673Z" fill="white"/>
<path d="M307.536 47.8689V50.1242C307.536 50.5325 307.331 50.7357 306.92 50.7357C306.508 50.7357 306.303 50.5325 306.303 50.1242V44.1168C306.303 43.7194 306.508 43.5198 306.92 43.5198C307.331 43.5198 307.536 43.7194 307.536 44.1168V46.2124L312.495 43.7104C312.611 43.6523 312.709 43.6033 312.785 43.5652C312.863 43.5271 312.948 43.5126 313.041 43.5217C313.235 43.5217 313.385 43.5725 313.494 43.6741C313.603 43.7757 313.658 43.9245 313.658 44.1186C313.658 44.2547 313.629 44.3654 313.571 44.4524C313.512 44.5395 313.409 44.623 313.262 44.6992L308.422 47.0416L313.286 49.5727C313.442 49.6598 313.541 49.7523 313.589 49.8485C313.636 49.9464 313.658 50.0426 313.658 50.1387C313.658 50.5361 313.44 50.7357 313.006 50.7357C312.905 50.7357 312.819 50.7194 312.75 50.6849C312.682 50.6504 312.576 50.596 312.437 50.518L307.536 47.8708V47.8689Z" fill="white"/>
<path d="M317.81 50.6626C316.15 50.6626 315.319 50.0185 315.319 48.7285V47.8993C315.319 46.6183 316.148 45.9797 317.81 45.9797H322.756V45.7619C322.756 45.0834 322.279 44.7441 321.324 44.7441H319.684C319.296 44.7441 319.102 44.5554 319.102 44.1762C319.102 43.797 319.296 43.5938 319.684 43.5938H321.324C323.086 43.5938 323.966 44.3159 323.966 45.7619V48.6124C323.966 49.9804 323.121 50.6644 321.43 50.6644H317.81V50.6626ZM321.361 49.5268C322.291 49.5268 322.758 49.2075 322.758 48.567V46.9812H317.905C316.997 46.9812 316.542 47.277 316.542 47.8685V48.6251C316.542 49.2274 316.996 49.5268 317.905 49.5268H321.361Z" fill="white"/>
<path d="M36.9352 60.217C50.9164 60.217 62.2504 48.9253 62.2504 34.9962C62.2504 21.0671 50.9164 9.77539 36.9352 9.77539C22.9541 9.77539 11.6201 21.0671 11.6201 34.9962C11.6201 48.9253 22.9541 60.217 36.9352 60.217Z" fill="white"/>
<path d="M36.9352 9.7793C22.9541 9.7793 11.6201 21.071 11.6201 35.0001H13.705L15.7555 35.0019C15.7555 29.3669 17.9579 24.0669 21.9577 20.082C25.9575 16.0971 31.2755 13.9029 36.9334 13.9029C42.5914 13.9029 47.9094 16.0971 51.9091 20.082C55.9089 24.0669 58.1114 29.3651 58.1114 35.0019H60.1619L62.2504 35.0001C62.2504 21.071 50.9164 9.7793 36.9352 9.7793Z" fill="#FE4F02"/>
<path d="M67.5135 29.0125C66.9121 29.0125 66.3702 28.6495 66.1408 28.095L64.3202 23.7024L62.4887 19.2772C62.2593 18.7209 62.3858 18.0816 62.8102 17.6571C63.39 17.0773 63.39 16.1345 62.8102 15.5547L56.4453 9.18976C55.8655 8.60998 54.9227 8.60998 54.3429 9.18976C53.9184 9.61421 53.2791 9.74245 52.7228 9.51126L48.2976 7.6798L43.905 5.85917C43.3487 5.62979 42.9875 5.08613 42.9875 4.48648C42.9875 3.66467 42.321 3 41.501 3H32.499C31.6772 3 31.0125 3.66648 31.0125 4.48648C31.0125 5.08794 30.6495 5.62979 30.095 5.85917L25.7024 7.6798L21.2772 9.51126C20.7209 9.74064 20.0816 9.61421 19.6571 9.18976C19.0773 8.60998 18.1345 8.60998 17.5547 9.18976L11.1898 15.5547C10.61 16.1345 10.61 17.0773 11.1898 17.6571C11.6142 18.0816 11.7425 18.7209 11.5113 19.2772L9.67619 23.7096L7.85917 28.095C7.62979 28.6513 7.08613 29.0125 6.48648 29.0125C5.66467 29.0125 5 29.679 5 30.499V39.501C5 40.3228 5.66648 40.9875 6.48648 40.9875C7.08794 40.9875 7.62979 41.3505 7.85917 41.905L9.6798 46.2976L11.5113 50.7227C11.7406 51.279 11.6142 51.9184 11.1898 52.3429C10.61 52.9227 10.61 53.8655 11.1898 54.4453L17.5547 60.8102C18.1345 61.39 19.0773 61.39 19.6571 60.8102C20.0816 60.3858 20.7209 60.2575 21.2772 60.4887L25.7024 62.3202L30.095 64.1408C30.6513 64.3702 31.0125 64.9139 31.0125 65.5135C31.0125 66.3353 31.679 67 32.499 67H41.501C42.3228 67 42.9875 66.3335 42.9875 65.5135C42.9875 64.9121 43.3505 64.3702 43.905 64.1408L48.2976 62.3202L52.7228 60.4887C53.2791 60.2593 53.9184 60.3858 54.3429 60.8102C54.9227 61.39 55.8655 61.39 56.4453 60.8102L62.8102 54.4453C63.39 53.8655 63.39 52.9227 62.8102 52.3429C62.3858 51.9184 62.2575 51.279 62.4887 50.7227L64.3238 46.2904L66.1408 41.905C66.3702 41.3487 66.9139 40.9875 67.5135 40.9875C68.3353 40.9875 69 40.321 69 39.501V35V30.499C69 29.6772 68.3335 29.0125 67.5135 29.0125ZM37 60.2864C23.0347 60.2864 11.7136 48.9653 11.7136 35C11.7136 21.0347 23.0347 9.71355 37 9.71355C50.9653 9.71355 62.2864 21.0347 62.2864 35C62.2864 48.9653 50.9653 60.2864 37 60.2864Z" fill="#6B6B6A"/>
<path d="M32.0195 33.1263V30.6637L32.0249 30.6331C32.043 30.5106 32.0701 30.3809 32.1081 30.2349C32.1497 30.0764 32.213 29.9341 32.3016 29.8026C32.4028 29.6639 32.5384 29.5522 32.7066 29.4747C32.873 29.3954 33.0755 29.3576 33.3286 29.3576H39.5688C39.8889 29.3576 40.2397 29.3 40.614 29.1865C40.9883 29.0676 41.3409 28.8802 41.6609 28.6298C41.9774 28.3758 42.2468 28.0407 42.4583 27.6336C42.6717 27.2283 42.7802 26.7202 42.7802 26.1203V24.989C42.7802 24.7782 42.7531 24.553 42.6988 24.3008C42.6518 24.0522 42.5723 23.8144 42.4583 23.573C42.3553 23.337 42.216 23.1047 42.0443 22.8849C41.8779 22.6705 41.6718 22.4795 41.4313 22.3138C41.2053 22.1481 40.9322 22.0129 40.6212 21.9121C40.312 21.8112 39.9576 21.7607 39.5688 21.7607H31.2546V23.6631H39.5688C39.9757 23.6631 40.2957 23.782 40.5217 24.018C40.746 24.2504 40.8581 24.5837 40.8581 25.0052V26.1185C40.8581 26.5275 40.7442 26.8535 40.5217 27.0859C40.3029 27.3147 39.9757 27.4318 39.5507 27.4318H33.3304C32.9362 27.4318 32.5782 27.4823 32.269 27.5831C31.9598 27.6822 31.6813 27.8191 31.4445 27.9885C31.213 28.1506 31.0123 28.3398 30.8477 28.5505C30.685 28.7667 30.5476 29.0009 30.4409 29.2441C30.336 29.4855 30.2546 29.7341 30.2004 29.9827C30.1534 30.2277 30.1299 30.4619 30.1299 30.6799V35.0305H42.7838V33.1281H32.0195V33.1263Z" fill="#323232"/>
<path d="M30.1295 48.8717H28.2924V46.3947H21.1409V48.8717H19.3037V43.8258C19.3037 43.0889 19.4303 42.4116 19.6852 41.7919C19.9402 41.1722 20.2928 40.6407 20.7449 40.194C21.1969 39.749 21.7322 39.4013 22.3488 39.1527C22.9654 38.9041 23.6398 38.7798 24.3685 38.7798H29.2037C29.3303 38.7798 29.4515 38.8032 29.5636 38.85C29.6757 38.8969 29.7751 38.9617 29.8601 39.0464C29.9451 39.1311 30.0102 39.2284 30.0572 39.3418C30.1042 39.4535 30.1277 39.5742 30.1277 39.7003V48.8699H30.1295V48.8717ZM21.1427 44.5644H28.2942V40.6101H24.3704C24.3143 40.6101 24.1931 40.6191 24.0105 40.6389C23.8315 40.6533 23.6217 40.693 23.3813 40.7578C23.1462 40.8245 22.8967 40.9236 22.6327 41.0605C22.3687 41.1956 22.1263 41.3847 21.9057 41.6225C21.6851 41.8621 21.5007 42.1612 21.3542 42.5233C21.2132 42.88 21.1427 43.3141 21.1427 43.8258V44.5644ZM41.4237 40.6101H37.3769V48.8717H35.5397V40.6101H31.4857V38.7798H41.4237V40.6101Z" fill="#323232"/>
<path d="M54.5699 48.8716H52.7201V42.8618L49.4635 48.5689C49.3839 48.7149 49.27 48.8247 49.1235 48.9004C48.9825 48.9761 48.8288 49.0121 48.6642 49.0121C48.4997 49.0121 48.3532 48.9743 48.2122 48.9004C48.0766 48.8247 47.9681 48.7149 47.8867 48.5689L44.6174 42.8618V48.8716H42.7803V39.5615C42.7803 39.3507 42.8418 39.1634 42.9647 38.9994C43.0913 38.8355 43.2576 38.7256 43.4584 38.668C43.5578 38.6445 43.6555 38.6373 43.7549 38.6463C43.8544 38.6518 43.9484 38.6716 44.037 38.7094C44.131 38.7418 44.216 38.7923 44.2919 38.8571C44.3679 38.9184 44.4312 38.994 44.4818 39.0823L48.6624 46.3225L52.8448 39.0823C52.9533 38.904 53.1016 38.7779 53.2897 38.7022C53.4831 38.6265 53.6821 38.6157 53.89 38.6662C54.0871 38.722 54.2498 38.8337 54.3782 38.9976C54.5048 39.1616 54.5681 39.3489 54.5681 39.5597V48.8698H54.5699V48.8716Z" fill="#323232"/>
</svg>
