<svg width="46" height="47" viewBox="0 0 46 47" fill="none" xmlns="http://www.w3.org/2000/svg">
<path fill-rule="evenodd" clip-rule="evenodd" d="M22.1666 6.89719C31.4543 6.40966 39.4097 13.6212 39.8957 22.9687C40.3816 32.3162 33.2137 40.2489 23.9259 40.7365C14.5662 41.2278 6.6828 34.0124 6.19681 24.665C5.71082 15.3175 12.8068 7.3885 22.1666 6.89719ZM25.5711 4.37872C25.6317 4.68913 25.8808 4.92606 26.1912 4.97888C26.9239 5.10353 27.6534 5.26634 28.359 5.4904C28.6752 5.5908 29.0241 5.48692 29.2199 5.21792L30.6194 3.29452C30.828 3.00785 31.2087 2.90862 31.5297 3.05727L33.3717 3.91044C33.6987 4.06189 33.8705 4.42722 33.7792 4.7772L33.1732 7.10113C33.0905 7.41817 33.2244 7.75088 33.4951 7.93372C34.1245 8.35876 34.6998 8.81463 35.2647 9.27639C35.5049 9.47268 35.8407 9.50025 36.1084 9.34413L38.144 8.15739C38.4527 7.97738 38.8453 8.04358 39.0786 8.31501L40.4247 9.88087C40.6584 10.1527 40.6662 10.5533 40.4431 10.8341L39.0033 12.6466C38.7992 12.9036 38.788 13.2636 38.9638 13.541C39.3556 14.1593 39.6933 14.786 40.022 15.4411C40.161 15.7178 40.4533 15.883 40.7605 15.8539L43.0959 15.6329C43.4468 15.5997 43.7725 15.8189 43.8756 16.1575L44.4772 18.134C44.5812 18.4758 44.4295 18.8436 44.1153 19.0112L42.1223 20.0747C41.8333 20.2289 41.6791 20.555 41.722 20.8809C41.8136 21.5775 41.8795 22.4615 41.9151 23.0077C41.935 23.314 42.1362 23.5788 42.4261 23.6758L44.7479 24.4524C45.0836 24.5647 45.2939 24.8994 45.2503 25.2522L44.9938 27.3289C44.9502 27.6821 44.6644 27.9552 44.3111 27.9811L42.0135 28.1501C41.6884 28.174 41.4185 28.4086 41.3326 28.7245C41.1438 29.4185 40.9011 30.1154 40.6484 30.8129C40.5432 31.103 40.6255 31.4284 40.8567 31.6318L42.5837 33.1509C42.8516 33.3866 42.9153 33.7801 42.7356 34.0889L41.7033 35.8635C41.5212 36.1765 41.1416 36.3127 40.8034 36.1863L38.6747 35.3909C38.3636 35.2746 38.0145 35.3809 37.8135 35.6463C37.3939 36.2003 36.9559 36.7307 36.3131 37.4197C36.1087 37.6387 36.0497 37.9584 36.1677 38.2344L37.1304 40.4868C37.2699 40.8132 37.1611 41.1932 36.8702 41.3951L35.1581 42.5836C34.8648 42.7872 34.4691 42.7527 34.2151 42.5015L32.499 40.8044C32.2829 40.5906 31.9591 40.5303 31.6816 40.6533C30.8938 41.0026 29.9933 41.4088 29.4259 41.6568C29.1484 41.7781 28.9634 42.0514 28.9603 42.3554L28.9364 44.7288C28.9328 45.0851 28.679 45.3891 28.3304 45.4547L26.3126 45.834C25.964 45.8995 25.618 45.7083 25.4864 45.3775L24.6778 43.3447C24.5535 43.0321 24.2362 42.8441 23.9021 42.8689C23.1499 42.9248 22.4156 42.9154 21.657 42.843C21.3136 42.8102 20.9853 43.0045 20.8627 43.3285L20.0932 45.3623C19.9626 45.7076 19.6002 45.9049 19.2411 45.8263L17.2571 45.392C16.907 45.3154 16.6613 44.9985 16.673 44.6387L16.7459 42.3911C16.7565 42.0631 16.552 41.7682 16.2468 41.6513C15.4953 41.3635 14.7512 41.013 14.0611 40.6203C13.7736 40.4567 13.4125 40.488 13.1672 40.7104L11.4829 42.2381C11.2198 42.4767 10.8256 42.4953 10.5415 42.2825L8.89685 41.0508C8.60963 40.8356 8.51619 40.4452 8.67469 40.1223L9.65409 38.1278C9.80112 37.8284 9.73055 37.4689 9.49657 37.2318C8.95642 36.6846 8.46921 36.0782 7.99158 35.4611C7.80083 35.2147 7.47837 35.112 7.18176 35.205L4.91449 35.9161C4.57804 36.0216 4.21412 35.875 4.04347 35.5651L3.04006 33.743C2.86726 33.4292 2.94106 33.0363 3.21577 32.8074L5.04292 31.2849C5.28207 31.0856 5.37148 30.758 5.27599 30.4609C5.015 29.649 4.81245 28.8698 4.63345 28.3034C4.55018 28.0399 4.31587 27.8595 4.04251 27.8283L1.59811 27.549C1.24982 27.5092 0.976655 27.2301 0.942869 26.8795L0.746652 24.8436C0.712224 24.4864 0.935781 24.1551 1.27881 24.0551L3.51834 23.402C3.82404 23.3129 4.03922 23.0384 4.05887 22.7192C4.09329 22.1602 4.15937 21.2702 4.26325 20.5866C4.31302 20.2591 4.17263 19.9229 3.88832 19.7552L1.83843 18.5458C1.53357 18.366 1.39716 17.9951 1.51233 17.6593L2.18194 15.7068C2.29717 15.3708 2.63227 15.1631 2.98282 15.2103L5.35429 15.5302C5.66382 15.572 5.96591 15.4154 6.11438 15.1393C6.38599 14.6342 6.83726 13.8142 7.22389 13.2028C7.39701 12.929 7.39805 12.5737 7.20845 12.3112L5.86243 10.4478C5.65414 10.1594 5.67781 9.76332 5.91894 9.50209L7.33866 7.96397C7.5824 7.6999 7.97908 7.64846 8.28156 7.8417L10.1329 9.02445C10.4086 9.2006 10.7659 9.17409 11.0176 8.96477C11.6327 8.45327 12.2551 7.9805 12.9088 7.56831C13.1847 7.39432 13.3312 7.06779 13.261 6.74816L12.7541 4.43863C12.6775 4.08979 12.8577 3.73535 13.1839 3.5933L15.089 2.76375C15.4184 2.62031 15.8027 2.73418 16.002 3.03424L17.3041 4.99521C17.4886 5.27305 17.8339 5.39187 18.1544 5.30319C18.8959 5.09799 19.6685 4.95289 20.4482 4.84625C20.7621 4.8033 21.0194 4.5714 21.0877 4.26052L21.602 1.91932C21.6779 1.57347 21.9854 1.32893 22.3379 1.33406L24.3817 1.36381C24.7326 1.36891 25.0321 1.62013 25.0997 1.96614L25.5711 4.37872Z" fill="#4F4747" stroke="#4F4747" stroke-width="0.717949"/>
<path fill-rule="evenodd" clip-rule="evenodd" d="M23.0011 6.57031C32.3837 6.57031 40.0207 14.2237 40.0207 23.6264C40.0207 33.0291 32.3837 40.6095 23.0011 40.6095C13.5457 40.6095 5.98145 32.9562 5.98145 23.5535C5.98145 14.1508 13.5457 6.57031 23.0011 6.57031Z" fill="white"/>
<circle cx="22.9996" cy="33.1647" r="1.3092" fill="#E97408"/>
<path fill-rule="evenodd" clip-rule="evenodd" d="M23.4496 18.0149C23.7706 17.8128 24.3171 17.7118 25.0889 17.7118H29.6186C31.4833 17.7118 32.6795 17.292 33.2071 16.4525C33.4147 16.1214 33.5185 15.725 33.5185 15.2631V14.6156C33.5185 14.1538 33.4147 13.7574 33.2071 13.4263C32.6795 12.5868 31.4833 12.167 29.6186 12.167H27.6199C27.4351 12.167 27.3057 12.2118 27.2316 12.3014C27.2198 12.3151 27.2097 12.3302 27.2015 12.3467C27.1374 12.4647 27.1054 12.6425 27.1054 12.8803C27.1054 13.1163 27.1374 13.2941 27.2015 13.4139C27.2097 13.4277 27.2188 13.4409 27.2289 13.4537C27.3021 13.5452 27.4324 13.5909 27.6199 13.5909H29.657C30.4316 13.5909 30.9785 13.6892 31.2976 13.8858C31.5427 14.0367 31.6941 14.2137 31.7517 14.4167C31.77 14.4807 31.7791 14.547 31.7791 14.6156V15.2631C31.7791 15.3198 31.7727 15.3751 31.7599 15.4291C31.7078 15.6394 31.5537 15.8251 31.2976 15.986C30.9785 16.1872 30.4316 16.2878 29.657 16.2878H25.1273C23.2653 16.2878 22.0705 16.7076 21.5428 17.5471C21.3352 17.8782 21.2314 18.2751 21.2314 18.7379V21.0685C21.2314 21.2926 21.2872 21.4586 21.3988 21.5665C21.5021 21.6652 21.653 21.7146 21.8515 21.7146H33.0041C33.1879 21.7146 33.3169 21.6698 33.391 21.5802C33.401 21.5674 33.4106 21.5537 33.4198 21.539C33.4856 21.4183 33.5185 21.24 33.5185 21.004C33.5185 20.7663 33.4856 20.5884 33.4198 20.4704C33.4106 20.4558 33.401 20.4421 33.391 20.4293C33.3169 20.3396 33.1879 20.2948 33.0041 20.2948H22.9695V18.7379C22.9695 18.6802 22.9764 18.6245 22.9901 18.5705C23.0422 18.3602 23.1954 18.175 23.4496 18.0149Z" fill="#00A439"/>
<rect x="22.3447" y="8.28906" width="1.3092" height="2.6184" rx="0.445128" fill="#66605F"/>
<rect x="11.6504" y="14.2275" width="0.816242" height="1.48376" rx="0.296752" transform="rotate(-45 11.6504 14.2275)" fill="#66605F"/>
<rect x="7.28906" y="24.2451" width="1.3092" height="2.6184" rx="0.445128" transform="rotate(-90 7.28906 24.2451)" fill="#66605F"/>
<path d="M28.3287 30.0709H27.4341H11.7729C11.5742 30.0709 11.4348 30.0239 11.3547 29.93C11.3438 29.9166 11.3334 29.9022 11.3236 29.8869C11.2524 29.7604 11.2168 29.5735 11.2168 29.3262C11.2168 29.077 11.2524 28.8906 11.3236 28.767C11.3334 28.7517 11.3438 28.7373 11.3547 28.7239C11.4348 28.63 11.5742 28.583 11.7729 28.583H27.434H28.3287C28.5407 28.583 28.6893 28.63 28.7748 28.7239C28.7864 28.7373 28.7974 28.7517 28.808 28.767C28.8839 28.8906 28.9218 29.077 28.9218 29.3262C28.9218 29.5735 28.8839 29.7604 28.808 29.8869C28.7974 29.9022 28.7864 29.9166 28.7748 29.93C28.6893 30.0239 28.5407 30.0709 28.3287 30.0709Z" fill="#00A439"/>
<path d="M28.4012 23.3457C28.6634 23.3458 28.7828 23.4651 28.7828 23.7273V26.8514C28.7828 27.0183 28.711 27.0902 28.5441 27.0902H28.3298C28.1629 27.0902 28.0911 27.0183 28.0911 26.8514V24.4425L26.0398 26.9234C25.9206 27.0662 25.7775 27.1141 25.6107 27.1141C25.42 27.1141 25.2764 27.0425 25.1572 26.9234L23.0825 24.4425V26.8754C23.0824 27.0422 23.0106 27.1141 22.8437 27.1141H22.6294C22.4625 27.1141 22.3907 27.0422 22.3907 26.8754V23.7033C22.3907 23.608 22.4386 23.5126 22.5101 23.4411C22.5816 23.3696 22.677 23.3457 22.7963 23.3457C22.9393 23.3457 23.0825 23.4173 23.1778 23.5365L25.6107 26.351L27.9957 23.5125C28.0911 23.3933 28.2343 23.3457 28.4012 23.3457Z" fill="#00A439"/>
<path d="M21.7469 23.3692C21.9137 23.3692 21.9851 23.4411 21.9851 23.6079V23.6798C21.985 23.8465 21.9136 23.918 21.7469 23.9181H20.22V26.8514C20.22 27.0183 20.1486 27.0901 19.9818 27.0902H19.767C19.6002 27.0901 19.5288 27.0182 19.5288 26.8514V23.9181H18.0024C17.8356 23.9181 17.7638 23.8465 17.7637 23.6798V23.6079C17.7637 23.4411 17.8356 23.3692 18.0024 23.3692H21.7469Z" fill="#00A439"/>
<path d="M10.7983 31.7343L15.5295 24.7202C15.7316 24.4204 15.6525 24.0135 15.3528 23.8114L15.2046 23.7115C14.9049 23.5094 14.4981 23.5885 14.2959 23.8882L9.56485 30.9023C9.45374 31.067 9.41473 31.2088 9.44781 31.3277C9.45286 31.3443 9.45897 31.3609 9.46616 31.3777C9.52885 31.5058 9.66348 31.6395 9.87006 31.7789C10.075 31.9171 10.2499 31.9921 10.3946 32.0039C10.4128 32.0043 10.4305 32.0037 10.4477 32.0022C10.5704 31.9883 10.6872 31.899 10.7983 31.7343Z" fill="#00A439"/>
<path d="M26.4633 36.9815C26.8287 36.6639 26.9464 36.2037 26.7251 35.958L15.351 23.3333C15.1889 23.1533 14.8433 23.1957 14.5756 23.4284C14.308 23.6611 14.2178 23.9975 14.3735 24.183L25.2924 37.2034C25.5048 37.4568 25.977 37.4042 26.3424 37.0866L26.4633 36.9815Z" fill="#E97408"/>
<circle cx="23.0002" cy="33.1642" r="0.3273" fill="white"/>
</svg>
