<svg width="273" height="58" viewBox="0 0 273 58" fill="none" xmlns="http://www.w3.org/2000/svg">
<path d="M55.4716 24.2152C54.974 24.2152 54.5258 23.9132 54.336 23.452L52.8298 19.7985L51.3147 16.118C51.125 15.6553 51.2296 15.1235 51.5807 14.7705C52.0603 14.2882 52.0603 13.5041 51.5807 13.0218L46.3151 7.72785C45.8355 7.24562 45.0555 7.24562 44.5759 7.72785C44.2248 8.08088 43.6958 8.18754 43.2356 7.99525L39.5748 6.47196L35.9409 4.95767C35.4807 4.76689 35.1819 4.3147 35.1819 3.81595C35.1819 3.13242 34.6305 2.57959 33.9521 2.57959H26.505C25.8252 2.57959 25.2753 3.13392 25.2753 3.81595C25.2753 4.31621 24.975 4.76689 24.5163 4.95767L20.8824 6.47196L17.2216 7.99525C16.7614 8.18604 16.2324 8.08088 15.8813 7.72785C15.4016 7.24562 14.6217 7.24562 14.142 7.72785L8.87648 13.0218C8.39684 13.5041 8.39684 14.2882 8.87648 14.7705C9.22762 15.1235 9.3337 15.6553 9.14245 16.118L7.62434 19.8046L6.12117 23.452C5.93141 23.9147 5.48166 24.2152 4.98558 24.2152C4.30572 24.2152 3.75586 24.7695 3.75586 25.4516V32.9388C3.75586 33.6224 4.30722 34.1752 4.98558 34.1752C5.48315 34.1752 5.93141 34.4772 6.12117 34.9384L7.62733 38.5919L9.14245 42.2724C9.33221 42.7351 9.22762 43.2669 8.87648 43.6199C8.39684 44.1022 8.39684 44.8863 8.87648 45.3686L14.142 50.6626C14.6217 51.1448 15.4016 51.1448 15.8813 50.6626C16.2324 50.3095 16.7614 50.2029 17.2216 50.3951L20.8824 51.9184L24.5163 53.4327C24.9765 53.6235 25.2753 54.0757 25.2753 54.5744C25.2753 55.258 25.8267 55.8108 26.505 55.8108H33.9521C34.632 55.8108 35.1819 55.2565 35.1819 54.5744C35.1819 54.0742 35.4822 53.6235 35.9409 53.4327L39.5748 51.9184L43.2356 50.3951C43.6958 50.2044 44.2248 50.3095 44.5759 50.6626C45.0555 51.1448 45.8355 51.1448 46.3151 50.6626L51.5807 45.3686C52.0603 44.8863 52.0603 44.1022 51.5807 43.6199C51.2296 43.2669 51.1235 42.7351 51.3147 42.2724L52.8328 38.5859L54.336 34.9384C54.5258 34.4757 54.9755 34.1752 55.4716 34.1752C56.1515 34.1752 56.7013 33.6209 56.7013 32.9388V29.1952V25.4516C56.7013 24.768 56.15 24.2152 55.4716 24.2152ZM30.2286 50.2269C18.6754 50.2269 9.3098 40.8107 9.3098 29.1952C9.3098 17.5797 18.6754 8.16351 30.2286 8.16351C41.7817 8.16351 51.1474 17.5797 51.1474 29.1952C51.1474 40.8107 41.7817 50.2269 30.2286 50.2269Z" fill="#323232"/>
<path d="M30.2287 9.89795C25.138 9.89795 20.2564 11.9305 16.6554 15.551C13.0559 19.1699 11.0327 24.0793 11.0327 29.1975H12.7271C12.7271 24.4985 14.5471 20.0788 17.8522 16.7558C21.1574 13.4328 25.5518 11.603 30.2272 11.603C34.9025 11.603 39.297 13.4328 42.6022 16.7558C45.9073 20.0788 47.7273 24.497 47.7273 29.1975H49.4217C49.4217 24.0793 47.4 19.1714 43.799 15.551C40.1995 11.932 35.3164 9.89795 30.2257 9.89795H30.2287Z" fill="#FE4F02"/>
<path d="M30.2288 8.16357C24.6809 8.16357 19.36 10.3794 15.4378 14.3244C11.514 18.2678 9.31006 23.6174 9.31006 29.1953H11.0344C11.0344 24.0771 13.056 19.1692 16.657 15.5487C20.2566 11.9297 25.1396 9.89568 30.2303 9.89568C35.3211 9.89568 40.2026 11.9282 43.8036 15.5487C47.4032 19.1677 49.4263 24.0771 49.4263 29.1953H51.1506C51.1506 23.6174 48.9467 18.2678 45.0229 14.3244C41.0991 10.3794 35.7798 8.16357 30.2318 8.16357H30.2288Z" fill="#FE4F02"/>
<path d="M26.1674 27.6321V25.5785L26.1719 25.5529C26.1868 25.4508 26.2092 25.3426 26.2406 25.2209C26.275 25.0887 26.3273 24.9701 26.4005 24.8604C26.4842 24.7447 26.5962 24.6516 26.7352 24.587C26.8727 24.5209 27.04 24.4893 27.2492 24.4893H32.4057C32.6702 24.4893 32.96 24.4413 33.2693 24.3466C33.5786 24.2475 33.87 24.0912 34.1345 23.8824C34.3959 23.6706 34.6186 23.3912 34.7934 23.0517C34.9697 22.7137 35.0594 22.29 35.0594 21.7898V20.8464C35.0594 20.6706 35.037 20.4828 34.9921 20.2725C34.9533 20.0652 34.8875 19.8669 34.7934 19.6656C34.7082 19.4688 34.5932 19.275 34.4512 19.0917C34.3138 18.9129 34.1434 18.7537 33.9447 18.6155C33.7579 18.4773 33.5323 18.3646 33.2753 18.2805C33.0198 18.1964 32.7269 18.1543 32.4057 18.1543H25.5353V19.7407H32.4057C32.7419 19.7407 33.0063 19.8398 33.1931 20.0366C33.3784 20.2304 33.471 20.5083 33.471 20.8599V21.7883C33.471 22.1293 33.3769 22.4012 33.1931 22.595C33.0123 22.7858 32.7419 22.8834 32.3907 22.8834H27.2507C26.925 22.8834 26.6291 22.9255 26.3736 23.0096C26.1181 23.0922 25.888 23.2064 25.6922 23.3476C25.501 23.4828 25.3351 23.6406 25.1992 23.8163C25.0647 23.9966 24.9511 24.1919 24.863 24.3947C24.7763 24.596 24.7091 24.8033 24.6642 25.0106C24.6254 25.2149 24.606 25.4102 24.606 25.592V29.22H35.0624V27.6336H26.1719L26.1674 27.6321Z" fill="#323232"/>
<path d="M24.6045 40.7626H23.0864V38.697H17.1768V40.7626H15.6587V36.5548C15.6587 35.9403 15.7633 35.3755 15.974 34.8587C16.1846 34.3419 16.476 33.8988 16.8496 33.5262C17.2231 33.1551 17.6654 32.8652 18.1749 32.6579C18.6844 32.4506 19.2418 32.3469 19.8439 32.3469H23.8394C23.944 32.3469 24.0441 32.3665 24.1368 32.4055C24.2294 32.4446 24.3116 32.4987 24.3818 32.5693C24.4521 32.6399 24.5058 32.721 24.5447 32.8156C24.5835 32.9088 24.603 33.0094 24.603 33.1146V40.7611H24.6045V40.7626ZM17.1783 37.1707H23.0879V33.8732H19.8454C19.7991 33.8732 19.699 33.8807 19.5481 33.8973C19.4002 33.9093 19.2268 33.9423 19.0281 33.9964C18.8339 34.052 18.6277 34.1346 18.4095 34.2488C18.1914 34.3615 17.9911 34.5192 17.8088 34.7175C17.6266 34.9173 17.4741 35.1667 17.3531 35.4686C17.2366 35.7661 17.1783 36.1281 17.1783 36.5548V37.1707ZM33.9372 33.8732H30.5932V40.7626H29.0751V33.8732H25.7251V32.3469H33.9372V33.8732Z" fill="#323232"/>
<path d="M44.7988 40.7632H43.2703V35.7516L40.5792 40.5108C40.5135 40.6325 40.4193 40.7241 40.2983 40.7872C40.1817 40.8503 40.0547 40.8803 39.9188 40.8803C39.7828 40.8803 39.6618 40.8488 39.5452 40.7872C39.4331 40.7241 39.3435 40.6325 39.2763 40.5108L36.5747 35.7516V40.7632H35.0566V32.9994C35.0566 32.8237 35.1074 32.6675 35.209 32.5307C35.3136 32.394 35.4511 32.3024 35.617 32.2543C35.6991 32.2348 35.7798 32.2288 35.862 32.2363C35.9442 32.2408 36.0219 32.2573 36.0951 32.2889C36.1728 32.3159 36.243 32.358 36.3058 32.4121C36.3685 32.4631 36.4208 32.5262 36.4627 32.5998L39.9173 38.6374L43.3734 32.5998C43.463 32.4511 43.5855 32.346 43.7409 32.2829C43.9008 32.2198 44.0652 32.2108 44.237 32.2528C44.3999 32.2994 44.5343 32.3925 44.6404 32.5292C44.745 32.6659 44.7973 32.8222 44.7973 32.998V40.7617H44.7988V40.7632Z" fill="#323232"/>
<path d="M96.4163 26.9849C96.4163 27.287 96.3625 27.6101 96.2563 27.9572C96.1562 28.3028 95.9873 28.6244 95.7496 28.9189C95.518 29.215 95.2146 29.4629 94.8394 29.6643C94.4642 29.8596 94.0054 29.9573 93.4598 29.9573H84.2005C84.0256 29.9573 83.8627 29.9258 83.7133 29.8626C83.5638 29.7995 83.4323 29.7154 83.3202 29.6087C83.214 29.496 83.1289 29.3637 83.0661 29.212C83.0048 29.0617 82.9719 28.8979 82.9719 28.7221V17.6681C82.9719 17.4983 83.0033 17.3375 83.0661 17.1873C83.1289 17.037 83.214 16.9048 83.3202 16.7905C83.4323 16.6778 83.5638 16.5892 83.7133 16.5261C83.8627 16.463 84.0256 16.4314 84.2005 16.4314H92.3613C92.6617 16.4314 92.9845 16.4855 93.3283 16.5922C93.6721 16.6989 93.9919 16.8717 94.2849 17.1106C94.5853 17.3435 94.8319 17.6486 95.0262 18.0258C95.2265 18.403 95.3267 18.8658 95.3267 19.4128V19.8756C95.3267 20.3099 95.2549 20.7772 95.1114 21.2807C94.9679 21.778 94.7363 22.2484 94.4164 22.6947C94.6914 22.8645 94.9485 23.0689 95.1862 23.3078C95.4313 23.5467 95.6435 23.8232 95.8244 24.1373C96.0067 24.4514 96.1487 24.8075 96.2563 25.2027C96.3625 25.5994 96.4163 26.0352 96.4163 26.5131V26.9849ZM93.9785 26.5131C93.9785 26.193 93.9292 25.906 93.829 25.655C93.7289 25.3966 93.5884 25.1772 93.4075 24.9954C93.2252 24.8135 93.007 24.6753 92.7499 24.5806C92.4928 24.4799 92.2058 24.4303 91.8875 24.4303H86.3902V21.9599H90.7904C91.1088 21.9599 91.3972 21.9133 91.6528 21.8186C91.9099 21.7179 92.1281 21.5767 92.309 21.3949C92.4898 21.213 92.6273 20.9951 92.7215 20.7442C92.8216 20.4857 92.871 20.1972 92.871 19.8771V19.4143C92.871 19.0626 92.7021 18.8868 92.3643 18.8868H85.4127V27.5079H93.4613C93.5047 27.5079 93.5585 27.5049 93.6213 27.4989C93.684 27.4929 93.7408 27.4733 93.7902 27.4418C93.841 27.4102 93.8843 27.3576 93.9217 27.281C93.9591 27.2058 93.9785 27.1022 93.9785 26.9699V26.5176V26.5131Z" fill="#323232"/>
<path d="M109.307 24.4288H101.605V21.9584H109.307V24.4288ZM110.406 29.9558H101.607C101.269 29.9558 100.9 29.8957 100.499 29.777C100.099 29.6568 99.7267 29.4629 99.3829 29.1924C99.0451 28.9159 98.7596 28.5598 98.5294 28.127C98.3038 27.6867 98.1917 27.1487 98.1917 26.5146V17.6681C98.1917 17.4983 98.223 17.3375 98.2858 17.1873C98.3486 17.037 98.4338 16.9048 98.5399 16.7905C98.652 16.6778 98.7835 16.5892 98.933 16.5261C99.0825 16.463 99.2454 16.4314 99.4203 16.4314H110.406V18.8838H100.631V26.5146C100.631 26.8347 100.716 27.0811 100.884 27.2509C101.052 27.4207 101.299 27.5049 101.625 27.5049H110.406V29.9573V29.9558Z" fill="#323232"/>
<path d="M132.217 29.9549H129.777V26.6354H121.203V29.9549H118.763V23.1927C118.763 22.2054 118.932 21.2962 119.27 20.4667C119.606 19.6372 120.076 18.9235 120.678 18.3254C121.279 17.7273 121.987 17.263 122.808 16.9294C123.627 16.5958 124.521 16.429 125.491 16.429H130.988C131.157 16.429 131.317 16.4605 131.466 16.5236C131.616 16.5867 131.747 16.6739 131.86 16.7881C131.973 16.9008 132.06 17.033 132.123 17.1848C132.184 17.3351 132.217 17.4959 132.217 17.6657V29.9549ZM121.203 24.1829H129.777V18.8829H125.489C125.415 18.8829 125.255 18.8949 125.011 18.9205C124.772 18.94 124.495 18.9926 124.176 19.0812C123.863 19.1699 123.531 19.3051 123.18 19.487C122.83 19.6688 122.508 19.9213 122.215 20.2413C121.92 20.5614 121.676 20.9641 121.482 21.448C121.295 21.9259 121.201 22.5074 121.201 23.1927V24.1829H121.203Z" fill="#323232"/>
<path d="M147.217 18.8838H141.843V29.9573H139.403V18.8838H134.018V16.4314H147.217V18.8838Z" fill="#323232"/>
<path d="M164.677 29.9559H162.22V21.9014L157.896 29.5502C157.79 29.7456 157.639 29.8928 157.446 29.9935C157.257 30.0942 157.054 30.1438 156.836 30.1438C156.618 30.1438 156.423 30.0942 156.235 29.9935C156.053 29.8928 155.911 29.7456 155.803 29.5502L151.46 21.9014V29.9559H149.021V17.4774C149.021 17.1949 149.103 16.9424 149.266 16.723C149.435 16.5037 149.653 16.3549 149.923 16.2798C150.055 16.2482 150.186 16.2392 150.316 16.2512C150.448 16.2572 150.573 16.2858 150.692 16.3369C150.816 16.3804 150.929 16.4466 151.028 16.5352C151.128 16.6164 151.213 16.717 151.282 16.8373L156.836 26.5433L162.39 16.8373C162.534 16.5983 162.731 16.4285 162.98 16.3278C163.238 16.2272 163.502 16.2121 163.779 16.2813C164.042 16.3564 164.257 16.5052 164.426 16.7246C164.595 16.9439 164.678 17.1964 164.678 17.4789V29.9574L164.677 29.9559Z" fill="#323232"/>
<path d="M181.638 24.4866C181.638 25.31 181.497 26.0674 181.215 26.7602C180.934 27.4514 180.542 28.0495 180.043 28.5529C179.542 29.0563 178.949 29.4485 178.26 29.7325C177.578 30.009 176.834 30.1473 176.028 30.1473H172.725C171.918 30.1473 171.171 30.009 170.483 29.7325C169.794 29.45 169.201 29.0563 168.7 28.5529C168.201 28.0495 167.806 27.4529 167.518 26.7602C167.237 26.0689 167.096 25.3115 167.096 24.4866V21.9019C167.096 21.0844 167.237 20.33 167.518 19.6388C167.805 18.9415 168.199 18.3435 168.7 17.8461C169.201 17.3427 169.794 16.9504 170.483 16.6664C171.171 16.3839 171.918 16.2427 172.725 16.2427H176.028C176.835 16.2427 177.578 16.3839 178.26 16.6664C178.949 16.9489 179.542 17.3427 180.043 17.8461C180.544 18.3435 180.934 18.94 181.215 19.6388C181.497 20.33 181.638 21.0844 181.638 21.9019V24.4866ZM179.198 21.9019C179.198 21.418 179.121 20.9807 178.964 20.5915C178.814 20.1948 178.597 19.8597 178.316 19.5817C178.041 19.2992 177.707 19.0813 177.314 18.931C176.925 18.7732 176.498 18.6951 176.028 18.6951H172.725C172.25 18.6951 171.815 18.7732 171.422 18.931C171.033 19.0813 170.698 19.2992 170.417 19.5817C170.136 19.8582 169.918 20.1948 169.761 20.5915C169.612 20.9807 169.537 21.418 169.537 21.9019V24.4866C169.537 24.9704 169.612 25.4107 169.761 25.8074C169.918 26.1966 170.136 26.5333 170.417 26.8173C170.698 27.0938 171.033 27.3102 171.422 27.4679C171.815 27.6182 172.25 27.6948 172.725 27.6948H176.009C176.484 27.6948 176.915 27.6197 177.303 27.4679C177.696 27.3102 178.034 27.0938 178.316 26.8173C178.597 26.5348 178.814 26.1981 178.964 25.8074C179.119 25.4107 179.198 24.9704 179.198 24.4866V21.9019Z" fill="#323232"/>
<path d="M196.093 29.9549H187.294C187.069 29.9549 186.825 29.9293 186.563 29.8797C186.306 29.8226 186.051 29.7385 185.794 29.6258C185.543 29.5131 185.302 29.3673 185.07 29.1915C184.84 29.0097 184.632 28.7918 184.452 28.5408C184.277 28.2823 184.136 27.9878 184.03 27.6542C183.924 27.3146 183.87 26.9344 183.87 26.5137V19.8732C183.87 19.6463 183.896 19.4043 183.945 19.1474C184 18.8829 184.085 18.6259 184.197 18.3735C184.31 18.115 184.458 17.8701 184.638 17.6371C184.821 17.4042 185.036 17.1998 185.286 17.024C185.543 16.8422 185.836 16.6964 186.167 16.5897C186.499 16.483 186.874 16.429 187.293 16.429H196.092V18.8814H187.293C186.974 18.8814 186.731 18.967 186.562 19.1353C186.393 19.3051 186.308 19.5561 186.308 19.8897V26.5107C186.308 26.8247 186.393 27.0697 186.562 27.247C186.737 27.4168 186.98 27.5009 187.293 27.5009H196.092V29.9534L196.093 29.9549Z" fill="#323232"/>
<path d="M230.287 24.4288H222.585V21.9584H230.287V24.4288ZM231.384 29.9558H222.585C222.247 29.9558 221.878 29.8957 221.477 29.777C221.077 29.6568 220.705 29.4629 220.361 29.1924C220.023 28.9159 219.739 28.5598 219.507 28.127C219.282 27.6867 219.17 27.1487 219.17 26.5146V17.6681C219.17 17.4983 219.201 17.3375 219.264 17.1873C219.327 17.037 219.412 16.9048 219.518 16.7905C219.63 16.6778 219.762 16.5892 219.911 16.5261C220.06 16.463 220.223 16.4314 220.398 16.4314H231.384V18.8838H221.609V26.5146C221.609 26.8347 221.694 27.0811 221.862 27.2509C222.03 27.4207 222.277 27.5049 222.603 27.5049H231.384V29.9573V29.9558Z" fill="#323232"/>
<path d="M247.149 20.9762C247.149 21.5352 247.08 22.0356 246.943 22.4759C246.805 22.9162 246.617 23.3054 246.379 23.645C246.147 23.9786 245.878 24.2641 245.572 24.503C245.266 24.742 244.944 24.9403 244.607 25.0966C244.275 25.2469 243.937 25.3581 243.593 25.4272C243.255 25.4963 242.937 25.5309 242.637 25.5309H237.121V23.0785H242.637C242.943 23.0529 243.221 22.9898 243.472 22.8891C243.729 22.7824 243.947 22.6412 244.13 22.4653C244.318 22.2895 244.46 22.0792 244.562 21.8327C244.662 21.5818 244.711 21.2947 244.711 20.9747V19.4284C244.711 19.2901 244.692 19.1864 244.654 19.1173C244.623 19.0422 244.58 18.9881 244.523 18.9565C244.473 18.9189 244.417 18.8964 244.354 18.8904C244.299 18.8844 244.245 18.8814 244.194 18.8814H236.145V29.9549H233.706V17.6657C233.706 17.4959 233.737 17.3351 233.8 17.1848C233.861 17.0345 233.947 16.9023 234.053 16.7881C234.165 16.6754 234.296 16.5867 234.446 16.5236C234.595 16.4605 234.758 16.429 234.933 16.429H244.192C244.737 16.429 245.197 16.5296 245.572 16.731C245.947 16.9263 246.251 17.1743 246.482 17.4763C246.72 17.7724 246.889 18.0925 246.989 18.4381C247.095 18.7837 247.149 19.1083 247.149 19.4103V20.9762Z" fill="#323232"/>
<path d="M217.12 20.9762C217.12 21.5352 217.052 22.0356 216.914 22.4759C216.777 22.9162 216.588 23.3054 216.351 23.645C216.119 23.9786 215.85 24.2641 215.543 24.503C215.237 24.742 214.916 24.9403 214.578 25.0966C214.246 25.2469 213.908 25.3581 213.565 25.4272C213.227 25.4963 212.908 25.5309 212.608 25.5309H209.53V23.0785H212.608C212.914 23.0529 213.192 22.9898 213.443 22.8891C213.701 22.7824 213.919 22.6412 214.101 22.4653C214.289 22.2895 214.431 22.0792 214.533 21.8327C214.633 21.5818 214.683 21.2947 214.683 20.9747V19.4284C214.683 19.2901 214.663 19.1864 214.626 19.1173C214.594 19.0422 214.551 18.9881 214.494 18.9565C214.445 18.9189 214.388 18.8964 214.325 18.8904C214.27 18.8844 214.216 18.8814 214.165 18.8814H208.555V29.9549H206.115V17.6657C206.115 17.4959 206.147 17.3351 206.209 17.1848C206.271 17.0345 206.356 16.9023 206.462 16.7881C206.574 16.6754 206.706 16.5867 206.855 16.5236C207.005 16.4605 207.167 16.429 207.342 16.429H214.162C214.706 16.429 215.167 16.5296 215.542 16.731C215.917 16.9263 216.221 17.1743 216.452 17.4763C216.69 17.7724 216.859 18.0925 216.959 18.4381C217.065 18.7837 217.119 19.1083 217.119 19.4103V20.9762H217.12Z" fill="#323232"/>
<path d="M197.552 19.4103C197.552 19.1083 197.605 18.7852 197.711 18.4381C197.812 18.0925 197.981 17.7709 198.218 17.4763C198.45 17.1743 198.753 16.9263 199.128 16.731C199.504 16.5296 199.962 16.429 200.508 16.429H207.328C207.503 16.429 207.666 16.4605 207.815 16.5236C207.965 16.5867 208.096 16.6739 208.208 16.7881C208.314 16.9008 208.4 17.033 208.461 17.1848C208.524 17.3351 208.555 17.4959 208.555 17.6657V29.9549H206.116V18.8814H200.505C200.454 18.8814 200.402 18.8844 200.345 18.8904C200.282 18.8964 200.225 18.9189 200.176 18.9565C200.119 18.9881 200.076 19.0422 200.045 19.1173C200.007 19.1864 199.988 19.2901 199.988 19.4284V20.9747C199.988 21.2947 200.037 21.5818 200.137 21.8327C200.237 22.0777 200.381 22.288 200.569 22.4653C200.752 22.6412 200.97 22.7824 201.227 22.8891C201.478 22.9898 201.754 23.0529 202.062 23.0785H205.14V25.5309H202.062C201.762 25.5309 201.444 25.4963 201.106 25.4272C200.762 25.3581 200.424 25.2484 200.092 25.0966C199.755 24.9388 199.433 24.742 199.127 24.503C198.82 24.2641 198.551 23.9786 198.32 23.645C198.082 23.3054 197.894 22.9162 197.756 22.4759C197.619 22.0356 197.55 21.5352 197.55 20.9762V19.4103H197.552Z" fill="#323232"/>
<path d="M262.994 25.4092C262.994 24.8502 262.925 24.3498 262.787 23.9095C262.65 23.4692 262.463 23.08 262.225 22.7403C261.994 22.4067 261.725 22.1212 261.418 21.8823C261.112 21.6434 260.789 21.445 260.451 21.2887C260.121 21.1385 259.782 21.0273 259.438 20.9581C259.1 20.889 258.782 20.8544 258.481 20.8544H252.966V23.3069H258.481C258.788 23.3324 259.066 23.3955 259.317 23.4947C259.574 23.6014 259.792 23.7427 259.973 23.9185C260.161 24.0943 260.305 24.3047 260.405 24.5511C260.505 24.8021 260.554 25.0891 260.554 25.4092V26.9555C260.554 27.0937 260.535 27.1974 260.498 27.2665C260.466 27.3417 260.423 27.3957 260.366 27.4273C260.317 27.4649 260.26 27.4874 260.197 27.4934C260.14 27.4994 260.088 27.5024 260.037 27.5024H251.989V16.429H249.549V28.7181C249.549 28.8879 249.581 29.0487 249.643 29.199C249.706 29.3493 249.791 29.4815 249.898 29.5957C250.01 29.7084 250.141 29.7971 250.291 29.8602C250.44 29.9233 250.603 29.9549 250.778 29.9549H260.037C260.581 29.9549 261.042 29.8542 261.417 29.6528C261.792 29.4575 262.095 29.2095 262.327 28.9075C262.565 28.6114 262.734 28.2914 262.834 27.9457C262.94 27.6001 262.994 27.2755 262.994 26.975V25.4092Z" fill="#323232"/>
<path d="M64.9795 29.9549V27.54L66.2888 27.5024V23.1927C66.2888 22.2054 66.4577 21.2962 66.7955 20.4667C67.1333 19.6372 67.6026 18.9235 68.2019 18.3254C68.8028 17.7273 69.5128 17.263 70.3318 16.9294C71.1509 16.5958 72.0447 16.429 73.0147 16.429H78.512C78.6809 16.429 78.8408 16.4605 78.9903 16.5236C79.1398 16.5867 79.2713 16.6739 79.3849 16.7881C79.497 16.9008 79.5852 17.033 79.6479 17.1848C79.7107 17.3351 79.7421 17.4959 79.7421 17.6657V27.5415H81.3115V29.9564H64.9795V29.9549ZM68.7281 27.5039H77.3028V18.8829H73.0162C72.9415 18.8829 72.7815 18.8949 72.5379 18.9205C72.3003 18.94 72.0223 18.9926 71.7024 19.0812C71.39 19.1699 71.0582 19.3051 70.7085 19.487C70.3587 19.6688 70.0359 19.9213 69.7429 20.2413C69.4485 20.5614 69.2048 20.9641 69.0105 21.448C68.8222 21.9259 68.7296 22.5074 68.7296 23.1927V27.5024L68.7281 27.5039Z" fill="#323232"/>
<path d="M265.083 16.4346H267.484V29.956H265.083V16.4346Z" fill="#323232"/>
<path d="M67.5866 42.1068C65.9305 42.1068 65.104 41.4727 65.104 40.2029V38.1667C65.104 36.8894 65.932 36.2507 67.5866 36.2507H70.9032C71.235 36.2507 71.4009 36.416 71.4009 36.7451C71.4009 37.0742 71.235 37.2395 70.9032 37.2395H67.5478C66.6016 37.2395 66.1293 37.5446 66.1293 38.1547V40.2149C66.1293 40.825 66.6016 41.13 67.5478 41.13H70.9032C71.235 41.13 71.4009 41.2908 71.4009 41.6124C71.4009 41.934 71.235 42.1068 70.9032 42.1068H67.5866Z" fill="#323232"/>
<path d="M74.9888 37.2395H73.1863C72.8604 37.2395 72.6975 37.0757 72.6975 36.7451C72.6975 36.4145 72.8604 36.2507 73.1863 36.2507H77.8167C78.1425 36.2507 78.3054 36.416 78.3054 36.7451C78.3054 37.0742 78.1425 37.2395 77.8167 37.2395H76.0141V41.662C76.0141 42.0001 75.8452 42.1684 75.506 42.1684C75.1667 42.1684 74.9888 42.0001 74.9888 41.662V37.2395Z" fill="#323232"/>
<path d="M82.1213 42.1068C80.4652 42.1068 79.6387 41.4727 79.6387 40.2029V38.1667C79.6387 36.8894 80.4667 36.2507 82.1213 36.2507H83.9717C85.6277 36.2507 86.4543 36.8894 86.4543 38.1667V40.2029C86.4543 41.4727 85.6262 42.1068 83.9717 42.1068H82.1213ZM85.4289 38.1547C85.4289 37.5446 84.9521 37.2395 84.0001 37.2395H82.0824C81.1363 37.2395 80.664 37.5446 80.664 38.1547V40.2149C80.664 40.825 81.1363 41.13 82.0824 41.13H84.0001C84.9521 41.13 85.4289 40.825 85.4289 40.2149V38.1547Z" fill="#323232"/>
<path d="M99.4663 42.1069C97.8177 42.1069 96.9927 41.4727 96.9927 40.203V36.6971C96.9927 36.359 97.1616 36.1907 97.5008 36.1907C97.8401 36.1907 98.009 36.359 98.009 36.6971V40.215C98.009 40.8251 98.4589 41.1301 99.3602 41.1301H100.885V36.6956C100.885 36.3575 101.051 36.1892 101.382 36.1892C101.714 36.1892 101.882 36.3575 101.882 36.6956V41.1301H103.358C104.266 41.1301 104.72 40.8251 104.72 40.215V36.6971C104.72 36.359 104.889 36.1907 105.228 36.1907C105.567 36.1907 105.736 36.359 105.736 36.6971V40.203C105.736 41.4727 104.911 42.1069 103.263 42.1069H99.4663Z" fill="#323232"/>
<path d="M113.377 37.6621L108.593 41.9268C108.503 42.0079 108.424 42.068 108.354 42.1071C108.284 42.1477 108.181 42.1672 108.048 42.1672C107.747 42.1672 107.598 41.9989 107.598 41.6608V36.6853C107.598 36.3562 107.764 36.1909 108.095 36.1909C108.427 36.1909 108.613 36.3562 108.613 36.6853V40.6855L113.406 36.4208C113.488 36.3487 113.567 36.2931 113.641 36.2525C113.714 36.212 113.799 36.1924 113.895 36.1924C114.226 36.1924 114.392 36.3607 114.392 36.6988V41.6623C114.392 42.0004 114.223 42.1687 113.884 42.1687C113.545 42.1687 113.376 42.0004 113.376 41.6623V37.6621H113.377Z" fill="#323232"/>
<path d="M122.015 39.6734H117.25V41.6615C117.25 41.9996 117.082 42.1679 116.742 42.1679C116.403 42.1679 116.234 41.9996 116.234 41.6615V36.6981C116.234 36.36 116.403 36.1917 116.742 36.1917C117.082 36.1917 117.25 36.36 117.25 36.6981V38.6982H122.015V36.6981C122.015 36.36 122.184 36.1917 122.524 36.1917C122.863 36.1917 123.032 36.36 123.032 36.6981V41.6615C123.032 41.9996 122.863 42.1679 122.524 42.1679C122.184 42.1679 122.015 41.9996 122.015 41.6615V39.6734Z" fill="#323232"/>
<path d="M127.309 42.1068C125.652 42.1068 124.826 41.4727 124.826 40.2029V38.1667C124.826 36.8894 125.654 36.2507 127.309 36.2507H129.159C130.815 36.2507 131.642 36.8894 131.642 38.1667V40.2029C131.642 41.4727 130.813 42.1068 129.159 42.1068H127.309ZM130.616 38.1547C130.616 37.5446 130.139 37.2395 129.187 37.2395H127.27C126.324 37.2395 125.851 37.5446 125.851 38.1547V40.2149C125.851 40.825 126.324 41.13 127.27 41.13H129.187C130.139 41.13 130.616 40.825 130.616 40.2149V38.1547Z" fill="#323232"/>
<path d="M140.374 38.203L137.892 41.9147C137.841 41.9959 137.778 42.0575 137.705 42.1011C137.632 42.1447 137.53 42.1672 137.403 42.1672C137.276 42.1672 137.176 42.1447 137.105 42.1011C137.035 42.0575 136.974 41.9914 136.923 41.9027L134.449 38.2151V41.6969C134.449 42.0094 134.281 42.1672 133.941 42.1672C133.602 42.1672 133.433 42.0109 133.433 41.6969V36.6973C133.433 36.3592 133.612 36.1909 133.97 36.1909C134.11 36.1909 134.219 36.2225 134.296 36.2871C134.372 36.3517 134.442 36.4283 134.506 36.5155L137.401 40.8283L140.307 36.5155C140.364 36.4193 140.433 36.3412 140.513 36.2811C140.592 36.221 140.703 36.1909 140.844 36.1909C141.029 36.1909 141.166 36.2345 141.256 36.3232C141.346 36.4118 141.391 36.5365 141.391 36.6973V41.6969C141.391 42.0094 141.217 42.1672 140.873 42.1672C140.53 42.1672 140.374 42.0109 140.374 41.6969V38.203Z" fill="#323232"/>
<path d="M145.647 42.1068C143.991 42.1068 143.165 41.4727 143.165 40.2029V38.1667C143.165 36.8894 143.993 36.2507 145.647 36.2507H147.498C149.154 36.2507 149.98 36.8894 149.98 38.1667V40.2029C149.98 41.4727 149.152 42.1068 147.498 42.1068H145.647ZM148.955 38.1547C148.955 37.5446 148.478 37.2395 147.526 37.2395H145.609C144.662 37.2395 144.19 37.5446 144.19 38.1547V40.2149C144.19 40.825 144.662 41.13 145.609 41.13H147.526C148.478 41.13 148.955 40.825 148.955 40.2149V38.1547Z" fill="#323232"/>
<path d="M157.556 39.6734H152.791V41.6615C152.791 41.9996 152.622 42.1679 152.283 42.1679C151.943 42.1679 151.774 41.9996 151.774 41.6615V36.6981C151.774 36.36 151.943 36.1917 152.283 36.1917C152.622 36.1917 152.791 36.36 152.791 36.6981V38.6982H157.556V36.6981C157.556 36.36 157.725 36.1917 158.064 36.1917C158.403 36.1917 158.572 36.36 158.572 36.6981V41.6615C158.572 41.9996 158.403 42.1679 158.064 42.1679C157.725 42.1679 157.556 41.9996 157.556 41.6615V39.6734Z" fill="#323232"/>
<path d="M162.368 37.2395H160.565C160.239 37.2395 160.076 37.0757 160.076 36.7451C160.076 36.4145 160.239 36.2507 160.565 36.2507H165.196C165.521 36.2507 165.684 36.416 165.684 36.7451C165.684 37.0742 165.521 37.2395 165.196 37.2395H163.393V41.662C163.393 42.0001 163.224 42.1684 162.885 42.1684C162.546 42.1684 162.368 42.0001 162.368 41.662V37.2395Z" fill="#323232"/>
<path d="M167.699 42.107C166.331 42.107 165.646 41.5735 165.646 40.5051V39.8184C165.646 38.7575 166.331 38.2285 167.699 38.2285H171.773V38.0482C171.773 37.4862 171.38 37.2052 170.594 37.2052H169.243C168.923 37.2052 168.763 37.0489 168.763 36.7348C168.763 36.4207 168.923 36.2524 169.243 36.2524H170.594C172.045 36.2524 172.77 36.8505 172.77 38.0482V40.4089C172.77 41.542 172.073 42.1085 170.68 42.1085H167.699V42.107ZM170.622 41.1678C171.389 41.1678 171.773 40.9033 171.773 40.3729V39.0595H167.775C167.028 39.0595 166.654 39.3045 166.654 39.7943V40.421C166.654 40.9199 167.028 41.1678 167.775 41.1678H170.622Z" fill="#323232"/>
<path d="M178.503 39.8545L175.339 41.9989C175.255 42.056 175.18 42.0981 175.113 42.1251C175.046 42.1537 174.961 42.1672 174.859 42.1672C174.713 42.1672 174.596 42.1251 174.509 42.041C174.423 41.9568 174.379 41.8336 174.379 41.6728C174.379 41.5766 174.4 41.488 174.442 41.4083C174.484 41.3287 174.556 41.2566 174.657 41.1919L177.937 39.1077L174.668 37.1797C174.559 37.1151 174.481 37.046 174.433 36.9693C174.385 36.8927 174.361 36.798 174.361 36.6868C174.361 36.535 174.403 36.4133 174.485 36.3247C174.569 36.236 174.684 36.1924 174.831 36.1924C174.914 36.1924 174.994 36.2044 175.07 36.2285C175.146 36.2525 175.216 36.2856 175.281 36.3247L178.501 38.3608V36.6853C178.501 36.3562 178.664 36.1909 178.99 36.1909C179.316 36.1909 179.479 36.3562 179.479 36.6853V38.3729L182.7 36.3367C182.764 36.2961 182.834 36.263 182.911 36.2345C182.987 36.2059 183.071 36.1924 183.16 36.1924C183.301 36.1924 183.413 36.236 183.497 36.3247C183.579 36.4133 183.621 36.5335 183.621 36.6868C183.621 36.7995 183.597 36.8942 183.549 36.9693C183.501 37.0445 183.423 37.1166 183.314 37.1797L180.045 39.1077L183.334 41.1919C183.513 41.3046 183.603 41.4654 183.603 41.6743C183.603 41.8351 183.559 41.9568 183.473 42.0425C183.386 42.1266 183.269 42.1687 183.123 42.1687C183.027 42.1687 182.942 42.1552 182.869 42.1266C182.796 42.0981 182.721 42.056 182.643 42.0004L179.479 39.856V41.6638C179.479 42.0019 179.316 42.1702 178.99 42.1702C178.664 42.1702 178.501 42.0019 178.501 41.6638V39.856L178.503 39.8545Z" fill="#323232"/>
<path d="M195.8 42.107C194.432 42.107 193.748 41.5735 193.748 40.5051V39.8184C193.748 38.7575 194.431 38.2285 195.8 38.2285H199.874V38.0482C199.874 37.4862 199.481 37.2052 198.695 37.2052H197.344C197.024 37.2052 196.864 37.0489 196.864 36.7348C196.864 36.4207 197.024 36.2524 197.344 36.2524H198.695C200.146 36.2524 200.871 36.8505 200.871 38.0482V40.4089C200.871 41.542 200.175 42.1085 198.782 42.1085H195.8V42.107ZM198.725 41.1678C199.491 41.1678 199.876 40.9033 199.876 40.3729V39.0595H195.877C195.13 39.0595 194.755 39.3045 194.755 39.7943V40.421C194.755 40.9199 195.129 41.1678 195.877 41.1678H198.725Z" fill="#323232"/>
<path d="M209.404 40.7453C209.404 41.653 208.624 42.1068 207.065 42.1068H203.125C202.825 42.1068 202.674 41.9701 202.674 41.6966V36.661C202.674 36.3875 202.824 36.2507 203.125 36.2507H206.874C208.503 36.2507 209.319 36.7331 209.319 37.6963V38.1306C209.319 38.5559 209.083 38.885 208.609 39.1179C209.14 39.3583 209.404 39.704 209.404 40.1548V40.7453ZM208.312 37.758C208.312 37.3327 207.838 37.1193 206.893 37.1193H203.768C203.717 37.1193 203.692 37.1433 203.692 37.1914V38.7092H206.932C207.853 38.7092 208.313 38.5168 208.313 38.1306V37.7564L208.312 37.758ZM208.408 40.1307C208.408 39.737 207.953 39.5402 207.046 39.5402H203.69V41.1661C203.69 41.2142 203.716 41.2382 203.767 41.2382H207.046C207.953 41.2382 208.408 41.0369 208.408 40.6356V40.1292V40.1307Z" fill="#323232"/>
<path d="M212.855 37.2395H211.053C210.727 37.2395 210.564 37.0757 210.564 36.7451C210.564 36.4145 210.727 36.2507 211.053 36.2507H215.683C216.009 36.2507 216.172 36.416 216.172 36.7451C216.172 37.0742 216.009 37.2395 215.683 37.2395H213.881V41.662C213.881 42.0001 213.712 42.1684 213.372 42.1684C213.033 42.1684 212.855 42.0001 212.855 41.662V37.2395Z" fill="#323232"/>
<path d="M219.99 42.1068C218.334 42.1068 217.507 41.4727 217.507 40.2029V38.1667C217.507 36.8894 218.335 36.2507 219.99 36.2507H221.84C223.495 36.2507 224.323 36.8894 224.323 38.1667V40.2029C224.323 41.4727 223.495 42.1068 221.84 42.1068H219.99ZM223.297 38.1547C223.297 37.5446 222.821 37.2395 221.868 37.2395H219.951C219.005 37.2395 218.532 37.5446 218.532 38.1547V40.2149C218.532 40.825 219.005 41.13 219.951 41.13H221.868C222.821 41.13 223.297 40.825 223.297 40.2149V38.1547Z" fill="#323232"/>
<path d="M233.056 38.2021L230.573 41.9138C230.522 41.9949 230.46 42.0565 230.386 42.1001C230.313 42.1437 230.212 42.1662 230.085 42.1662C229.957 42.1662 229.857 42.1437 229.787 42.1001C229.717 42.0565 229.656 41.9904 229.605 41.9017L227.131 38.2141V41.6959C227.131 42.0084 226.962 42.1662 226.623 42.1662C226.284 42.1662 226.115 42.0099 226.115 41.6959V36.6964C226.115 36.3582 226.294 36.1899 226.651 36.1899C226.792 36.1899 226.901 36.2215 226.977 36.2861C227.053 36.3507 227.124 36.4274 227.188 36.5145L230.083 40.8273L232.989 36.5145C233.045 36.4183 233.114 36.3402 233.195 36.2801C233.276 36.22 233.385 36.1899 233.525 36.1899C233.711 36.1899 233.848 36.2335 233.938 36.3222C234.027 36.4108 234.072 36.5356 234.072 36.6964V41.6959C234.072 42.0084 233.9 42.1662 233.555 42.1662C233.21 42.1662 233.056 42.0099 233.056 41.6959V38.2021Z" fill="#323232"/>
<path d="M238.329 42.1068C236.673 42.1068 235.847 41.4727 235.847 40.2029V38.1667C235.847 36.8894 236.675 36.2507 238.329 36.2507H240.18C241.836 36.2507 242.662 36.8894 242.662 38.1667V40.2029C242.662 41.4727 241.834 42.1068 240.18 42.1068H238.329ZM241.637 38.1547C241.637 37.5446 241.16 37.2395 240.208 37.2395H238.29C237.344 37.2395 236.872 37.5446 236.872 38.1547V40.2149C236.872 40.825 237.344 41.13 238.29 41.13H240.208C241.16 41.13 241.637 40.825 241.637 40.2149V38.1547Z" fill="#323232"/>
<path d="M250.237 37.662L245.453 41.9267C245.363 42.0079 245.284 42.068 245.213 42.107C245.143 42.1476 245.04 42.1672 244.907 42.1672C244.607 42.1672 244.456 41.9989 244.456 41.6607V36.6853C244.456 36.3562 244.621 36.1909 244.955 36.1909C245.288 36.1909 245.472 36.3562 245.472 36.6853V40.6855L250.265 36.4208C250.347 36.3487 250.427 36.2931 250.5 36.2525C250.573 36.2119 250.658 36.1924 250.754 36.1924C251.086 36.1924 251.253 36.3607 251.253 36.6988V41.6622C251.253 42.0004 251.084 42.1687 250.745 42.1687C250.406 42.1687 250.237 42.0004 250.237 41.6622V37.662ZM250.102 33.6378C250.102 33.9263 250.054 34.2028 249.959 34.4628C249.863 34.7242 249.72 34.9541 249.527 35.1555C249.336 35.3569 249.098 35.5147 248.817 35.6319C248.536 35.7491 248.213 35.8062 247.848 35.8062C247.484 35.8062 247.162 35.7476 246.884 35.6319C246.606 35.5162 246.372 35.3569 246.18 35.1555C245.989 34.9541 245.844 34.7242 245.748 34.4628C245.653 34.2013 245.605 33.9263 245.605 33.6378C245.605 33.4529 245.633 33.3222 245.692 33.2456C245.748 33.1689 245.861 33.1313 246.026 33.1313C246.18 33.1313 246.287 33.1629 246.348 33.2275C246.409 33.2921 246.455 33.3808 246.487 33.492C246.512 33.6603 246.547 33.8316 246.587 34.0044C246.629 34.1772 246.698 34.3365 246.793 34.4808C246.889 34.625 247.02 34.7438 247.186 34.8369C247.352 34.9301 247.573 34.9752 247.848 34.9752C248.123 34.9752 248.343 34.9286 248.511 34.8369C248.676 34.7453 248.808 34.6265 248.904 34.4808C248.999 34.3365 249.068 34.1772 249.11 34.0044C249.152 33.8316 249.185 33.6603 249.21 33.492C249.241 33.3793 249.289 33.2906 249.354 33.2275C249.418 33.1629 249.525 33.1313 249.679 33.1313C249.833 33.1313 249.948 33.1689 250.01 33.2456C250.071 33.3222 250.101 33.4529 250.101 33.6378H250.102Z" fill="#323232"/>
<path d="M254.109 39.7933V41.6612C254.109 41.9993 253.94 42.1676 253.601 42.1676C253.261 42.1676 253.093 41.9993 253.093 41.6612V36.6857C253.093 36.3566 253.261 36.1913 253.601 36.1913C253.94 36.1913 254.109 36.3566 254.109 36.6857V38.4214L258.194 36.3491C258.289 36.301 258.37 36.2605 258.433 36.2289C258.497 36.1973 258.567 36.1853 258.644 36.1928C258.804 36.1928 258.928 36.2349 259.017 36.3191C259.107 36.4032 259.152 36.5264 259.152 36.6872C259.152 36.7999 259.128 36.8916 259.08 36.9637C259.032 37.0359 258.947 37.105 258.826 37.1681L254.838 39.1081L258.845 41.2044C258.974 41.2765 259.056 41.3532 259.095 41.4328C259.134 41.5139 259.152 41.5936 259.152 41.6732C259.152 42.0023 258.972 42.1676 258.615 42.1676C258.532 42.1676 258.461 42.1541 258.404 42.1256C258.348 42.097 258.261 42.0519 258.146 41.9873L254.109 39.7948V39.7933Z" fill="#323232"/>
<path d="M262.574 42.1068C261.206 42.1068 260.522 41.5733 260.522 40.5049V39.8181C260.522 38.7572 261.205 38.2283 262.574 38.2283H266.648V38.0479C266.648 37.4859 266.255 37.2049 265.469 37.2049H264.118C263.798 37.2049 263.638 37.0486 263.638 36.7346C263.638 36.4205 263.798 36.2522 264.118 36.2522H265.469C266.92 36.2522 267.645 36.8503 267.645 38.0479V40.4087C267.645 41.5417 266.949 42.1083 265.556 42.1083H262.574V42.1068ZM265.497 41.1676C266.264 41.1676 266.648 40.9031 266.648 40.3726V39.0593H262.65C261.903 39.0593 261.528 39.3042 261.528 39.7941V40.4207C261.528 40.9196 261.901 41.1676 262.65 41.1676H265.497Z" fill="#323232"/>
</svg>
