<svg width="180" height="181" viewBox="0 0 180 181" fill="none" xmlns="http://www.w3.org/2000/svg">
    <circle cx="90" cy="90.3439" r="71.118" fill="white"/>
    <path d="M175.819 73.4398C174.128 73.4398 172.604 72.4149 171.959 70.8494L166.838 58.4479L161.687 45.9547C161.042 44.3841 161.398 42.579 162.591 41.3807C164.222 39.7438 164.222 37.082 162.591 35.4451L144.69 17.4752C143.059 15.8384 140.408 15.8384 138.777 17.4752C137.583 18.6736 135.785 19.0356 134.22 18.3829L121.775 13.2122L109.42 8.07216C107.856 7.42455 106.84 5.88967 106.84 4.19671C106.84 1.87653 104.965 0 102.659 0H77.341C75.0296 0 73.1603 1.88163 73.1603 4.19671C73.1603 5.89477 72.1392 7.42455 70.5797 8.07216L58.2254 13.2122L45.7798 18.3829C44.2152 19.0305 42.4169 18.6736 41.2231 17.4752C39.5925 15.8384 36.9408 15.8384 35.3102 17.4752L17.4087 35.4451C15.7781 37.082 15.7781 39.7438 17.4087 41.3807C18.6025 42.579 18.9631 44.3841 18.3129 45.9547L13.1518 58.4683L8.04142 70.8494C7.39628 72.42 5.86724 73.4398 4.18073 73.4398C1.86939 73.4398 0 75.3215 0 77.6365V103.051C0 105.372 1.87447 107.248 4.18073 107.248C5.87232 107.248 7.39628 108.273 8.04142 109.838L13.1619 122.24L18.3129 134.733C18.9581 136.304 18.6025 138.109 17.4087 139.307C15.7781 140.944 15.7781 143.606 17.4087 145.243L35.3102 163.213C36.9408 164.85 39.5925 164.85 41.2231 163.213C42.4169 162.014 44.2152 161.652 45.7798 162.305L58.2254 167.476L70.5797 172.616C72.1443 173.263 73.1603 174.798 73.1603 176.491C73.1603 178.811 75.0347 180.688 77.341 180.688H102.659C104.97 180.688 106.84 178.806 106.84 176.491C106.84 174.793 107.861 173.263 109.42 172.616L121.775 167.476L134.22 162.305C135.785 161.657 137.583 162.014 138.777 163.213C140.408 164.85 143.059 164.85 144.69 163.213L162.591 145.243C164.222 143.606 164.222 140.944 162.591 139.307C161.398 138.109 161.037 136.304 161.687 134.733L166.848 122.22L171.959 109.838C172.604 108.268 174.133 107.248 175.819 107.248C178.131 107.248 180 105.366 180 103.051V90.3439V77.6365C180 75.3164 178.126 73.4398 175.819 73.4398ZM90 161.734C50.7225 161.734 18.8819 129.772 18.8819 90.3439C18.8819 50.9163 50.7225 18.954 90 18.954C129.278 18.954 161.118 50.9163 161.118 90.3439C161.118 129.772 129.278 161.734 90 161.734Z" fill="#323232"/>
    <path d="M90.0003 24.8408C72.6932 24.8408 56.0973 31.7401 43.8548 44.0294C31.6174 56.3136 24.7393 72.978 24.7393 90.3513H30.4998C30.4998 74.4007 36.6871 59.3986 47.9238 48.119C59.1604 36.8394 74.1003 30.6285 89.9952 30.6285C105.89 30.6285 120.83 36.8394 132.067 48.119C143.303 59.3986 149.491 74.3956 149.491 90.3513H155.251C155.251 72.978 148.378 56.3187 136.136 44.0294C123.898 31.7452 107.297 24.8408 89.9901 24.8408H90.0003Z" fill="#FE4F02"/>
    <path d="M90.001 18.9541C71.1394 18.9541 53.05 26.4755 39.7153 39.8662C26.3756 53.2518 18.8828 71.4104 18.8828 90.344H24.745C24.745 72.9708 31.618 56.3114 43.8605 44.0221C56.0979 31.738 72.6989 24.8336 90.006 24.8336C107.313 24.8336 123.909 31.7329 136.152 44.0221C148.389 56.3063 155.267 72.9708 155.267 90.344H161.129C161.129 71.4104 153.636 53.2518 140.297 39.8662C126.957 26.4755 108.873 18.9541 90.0111 18.9541H90.001Z" fill="#FE4F02"/>
    <path d="M76.1932 85.0383V78.0676L76.2085 77.9809C76.2593 77.6341 76.3355 77.267 76.4421 76.854C76.559 76.4052 76.7368 76.0024 76.9857 75.6301C77.2702 75.2375 77.6511 74.9213 78.1236 74.7021C78.5909 74.4777 79.1599 74.3706 79.8711 74.3706H97.4017C98.3008 74.3706 99.2863 74.2074 100.338 73.8862C101.389 73.5496 102.38 73.0193 103.279 72.3105C104.168 71.5915 104.925 70.643 105.519 69.4906C106.119 68.3433 106.424 66.9053 106.424 65.2072V62.0049C106.424 61.4082 106.347 60.7708 106.195 60.0569C106.063 59.3532 105.839 58.6801 105.519 57.9968C105.23 57.3288 104.839 56.671 104.356 56.0489C103.889 55.4421 103.31 54.9016 102.634 54.4324C101.999 53.9633 101.232 53.5808 100.358 53.2953C99.4895 53.0097 98.4939 52.8669 97.4017 52.8669H74.0444V58.2518H97.4017C98.5446 58.2518 99.4438 58.5883 100.079 59.2563C100.709 59.9141 101.024 60.8575 101.024 62.0508V65.2021C101.024 66.3596 100.704 67.2826 100.079 67.9404C99.4641 68.588 98.5446 68.9195 97.3509 68.9195H79.8761C78.7687 68.9195 77.7629 69.0623 76.8942 69.3478C76.0256 69.6283 75.2433 70.0158 74.5778 70.4952C73.9276 70.9541 73.3637 71.4895 72.9015 72.0861C72.4443 72.698 72.0582 73.361 71.7585 74.0494C71.4639 74.7327 71.2353 75.4364 71.0829 76.1401C70.9508 76.8336 70.8848 77.4965 70.8848 78.1135V90.4282H106.434V85.0434H76.2085L76.1932 85.0383Z" fill="#323232"/>
    <path d="M70.88 129.607H65.7188V122.596H45.6279V129.607H40.4668V115.324C40.4668 113.239 40.8224 111.321 41.5386 109.567C42.2549 107.813 43.2455 106.309 44.5155 105.044C45.7854 103.785 47.2891 102.801 49.0213 102.097C50.7535 101.393 52.6483 101.041 54.6955 101.041H68.2791C68.6347 101.041 68.975 101.108 69.29 101.24C69.6049 101.373 69.8843 101.556 70.1231 101.796C70.3618 102.036 70.5447 102.311 70.6768 102.632C70.8088 102.948 70.8749 103.29 70.8749 103.647V129.602H70.88V129.607ZM45.633 117.415H65.7239V106.222H54.7006C54.5431 106.222 54.2028 106.248 53.6897 106.304C53.1868 106.345 52.5975 106.457 51.9219 106.64C51.2615 106.829 50.5605 107.109 49.8188 107.497C49.0772 107.879 48.3965 108.415 47.7767 109.088C47.157 109.766 46.6388 110.613 46.2274 111.638C45.8311 112.647 45.633 113.876 45.633 115.324V117.415ZM102.609 106.222H91.2401V129.607H86.0789V106.222H74.6899V101.041H102.609V106.222Z" fill="#323232"/>
    <path d="M139.535 129.61H134.338V112.599L125.189 128.753C124.966 129.166 124.646 129.477 124.234 129.692C123.838 129.906 123.406 130.008 122.944 130.008C122.482 130.008 122.07 129.901 121.674 129.692C121.293 129.477 120.988 129.166 120.76 128.753L111.575 112.599V129.61H106.414V103.257C106.414 102.66 106.587 102.13 106.932 101.666C107.288 101.202 107.755 100.891 108.319 100.728C108.598 100.661 108.873 100.641 109.152 100.666C109.431 100.682 109.696 100.738 109.945 100.845C110.209 100.937 110.447 101.079 110.661 101.263C110.874 101.436 111.052 101.651 111.194 101.9L122.939 122.394L134.689 101.9C134.993 101.396 135.41 101.039 135.938 100.824C136.482 100.61 137.041 100.58 137.625 100.722C138.178 100.881 138.636 101.197 138.996 101.661C139.352 102.125 139.53 102.655 139.53 103.252V129.605H139.535V129.61Z" fill="#323232"/>
</svg>