<svg width="24" height="24" viewBox="0 0 24 24" fill="none" xmlns="http://www.w3.org/2000/svg">
<path d="M12.0004 5.33337C11.8911 5.33625 11.7826 5.31341 11.6837 5.2667C11.5828 5.22443 11.4898 5.16525 11.4087 5.0917C11.2538 4.93373 11.167 4.7213 11.167 4.50003C11.167 4.27877 11.2538 4.06634 11.4087 3.90837C11.4898 3.83482 11.5828 3.77564 11.6837 3.73337C11.8355 3.66955 12.0027 3.65212 12.1644 3.68326C12.326 3.71441 12.4748 3.79274 12.592 3.90837C12.7442 4.06815 12.8305 4.27943 12.8337 4.50003C12.8324 4.60893 12.8097 4.71652 12.767 4.8167C12.7268 4.91869 12.6674 5.01203 12.592 5.0917C12.4323 5.24384 12.221 5.33013 12.0004 5.33337ZM19.5004 12.8334C19.3099 12.8315 19.1259 12.7637 18.9797 12.6416C18.8335 12.5194 18.734 12.3504 18.6983 12.1633C18.6625 11.9762 18.6926 11.7825 18.7834 11.615C18.8743 11.4476 19.0203 11.3167 19.1966 11.2447C19.373 11.1726 19.5689 11.1638 19.751 11.2198C19.9331 11.2758 20.0902 11.3931 20.1957 11.5517C20.3011 11.7104 20.3484 11.9006 20.3295 12.0902C20.3106 12.2798 20.2267 12.457 20.092 12.5917C19.9323 12.744 19.721 12.8303 19.5004 12.8334ZM12.0004 20.3334C11.8915 20.332 11.7839 20.3094 11.6837 20.2667C11.5828 20.2244 11.4898 20.1652 11.4087 20.0917C11.2538 19.9337 11.167 19.7213 11.167 19.5C11.167 19.2788 11.2538 19.0663 11.4087 18.9084C11.4898 18.8348 11.5828 18.7756 11.6837 18.7334C11.8358 18.6714 12.0026 18.6549 12.1639 18.686C12.3251 18.7171 12.4739 18.7943 12.592 18.9084C12.7096 19.0249 12.7897 19.1738 12.8223 19.3361C12.8548 19.4984 12.8383 19.6667 12.7748 19.8196C12.7114 19.9725 12.6038 20.103 12.4659 20.1945C12.3279 20.286 12.1659 20.3343 12.0004 20.3334ZM4.50037 12.8334C4.39147 12.832 4.28389 12.8094 4.1837 12.7667C4.08172 12.7264 3.98838 12.667 3.9087 12.5917C3.75378 12.4337 3.66699 12.2213 3.66699 12C3.66699 11.7788 3.75378 11.5663 3.9087 11.4084C4.06986 11.2597 4.2811 11.1771 4.50037 11.1771C4.71965 11.1771 4.93088 11.2597 5.09204 11.4084C5.24696 11.5663 5.33375 11.7788 5.33375 12C5.33375 12.2213 5.24696 12.4337 5.09204 12.5917C4.93225 12.7438 4.72098 12.8301 4.50037 12.8334ZM12.0004 12.8334C11.7794 12.8333 11.5674 12.7455 11.4112 12.5892L7.24454 8.42253C7.09274 8.26537 7.00874 8.05486 7.01064 7.83637C7.01254 7.61787 7.10018 7.40886 7.25469 7.25435C7.4092 7.09985 7.61821 7.0122 7.8367 7.01031C8.0552 7.00841 8.2657 7.0924 8.42287 7.2442L12.5895 11.4109C12.706 11.5274 12.7854 11.6759 12.8175 11.8375C12.8497 11.9991 12.8332 12.1667 12.7701 12.3189C12.707 12.4712 12.6003 12.6013 12.4633 12.6929C12.3262 12.7844 12.1652 12.8333 12.0004 12.8334Z" fill="#69687C"/>
<path d="M11.9993 12.8337C11.8244 12.8337 11.654 12.7786 11.5121 12.6764C11.3702 12.5741 11.2641 12.4298 11.2088 12.2639C11.1535 12.0979 11.1518 11.9188 11.2039 11.7519C11.2561 11.5849 11.3594 11.4386 11.4993 11.3337L14.8327 8.83366C15.0095 8.70105 15.2317 8.64411 15.4505 8.67537C15.6693 8.70663 15.8667 8.82352 15.9993 9.00033C16.132 9.17714 16.1889 9.39939 16.1576 9.61818C16.1264 9.83697 16.0095 10.0344 15.8327 10.167L12.4993 12.667C12.3553 12.7755 12.1797 12.834 11.9993 12.8337Z" fill="#69687C"/>
<path d="M12 22C10.0222 22 8.08879 21.4135 6.4443 20.3147C4.79981 19.2159 3.51809 17.6541 2.76121 15.8268C2.00433 13.9996 1.8063 11.9889 2.19215 10.0491C2.578 8.10929 3.53041 6.32746 4.92894 4.92894C6.32746 3.53041 8.10929 2.578 10.0491 2.19215C11.9889 1.8063 13.9996 2.00433 15.8268 2.76121C17.6541 3.51809 19.2159 4.79981 20.3147 6.4443C21.4135 8.08879 22 10.0222 22 12C21.9971 14.6513 20.9426 17.1932 19.0679 19.0679C17.1932 20.9426 14.6513 21.9971 12 22ZM12 3.66667C10.3518 3.66667 8.74066 4.15541 7.37025 5.07109C5.99984 5.98677 4.93174 7.28826 4.30101 8.81097C3.67028 10.3337 3.50525 12.0092 3.82679 13.6258C4.14834 15.2423 4.94201 16.7271 6.10745 17.8926C7.27288 19.058 8.75774 19.8517 10.3743 20.1732C11.9908 20.4948 13.6663 20.3297 15.189 19.699C16.7117 19.0683 18.0132 18.0002 18.9289 16.6298C19.8446 15.2593 20.3333 13.6482 20.3333 12C20.3309 9.79061 19.4522 7.6724 17.8899 6.11013C16.3276 4.54785 14.2094 3.6691 12 3.66667Z" fill="#69687C"/>
</svg>
