<svg width="24" height="24" viewBox="0 0 24 24" fill="none" xmlns="http://www.w3.org/2000/svg">
<path d="M12 23C10.18 23 3 17.32 3 10C3 7.61305 3.94821 5.32387 5.63604 3.63604C7.32387 1.94821 9.61305 1 12 1C14.3869 1 16.6761 1.94821 18.364 3.63604C20.0518 5.32387 21 7.61305 21 10C21 17.32 13.82 23 12 23ZM12 3C10.1435 3 8.36301 3.7375 7.05025 5.05025C5.7375 6.36301 5 8.14348 5 10C5 16.1 10.81 20.46 12 21C13.19 20.49 19 16.13 19 10C19 8.14348 18.2625 6.36301 16.9497 5.05025C15.637 3.7375 13.8565 3 12 3ZM12 15C11.0111 15 10.0444 14.7068 9.22215 14.1573C8.3999 13.6079 7.75904 12.827 7.3806 11.9134C7.00216 10.9998 6.90315 9.99445 7.09607 9.02455C7.289 8.05464 7.7652 7.16373 8.46447 6.46447C9.16373 5.7652 10.0546 5.289 11.0245 5.09607C11.9945 4.90315 12.9998 5.00216 13.9134 5.3806C14.827 5.75904 15.6079 6.3999 16.1573 7.22215C16.7068 8.04439 17 9.01109 17 10C17 11.3261 16.4732 12.5979 15.5355 13.5355C14.5979 14.4732 13.3261 15 12 15ZM12 7C11.4067 7 10.8266 7.17595 10.3333 7.50559C9.83994 7.83524 9.45542 8.30377 9.22836 8.85195C9.0013 9.40013 8.94189 10.0033 9.05764 10.5853C9.1734 11.1672 9.45912 11.7018 9.87868 12.1213C10.2982 12.5409 10.8328 12.8266 11.4147 12.9424C11.9967 13.0581 12.5999 12.9987 13.1481 12.7716C13.6962 12.5446 14.1648 12.1601 14.4944 11.6667C14.8241 11.1734 15 10.5933 15 10C15 9.20435 14.6839 8.44129 14.1213 7.87868C13.5587 7.31607 12.7956 7 12 7Z" fill="#69687C"/>
</svg>
