<svg width="24" height="25" viewBox="0 0 24 25" fill="none" xmlns="http://www.w3.org/2000/svg">
<path d="M11.9994 5.83337C11.8901 5.83625 11.7816 5.81341 11.6827 5.7667C11.5818 5.72443 11.4888 5.66525 11.4077 5.5917C11.2528 5.43373 11.166 5.2213 11.166 5.00003C11.166 4.77877 11.2528 4.56634 11.4077 4.40837C11.4888 4.33482 11.5818 4.27564 11.6827 4.23337C11.8345 4.16955 12.0017 4.15212 12.1634 4.18326C12.3251 4.21441 12.4739 4.29274 12.5911 4.40837C12.7432 4.56815 12.8295 4.77943 12.8327 5.00003C12.8314 5.10893 12.8088 5.21652 12.7661 5.3167C12.7258 5.41869 12.6664 5.51203 12.5911 5.5917C12.4313 5.74384 12.22 5.83013 11.9994 5.83337ZM19.4994 13.3334C19.3089 13.3315 19.1249 13.2637 18.9787 13.1416C18.8325 13.0194 18.7331 12.8504 18.6973 12.6633C18.6615 12.4762 18.6916 12.2825 18.7825 12.115C18.8733 11.9476 19.0193 11.8167 19.1957 11.7447C19.372 11.6726 19.5679 11.6638 19.75 11.7198C19.9321 11.7758 20.0892 11.8931 20.1947 12.0517C20.3001 12.2104 20.3474 12.4006 20.3286 12.5902C20.3097 12.7798 20.2258 12.957 20.0911 13.0917C19.9314 13.244 19.72 13.3303 19.4994 13.3334ZM11.9994 20.8334C11.8905 20.832 11.7829 20.8094 11.6827 20.7667C11.5818 20.7244 11.4888 20.6652 11.4077 20.5917C11.2528 20.4337 11.166 20.2213 11.166 20C11.166 19.7788 11.2528 19.5663 11.4077 19.4084C11.4888 19.3348 11.5818 19.2756 11.6827 19.2334C11.8348 19.1714 12.0016 19.1549 12.1629 19.186C12.3241 19.2171 12.4729 19.2943 12.5911 19.4084C12.7086 19.5249 12.7887 19.6738 12.8213 19.8361C12.8539 19.9984 12.8373 20.1667 12.7739 20.3196C12.7104 20.4725 12.6028 20.603 12.4649 20.6945C12.327 20.786 12.1649 20.8343 11.9994 20.8334ZM4.49939 13.3334C4.3905 13.332 4.28291 13.3094 4.18273 13.2667C4.08074 13.2264 3.9874 13.167 3.90773 13.0917C3.7528 12.9337 3.66602 12.7213 3.66602 12.5C3.66602 12.2788 3.7528 12.0663 3.90773 11.9084C4.06888 11.7597 4.28012 11.6771 4.49939 11.6771C4.71867 11.6771 4.92991 11.7597 5.09106 11.9084C5.24599 12.0663 5.33277 12.2788 5.33277 12.5C5.33277 12.7213 5.24599 12.9337 5.09106 13.0917C4.93128 13.2438 4.72 13.3301 4.49939 13.3334ZM11.9994 13.3334C11.7784 13.3333 11.5665 13.2455 11.4102 13.0892L7.24356 8.92253C7.09176 8.76537 7.00777 8.55486 7.00967 8.33637C7.01156 8.11787 7.09921 7.90886 7.25371 7.75435C7.40822 7.59985 7.61723 7.5122 7.83573 7.51031C8.05422 7.50841 8.26473 7.5924 8.42189 7.7442L12.5886 11.9109C12.7051 12.0274 12.7844 12.1759 12.8165 12.3375C12.8487 12.4991 12.8322 12.6667 12.7691 12.8189C12.7061 12.9712 12.5993 13.1013 12.4623 13.1929C12.3253 13.2844 12.1642 13.3333 11.9994 13.3334Z" fill="#DC4401"/>
<path d="M11.9993 13.3337C11.8244 13.3337 11.654 13.2786 11.5121 13.1764C11.3702 13.0741 11.2641 12.9298 11.2088 12.7639C11.1535 12.5979 11.1518 12.4188 11.2039 12.2519C11.2561 12.0849 11.3594 11.9386 11.4993 11.8337L14.8327 9.33366C15.0095 9.20105 15.2317 9.14411 15.4505 9.17537C15.6693 9.20663 15.8667 9.32352 15.9993 9.50033C16.132 9.67714 16.1889 9.89939 16.1576 10.1182C16.1264 10.337 16.0095 10.5344 15.8327 10.667L12.4993 13.167C12.3553 13.2755 12.1797 13.334 11.9993 13.3337Z" fill="#DC4401"/>
<path d="M12 22.5C10.0222 22.5 8.08879 21.9135 6.4443 20.8147C4.79981 19.7159 3.51809 18.1541 2.76121 16.3268C2.00433 14.4996 1.8063 12.4889 2.19215 10.5491C2.578 8.60929 3.53041 6.82746 4.92894 5.42894C6.32746 4.03041 8.10929 3.078 10.0491 2.69215C11.9889 2.3063 13.9996 2.50433 15.8268 3.26121C17.6541 4.01809 19.2159 5.29981 20.3147 6.9443C21.4135 8.58879 22 10.5222 22 12.5C21.9971 15.1513 20.9426 17.6932 19.0679 19.5679C17.1932 21.4426 14.6513 22.4971 12 22.5ZM12 4.16667C10.3518 4.16667 8.74066 4.65541 7.37025 5.57109C5.99984 6.48677 4.93174 7.78826 4.30101 9.31097C3.67028 10.8337 3.50525 12.5092 3.82679 14.1258C4.14834 15.7423 4.94201 17.2271 6.10745 18.3926C7.27288 19.558 8.75774 20.3517 10.3743 20.6732C11.9908 20.9948 13.6663 20.8297 15.189 20.199C16.7117 19.5683 18.0132 18.5002 18.9289 17.1298C19.8446 15.7593 20.3333 14.1482 20.3333 12.5C20.3309 10.2906 19.4522 8.1724 17.8899 6.61013C16.3276 5.04785 14.2094 4.1691 12 4.16667Z" fill="#DC4401"/>
</svg>
