<svg width="26" height="23" viewBox="0 0 26 23" fill="none" xmlns="http://www.w3.org/2000/svg">
<path d="M24.9999 20.0002L14.7399 2.00022C14.5654 1.69243 14.3125 1.43641 14.0068 1.25829C13.7011 1.08017 13.3537 0.986328 12.9999 0.986328C12.6461 0.986328 12.2986 1.08017 11.993 1.25829C11.6873 1.43641 11.4343 1.69243 11.2599 2.00022L0.999883 20.0002C0.824433 20.3041 0.732024 20.6488 0.731934 20.9997C0.731844 21.3506 0.824076 21.6954 0.99937 21.9993C1.17466 22.3033 1.42685 22.5558 1.7306 22.7315C2.03436 22.9072 2.37898 22.9999 2.72988 23.0002H23.2799C23.6299 22.9981 23.9733 22.9042 24.2757 22.7278C24.578 22.5514 24.8288 22.2987 25.0029 21.995C25.177 21.6913 25.2684 21.3473 25.2679 20.9972C25.2673 20.6472 25.1749 20.3034 24.9999 20.0002ZM13.9999 18.0002C13.9999 18.2654 13.8945 18.5198 13.707 18.7073C13.5195 18.8949 13.2651 19.0002 12.9999 19.0002C12.7347 19.0002 12.4803 18.8949 12.2928 18.7073C12.1052 18.5198 11.9999 18.2654 11.9999 18.0002V17.0002C11.9999 16.735 12.1052 16.4807 12.2928 16.2931C12.4803 16.1056 12.7347 16.0002 12.9999 16.0002C13.2651 16.0002 13.5195 16.1056 13.707 16.2931C13.8945 16.4807 13.9999 16.735 13.9999 17.0002V18.0002ZM13.9999 14.0002C13.9999 14.2654 13.8945 14.5198 13.707 14.7073C13.5195 14.8949 13.2651 15.0002 12.9999 15.0002C12.7347 15.0002 12.4803 14.8949 12.2928 14.7073C12.1052 14.5198 11.9999 14.2654 11.9999 14.0002V8.00022C11.9999 7.73501 12.1052 7.48065 12.2928 7.29312C12.4803 7.10558 12.7347 7.00022 12.9999 7.00022C13.2651 7.00022 13.5195 7.10558 13.707 7.29312C13.8945 7.48065 13.9999 7.73501 13.9999 8.00022V14.0002Z" fill="#FE4F02"/>
</svg>
