<svg width="33" height="34" viewBox="0 0 33 34" fill="none" xmlns="http://www.w3.org/2000/svg">
<path d="M28.7034 25.019L18.4259 6.98828C18.2512 6.67996 17.9978 6.42351 17.6916 6.24509C17.3854 6.06666 17.0373 5.97266 16.6829 5.97266C16.3285 5.97266 15.9805 6.06666 15.6743 6.24509C15.3681 6.42351 15.1147 6.67996 14.94 6.98828L4.66245 25.019C4.4867 25.3234 4.39413 25.6687 4.39404 26.0202C4.39395 26.3717 4.48634 26.717 4.66194 27.0215C4.83753 27.326 5.09014 27.579 5.39442 27.755C5.69869 27.9309 6.0439 28.0238 6.3954 28.0241H26.9805C27.3311 28.022 27.6751 27.9279 27.978 27.7512C28.2808 27.5745 28.532 27.3214 28.7065 27.0172C28.8809 26.713 28.9724 26.3684 28.9718 26.0177C28.9713 25.6671 28.8787 25.3227 28.7034 25.019ZM17.6846 23.0156C17.6846 23.2813 17.5791 23.5361 17.3912 23.7239C17.2034 23.9118 16.9486 24.0173 16.6829 24.0173C16.4173 24.0173 16.1625 23.9118 15.9746 23.7239C15.7868 23.5361 15.6812 23.2813 15.6812 23.0156V22.0139C15.6812 21.7482 15.7868 21.4934 15.9746 21.3056C16.1625 21.1177 16.4173 21.0122 16.6829 21.0122C16.9486 21.0122 17.2034 21.1177 17.3912 21.3056C17.5791 21.4934 17.6846 21.7482 17.6846 22.0139V23.0156ZM17.6846 19.0088C17.6846 19.2744 17.5791 19.5292 17.3912 19.7171C17.2034 19.9049 16.9486 20.0105 16.6829 20.0105C16.4173 20.0105 16.1625 19.9049 15.9746 19.7171C15.7868 19.5292 15.6812 19.2744 15.6812 19.0088V12.9985C15.6812 12.7329 15.7868 12.4781 15.9746 12.2902C16.1625 12.1024 16.4173 11.9968 16.6829 11.9968C16.9486 11.9968 17.2034 12.1024 17.3912 12.2902C17.5791 12.4781 17.6846 12.7329 17.6846 12.9985V19.0088Z" fill="#FE4F02"/>
</svg>
