<svg width="32" height="32" viewBox="0 0 32 32" fill="none" xmlns="http://www.w3.org/2000/svg">
<g clip-path="url(#clip0_5177_9009)">
<path d="M23.6 24.153C21.7 23.533 19.9 22.693 18.2333 21.6597C17.6733 21.313 16.9 21.4797 16.4867 22.0663C16.0333 22.7197 15.58 23.3797 15.1267 24.033C12.3267 22.0997 9.90666 19.673 7.96666 16.873C8.62 16.4197 9.28 15.9664 9.93333 15.513C10.52 15.0997 10.6867 14.3264 10.34 13.7664C9.30666 12.0997 8.46 10.2997 7.84666 8.39968C7.64 7.75968 6.93333 7.37302 6.24 7.55302C5.46666 7.75968 4.69333 7.97302 3.92666 8.17968C1.52666 8.73968 0.199997 11.7597 1.54 14.633C4.78666 21.5997 10.4 27.213 17.3667 30.4664C20.2333 31.8064 23.26 30.4797 23.82 28.0797C24.0267 27.3064 24.24 26.533 24.4467 25.7664C24.6267 25.0664 24.24 24.3664 23.6 24.153Z" fill="#FE4F02"/>
<path d="M22.0401 1C17.0867 1 13.0801 4.33333 13.0801 8.44C13.0801 10.6733 14.2667 12.6667 16.1401 14.0333L15.4334 18.9667L19.8534 15.6467C20.5534 15.7933 21.2801 15.88 22.0334 15.88C26.9867 15.88 31.0001 12.5467 31.0001 8.44C31.0001 4.33333 26.9867 1 22.0401 1Z" fill="#F2EDE1"/>
<path d="M23.8197 26.08C23.2597 28.48 20.2397 29.8066 17.3664 28.4666C10.3997 25.2133 4.7864 19.6 1.53307 12.6333C1.3264 12.1933 1.19307 11.7466 1.1064 11.3066C0.899737 12.3333 0.999737 13.4933 1.53307 14.6333C4.7864 21.6 10.3997 27.2133 17.3664 30.4666C20.2331 31.8066 23.2597 30.48 23.8197 28.08C24.0264 27.3066 24.2397 26.5333 24.4464 25.7666C24.5531 25.3466 24.4531 24.9266 24.2197 24.6066C24.0864 25.0933 23.9531 25.5866 23.8197 26.08Z" fill="#746E6D"/>
<path d="M7.9668 14.8739C8.28013 15.3272 8.6068 15.7605 8.9468 16.1939C9.27346 15.9672 9.6068 15.7405 9.93346 15.5139C10.5201 15.1005 10.6868 14.3272 10.3401 13.7672C10.2601 13.6339 10.1868 13.5005 10.1068 13.3672C10.0535 13.4205 9.99346 13.4672 9.93346 13.5139C9.28013 13.9672 8.62013 14.4205 7.9668 14.8739Z" fill="#746E6D"/>
<path d="M16.1404 12.0338C14.5537 10.8804 13.4671 9.2671 13.1671 7.44043C13.1137 7.7671 13.0737 8.10043 13.0737 8.44043C13.0737 10.5671 14.1604 12.4738 15.8804 13.8271L16.1404 12.0338ZM22.0404 13.8871C21.2871 13.8871 20.5604 13.8004 19.8604 13.6538L15.7604 16.7338L15.4404 18.9738L19.8604 15.6538C20.5604 15.8004 21.2871 15.8871 22.0404 15.8871C26.9937 15.8871 31.0071 12.5538 31.0071 8.4471C31.0071 8.1071 30.9671 7.77376 30.9137 7.4471C30.3204 11.0804 26.5804 13.8871 22.0404 13.8871Z" fill="#8F8273"/>
<path d="M19.7067 31.6667C18.8333 31.6667 17.94 31.4667 17.0867 31.0667C9.98001 27.76 4.24668 22.02 0.933348 14.9134C0.160015 13.2534 0.133348 11.44 0.866681 9.93336C1.46668 8.70003 2.52668 7.8267 3.76668 7.53336L6.06001 6.91336C7.09335 6.64003 8.15335 7.2067 8.47335 8.19336C9.06668 10.0267 9.88668 11.78 10.9 13.4134C11.44 14.28 11.18 15.4467 10.3133 16.06L8.90001 17.04C10.6 19.3734 12.6333 21.4067 14.96 23.1L15.9333 21.6867C16.5533 20.8134 17.7133 20.5534 18.58 21.0934C20.2133 22.1134 21.9733 22.9267 23.8 23.52C24.7867 23.84 25.3533 24.9 25.0867 25.9267L24.46 28.2467C24.1733 29.4667 23.3 30.5267 22.0667 31.1267C21.34 31.4934 20.5333 31.6667 19.7067 31.6667ZM6.58001 8.17336C6.52001 8.17336 6.46001 8.18003 6.40668 8.19336L4.09335 8.82003C3.20668 9.0267 2.49335 9.6267 2.06668 10.5134C1.51335 11.66 1.54001 13.06 2.14001 14.3534C5.32001 21.1734 10.8267 26.6867 17.6533 29.8667C18.9467 30.4667 20.3467 30.5 21.4933 29.94C22.38 29.5134 22.9733 28.8 23.18 27.9334L23.8133 25.5934C23.9 25.26 23.72 24.8934 23.4067 24.7934C21.4733 24.1667 19.62 23.3 17.8933 22.2334C17.6267 22.0667 17.2467 22.1667 17.0467 22.46L15.3133 24.9667L14.7667 24.5867C11.8933 22.6 9.42668 20.1334 7.44001 17.26L7.06001 16.7134L9.57335 14.9734C9.86001 14.7734 9.96001 14.3934 9.79335 14.1267C8.72001 12.4 7.86001 10.5467 7.22668 8.61336C7.12668 8.3467 6.86001 8.17336 6.58001 8.17336Z" fill="#352F2E"/>
<path d="M14.5467 20.4663L15.4201 14.3263C13.5001 12.793 12.4067 10.673 12.4067 8.43967C12.4067 3.96634 16.7267 0.333008 22.0334 0.333008C27.3467 0.333008 31.6667 3.97301 31.6667 8.43967C31.6667 12.9063 27.3467 16.5463 22.0334 16.5463C21.3734 16.5463 20.6934 16.4863 20.0134 16.3597L14.5467 20.4663ZM22.0401 1.66634C17.4667 1.66634 13.7467 4.70634 13.7467 8.43967C13.7467 10.3597 14.7601 12.2063 16.5334 13.493L16.8601 13.7263L16.3267 17.4663L19.7001 14.933L19.9934 14.993C20.6867 15.1397 21.3734 15.213 22.0401 15.213C26.6134 15.213 30.3401 12.173 30.3401 8.43967C30.3334 4.70634 26.6134 1.66634 22.0401 1.66634Z" fill="#352F2E"/>
<path d="M18.727 8.4399C18.727 9.10656 18.187 9.65323 17.5136 9.65323C16.847 9.65323 16.3003 9.11323 16.3003 8.4399C16.3003 7.76656 16.8403 7.22656 17.5136 7.22656C18.1803 7.23323 18.727 7.77323 18.727 8.4399Z" fill="#352F2E"/>
<path d="M23.247 8.4399C23.247 9.10656 22.707 9.65323 22.0336 9.65323C21.367 9.65323 20.8203 9.11323 20.8203 8.4399C20.8203 7.76656 21.3603 7.22656 22.0336 7.22656C22.707 7.23323 23.247 7.77323 23.247 8.4399Z" fill="#352F2E"/>
<path d="M27.7729 8.4399C27.7729 9.10656 27.2329 9.65323 26.5595 9.65323C25.8862 9.65323 25.3462 9.11323 25.3462 8.4399C25.3462 7.76656 25.8862 7.22656 26.5595 7.22656C27.2329 7.22656 27.7729 7.77323 27.7729 8.4399Z" fill="#352F2E"/>
</g>
<defs>
<clipPath id="clip0_5177_9009">
<rect width="32" height="32" fill="white"/>
</clipPath>
</defs>
</svg>
