<svg width="50" height="50" viewBox="0 0 50 50" fill="none" xmlns="http://www.w3.org/2000/svg">
<path d="M48.1999 25.5996C48.0999 25.3996 48.0999 25.2996 47.9999 25.1996C47.6999 22.2996 46.8999 19.2996 45.3999 16.3996C44.9999 15.4996 44.0999 14.9996 43.1999 14.8996C36.7999 13.9996 29.3999 13.9996 21.7999 14.8996C21.2999 14.8996 20.8999 15.0996 20.4999 15.3996L13.4999 20.0996C13.2999 20.2996 12.9999 20.2996 12.7999 20.2996C10.1999 20.2996 7.49992 20.7996 4.49992 21.8996C3.99992 22.0996 3.49992 22.4996 3.19992 22.8996C1.79992 24.8996 0.0999214 27.8996 1.59992 30.2996C1.79992 30.6996 2.19992 30.9996 2.59992 31.2996V30.7996C2.59992 26.9996 5.69992 23.8996 9.59992 23.8996C13.3999 23.8996 16.5999 26.9996 16.5999 30.7996C16.5999 31.0996 16.5999 31.4996 16.4999 31.7996H34.2999C34.1999 31.4996 34.1999 31.0996 34.1999 30.7996C34.1999 26.9996 37.2999 23.8996 41.1999 23.8996C44.9999 23.8996 48.0999 26.9996 48.1999 30.7996C48.2999 30.6996 48.4999 30.4996 48.4999 30.2996C49.2999 28.7996 49.1999 27.1996 48.1999 25.5996ZM27.2999 19.9996L16.9999 20.0996L21.6999 16.9996C21.7999 16.8996 21.8999 16.8996 22.0999 16.8996C24.0999 16.6996 26.0999 16.4996 28.0999 16.3996L27.2999 19.9996ZM39.7999 19.3996C39.6999 19.6996 39.4999 19.8996 39.0999 19.8996L29.3999 19.9996L30.1999 16.2996C33.5999 16.1996 36.8999 16.2996 39.9999 16.4996C39.9999 17.2996 40.0999 18.4996 39.7999 19.3996Z" fill="white"/>
<path d="M4.5 30.8004C4.5 28.1004 6.7 25.9004 9.5 25.9004C12.3 25.9004 14.5 28.1004 14.5 30.8004C14.5 33.5004 12.3 35.8004 9.5 35.8004C6.7 35.8004 4.5 33.5004 4.5 30.8004ZM36 30.8004C36 28.1004 38.2 25.9004 41 25.9004C43.7 25.9004 46 28.1004 46 30.8004C46 33.5004 43.8 35.8004 41 35.8004C38.3 35.8004 36 33.5004 36 30.8004Z" fill="white"/>
</svg>
