<svg width="32" height="33" viewBox="0 0 32 33" fill="none" xmlns="http://www.w3.org/2000/svg">
<path d="M9.93125 7.93125C11.7038 6.67141 13.8254 5.99626 16 6V2C12.1544 2 8.46623 3.52767 5.74695 6.24695C3.02767 8.96623 1.5 12.6544 1.5 16.5C1.5 20.3456 3.02767 24.0338 5.74695 26.753C8.46623 29.4723 12.1544 31 16 31V27C13.7717 27.0001 11.6012 26.2912 9.80248 24.9761C8.00372 23.6609 6.66999 21.8076 5.99423 19.6843C5.31847 17.561 5.33572 15.2777 6.04349 13.1649C6.75125 11.052 8.11283 9.21908 9.93125 7.93125Z" fill="#69687C"/>
<path d="M24.5686 10.4316C25.8251 12.2059 26.4999 14.3263 26.4999 16.5004C26.4999 18.6745 25.8251 20.7949 24.5686 22.5691L23.1299 21.1304C24.0241 19.7517 24.4999 18.1436 24.4999 16.5004C24.4999 14.8571 24.0241 13.2491 23.1299 11.8704L24.5686 10.4316Z" fill="#FE4F02"/>
<path d="M24.5687 10.4316L23.1299 11.8704L21.328 13.6723C20.5781 14.4224 20.1568 15.4397 20.1568 16.5004C20.1568 17.5611 20.5781 18.5784 21.328 19.3285L23.1299 21.1304L24.5687 22.5691C23.8822 23.5375 23.037 24.3827 22.0687 25.0691L20.6299 23.6304L18.828 21.8285C18.0779 21.0786 17.0606 20.6572 15.9999 20.6572C14.9392 20.6572 13.9219 21.0786 13.1718 21.8285L11.3699 23.6304L9.93115 25.0691C8.96284 24.3827 8.11759 23.5375 7.43115 22.5691L8.8699 21.1304L10.6718 19.3285C11.4217 18.5784 11.843 17.5611 11.843 16.5004C11.843 15.4397 11.4217 14.4224 10.6718 13.6723L8.8699 11.8704L7.43115 10.4316C8.11759 9.46333 8.96284 8.61808 9.93115 7.93164L11.3699 9.37039L13.1718 11.1723C13.9219 11.9222 14.9392 12.3435 15.9999 12.3435C17.0606 12.3435 18.0779 11.9222 18.828 11.1723L20.6299 9.37039L22.0687 7.93164C23.037 8.61808 23.8822 9.46333 24.5687 10.4316ZM18.9999 14.0004C18.9999 13.9015 18.9706 13.8048 18.9156 13.7226C18.8607 13.6404 18.7826 13.5763 18.6912 13.5385C18.5999 13.5006 18.4993 13.4907 18.4024 13.51C18.3054 13.5293 18.2163 13.5769 18.1463 13.6468C18.0764 13.7168 18.0288 13.8059 18.0095 13.9028C17.9902 13.9998 18.0001 14.1004 18.038 14.1917C18.0758 14.2831 18.1399 14.3612 18.2221 14.4161C18.3043 14.4711 18.401 14.5004 18.4999 14.5004C18.6325 14.5004 18.7597 14.4477 18.8535 14.3539C18.9472 14.2602 18.9999 14.133 18.9999 14.0004ZM18.9999 19.0004C18.9999 18.9015 18.9706 18.8048 18.9156 18.7226C18.8607 18.6404 18.7826 18.5763 18.6912 18.5385C18.5999 18.5006 18.4993 18.4907 18.4024 18.51C18.3054 18.5293 18.2163 18.5769 18.1463 18.6468C18.0764 18.7168 18.0288 18.8059 18.0095 18.9028C17.9902 18.9998 18.0001 19.1004 18.038 19.1917C18.0758 19.2831 18.1399 19.3612 18.2221 19.4161C18.3043 19.4711 18.401 19.5004 18.4999 19.5004C18.6325 19.5004 18.7597 19.4477 18.8535 19.3539C18.9472 19.2602 18.9999 19.133 18.9999 19.0004ZM17.4999 16.5004C17.4999 16.2037 17.4119 15.9137 17.2471 15.667C17.0823 15.4204 16.848 15.2281 16.5739 15.1146C16.2998 15.001 15.9982 14.9713 15.7073 15.0292C15.4163 15.0871 15.149 15.23 14.9392 15.4397C14.7295 15.6495 14.5866 15.9168 14.5287 16.2078C14.4708 16.4987 14.5006 16.8003 14.6141 17.0744C14.7276 17.3485 14.9199 17.5828 15.1665 17.7476C15.4132 17.9124 15.7032 18.0004 15.9999 18.0004C16.3977 18.0003 16.7792 17.8422 17.0605 17.5609C17.3417 17.2797 17.4998 16.8982 17.4999 16.5004ZM13.9999 14.0004C13.9999 13.9015 13.9706 13.8048 13.9156 13.7226C13.8607 13.6404 13.7826 13.5763 13.6912 13.5385C13.5999 13.5006 13.4993 13.4907 13.4024 13.51C13.3054 13.5293 13.2163 13.5769 13.1463 13.6468C13.0764 13.7168 13.0288 13.8059 13.0095 13.9028C12.9902 13.9998 13.0001 14.1004 13.038 14.1917C13.0758 14.2831 13.1399 14.3612 13.2221 14.4161C13.3043 14.4711 13.401 14.5004 13.4999 14.5004C13.6325 14.5004 13.7597 14.4477 13.8535 14.3539C13.9472 14.2602 13.9999 14.133 13.9999 14.0004ZM13.9999 19.0004C13.9999 18.9015 13.9706 18.8048 13.9156 18.7226C13.8607 18.6404 13.7826 18.5763 13.6912 18.5385C13.5999 18.5006 13.4993 18.4907 13.4024 18.51C13.3054 18.5293 13.2163 18.5769 13.1463 18.6468C13.0764 18.7168 13.0288 18.8059 13.0095 18.9028C12.9902 18.9998 13.0001 19.1004 13.038 19.1917C13.0758 19.2831 13.1399 19.3612 13.2221 19.4161C13.3043 19.4711 13.401 19.5004 13.4999 19.5004C13.6325 19.5004 13.7597 19.4477 13.8535 19.3539C13.9472 19.2602 13.9999 19.133 13.9999 19.0004Z" fill="#90ECA2"/>
<path d="M13.5002 13.5C13.3676 13.5 13.2404 13.5526 13.1465 13.6462L13.1721 13.6719C13.3988 13.8984 13.5975 14.1512 13.764 14.425C13.8564 14.3677 13.9277 14.2818 13.9669 14.1804C14.0062 14.079 14.0113 13.9675 13.9814 13.8629C13.9516 13.7583 13.8885 13.6663 13.8017 13.6008C13.7148 13.5353 13.609 13.4999 13.5002 13.5ZM13.764 18.575C13.5975 18.8488 13.3988 19.1016 13.1721 19.3281L13.1465 19.3538C13.1964 19.4033 13.2562 19.4417 13.322 19.4665C13.3878 19.4914 13.4581 19.502 13.5283 19.4979C13.5985 19.4937 13.6671 19.4747 13.7295 19.4423C13.7918 19.4098 13.8467 19.3645 13.8904 19.3094C13.9341 19.2543 13.9656 19.1906 13.983 19.1224C14.0004 19.0543 14.0033 18.9833 13.9913 18.914C13.9794 18.8446 13.953 18.7786 13.9138 18.7202C13.8746 18.6618 13.8236 18.6123 13.764 18.575Z" fill="#FFFDF3"/>
<path d="M22.0688 7.93125L20.63 9.37C19.2514 8.47583 17.6433 8 16 8C14.3568 8 12.7487 8.47583 11.37 9.37L9.93127 7.93125C11.7055 6.67479 13.826 6 16 6C18.1741 6 20.2946 6.67479 22.0688 7.93125ZM20.63 23.63L22.0688 25.0688C20.2946 26.3252 18.1741 27 16 27C13.826 27 11.7055 26.3252 9.93127 25.0688L11.37 23.63C12.7487 24.5242 14.3568 25 16 25C17.6433 25 19.2514 24.5242 20.63 23.63Z" fill="#FE4F02"/>
<path d="M18.5 14.5C18.7761 14.5 19 14.2761 19 14C19 13.7239 18.7761 13.5 18.5 13.5C18.2239 13.5 18 13.7239 18 14C18 14.2761 18.2239 14.5 18.5 14.5Z" fill="#69687C"/>
<path d="M18.5 19.5C18.7761 19.5 19 19.2761 19 19C19 18.7239 18.7761 18.5 18.5 18.5C18.2239 18.5 18 18.7239 18 19C18 19.2761 18.2239 19.5 18.5 19.5Z" fill="#69687C"/>
<path d="M13.5 14.5C13.7761 14.5 14 14.2761 14 14C14 13.7239 13.7761 13.5 13.5 13.5C13.2239 13.5 13 13.7239 13 14C13 14.2761 13.2239 14.5 13.5 14.5Z" fill="#69687C"/>
<path d="M13.5 19.5C13.7761 19.5 14 19.2761 14 19C14 18.7239 13.7761 18.5 13.5 18.5C13.2239 18.5 13 18.7239 13 19C13 19.2761 13.2239 19.5 13.5 19.5Z" fill="#69687C"/>
<path d="M8.87 21.1304L7.43125 22.5691C6.17479 20.7949 5.5 18.6745 5.5 16.5004C5.5 14.3263 6.17479 12.2059 7.43125 10.4316L8.87 11.8704C7.97583 13.2491 7.5 14.8571 7.5 16.5004C7.5 18.1436 7.97583 19.7517 8.87 21.1304Z" fill="#FE4F02"/>
<path d="M22.3583 7.52332C20.1089 5.93021 17.3434 5.23968 14.6092 5.58843C11.875 5.93718 9.37134 7.29979 7.5939 9.40653C5.81646 11.5133 4.89478 14.2106 5.01131 16.9645C5.12783 19.7184 6.27408 22.3282 8.22313 24.2772C10.1722 26.2263 12.782 27.3725 15.5359 27.4891C18.2898 27.6056 20.9871 26.6839 23.0938 24.9065C25.2006 23.129 26.5632 20.6254 26.9119 17.8912C27.2607 15.1569 26.5702 12.3914 24.9771 10.1421C24.2596 9.12644 23.3739 8.24079 22.3583 7.52332ZM21.2841 8.00864L20.5556 8.73726C19.1742 7.92703 17.6016 7.49989 16.0001 7.49989C14.3986 7.49989 12.8261 7.92703 11.4446 8.73726L10.7162 8.00876C12.3022 7.02254 14.1325 6.49987 16.0001 6.49987C17.8677 6.49987 19.6981 7.02254 21.2841 8.00876V8.00864ZM19.8222 9.47051L18.4747 10.8181C17.8184 11.4744 16.9283 11.8431 16.0001 11.8431C15.072 11.8431 14.1818 11.4744 13.5256 10.8181L12.178 9.47051C13.3512 8.83346 14.6651 8.49977 16.0001 8.49977C17.3351 8.49977 18.649 8.83346 19.8222 9.47051ZM6.00012 16.4998C5.99579 14.6315 6.51881 12.8 7.50905 11.2158L8.23762 11.9443C7.42738 13.3257 7.00025 14.8982 7.00025 16.4998C7.00025 18.1013 7.42738 19.6738 8.23762 21.0553L7.50912 21.7838C6.51886 20.1995 5.99581 18.368 6.00012 16.4998ZM8.97087 20.3219C8.33382 19.1487 8.00012 17.8348 8.00012 16.4998C8.00012 15.1647 8.33382 13.8509 8.97087 12.6776L10.3184 14.0252C10.9747 14.6815 11.3434 15.5716 11.3434 16.4998C11.3434 17.4279 10.9747 18.318 10.3184 18.9743L8.97087 20.3219ZM10.7162 24.9906L11.4446 24.2623C12.8261 25.0725 14.3986 25.4996 16.0001 25.4996C17.6016 25.4996 19.1742 25.0725 20.5556 24.2623L21.2841 24.9908C19.6981 25.977 17.8677 26.4997 16.0001 26.4997C14.1325 26.4997 12.3022 25.977 10.7162 24.9908V24.9906ZM12.178 23.5288L13.5256 22.1812C14.1818 21.5249 15.072 21.1562 16.0001 21.1562C16.9283 21.1562 17.8184 21.5249 18.4747 22.1812L19.8222 23.5288C18.649 24.1658 17.3351 24.4995 16.0001 24.4995C14.6651 24.4995 13.3512 24.1658 12.178 23.5288ZM22.1177 24.41L19.1818 21.4741C18.3373 20.6315 17.1931 20.1583 16.0001 20.1583C14.8072 20.1583 13.6629 20.6315 12.8184 21.4741L9.88256 24.41C9.21116 23.891 8.60867 23.2885 8.08968 22.6171L11.0256 19.6812C11.8681 18.8367 12.3413 17.6925 12.3413 16.4995C12.3413 15.3066 11.8681 14.1623 11.0256 13.3178L8.08968 10.3819C8.60867 9.71049 9.21116 9.108 9.88256 8.58901L12.8184 11.5249C13.6629 12.3675 14.8072 12.8407 16.0001 12.8407C17.1931 12.8407 18.3373 12.3675 19.1818 11.5249L22.1177 8.58901C22.7891 9.108 23.3916 9.71049 23.9106 10.3819L20.9747 13.3178C20.1321 14.1623 19.6589 15.3066 19.6589 16.4995C19.6589 17.6925 20.1321 18.8367 20.9747 19.6812L23.9106 22.6171C23.3916 23.2886 22.7891 23.8912 22.1177 24.4103V24.41ZM21.6818 18.9741C21.0255 18.3178 20.6568 17.4277 20.6568 16.4995C20.6568 15.5714 21.0255 14.6812 21.6818 14.025L23.0294 12.6774C23.6664 13.8506 24.0001 15.1645 24.0001 16.4995C24.0001 17.8345 23.6664 19.1484 23.0294 20.3216L21.6818 18.9741ZM24.4912 21.7835L23.7626 21.0553C24.5729 19.6738 25 18.1013 25 16.4998C25 14.8982 24.5729 13.3257 23.7626 11.9443L24.4911 11.2158C25.4773 12.8018 26 14.6321 26 16.4998C26 18.3674 25.4773 20.1978 24.4911 21.7838L24.4912 21.7835Z" fill="#243746"/>
<path d="M16 14.5C15.6044 14.5 15.2178 14.6173 14.8889 14.8371C14.56 15.0568 14.3036 15.3692 14.1522 15.7346C14.0009 16.1001 13.9613 16.5022 14.0384 16.8902C14.1156 17.2781 14.3061 17.6345 14.5858 17.9142C14.8655 18.1939 15.2219 18.3844 15.6098 18.4616C15.9978 18.5387 16.3999 18.4991 16.7654 18.3478C17.1308 18.1964 17.4432 17.94 17.6629 17.6111C17.8827 17.2822 18 16.8956 18 16.5C17.9994 15.9697 17.7885 15.4614 17.4136 15.0864C17.0386 14.7115 16.5303 14.5006 16 14.5ZM16 17.5C15.8022 17.5 15.6089 17.4414 15.4444 17.3315C15.28 17.2216 15.1518 17.0654 15.0761 16.8827C15.0004 16.7 14.9806 16.4989 15.0192 16.3049C15.0578 16.1109 15.153 15.9327 15.2929 15.7929C15.4327 15.653 15.6109 15.5578 15.8049 15.5192C15.9989 15.4806 16.2 15.5004 16.3827 15.5761C16.5654 15.6518 16.7216 15.78 16.8315 15.9444C16.9414 16.1089 17 16.3022 17 16.5C16.9997 16.7651 16.8942 17.0193 16.7068 17.2068C16.5193 17.3942 16.2651 17.4997 16 17.5Z" fill="#243746"/>
<path d="M26.6066 5.89337C23.7935 3.08032 19.9782 1.49998 15.9999 1.5C12.0216 1.50002 8.2063 3.08041 5.39325 5.8935C2.5802 8.70658 0.999854 12.5219 0.999878 16.5002C0.999901 20.4785 2.58029 24.2938 5.39337 27.1069C8.20646 29.9199 12.0218 31.5003 16.0001 31.5002C17.9699 31.5002 19.9205 31.1122 21.7404 30.3584C23.5603 29.6046 25.2139 28.4996 26.6068 27.1067C27.9996 25.7138 29.1045 24.0602 29.8583 22.2403C30.6122 20.4204 31.0001 18.4699 31.0001 16.5C31.0001 14.5302 30.6121 12.5796 29.8583 10.7597C29.1044 8.93985 27.9995 7.28625 26.6066 5.89337ZM29.9902 17.0001C29.8797 20.3674 28.5492 23.5798 26.2465 26.0392L25.5465 25.3392L24.8394 26.0463L25.5394 26.7463C23.0799 29.0492 19.8674 30.3798 16.5 30.4904V29.5001H15.5V30.4904C12.1327 30.3798 8.92034 29.0493 6.46094 26.7466L7.16094 26.0466L6.45381 25.3395L5.75381 26.0395C3.45093 23.5801 2.12033 20.3676 2.00975 17.0001H3V16.0001H2.00975C2.12038 12.6328 3.45098 9.42038 5.75381 6.96106L6.45381 7.66106L7.16094 6.95393L6.46094 6.25393C8.92029 3.95116 12.1327 2.62056 15.5 2.50987L15.9999 2.5L16.5 2.50987C19.8673 2.62055 23.0797 3.95115 25.5391 6.25393L24.8391 6.95393L25.5462 7.66106L26.2462 6.96106C28.549 9.42039 29.8796 12.6328 29.9902 16.0001H29V17.0001H29.9902Z" fill="#243746"/>
<path d="M16.1667 1.5L15 4H17L15.5 7" stroke="#E87305" stroke-linecap="round"/>
</svg>
