<svg width="60" height="60" viewBox="0 0 60 60" fill="none" xmlns="http://www.w3.org/2000/svg">
<path d="M5.98576 25.5853C5.98576 25.5853 5.48896 8.38867 23.33 8.38867C41.171 8.38867 51.9332 8.38867 51.9332 8.38867C51.9332 8.38867 57.9158 13.8145 49.5974 20.7823C41.2784 27.7495 28.4996 26.7121 28.4996 26.7121L6.41056 25.5853H5.98576Z" fill="#F2EDE1"/>
<path d="M30.3108 27.7263C29.1474 27.7263 28.4514 27.6705 28.422 27.6681L6.36241 26.5437C6.30541 26.5407 6.24901 26.5329 6.19501 26.5203C6.13681 26.5335 6.07621 26.5407 6.01441 26.5425C5.46841 26.5593 5.04301 26.1417 5.02621 25.6125C5.02621 25.6125 5.02441 25.5549 5.02441 25.4457C5.02441 24.5961 5.12401 21.5625 6.40621 18.1797C6.59401 17.6829 7.15081 17.4351 7.64521 17.6223C8.14141 17.8101 8.39101 18.3651 8.20321 18.8613C7.30081 21.2421 7.04461 23.4669 6.97321 24.6513L28.5492 25.7517C28.5846 25.7541 29.2344 25.8057 30.3114 25.8057C33.8574 25.8057 42.7746 25.2441 48.9816 20.0451C51.6852 17.7807 53.0556 15.4965 53.0556 13.2549C53.0556 11.3025 52.0098 9.89433 51.528 9.34893H23.3304C17.1738 9.34893 12.6378 11.4651 9.84721 15.6381C9.55321 16.0785 8.95561 16.1979 8.51521 15.9027C8.07361 15.6075 7.95541 15.0111 8.25061 14.5701C11.4198 9.83073 16.4934 7.42773 23.3304 7.42773H52.305L52.5792 7.67673C52.677 7.76553 54.9756 9.88953 54.9756 13.2549C54.9756 16.0911 53.3736 18.8715 50.2146 21.5175C43.5246 27.1209 34.0662 27.7263 30.3108 27.7263Z" fill="#243746"/>
<path d="M10.1987 26.5447C9.68208 26.5447 9.25548 26.1343 9.23928 25.6147C9.23148 25.3759 9.10128 19.7275 13.2479 15.6307C16.1861 12.7267 20.4737 11.3749 25.9955 11.6197C49.4711 12.6481 53.1341 10.8097 53.2787 10.7305C53.2361 10.7539 53.2199 10.7689 53.2199 10.7689L54.3485 12.3247C53.8133 12.7117 49.9307 14.5909 25.9115 13.5391C20.9447 13.3213 17.1413 14.4847 14.5985 16.9969C11.0423 20.5105 11.1587 25.5037 11.1599 25.5535C11.1767 26.0839 10.7609 26.5273 10.2305 26.5441C10.2191 26.5447 10.2089 26.5447 10.1987 26.5447Z" fill="#243746"/>
<path d="M31.9905 26.6583C35.8497 26.6583 38.9781 23.5457 38.9781 19.7061C38.9781 15.8665 35.8497 12.7539 31.9905 12.7539C28.1314 12.7539 25.0029 15.8665 25.0029 19.7061C25.0029 23.5457 28.1314 26.6583 31.9905 26.6583Z" fill="#FFFDF3"/>
<path d="M31.9902 27.6205C27.6072 27.6205 24.042 24.0709 24.042 19.7077C24.042 15.3445 27.6072 11.7949 31.9902 11.7949C36.3732 11.7949 39.939 15.3445 39.939 19.7077C39.939 24.0709 36.3732 27.6205 31.9902 27.6205ZM31.9902 13.7155C28.6668 13.7155 25.9632 16.4035 25.9632 19.7071C25.9632 23.0107 28.6668 25.6993 31.9902 25.6993C35.3142 25.6993 38.0178 23.0113 38.0178 19.7071C38.0178 16.4029 35.3142 13.7155 31.9902 13.7155ZM40.3464 13.8163C40.0914 13.8163 39.8466 13.7107 39.669 13.5331C39.6258 13.4893 39.5826 13.4365 39.549 13.3885C39.5154 13.3363 39.4866 13.2781 39.4626 13.2211C39.438 13.1635 39.4188 13.1011 39.405 13.0435C39.3948 12.9811 39.3858 12.9181 39.3858 12.8563C39.3858 12.6019 39.4908 12.3523 39.669 12.1741C39.8898 11.9533 40.2216 11.8477 40.5336 11.9101C40.596 11.9245 40.6584 11.9437 40.716 11.9677C40.7736 11.9923 40.8264 12.0211 40.8792 12.0547C40.9326 12.0931 40.9848 12.1315 41.0286 12.1747C41.0718 12.2179 41.1102 12.2707 41.1486 12.3241C41.1822 12.3721 41.211 12.4297 41.235 12.4873C41.259 12.5449 41.2782 12.6073 41.2878 12.6649C41.3022 12.7273 41.307 12.7945 41.307 12.8569C41.307 12.9193 41.3022 12.9817 41.2878 13.0441C41.2776 13.1017 41.259 13.1641 41.235 13.2217C41.211 13.2793 41.1822 13.3369 41.1486 13.3891C41.1102 13.4371 41.0718 13.4899 41.0286 13.5337C40.9854 13.5763 40.9326 13.6201 40.8792 13.6537C40.8264 13.6873 40.7736 13.7161 40.716 13.7401C40.6584 13.7641 40.596 13.7833 40.5336 13.7977C40.4754 13.8067 40.4088 13.8163 40.3464 13.8163ZM42.6708 21.7507C42.1422 21.6979 41.7582 21.2269 41.811 20.6989C41.8644 20.1703 42.3348 19.7863 42.8634 19.8391C43.3914 19.8919 43.7754 20.3623 43.7226 20.8909C43.6698 21.3859 43.2522 21.7555 42.7674 21.7555C42.7332 21.7555 42.7044 21.7555 42.6708 21.7507ZM41.436 16.8613C41.2824 16.3519 41.5704 15.8143 42.075 15.6607C42.5844 15.5071 43.1214 15.7903 43.2756 16.2997C43.4298 16.8091 43.1466 17.3467 42.6366 17.5003C42.546 17.5291 42.4494 17.5441 42.3582 17.5441C41.9454 17.5387 41.5656 17.2747 41.436 16.8613ZM41.5128 25.8049C41.4504 25.8049 41.388 25.8001 41.3256 25.7857C41.2632 25.7713 41.2056 25.7569 41.1474 25.7329C41.085 25.7089 41.0322 25.6753 40.9788 25.6417C40.9266 25.6081 40.878 25.5697 40.8348 25.5217C40.7868 25.4785 40.7484 25.4305 40.7148 25.3777C40.6764 25.3249 40.6476 25.2721 40.6236 25.2097C40.599 25.1521 40.5804 25.0945 40.5702 25.0321C40.5558 24.9697 40.551 24.9073 40.551 24.8449C40.551 24.5905 40.6518 24.3451 40.8342 24.1675C40.8774 24.1195 40.926 24.0811 40.9782 24.0475C41.031 24.0097 41.0838 23.9803 41.1468 23.9563C41.2044 23.9323 41.262 23.9131 41.325 23.9035C41.4498 23.8795 41.5746 23.8795 41.6994 23.9035C41.7624 23.9131 41.8194 23.9323 41.8776 23.9563C41.94 23.9803 41.9928 24.0097 42.0462 24.0475C42.099 24.0817 42.147 24.1195 42.1902 24.1675C42.3726 24.3451 42.4734 24.5905 42.4734 24.8449C42.4734 24.9073 42.4686 24.9697 42.4542 25.0321C42.4446 25.0945 42.4254 25.1521 42.4008 25.2097C42.3768 25.2721 42.348 25.3249 42.3096 25.3777C42.276 25.4311 42.2376 25.4785 42.1896 25.5217C42.1464 25.5697 42.0984 25.6081 42.0456 25.6417C41.9922 25.6753 41.9394 25.7089 41.877 25.7329C41.8194 25.7569 41.7618 25.7713 41.6988 25.7857C41.6376 25.7995 41.5752 25.8049 41.5128 25.8049Z" fill="#FFD163"/>
<path d="M23.0843 26.7976C23.0219 26.7976 22.9595 26.7886 22.8971 26.779C22.8347 26.7646 22.7723 26.7502 22.7147 26.7256C22.6571 26.7016 22.6043 26.668 22.5515 26.6344C22.4987 26.6008 22.4453 26.557 22.4021 26.5144C22.3589 26.4712 22.3205 26.4232 22.2821 26.3704C22.2479 26.3176 22.2197 26.26 22.1957 26.2024C22.1717 26.1448 22.1525 26.0866 22.1423 26.0242C22.1279 25.9618 22.1231 25.8994 22.1231 25.837C22.1231 25.5826 22.2239 25.3378 22.4015 25.1554C22.4501 25.1122 22.4981 25.0738 22.5509 25.0402C22.6037 25.0018 22.6565 24.973 22.7141 24.949C22.7717 24.925 22.8341 24.9058 22.8965 24.8962C23.0213 24.8674 23.1461 24.8674 23.2715 24.8962C23.3339 24.9058 23.3915 24.925 23.4485 24.949C23.5061 24.973 23.5643 25.0018 23.6165 25.0402C23.6687 25.0738 23.7173 25.1122 23.7605 25.1554C23.9381 25.333 24.0437 25.5826 24.0437 25.837C24.0437 26.092 23.9381 26.3368 23.7605 26.5144C23.7173 26.5576 23.6687 26.6008 23.6165 26.6344C23.5637 26.668 23.5061 26.7016 23.4485 26.7256C23.3915 26.7496 23.3339 26.764 23.2715 26.779C23.2091 26.7886 23.1461 26.7976 23.0843 26.7976ZM20.6345 22.8736C20.4905 22.3642 20.7881 21.8314 21.2969 21.6874C21.8111 21.5434 22.3391 21.841 22.4831 22.3552C22.6271 22.8646 22.3295 23.398 21.8201 23.5372C21.7295 23.5612 21.6425 23.5756 21.5561 23.5756C21.1391 23.575 20.7551 23.2966 20.6345 22.8736ZM21.1247 20.026C20.5919 19.9918 20.1881 19.5406 20.2217 19.012C20.2505 18.484 20.7065 18.0754 21.2351 18.109C21.7637 18.1378 22.1717 18.5938 22.1381 19.1224C22.1093 19.6366 21.6863 20.0302 21.1775 20.0302C21.1583 20.0302 21.1391 20.026 21.1247 20.026ZM21.6101 16.4806C21.1199 16.2742 20.8895 15.712 21.0911 15.2224C21.2927 14.7322 21.8549 14.5018 22.3445 14.7034C22.8389 14.9098 23.0693 15.472 22.8635 15.9616C22.7093 16.3318 22.3541 16.5526 21.9749 16.5526C21.8549 16.5532 21.7301 16.5286 21.6101 16.4806ZM23.8769 13.5268C23.8145 13.5268 23.7521 13.522 23.6897 13.5076C23.6273 13.498 23.5697 13.4788 23.5121 13.4548C23.4545 13.4308 23.3969 13.4026 23.3435 13.3684C23.2913 13.33 23.2427 13.2916 23.1995 13.2484C23.0213 13.0708 22.9163 12.8212 22.9163 12.5668C22.9163 12.5044 22.9259 12.442 22.9361 12.3796C22.9499 12.3172 22.9691 12.2596 22.9937 12.2014C23.0177 12.1438 23.0465 12.0862 23.0801 12.0334C23.1137 11.9806 23.1569 11.9326 23.2001 11.8894C23.2433 11.8462 23.2913 11.803 23.3441 11.7694C23.3975 11.7358 23.4551 11.707 23.5127 11.683C23.5703 11.659 23.6279 11.6398 23.6903 11.6254C23.8151 11.6014 23.9447 11.6014 24.0647 11.6254C24.1271 11.6398 24.1895 11.659 24.2471 11.683C24.3047 11.707 24.3581 11.7358 24.4103 11.7694C24.4637 11.803 24.5111 11.8462 24.5597 11.8894C24.7379 12.067 24.8381 12.3166 24.8381 12.5668C24.8381 12.6292 24.8333 12.6916 24.8189 12.754C24.8087 12.8164 24.7901 12.8788 24.7655 12.9364C24.7415 12.994 24.7133 13.0468 24.6791 13.1002C24.6407 13.153 24.6023 13.201 24.5591 13.2484C24.5159 13.2922 24.4631 13.33 24.4097 13.3684C24.3575 13.4026 24.3041 13.4308 24.2465 13.4548C24.1889 13.4788 24.1265 13.498 24.0641 13.5076C24.0065 13.522 23.9393 13.5268 23.8769 13.5268Z" fill="#FFD163"/>
<path d="M31.9899 23.4287C29.9301 23.4287 28.2549 21.7589 28.2549 19.7075C28.2549 17.6561 29.9301 15.9863 31.9899 15.9863C34.0497 15.9863 35.7255 17.6555 35.7255 19.7075C35.7255 21.7589 34.0497 23.4287 31.9899 23.4287ZM31.9899 17.9075C30.9897 17.9075 30.1761 18.7151 30.1761 19.7075C30.1761 20.6999 30.9897 21.5075 31.9899 21.5075C32.9907 21.5075 33.8043 20.6999 33.8043 19.7075C33.8043 18.7145 32.9907 17.9075 31.9899 17.9075Z" fill="#FFD163"/>
<path d="M47.2357 35.2137C43.3849 38.8449 37.3051 38.6817 33.6553 34.8507C30.0055 31.0197 30.1693 24.9705 34.0201 21.3393C37.8709 17.7081 43.9507 17.8707 47.6005 21.7017C51.2497 25.5333 51.0859 31.5825 47.2357 35.2137Z" fill="#FFE5A6"/>
<path d="M40.6304 38.7898C37.8296 38.7898 35.0342 37.6912 32.9594 35.5138C31.0172 33.475 29.9894 30.805 30.0644 27.9958C30.14 25.186 31.3106 22.5736 33.3608 20.641C37.589 16.6534 44.288 16.8328 48.2954 21.04C50.2376 23.0794 51.266 25.7494 51.1904 28.5586C51.1154 31.3684 49.9448 33.9802 47.8946 35.9134C45.8552 37.8364 43.2404 38.7898 40.6304 38.7898ZM40.6256 19.6834C38.4884 19.6834 36.3488 20.464 34.679 22.0384C33.0038 23.6182 32.0468 25.7524 31.985 28.0474C31.9238 30.3418 32.7638 32.5228 34.3508 34.1884C37.631 37.6324 43.1156 37.7788 46.5764 34.5154C48.2516 32.9356 49.2086 30.8014 49.2704 28.5064C49.3316 26.212 48.4916 24.031 46.9046 22.3648C45.2072 20.5828 42.9176 19.6834 40.6256 19.6834Z" fill="#FE4F02"/>
<path d="M44.9229 32.7846C42.4197 35.145 38.4675 35.0394 36.0957 32.5488C33.7239 30.0588 33.8295 26.1264 36.3327 23.766C38.8359 21.4056 42.7881 21.5112 45.1599 24.0018C47.5317 26.4924 47.4261 30.4242 44.9229 32.7846Z" fill="#90ECA2"/>
<path d="M40.6291 35.4462C38.7199 35.4462 36.8137 34.6974 35.4001 33.2124C34.0753 31.8216 33.3739 30.0006 33.4255 28.0848C33.4765 26.1684 34.2751 24.387 35.6731 23.0682C38.5561 20.3502 43.1239 20.4738 45.8551 23.3406C47.1799 24.7314 47.8807 26.5524 47.8297 28.4688C47.7781 30.3852 46.9795 32.1672 45.5815 33.4848C44.1913 34.7958 42.4087 35.4462 40.6291 35.4462ZM40.6261 23.0268C39.3205 23.0268 38.0119 23.5038 36.9913 24.4662C35.9677 25.431 35.3839 26.7348 35.3461 28.1364C35.3089 29.5374 35.8219 30.8694 36.7915 31.8876C38.7961 33.9918 42.1483 34.0824 44.2639 32.0868C45.2875 31.122 45.8719 29.8182 45.9097 28.4172C45.9469 27.0162 45.4339 25.6836 44.4649 24.666C43.4263 23.5764 42.0277 23.0268 40.6261 23.0268Z" fill="#243746"/>
<path d="M29.752 43.9312L24.334 38.2426L36.4558 26.8126C38.0344 25.324 40.5274 25.3906 42.0238 26.9614C43.5202 28.5322 43.453 31.0126 41.8744 32.5012L29.752 43.9312Z" fill="#90ECA2"/>
<path d="M29.751 44.8923C29.4972 44.8923 29.244 44.7921 29.055 44.5941L23.637 38.9055C23.4606 38.7201 23.3653 38.4723 23.3725 38.2173C23.3791 37.9617 23.4882 37.7199 23.6736 37.5441L35.7954 26.1141C37.7556 24.2667 40.8606 24.3501 42.7176 26.2995C43.6188 27.2457 44.0958 28.4853 44.061 29.7885C44.0262 31.0923 43.4827 32.3043 42.5317 33.2007L30.4098 44.6307C30.225 44.8053 29.9874 44.8923 29.751 44.8923ZM25.6944 38.2797L29.7876 42.5769L41.2135 31.8033C41.7901 31.2597 42.1189 30.5259 42.1399 29.7369C42.1609 28.9485 41.8716 28.1979 41.3262 27.6249C40.1958 26.4381 38.3064 26.3877 37.113 27.5121L25.6944 38.2797Z" fill="#243746"/>
<path d="M16.5983 50.964L16.5713 50.9358C15.8153 50.142 15.8129 48.9066 16.5521 48.0984C19.9085 44.4294 24.3323 38.2422 24.3323 38.2422L29.7503 43.9308C29.7503 43.9308 23.2037 48.0978 19.4201 51.1554C18.5771 51.837 17.3459 51.7488 16.5983 50.964Z" fill="#FFFDF3"/>
<path d="M18.1206 52.5703C17.3082 52.5703 16.4982 52.2511 15.9036 51.6271C15.9036 51.6271 15.9036 51.6265 15.9024 51.6259L15.8754 51.5977C14.7816 50.4487 14.7678 48.6265 15.8442 47.4505C19.1232 43.8655 23.5074 37.7449 23.5512 37.6837C23.7174 37.4509 23.979 37.3045 24.2652 37.2841C24.546 37.2619 24.831 37.3723 25.0284 37.5799L30.4464 43.2685C30.6444 43.4767 30.7392 43.7623 30.7044 44.0479C30.6696 44.3329 30.5088 44.5879 30.267 44.7421C30.2016 44.7835 23.7216 48.9157 20.0244 51.9031C19.4706 52.3501 18.7944 52.5703 18.1206 52.5703ZM24.4338 39.7405C23.058 41.6227 19.8708 45.8947 17.2626 48.7471C16.8582 49.1893 16.8606 49.8457 17.268 50.2741L16.599 50.9647L17.2944 50.3023C17.6976 50.7259 18.3666 50.7727 18.8172 50.4085C21.7626 48.0283 26.2746 45.0403 28.2546 43.7533L24.4338 39.7405Z" fill="#243746"/>
<path d="M32.5409 42.2623C32.2871 42.2623 32.0345 42.1621 31.8455 41.9641L26.4269 36.2755C26.0615 35.8915 26.0759 35.2831 26.4599 34.9171C26.8445 34.5517 27.4517 34.5661 27.8183 34.9507L33.2369 40.6393C33.6023 41.0233 33.5879 41.6317 33.2039 41.9971C33.0179 42.1741 32.7797 42.2623 32.5409 42.2623Z" fill="#243746"/>
<path d="M35.3407 34.2223C35.0857 34.2223 34.8307 34.1209 34.6417 33.9205C34.2775 33.5341 34.2955 32.9263 34.6813 32.5627L37.8769 29.5489C38.2627 29.1853 38.8699 29.2021 39.2347 29.5891C39.5989 29.9755 39.5809 30.5833 39.1945 30.9469L36.0001 33.9607C35.8141 34.1359 35.5777 34.2223 35.3407 34.2223Z" fill="#243746"/>
<path d="M22.4534 25.7688C25.0676 28.08 27.689 30.126 30.3074 32.4156C31.4696 31.3974 32.6318 30.3822 33.7916 29.3226C31.1786 26.9568 28.5578 24.903 25.9394 22.653C25.3256 22.0266 24.4376 21.7632 23.6294 21.9114C23.2352 21.9834 22.8596 22.1538 22.5446 22.4274C21.986 22.9128 21.7382 23.6364 21.8072 24.3468C21.857 24.8586 22.0718 25.3644 22.4534 25.7688Z" fill="#FFFDF3"/>
<path d="M30.308 33.3765C30.0824 33.3765 29.8568 33.2973 29.6756 33.1395C28.4402 32.0595 27.1802 31.0137 25.961 30.0027C24.6038 28.8765 23.201 27.7125 21.8174 26.4897C21.7958 26.4705 21.7748 26.4501 21.755 26.4291C21.1286 25.7643 20.795 24.8601 20.84 23.9487C20.8838 23.0649 21.266 22.2675 21.9146 21.7035C23.2274 20.5653 25.3166 20.6781 26.5946 21.9507C27.584 22.8003 28.592 23.6373 29.5676 24.4467C31.1624 25.7709 32.8112 27.1395 34.4372 28.6119C34.6376 28.7931 34.7528 29.0511 34.7528 29.3217C34.7528 29.5923 34.6394 29.8509 34.4402 30.0333C33.359 31.0209 32.261 31.9827 31.1996 32.9127L30.941 33.1389C30.7598 33.2973 30.5342 33.3765 30.308 33.3765ZM23.1272 25.0827C24.476 26.2743 25.8548 27.4179 27.188 28.5237C28.2098 29.3709 29.2592 30.2421 30.305 31.1415C30.9824 30.5481 31.6712 29.9421 32.3558 29.3277C31.0154 28.1451 29.6594 27.0189 28.3406 25.9245C27.35 25.1013 26.3252 24.2505 25.3148 23.3823C25.2938 23.3643 25.274 23.3457 25.2548 23.3259C24.6872 22.7463 23.735 22.6671 23.1758 23.1531C22.9256 23.3703 22.778 23.6865 22.76 24.0429C22.7402 24.4227 22.874 24.7989 23.1272 25.0827Z" fill="#243746"/>
<path d="M27.7109 30.7499C27.4559 30.7499 27.2009 30.6491 27.0119 30.4487C26.6477 30.0623 26.6657 29.4545 27.0515 29.0909L29.8409 26.4611C30.2267 26.0975 30.8345 26.1143 31.1987 26.5007C31.5629 26.8865 31.5449 27.4943 31.1585 27.8585L28.3691 30.4883C28.1843 30.6635 27.9479 30.7499 27.7109 30.7499Z" fill="#243746"/>
</svg>
