<svg width="65" height="64" viewBox="0 0 65 64" fill="none" xmlns="http://www.w3.org/2000/svg">
<path fill-rule="evenodd" clip-rule="evenodd" d="M41.021 34.8123C39.4713 34.8123 38.2216 33.5375 38.2216 31.9878C38.2216 30.4381 39.4713 29.1884 41.021 29.1884C42.5707 29.1884 43.8455 30.4381 43.8455 31.9878C43.8455 33.5375 42.5707 34.8123 41.021 34.8123ZM41.021 53.3337C37.1718 53.3337 33.5475 52.2839 30.3981 50.4842C30.3981 50.4842 30.3731 50.4842 30.3731 50.4592C30.3481 50.4592 30.3231 50.4342 30.3231 50.4342C27.1237 48.5846 24.4743 45.9101 22.5996 42.7357C22.5996 42.7107 22.5746 42.6857 22.5496 42.6607C22.5496 42.6357 22.5246 42.6108 22.5246 42.5858C20.725 39.4614 19.7002 35.8621 19.7002 31.9878C19.7002 28.1386 20.725 24.5393 22.5246 21.4149C22.5246 21.3899 22.5496 21.3649 22.5496 21.3399C22.5746 21.2899 22.5996 21.2649 22.6246 21.2399C24.4743 18.0655 27.1487 15.3911 30.3481 13.5414C30.3481 13.5414 30.3481 13.5414 30.3731 13.5164C33.5225 11.7168 37.1468 10.667 41.021 10.667C44.8953 10.667 48.5196 11.6918 51.644 13.5164C51.6689 13.5164 51.6689 13.5164 51.6939 13.5164C51.6939 13.5414 51.7189 13.5414 51.7189 13.5414C54.9183 15.4161 57.5928 18.0905 59.4674 21.2649C59.4674 21.2899 59.4924 21.3149 59.4924 21.3399C59.5174 21.3399 59.5174 21.3649 59.5174 21.3899C61.3171 24.5143 62.3669 28.1386 62.3669 31.9878C62.3669 35.8621 61.3171 39.5114 59.4924 42.6357V42.6607C59.4924 42.6607 59.4924 42.6857 59.4674 42.6857C57.6178 45.8851 54.9433 48.5596 51.7439 50.4342C51.7439 50.4342 51.7189 50.4592 51.6939 50.4592C51.6689 50.4842 51.644 50.4842 51.644 50.4842C48.5196 52.2839 44.8953 53.3337 41.021 53.3337ZM40.4461 11.8418C37.1968 11.9417 34.1474 12.7916 31.4479 14.2413L32.6227 16.2409C32.7726 16.5408 32.6727 16.8908 32.3977 17.0407C32.2977 17.0907 32.1978 17.1157 32.0978 17.1157C31.8978 17.1157 31.6979 17.0158 31.5979 16.8408L30.4481 14.8412C27.7736 16.4909 25.5241 18.7404 23.8744 21.4149L25.849 22.5647C26.1489 22.7146 26.2239 23.0896 26.074 23.3645C25.974 23.5395 25.774 23.6645 25.574 23.6645C25.4741 23.6645 25.3741 23.6395 25.2741 23.5645L23.2745 22.4147C21.8248 25.1142 20.9749 28.1636 20.875 31.4129H23.1745C23.4995 31.4129 23.7744 31.6629 23.7744 31.9878C23.7744 32.3128 23.4995 32.5877 23.1745 32.5877H20.875C20.9749 35.8121 21.8248 38.8865 23.2995 41.561L25.2741 40.4112C25.5491 40.2612 25.924 40.3612 26.074 40.6361C26.2489 40.9111 26.1489 41.261 25.874 41.436L23.8744 42.5858C25.5241 45.2352 27.7736 47.5098 30.4481 49.1595L31.5979 47.1599C31.7478 46.8849 32.1228 46.7849 32.3977 46.9349C32.6727 47.1099 32.7726 47.4598 32.5977 47.7347L31.4479 49.7344C34.1474 51.1841 37.1968 52.0589 40.4461 52.1589V49.8343C40.4461 49.5094 40.6961 49.2595 41.021 49.2595C41.346 49.2595 41.6209 49.5094 41.6209 49.8343V52.1589C44.8453 52.0589 47.9197 51.1841 50.5942 49.7344L49.4444 47.7347C49.2944 47.4598 49.3694 47.1099 49.6693 46.9599C49.9443 46.7849 50.2942 46.8849 50.4692 47.1599L51.619 49.1595C54.2684 47.5098 56.543 45.2352 58.1927 42.5858L56.1931 41.436C55.9181 41.261 55.8181 40.9111 55.9681 40.6361C56.1431 40.3612 56.493 40.2612 56.768 40.4112L58.7676 41.561C60.2173 38.8865 61.0921 35.8121 61.1921 32.5877H58.8675C58.5426 32.5877 58.2927 32.3128 58.2927 31.9878C58.2927 31.6629 58.5426 31.4129 58.8675 31.4129H61.1921C61.0921 28.1636 60.2173 25.1142 58.7676 22.4147L56.768 23.5895C56.693 23.6395 56.593 23.6645 56.493 23.6645C56.293 23.6645 56.0931 23.5395 55.9931 23.3645C55.8181 23.0896 55.9181 22.7396 56.1931 22.5647L58.1927 21.4149C56.543 18.7404 54.2684 16.4909 51.594 14.8412L50.4442 16.8408C50.3442 17.0158 50.1442 17.1157 49.9443 17.1157C49.8443 17.1157 49.7443 17.0907 49.6693 17.0407C49.3694 16.8908 49.2944 16.5158 49.4444 16.2409L50.5942 14.2413C47.9197 12.7916 44.8453 11.9417 41.6209 11.8418V14.1413C41.6209 14.4662 41.346 14.7412 41.021 14.7412C40.6961 14.7412 40.4461 14.4662 40.4461 14.1413V11.8418ZM41.021 47.5598C32.4477 47.5598 25.4741 40.5861 25.4741 31.9878C25.4741 23.4145 32.4477 16.4409 41.021 16.4409C49.6193 16.4409 56.593 23.4145 56.593 31.9878C56.593 40.5861 49.6193 47.5598 41.021 47.5598ZM41.021 17.5906C33.0976 17.5906 26.6238 24.0644 26.6238 31.9878C26.6238 39.9363 33.0976 46.385 41.021 46.385C48.9695 46.385 55.4182 39.9363 55.4182 31.9878C55.4182 24.0644 48.9695 17.5906 41.021 17.5906ZM38.9714 43.5606C36.222 43.0857 33.8224 41.6359 32.0978 39.6113C32.0728 39.5863 32.0478 39.5613 32.0228 39.5364C31.5979 39.0364 31.1979 38.4616 30.848 37.8617C30.5231 37.2618 30.2231 36.6369 29.9982 36.012C29.9732 35.987 29.9732 35.987 29.9732 35.9621C29.5233 34.7373 29.2733 33.3876 29.2733 31.9878C29.2733 30.6131 29.5233 29.2634 29.9732 28.0386C29.9732 28.0136 29.9732 27.9886 29.9982 27.9886C30.2231 27.3387 30.4981 26.7139 30.848 26.114C31.1979 25.5391 31.5979 24.9642 32.0228 24.4393C32.0478 24.4143 32.0728 24.3893 32.0978 24.3643C33.8474 22.3397 36.247 20.915 38.9714 20.4401L38.9964 20.4151C39.5463 20.3151 40.1462 20.2651 40.7211 20.2401C40.8211 20.2401 40.921 20.2401 41.021 20.2401C41.121 20.2401 41.221 20.2401 41.321 20.2401C41.9209 20.2651 42.4957 20.3151 43.0706 20.4151L43.0956 20.4401C45.8201 20.915 48.2196 22.3397 49.9443 24.3643C49.9693 24.3893 50.0193 24.4143 50.0193 24.4393C50.4692 24.9642 50.8691 25.5391 51.194 26.114C51.544 26.7139 51.8439 27.3387 52.0689 27.9886C52.0689 27.9886 52.0939 28.0136 52.0939 28.0386C52.5438 29.2634 52.7687 30.6131 52.7687 31.9878C52.7687 33.3876 52.5438 34.7123 52.0939 35.9621C52.0939 35.9621 52.0689 35.987 52.0689 36.012C51.8439 36.6619 51.544 37.2868 51.194 37.8617C50.8691 38.4616 50.4692 39.0364 50.0193 39.5613C50.0193 39.5863 49.9943 39.6113 49.9443 39.6363C48.2446 41.6359 45.8451 43.0607 43.1456 43.5606C43.1206 43.5606 43.0956 43.5606 43.0706 43.5606C42.5957 43.6605 42.1208 43.7105 41.6459 43.7355H41.6209C41.5209 43.7355 41.4459 43.7355 41.346 43.7355H41.321C41.221 43.7355 41.121 43.7355 41.021 43.7355C40.921 43.7355 40.8211 43.7355 40.7211 43.7355C40.6211 43.7355 40.5211 43.7355 40.4211 43.7355C39.9462 43.7105 39.4713 43.6605 38.9964 43.5606H38.9714ZM40.6711 21.4149C40.6211 21.4149 40.5961 21.4149 40.5461 21.4149L40.4461 21.4399C40.3712 21.4399 40.2962 21.4399 40.2462 21.4399H40.1962C40.0212 21.4649 39.8463 21.4899 39.6713 21.5149V28.0636C39.6713 28.2636 39.5463 28.4885 39.3464 28.5885C39.1964 28.6385 39.0464 28.7385 38.8964 28.8384C38.7215 28.9634 38.4715 28.9634 38.2966 28.8634L32.6227 25.5891C32.0728 26.2889 31.6229 27.0888 31.2729 27.9386L36.9218 31.213C37.1218 31.313 37.2468 31.5129 37.2218 31.7379C37.2218 31.8379 37.2218 31.9128 37.2218 31.9878C37.2218 32.0878 37.2218 32.1628 37.2218 32.2378C37.2468 32.4627 37.1218 32.6877 36.9218 32.7877L31.2729 36.062C31.6229 36.9119 32.0728 37.6867 32.6227 38.4116L38.2966 35.1372C38.4715 35.0372 38.7215 35.0372 38.8964 35.1622C39.0464 35.2622 39.1964 35.3372 39.3464 35.4122C39.5463 35.5121 39.6713 35.7121 39.6713 35.9371V42.4858H39.6963C39.7713 42.5108 39.8463 42.5108 39.8962 42.5108L39.9962 42.5358C40.0462 42.5358 40.0962 42.5358 40.1462 42.5358C40.1962 42.5358 40.2462 42.5358 40.2962 42.5608H40.3962C40.4711 42.5608 40.5211 42.5608 40.5961 42.5608H40.6461C40.7211 42.5608 40.8211 42.5858 40.8961 42.5858H40.946C41.096 42.5858 41.246 42.5858 41.421 42.5608H41.4459C41.5459 42.5608 41.6209 42.5608 41.6959 42.5608H41.7459C41.8209 42.5358 41.8709 42.5358 41.9209 42.5358H42.0458L42.1708 42.5108C42.2208 42.5108 42.2958 42.5108 42.3458 42.4858H42.3958V35.9371C42.3958 35.7121 42.5207 35.5121 42.7207 35.4122C42.8707 35.3372 42.9956 35.2622 43.1456 35.1622C43.3456 35.0372 43.5705 35.0372 43.7705 35.1372L49.4444 38.4116C49.7193 38.0616 49.9693 37.6867 50.1942 37.2868L50.2442 37.2118V37.1868L50.2692 37.1368C50.4692 36.7869 50.6441 36.437 50.7941 36.062L45.1202 32.7877C44.9203 32.6877 44.8203 32.4627 44.8203 32.2378C44.8453 32.1628 44.8453 32.0878 44.8453 31.9878C44.8453 31.9128 44.8453 31.8379 44.8203 31.7379C44.8203 31.5129 44.9203 31.313 45.1202 31.213L50.7941 27.9136C50.6192 27.5137 50.4192 27.0888 50.1942 26.7139C49.9693 26.3389 49.7443 25.989 49.4694 25.6391L49.4444 25.5641L43.7705 28.8384C43.5705 28.9634 43.3206 28.9634 43.1456 28.8384C42.9956 28.7385 42.8707 28.6635 42.6957 28.5885C42.4957 28.4885 42.3708 28.2636 42.3708 28.0636V21.4899C41.8959 21.4399 41.421 21.4149 40.946 21.4149H40.8961H40.8461C40.7961 21.4149 40.7461 21.4149 40.6711 21.4149ZM38.4965 21.7148C36.5219 22.2147 34.7723 23.2395 33.3975 24.6643L38.4965 27.6137V21.7148ZM30.873 29.0384C30.5981 29.9882 30.4481 30.963 30.4481 31.9878C30.4481 33.0126 30.5981 34.0124 30.873 34.9373L35.972 31.9878L30.873 29.0384ZM33.3975 39.3114C34.7723 40.7361 36.5219 41.7859 38.4965 42.2608V36.362L33.3975 39.3114ZM43.5455 42.2608C45.5202 41.7859 47.2948 40.7361 48.6695 39.3114L43.5455 36.362V42.2608ZM51.194 34.9373C51.469 34.0124 51.619 33.0126 51.619 31.9878C51.619 30.963 51.469 29.9882 51.194 29.0384L46.07 31.9878L51.194 34.9373ZM48.6695 24.6643C47.2948 23.2395 45.5202 22.2147 43.5455 21.7148V27.6137L48.6695 24.6643ZM41.021 30.3631C40.1212 30.3631 39.3963 31.088 39.3963 31.9878C39.3963 32.9126 40.1212 33.6375 41.021 33.6375C41.9458 33.6375 42.6707 32.9126 42.6707 31.9878C42.6707 31.088 41.9458 30.3631 41.021 30.3631Z" fill="#243746"/>
<path fill-rule="evenodd" clip-rule="evenodd" d="M41.0211 16.4409C49.6194 16.4409 56.593 23.4145 56.593 31.9879C56.593 40.5862 49.6194 47.5598 41.0211 47.5598C32.4477 47.5598 25.4741 40.5862 25.4741 31.9879C25.4741 23.4145 32.4477 16.4409 41.0211 16.4409ZM31.4479 49.7344C34.1474 51.1841 37.1968 52.0589 40.4462 52.1589V49.8344C40.4462 49.5094 40.6961 49.2595 41.0211 49.2595C41.346 49.2595 41.6209 49.5094 41.6209 49.8344V52.1589C44.8453 52.0589 47.9197 51.1841 50.5942 49.7344L49.4444 47.7348C49.2944 47.4598 49.3694 47.1099 49.6694 46.9599C49.9443 46.785 50.2943 46.885 50.4692 47.1599L51.619 49.1595C54.2685 47.5098 56.543 45.2353 58.1927 42.5858L56.1931 41.436C55.9182 41.2611 55.8182 40.9111 55.9681 40.6362C56.1431 40.3612 56.493 40.2612 56.768 40.4112L58.7676 41.561C60.2173 38.8865 61.0921 35.8121 61.1921 32.5877H58.8676C58.5426 32.5877 58.2927 32.3128 58.2927 31.9879C58.2927 31.6629 58.5426 31.413 58.8676 31.413H61.1921C61.0921 28.1636 60.2173 25.1142 58.7676 22.4147L56.768 23.5895C56.693 23.6395 56.593 23.6645 56.493 23.6645C56.2931 23.6645 56.0931 23.5395 55.9931 23.3645C55.8182 23.0896 55.9182 22.7397 56.1931 22.5647L58.1927 21.4149C56.543 18.7404 54.2685 16.4909 51.594 14.8412L50.4442 16.8408C50.3442 17.0158 50.1443 17.1158 49.9443 17.1158C49.8443 17.1158 49.7444 17.0908 49.6694 17.0408C49.3694 16.8908 49.2944 16.5159 49.4444 16.2409L50.5942 14.2413C47.9197 12.7916 44.8453 11.9418 41.6209 11.8418V14.1413C41.6209 14.4663 41.346 14.7412 41.0211 14.7412C40.6961 14.7412 40.4462 14.4663 40.4462 14.1413V11.8418C37.1968 11.9418 34.1474 12.7916 31.4479 14.2413L32.6227 16.2409C32.7727 16.5409 32.6727 16.8908 32.3977 17.0408C32.2978 17.0908 32.1978 17.1158 32.0978 17.1158C31.8978 17.1158 31.6979 17.0158 31.5979 16.8408L30.4481 14.8412C27.7737 16.4909 25.5241 18.7404 23.8744 21.4149L25.849 22.5647C26.149 22.7147 26.224 23.0896 26.074 23.3645C25.974 23.5395 25.774 23.6645 25.5741 23.6645C25.4741 23.6645 25.3741 23.6395 25.2741 23.5645L23.2745 22.4147C21.8248 25.1142 20.975 28.1636 20.875 31.413H23.1746C23.4995 31.413 23.7744 31.6629 23.7744 31.9879C23.7744 32.3128 23.4995 32.5877 23.1746 32.5877H20.875C20.975 35.8121 21.8248 38.8865 23.2995 41.561L25.2741 40.4112C25.5491 40.2612 25.924 40.3612 26.074 40.6362C26.249 40.9111 26.149 41.2611 25.874 41.436L23.8744 42.5858C25.5241 45.2353 27.7737 47.5098 30.4481 49.1595L31.5979 47.1599C31.7479 46.885 32.1228 46.785 32.3977 46.9349C32.6727 47.1099 32.7727 47.4598 32.5977 47.7348L31.4479 49.7344Z" fill="#69687C"/>
<path fill-rule="evenodd" clip-rule="evenodd" d="M55.4174 31.988C55.4174 24.0646 48.9687 17.5908 41.0202 17.5908C33.0968 17.5908 26.623 24.0646 26.623 31.988C26.623 39.9365 33.0968 46.3852 41.0202 46.3852C48.9687 46.3852 55.4174 39.9365 55.4174 31.988ZM43.0948 20.4403C45.8193 20.9152 48.2188 22.3399 49.9435 24.3645C49.9685 24.3895 50.0185 24.4145 50.0185 24.4395C50.4684 24.9644 50.8683 25.5393 51.1932 26.1142C51.5432 26.714 51.8431 27.3389 52.0681 27.9888C52.0681 27.9888 52.0931 28.0138 52.0931 28.0388C52.543 29.2635 52.7679 30.6133 52.7679 31.988C52.7679 33.3877 52.543 34.7125 52.0931 35.9622C52.0931 35.9622 52.0681 35.9872 52.0681 36.0122C51.8431 36.6621 51.5432 37.287 51.1932 37.8619C50.8683 38.4617 50.4684 39.0366 50.0185 39.5615C50.0185 39.5865 49.9935 39.6115 49.9435 39.6365C48.2438 41.6361 45.8443 43.0608 43.1448 43.5607C43.1198 43.5607 43.0948 43.5607 43.0698 43.5607C42.5949 43.6607 42.12 43.7107 41.6451 43.7357H41.6201C41.5201 43.7357 41.4452 43.7357 41.3452 43.7357H41.3202C41.2202 43.7357 41.1202 43.7357 41.0202 43.7357C40.9203 43.7357 40.8203 43.7357 40.7203 43.7357C40.6203 43.7357 40.5203 43.7357 40.4204 43.7357C39.9454 43.7107 39.4705 43.6607 38.9956 43.5607H38.9706C36.2212 43.0858 33.8216 41.6361 32.097 39.6115C32.072 39.5865 32.047 39.5615 32.022 39.5365C31.5971 39.0366 31.1972 38.4617 30.8472 37.8619C30.5223 37.262 30.2223 36.6371 29.9974 36.0122L29.9724 35.9622C29.5225 34.7375 29.2725 33.3877 29.2725 31.988C29.2725 30.6133 29.5225 29.2635 29.9724 28.0388C29.9724 28.0138 29.9724 27.9888 29.9974 27.9888C30.2223 27.3389 30.4973 26.714 30.8472 26.1142C31.1972 25.5393 31.5971 24.9644 32.022 24.4395C32.047 24.4145 32.072 24.3895 32.097 24.3645C33.8466 22.3399 36.2462 20.9152 38.9706 20.4403L38.9956 20.4153C39.5455 20.3153 40.1454 20.2653 40.7203 20.2403C40.8203 20.2403 40.9203 20.2403 41.0202 20.2403C41.1202 20.2403 41.2202 20.2403 41.3202 20.2403C41.9201 20.2653 42.4949 20.3153 43.0698 20.4153L43.0948 20.4403Z" fill="#F2EDE1"/>
<path fill-rule="evenodd" clip-rule="evenodd" d="M50.1947 26.714C49.9698 26.3391 49.7448 25.9891 49.4699 25.6392L49.4449 25.5642L43.771 28.8386C43.571 28.9636 43.3211 28.9636 43.1461 28.8386C42.9961 28.7386 42.8712 28.6636 42.6962 28.5886C42.4962 28.4887 42.3713 28.2637 42.3713 28.0637V21.49C41.8964 21.44 41.4215 21.415 40.9465 21.415H40.8966H40.8466H40.6716H40.5466L40.4466 21.44H40.2467H40.1967C40.0217 21.465 39.8468 21.49 39.6718 21.515V28.0637C39.6718 28.2637 39.5468 28.4887 39.3469 28.5886C39.1969 28.6386 39.0469 28.7386 38.8969 28.8386C38.722 28.9636 38.472 28.9636 38.2971 28.8636L32.6232 25.5892C32.0733 26.2891 31.6234 27.0889 31.2734 27.9388L36.9223 31.2131C37.1223 31.3131 37.2473 31.5131 37.2223 31.738C37.2223 31.838 37.2223 31.913 37.2223 31.988C37.2223 32.088 37.2223 32.1629 37.2223 32.2379C37.2473 32.4629 37.1223 32.6878 36.9223 32.7878L31.2734 36.0622C31.6234 36.912 32.0733 37.6869 32.6232 38.4117L38.2971 35.1374C38.472 35.0374 38.722 35.0374 38.8969 35.1624C39.0469 35.2623 39.1969 35.3373 39.3469 35.4123C39.5468 35.5123 39.6718 35.7122 39.6718 35.9372V42.4859H39.6968L39.8968 42.5109L39.9967 42.5359H40.1467L40.2967 42.5609H40.3967H40.5966H40.6466C40.7216 42.5609 40.8216 42.5859 40.8966 42.5859H40.9465C41.0965 42.5859 41.2465 42.5859 41.4215 42.5609H41.4465C41.5464 42.5609 41.6214 42.5609 41.6964 42.5609H41.7464L41.9214 42.5359H42.0463L42.1713 42.5109L42.3463 42.4859H42.3963V35.9372C42.3963 35.7122 42.5212 35.5123 42.7212 35.4123C42.8712 35.3373 42.9961 35.2623 43.1461 35.1624C43.3461 35.0374 43.571 35.0374 43.771 35.1374L49.4449 38.4117C49.7198 38.0618 49.9698 37.6869 50.1947 37.2869L50.2447 37.212V37.187L50.2697 37.137C50.4697 36.787 50.6447 36.4371 50.7946 36.0622L45.1207 32.7878C44.9208 32.6878 44.8208 32.4629 44.8208 32.2379C44.8458 32.1629 44.8458 32.088 44.8458 31.988C44.8458 31.913 44.8458 31.838 44.8208 31.738C44.8208 31.5131 44.9208 31.3131 45.1207 31.2131L50.7946 27.9138C50.6197 27.5138 50.4197 27.0889 50.1947 26.714ZM41.0215 29.1885C42.5712 29.1885 43.846 30.4383 43.846 31.988C43.846 33.5377 42.5712 34.8124 41.0215 34.8124C39.4718 34.8124 38.2221 33.5377 38.2221 31.988C38.2221 30.4383 39.4718 29.1885 41.0215 29.1885Z" fill="#F2EDE1"/>
<path fill-rule="evenodd" clip-rule="evenodd" d="M42.6699 31.987C42.6699 31.0872 41.945 30.3623 41.0202 30.3623C40.1204 30.3623 39.3955 31.0872 39.3955 31.987C39.3955 32.9118 40.1204 33.6367 41.0202 33.6367C41.945 33.6367 42.6699 32.9118 42.6699 31.987Z" fill="#FE4F02"/>
<path d="M12.3115 30.7881C11.8748 30.7881 11.4654 30.6243 11.1515 30.3104C10.5101 29.669 10.5101 28.6318 11.1515 27.9904L13.1713 25.9706H4.10961C3.87761 25.9706 3.7002 25.7932 3.7002 25.5612C3.7002 25.3292 3.87761 25.1518 4.10961 25.1518H14.1675C14.3313 25.1518 14.4814 25.2473 14.5496 25.4111C14.6179 25.5749 14.5769 25.7386 14.4541 25.8615L11.7247 28.5909C11.4108 28.9048 11.4108 29.4233 11.7247 29.7509C11.8748 29.901 12.0795 29.9965 12.2979 29.9965C12.5162 29.9965 12.7209 29.9146 12.871 29.7509L17.552 25.0699C17.8659 24.756 17.8659 24.2375 17.552 23.9099L12.8847 19.2017C12.5708 18.8878 12.0522 18.8878 11.7247 19.2017C11.4108 19.5156 11.4108 20.0341 11.7247 20.3617L14.4541 23.0911C14.5769 23.2139 14.6042 23.3777 14.5496 23.5415C14.495 23.7052 14.3313 23.7871 14.1675 23.7871H6.83903C6.60703 23.7871 6.42961 23.6097 6.42961 23.3777C6.42961 23.1457 6.60703 22.9683 6.83903 22.9683H13.1713L11.1515 20.9349C10.5101 20.2934 10.5101 19.2563 11.1515 18.6148C11.7929 17.9734 12.8301 17.9734 13.4715 18.6148L18.1525 23.2958C18.7939 23.9372 18.7939 24.9744 18.1525 25.6158L13.4715 30.2968C13.1576 30.6243 12.7482 30.7881 12.3115 30.7881Z" fill="#352F2E"/>
<path d="M12.3115 46.7881C11.8748 46.7881 11.4654 46.6243 11.1515 46.3104C10.5101 45.669 10.5101 44.6318 11.1515 43.9904L13.1713 41.9706H4.10961C3.87761 41.9706 3.7002 41.7932 3.7002 41.5612C3.7002 41.3292 3.87761 41.1518 4.10961 41.1518H14.1675C14.3313 41.1518 14.4814 41.2473 14.5496 41.4111C14.6179 41.5749 14.5769 41.7386 14.4541 41.8615L11.7247 44.5909C11.4108 44.9048 11.4108 45.4233 11.7247 45.7509C11.8748 45.901 12.0795 45.9965 12.2979 45.9965C12.5162 45.9965 12.7209 45.9146 12.871 45.7509L17.552 41.0699C17.8659 40.756 17.8659 40.2375 17.552 39.9099L12.8847 35.2017C12.5708 34.8878 12.0522 34.8878 11.7247 35.2017C11.4108 35.5156 11.4108 36.0341 11.7247 36.3617L14.4541 39.0911C14.5769 39.2139 14.6042 39.3777 14.5496 39.5415C14.495 39.7052 14.3313 39.7871 14.1675 39.7871H6.83903C6.60703 39.7871 6.42961 39.6097 6.42961 39.3777C6.42961 39.1457 6.60703 38.9683 6.83903 38.9683H13.1713L11.1515 36.9349C10.5101 36.2934 10.5101 35.2563 11.1515 34.6148C11.7929 33.9734 12.8301 33.9734 13.4715 34.6148L18.1525 39.2958C18.7939 39.9372 18.7939 40.9744 18.1525 41.6158L13.4715 46.2968C13.1576 46.6243 12.7482 46.7881 12.3115 46.7881Z" fill="#352F2E"/>
</svg>
