<svg width="65" height="64" viewBox="0 0 65 64" fill="none" xmlns="http://www.w3.org/2000/svg">
<path fill-rule="evenodd" clip-rule="evenodd" d="M26.8252 43.0363C26.4202 41.2387 25.4487 39.6236 24.0569 38.4328L18.6187 33.7807L15.4651 26.9181C15.0223 25.9545 14.0422 25.41 13.0452 25.7638L12.3184 26.0238C11.3398 26.3712 10.8559 27.4244 11.1939 28.4098L13.9956 36.578L10.958 29.4977C10.958 29.4977 10.786 19.5193 10.762 14.6103C10.794 13.6199 10.0832 12.7879 9.10624 12.6769L9.08647 12.6764C8.02167 12.5664 7.09297 13.3411 7.01737 14.4213L5.95023 29.7357C5.67683 33.6589 6.68363 37.5639 8.81303 40.8505L16.8096 53.1923L28.1607 49.0065L26.8252 43.0363ZM38.0254 43.0363C38.4304 41.2387 39.4022 39.6236 40.794 38.4328L46.2322 33.7807L49.3858 26.9181C49.8286 25.9545 50.8087 25.41 51.8057 25.7638L52.5325 26.0238C53.5111 26.3712 53.995 27.4244 53.657 28.4098L50.8553 36.578L53.8929 29.4977C53.8929 29.4977 54.0649 19.5193 54.0889 14.6103C54.0569 13.6199 54.7677 12.7879 55.7447 12.6769L55.7644 12.6764C56.8292 12.5664 57.7579 13.3411 57.8335 14.4213L58.9007 29.7357C59.1741 33.6589 58.1673 37.5639 56.0379 40.8505L48.0413 53.1923L36.6902 49.0065L38.0254 43.0363Z" fill="#F2EDE1"/>
<path fill-rule="evenodd" clip-rule="evenodd" d="M52.9709 13.4331C53.4819 12.7286 54.3358 12.1728 55.424 12.0037C55.444 12.0055 55.45 12.0019 55.464 12.0037C57.5064 11.7662 59.3566 13.3053 59.4966 15.3568L60.461 29.5364C60.7387 33.6084 59.4867 37.5015 57.4918 40.9464L50.2352 53.4801C49.5678 54.6443 47.8227 53.632 48.5018 52.4756L55.7604 39.9468C57.6102 36.7537 58.7109 33.2491 58.4669 29.6704L57.5011 15.4947C57.4371 14.5582 56.6398 13.9 55.716 13.9937C55.1032 14.0937 54.8028 14.3161 54.59 14.61C54.3728 14.9081 54.2578 15.3227 54.2448 15.7265C54.2228 17.7898 54.1531 23.2114 54.1311 25.2744C54.1311 26.6284 52.0957 26.6064 52.1311 25.2525C52.1551 23.182 52.2214 17.7536 52.2454 15.6833V15.6633C52.2694 14.9432 52.4615 14.14 52.9729 13.4358L52.9709 13.4331Z" fill="#243746"/>
<path fill-rule="evenodd" clip-rule="evenodd" d="M37.7477 41.8054C38.2197 39.7427 39.3489 37.8884 40.9605 36.5194L45.6649 32.5238L47.8538 26.5122C48.536 24.6379 50.6237 23.6453 52.506 24.3045L53.1759 24.5314C53.1826 24.5314 53.1893 24.5314 53.1959 24.5314C55.0763 25.1898 56.0634 27.2842 55.3814 29.1565L51.9094 38.6932C51.8661 38.8187 51.7986 38.9342 51.7102 39.0332C51.6217 39.1322 51.5141 39.2126 51.3942 39.2697C51.2744 39.3268 51.1445 39.3595 51.0119 39.3658C50.8793 39.3722 50.7466 39.3522 50.6218 39.3068C50.497 39.2614 50.3829 39.1916 50.2854 39.1015C50.1879 39.0115 50.109 38.9028 50.054 38.7821C49.9989 38.6613 49.9682 38.5308 49.9641 38.3982C49.96 38.2655 49.9825 38.1333 50.03 38.0094L53.5026 28.4727C53.8132 27.62 53.3823 26.7146 52.5343 26.4175L51.8649 26.1903C51.8583 26.1904 51.8516 26.1904 51.8449 26.1903C50.9779 25.8868 50.0501 26.3243 49.7332 27.1955L47.4534 33.4568C47.3949 33.6188 47.2955 33.763 47.1649 33.8753L42.2558 38.0414C40.9727 39.131 40.0778 40.6078 39.7022 42.2506L38.2608 48.526C38.234 48.6562 38.1813 48.7797 38.1061 48.8894C38.0308 48.999 37.9342 49.0925 37.8224 49.1644C37.7105 49.2364 37.5852 49.2854 37.4542 49.3084C37.3232 49.3314 37.1889 49.3279 37.0592 49.2984C36.9295 49.2689 36.807 49.2138 36.6989 49.1364C36.5907 49.0589 36.4991 48.9609 36.4294 48.8476C36.3596 48.7344 36.3135 48.6083 36.2931 48.4769C36.2727 48.3455 36.2786 48.2113 36.3107 48.0823L37.7477 41.8054Z" fill="#243746"/>
<path fill-rule="evenodd" clip-rule="evenodd" d="M20.583 9.99836C20.3463 10.0087 20.121 10.1028 19.9472 10.2636C19.7734 10.4245 19.6623 10.6419 19.6338 10.877C19.6338 10.877 19.4688 12.2636 19.3603 13.8876C19.2519 15.5117 19.1499 17.2833 19.4502 18.5344C20.4952 23.0557 25.864 25.1456 29.7702 23.3531C32.0127 22.3236 33.1701 20.428 33.2466 18.4993C33.3232 16.5706 32.454 14.654 31.0475 13.1691C29.5495 11.5879 27.0117 10.9592 24.8016 10.5333C22.5915 10.1073 20.6845 9.99836 20.6845 9.99836C20.6507 9.99664 20.6168 9.99664 20.583 9.99836Z" fill="#243746"/>
<path fill-rule="evenodd" clip-rule="evenodd" d="M21.5278 12.1182C22.1274 12.1661 22.873 12.198 24.4222 12.4969C26.4857 12.8946 28.795 13.6956 29.5979 14.5431C30.6866 15.6925 31.296 17.1661 31.2463 18.4206C31.1965 19.675 30.6208 20.7585 28.9338 21.5328C26.24 22.7692 22.1145 21.2093 21.395 18.077C21.2497 17.4714 21.2514 15.5925 21.3559 14.0277C21.4243 13.0034 21.4725 12.645 21.5278 12.126L21.5278 12.1182Z" fill="#FE4F02"/>
<path fill-rule="evenodd" clip-rule="evenodd" d="M40.8474 17.2764C39.347 17.1025 37.8407 17.3944 36.3163 18.1238C34.8535 18.8239 33.75 20.3156 33.75 22.0248C33.75 23.7474 34.9038 25.1678 36.2773 25.9023C37.8103 26.7216 39.6858 26.6409 41.1834 25.9223C42.5356 25.273 43.5041 23.9204 44.3005 22.732C45.0968 21.5437 45.6403 20.4792 45.6403 20.4792C45.7473 20.2696 45.777 20.029 45.7242 19.7997C45.6713 19.5704 45.5392 19.367 45.3512 19.2255C43.8443 18.0915 42.3479 17.4508 40.8474 17.2764Z" fill="#243746"/>
<path fill-rule="evenodd" clip-rule="evenodd" d="M40.6445 19.1674C41.4824 19.2674 42.395 19.8415 43.3398 20.4447C43.1254 20.8295 43.0556 21.0009 42.6406 21.6205C41.9179 22.6993 40.8879 23.8459 40.3164 24.1205C39.4106 24.5555 38.0407 24.5775 37.2227 24.1405C36.4778 23.7399 35.75 22.7051 35.75 22.0267C35.75 21.3341 36.4789 20.2663 37.1836 19.9291C38.4737 19.3115 39.5553 19.0374 40.6445 19.1674Z" fill="#FFFDF3"/>
<path fill-rule="evenodd" clip-rule="evenodd" d="M25.7074 15.9963C25.5092 16.0051 25.3181 16.0728 25.1584 16.1905C24.9987 16.3083 24.8777 16.4709 24.8107 16.6576C24.7437 16.8444 24.7338 17.0466 24.7821 17.239C24.8305 17.4314 24.9351 17.605 25.0824 17.7378C28.6976 21.0649 30.1146 25.51 30.6721 29.9953C30.7432 30.5811 30.7424 32.963 30.7424 32.963C30.7381 33.096 30.7603 33.2285 30.8078 33.3527C30.8554 33.477 30.9272 33.5904 31.0192 33.6866C31.1112 33.7828 31.2215 33.8598 31.3435 33.9128C31.4656 33.9659 31.597 33.994 31.7301 33.9956C31.8632 33.9972 31.9953 33.9722 32.1186 33.9221C32.2419 33.872 32.354 33.7979 32.4482 33.7039C32.5425 33.61 32.6171 33.498 32.6676 33.3749C32.7181 33.2518 32.7435 33.1199 32.7424 32.9869C32.7424 32.9869 32.7868 30.8132 32.6564 29.75C32.0674 25.0108 30.5154 20.0228 26.4379 16.2701C26.3406 16.178 26.2259 16.1064 26.1004 16.0595C25.9749 16.0125 25.8413 15.9906 25.7074 15.9963Z" fill="#243746"/>
<path fill-rule="evenodd" clip-rule="evenodd" d="M38.7224 20.991C38.5988 20.9946 38.477 21.0209 38.363 21.0688C38.363 21.0688 35.6293 22.1217 34.1639 23.1775C32.7604 24.1887 31 26.3287 31 26.3287C30.9118 26.4281 30.8444 26.544 30.8015 26.6697C30.7587 26.7954 30.7413 26.9282 30.7504 27.0606C30.7595 27.1931 30.7949 27.3225 30.8546 27.4411C30.9142 27.5598 30.9969 27.6655 31.0978 27.7518C31.1987 27.8382 31.3158 27.9035 31.4423 27.9441C31.5687 27.9847 31.702 27.9997 31.8344 27.9883C31.9667 27.9769 32.0954 27.9392 32.2131 27.8775C32.3307 27.8158 32.4348 27.7314 32.5194 27.6291C32.5194 27.6291 34.4522 25.4385 35.3358 24.8019C36.2812 24.1208 39.113 22.9237 39.113 22.9237C39.3337 22.839 39.5173 22.6788 39.6311 22.4717C39.745 22.2645 39.7818 22.0239 39.7349 21.7922C39.6881 21.5606 39.5607 21.353 39.3754 21.2063C39.19 21.0595 38.9587 20.9834 38.7224 20.991Z" fill="#243746"/>
<path fill-rule="evenodd" clip-rule="evenodd" d="M12.0285 13.4331C11.5175 12.7286 10.6636 12.1728 9.5754 12.0037C9.5554 12.0055 9.54936 12.0019 9.53536 12.0037C7.49303 11.7662 5.64277 13.3053 5.50277 15.3568L4.53844 29.5364C4.26065 33.6084 5.51265 37.5015 7.50759 40.9464L14.7642 53.4801C15.4316 54.6443 17.1767 53.632 16.4976 52.4756L9.23899 39.9468C7.38924 36.7537 6.28853 33.2491 6.53252 29.6704L7.49832 15.4947C7.56231 14.5582 8.35965 13.9 9.28342 13.9937C9.8962 14.0937 10.1966 14.3161 10.4094 14.61C10.6266 14.9081 10.7416 15.3227 10.7546 15.7265C10.7766 17.7898 10.8463 23.2114 10.8683 25.2744C10.8683 26.6284 12.9037 26.6064 12.8683 25.2525C12.8443 23.182 12.778 17.7536 12.754 15.6833V15.6633C12.73 14.9432 12.5374 14.14 12.026 13.4358L12.0285 13.4331Z" fill="#243746"/>
<path fill-rule="evenodd" clip-rule="evenodd" d="M27.2537 41.8054C26.7817 39.7427 25.6529 37.8884 24.0414 36.5194L19.3369 32.5238L17.148 26.5122C16.4658 24.6379 14.3782 23.6453 12.4958 24.3045L11.8259 24.5314C11.8193 24.5314 11.8126 24.5314 11.8059 24.5314C9.92556 25.1898 8.93844 27.2842 9.62042 29.1565L13.0925 38.6932C13.1357 38.8187 13.2033 38.9342 13.2917 39.0332C13.3801 39.1322 13.4873 39.2126 13.6071 39.2697C13.727 39.3268 13.8573 39.3595 13.9899 39.3658C14.1225 39.3722 14.2548 39.3522 14.3796 39.3068C14.5043 39.2614 14.6189 39.1916 14.7165 39.1015C14.814 39.0115 14.8928 38.9028 14.9479 38.7821C15.003 38.6613 15.0331 38.5308 15.0373 38.3982C15.0414 38.2655 15.0193 38.1333 14.9718 38.0094L11.4993 28.4727C11.1887 27.62 11.6195 26.7146 12.4675 26.4175L13.1369 26.1903C13.1436 26.1904 13.1503 26.1904 13.1569 26.1903C14.0239 25.8868 14.9517 26.3243 15.2687 27.1955L17.5484 33.4568C17.6069 33.6188 17.7063 33.763 17.837 33.8753L22.746 38.0414C24.0292 39.131 24.9241 40.6078 25.2996 42.2506L26.741 48.526C26.7679 48.6562 26.8205 48.7797 26.8958 48.8894C26.971 48.999 27.0676 49.0925 27.1795 49.1644C27.2913 49.2364 27.4161 49.2854 27.5471 49.3084C27.6781 49.3314 27.8124 49.3279 27.9421 49.2984C28.0719 49.2689 28.1948 49.2138 28.303 49.1364C28.4111 49.0589 28.5028 48.9609 28.5725 48.8476C28.6422 48.7344 28.6883 48.6083 28.7087 48.4769C28.7291 48.3455 28.7233 48.2113 28.6911 48.0823L27.2537 41.8054Z" fill="#243746"/>
</svg>
