<svg width="65" height="64" viewBox="0 0 65 64" fill="none" xmlns="http://www.w3.org/2000/svg">
<path d="M6.22998 37C2.14998 37 3.71998 42.05 4.14998 43C7.37998 50.08 15.52 51 24.15 51C35.75 51 45.15 42.05 45.15 31C45.15 19.95 35.76 11 24.16 11C21.16 11 15.77 12.44 12.16 15C9.30998 17.02 8.77998 22.23 11.16 24.79C12.29 26.01 13.16 27.46 13.16 29C13.16 33.41 10.07 37 6.25998 37H6.23998H6.22998Z" fill="#F2EDE1"/>
<path d="M61.76 59.16C61.52 59.51 61.08 59.68 60.56 59.68C60.04 59.67 59.44 59.5 58.87 59.14L34.5 44.25C35.13 44.05 35.61 43.71 35.9 43.23L36.63 42.04C36.97 41.49 37.06 40.8 36.91 40L60.57 56.59C61.7 57.3 62.23 58.45 61.76 59.16Z" fill="#69687C"/>
<path d="M18.1602 23C19.817 23 21.1602 21.6569 21.1602 20C21.1602 18.3431 19.817 17 18.1602 17C16.5033 17 15.1602 18.3431 15.1602 20C15.1602 21.6569 16.5033 23 18.1602 23Z" fill="#FFFDF3"/>
<path d="M29.1602 24C30.817 24 32.1602 22.6569 32.1602 21C32.1602 19.3431 30.817 18 29.1602 18C27.5033 18 26.1602 19.3431 26.1602 21C26.1602 22.6569 27.5033 24 29.1602 24Z" fill="#90ECA2"/>
<path d="M15.1602 45C16.817 45 18.1602 43.6569 18.1602 42C18.1602 40.3431 16.817 39 15.1602 39C13.5033 39 12.1602 40.3431 12.1602 42C12.1602 43.6569 13.5033 45 15.1602 45Z" fill="#281FD4"/>
<path d="M37.1602 31C38.817 31 40.1602 29.6569 40.1602 28C40.1602 26.3431 38.817 25 37.1602 25C35.5033 25 34.1602 26.3431 34.1602 28C34.1602 29.6569 35.5033 31 37.1602 31Z" fill="#FE4F02"/>
<path d="M36.2002 38.3802L36.2602 38.5202C36.8502 39.8602 36.8902 41.0302 36.3802 41.8602L35.6502 43.0502C34.8002 44.4502 32.3902 44.6602 29.4302 43.6002C28.3802 43.2302 27.4002 42.5802 26.6202 41.7702C25.3002 40.3802 24.5302 39.1102 24.0602 37.8502C23.5302 36.4402 23.4002 35.0302 23.5602 33.7202L24.0102 29.9902L25.9102 32.2502C26.4902 32.9402 27.3702 33.3702 28.1802 33.3802C29.2202 33.3802 30.4902 33.7202 31.7802 34.3302C33.7702 35.2702 35.5402 36.8902 36.1902 38.3702L36.2002 38.3802Z" fill="#FFAC5F"/>
<path d="M37.4895 47.69L58.0895 59.8C58.7895 60.24 59.5795 60.49 60.3095 60.5H60.3295C61.1995 60.5 61.9295 60.15 62.3395 59.53C62.6495 59.06 62.7495 58.48 62.6295 57.88C62.4395 57 61.7995 56.15 60.8895 55.58L42.2995 42.86C44.7295 39.48 46.1595 35.4 46.1595 31C46.1595 19.42 36.2895 10 24.1595 10C20.8795 10 15.2795 11.57 11.5795 14.18C9.98952 15.3 8.93952 17.27 8.69952 19.56C8.45952 21.84 9.10952 24.04 10.4195 25.46C11.5695 26.7 12.1595 27.89 12.1595 28.99C12.1595 32.85 9.50952 35.99 6.25952 35.99H6.23952C4.45952 35.99 3.55952 36.81 3.11952 37.49C1.65952 39.76 3.23952 43.37 3.25952 43.41C6.69952 50.95 15.3395 51.99 24.1695 51.99C29.1795 51.99 33.7995 50.38 37.4995 47.68L37.4895 47.69ZM59.7895 57.25C60.5395 57.72 60.7295 58.31 60.6795 58.42C60.6695 58.44 60.5595 58.5 60.3295 58.5C59.9695 58.5 59.5495 58.36 59.1395 58.1L39.1595 46.35C39.8295 45.75 40.4695 45.11 41.0595 44.44L59.7895 57.26V57.25ZM35.5295 41.34L34.7995 42.53C34.2295 43.46 32.1595 43.52 29.7795 42.66C28.8795 42.34 28.0195 41.78 27.3595 41.08C26.2295 39.89 25.4795 38.76 25.0095 37.5C24.5695 36.32 24.4195 35.09 24.5695 33.85L24.7495 32.4L25.1695 32.9C25.9395 33.81 27.0995 34.38 28.1995 34.38C29.0895 34.38 30.2195 34.69 31.3795 35.24C33.1395 36.07 34.7495 37.53 35.2995 38.78L35.3595 38.92C35.8095 39.94 35.8695 40.8 35.5395 41.34H35.5295ZM36.5095 43.57L37.2395 42.38C37.3195 42.26 37.3895 42.11 37.4495 41.96L39.3895 43.29C38.7595 44 38.0595 44.66 37.3295 45.27L35.7995 44.37C36.0795 44.14 36.3195 43.88 36.5095 43.57ZM5.07952 42.58C4.72952 41.82 4.15952 39.58 4.80952 38.58C4.89952 38.44 5.17952 38 6.24952 38H6.26952C10.6295 38 14.1695 33.96 14.1695 29C14.1695 27.38 13.4095 25.74 11.8995 24.11C10.9695 23.11 10.5195 21.49 10.6995 19.78C10.8795 18.08 11.6395 16.6 12.7395 15.82C16.0695 13.46 21.2595 12 24.1595 12C35.1895 12 44.1595 20.52 44.1595 31C44.1595 34.98 42.8595 38.68 40.6495 41.73L37.6595 39.68C37.5795 39.21 37.4295 38.69 37.1795 38.11L37.1195 37.97C36.3695 36.26 34.4495 34.48 32.2295 33.43C30.7895 32.75 29.3995 32.38 28.1995 32.38C27.6795 32.38 27.0695 32.07 26.6895 31.61L24.7895 29.36C24.5295 29.06 24.1195 28.93 23.7395 29.05C23.3595 29.16 23.0795 29.49 23.0295 29.89L22.5795 33.62C22.3895 35.19 22.5795 36.73 23.1395 38.22C23.7095 39.74 24.5895 41.09 25.9095 42.47C26.7995 43.4 27.9095 44.13 29.1095 44.56C30.4595 45.04 31.7095 45.28 32.8095 45.28C32.9995 45.28 33.1795 45.28 33.3595 45.26L35.5995 46.59C32.3595 48.74 28.4195 50.02 24.1695 50.02C14.7395 50.02 7.87952 48.76 5.07952 42.6V42.58Z" fill="#243746"/>
<path d="M18.1602 16C15.9502 16 14.1602 17.79 14.1602 20C14.1602 22.21 15.9502 24 18.1602 24C20.3702 24 22.1602 22.21 22.1602 20C22.1602 17.79 20.3702 16 18.1602 16ZM18.1602 22C17.0602 22 16.1602 21.1 16.1602 20C16.1602 18.9 17.0602 18 18.1602 18C19.2602 18 20.1602 18.9 20.1602 20C20.1602 21.1 19.2602 22 18.1602 22ZM29.1602 25C31.3702 25 33.1602 23.21 33.1602 21C33.1602 18.79 31.3702 17 29.1602 17C26.9502 17 25.1602 18.79 25.1602 21C25.1602 23.21 26.9502 25 29.1602 25ZM29.1602 19C30.2602 19 31.1602 19.9 31.1602 21C31.1602 22.1 30.2602 23 29.1602 23C28.0602 23 27.1602 22.1 27.1602 21C27.1602 19.9 28.0602 19 29.1602 19ZM15.1602 38C12.9502 38 11.1602 39.79 11.1602 42C11.1602 44.21 12.9502 46 15.1602 46C17.3702 46 19.1602 44.21 19.1602 42C19.1602 39.79 17.3702 38 15.1602 38ZM15.1602 44C14.0602 44 13.1602 43.1 13.1602 42C13.1602 40.9 14.0602 40 15.1602 40C16.2602 40 17.1602 40.9 17.1602 42C17.1602 43.1 16.2602 44 15.1602 44ZM37.1602 32C39.3702 32 41.1602 30.21 41.1602 28C41.1602 25.79 39.3702 24 37.1602 24C34.9502 24 33.1602 25.79 33.1602 28C33.1602 30.21 34.9502 32 37.1602 32ZM37.1602 26C38.2602 26 39.1602 26.9 39.1602 28C39.1602 29.1 38.2602 30 37.1602 30C36.0602 30 35.1602 29.1 35.1602 28C35.1602 26.9 36.0602 26 37.1602 26Z" fill="#243746"/>
</svg>
