<svg width="32" height="33" viewBox="0 0 32 33" fill="none" xmlns="http://www.w3.org/2000/svg">
<path d="M16.0001 30.9997C12.6472 30.9982 9.39862 29.8342 6.80766 27.7062C4.21671 25.5781 2.44371 22.6175 1.79073 19.3289C1.13774 16.0402 1.64516 12.6269 3.22654 9.67035C4.80791 6.71384 7.36542 4.39705 10.4634 3.11468C13.5613 1.8323 17.008 1.66367 20.2164 2.63751C23.4247 3.61136 26.1961 5.66743 28.0586 8.45545C29.921 11.2435 30.7592 14.591 30.4303 17.9277C30.1015 21.2644 28.626 24.3839 26.2551 26.7547C24.9098 28.1031 23.3112 29.1723 21.5513 29.9008C19.7914 30.6293 17.9048 31.0027 16.0001 30.9997ZM26.5001 16.4997C26.5016 15.8282 26.4363 15.1582 26.3051 14.4997C25.9068 12.445 24.9032 10.5564 23.4233 9.07652C21.9434 7.59661 20.0548 6.59302 18.0001 6.1947C16.6795 5.9347 15.3208 5.9347 14.0001 6.1947C11.9455 6.59302 10.0568 7.59661 8.57693 9.07652C7.09702 10.5564 6.09343 12.445 5.69511 14.4997C5.43512 15.8204 5.43512 17.179 5.69511 18.4997C6.09343 20.5544 7.09702 22.443 8.57693 23.9229C10.0568 25.4028 11.9455 26.4064 14.0001 26.8047C15.3208 27.0647 16.6795 27.0647 18.0001 26.8047C20.0548 26.4064 21.9434 25.4028 23.4233 23.9229C24.9032 22.443 25.9068 20.5544 26.3051 18.4997C26.4363 17.8411 26.5016 17.1712 26.5001 16.4997Z" fill="#69687C"/>
<path d="M26.305 18.5H20.83L24.7 22.375C23.9497 23.4903 22.9903 24.4497 21.875 25.2L18 21.33V26.805C16.6793 27.065 15.3207 27.065 14 26.805V21.33L10.125 25.2C9.00968 24.4497 8.05032 23.4903 7.3 22.375L11.17 18.5H5.695C5.435 17.1793 5.435 15.8207 5.695 14.5H11.17L7.3 10.625C8.05032 9.50968 9.00968 8.55032 10.125 7.8L14 11.67V6.195C15.3207 5.935 16.6793 5.935 18 6.195V11.67L21.875 7.8C22.9903 8.55032 23.9497 9.50968 24.7 10.625L20.83 14.5H26.305C26.565 15.8207 26.565 17.1793 26.305 18.5Z" fill="#FE4F02"/>
<path d="M16 19.5C17.6569 19.5 19 18.1569 19 16.5C19 14.8431 17.6569 13.5 16 13.5C14.3431 13.5 13 14.8431 13 16.5C13 18.1569 14.3431 19.5 16 19.5Z" fill="#F2EDE1"/>
<path d="M16 1.5C13.0333 1.5 10.1332 2.37973 7.66645 4.02796C5.19972 5.67618 3.27713 8.01886 2.14181 10.7597C1.0065 13.5006 0.709449 16.5166 1.28823 19.4264C1.86701 22.3361 3.29562 25.0088 5.3934 27.1066C7.49119 29.2044 10.1639 30.633 13.0737 31.2118C15.9834 31.7906 18.9994 31.4935 21.7403 30.3582C24.4812 29.2229 26.8238 27.3003 28.4721 24.8336C30.1203 22.3668 31 19.4667 31 16.5C30.9955 12.5231 29.4137 8.71044 26.6016 5.89837C23.7896 3.0863 19.9769 1.5045 16 1.5ZM29.9875 17C29.9562 17.8882 29.8402 18.7714 29.641 19.6375L28.2035 19.2525L27.945 20.2185L29.385 20.604C29.1236 21.4536 28.7814 22.2762 28.363 23.0605L27.075 22.317L26.575 23.183L27.8605 23.925C27.3881 24.6772 26.8455 25.383 26.24 26.033L25.1925 24.983L24.4855 25.69L25.5355 26.7375C24.8855 27.343 24.1797 27.8855 23.4275 28.358L22.6855 27.073L21.8195 27.573L22.563 28.8605C21.7787 29.2789 20.9561 29.6211 20.1065 29.8825L19.721 28.442L18.755 28.701L19.14 30.1385C18.2731 30.3386 17.3891 30.4555 16.5 30.4875V29H15.5V30.4875C14.6118 30.4562 13.7286 30.3401 12.8625 30.141L13.2475 28.7035L12.2815 28.4445L11.896 29.885C11.0464 29.6236 10.2238 29.2814 9.43951 28.863L10.183 27.5755L9.31701 27.0755L8.57501 28.3605C7.82279 27.888 7.11698 27.3455 6.46701 26.74L7.51701 25.6925L6.81001 24.9855L5.76001 26.0355C5.15442 25.3847 4.61183 24.6781 4.13951 23.925L5.42501 23.183L4.92501 22.317L3.63701 23.0605C3.21863 22.2762 2.8764 21.4536 2.61501 20.604L4.05501 20.2185L3.79651 19.2525L2.35901 19.6375C2.15986 18.7714 2.04384 17.8882 2.01251 17H3.50001V16H2.01251C2.04384 15.1118 2.15986 14.2286 2.35901 13.3625L3.79651 13.7475L4.05501 12.7815L2.61501 12.396C2.8764 11.5464 3.21863 10.7238 3.63701 9.9395L4.92501 10.683L5.42501 9.817L4.13951 9.075C4.61196 8.32278 5.15455 7.61697 5.76001 6.967L6.81001 8.017L7.51701 7.31L6.46701 6.26C7.11698 5.65454 7.82279 5.11196 8.57501 4.6395L9.31701 5.9245L10.183 5.4245L9.43951 4.137C10.2238 3.71862 11.0464 3.37639 11.896 3.115L12.2815 4.5555L13.25 4.2965L12.865 2.859C13.7303 2.66001 14.6127 2.54399 15.5 2.5125V4H16.5V2.5125C17.3882 2.54383 18.2714 2.65986 19.1375 2.859L18.7525 4.2965L19.7185 4.5555L20.104 3.115C20.9536 3.37639 21.7762 3.71862 22.5605 4.137L21.817 5.4245L22.683 5.9245L23.425 4.6395C24.1772 5.11196 24.883 5.65454 25.533 6.26L24.483 7.31L25.19 8.017L26.2375 6.967C26.843 7.61697 27.3856 8.32278 27.858 9.075L26.575 9.817L27.075 10.683L28.363 9.9395C28.7814 10.7238 29.1236 11.5464 29.385 12.396L27.945 12.7815L28.2035 13.7475L29.641 13.3625C29.8402 14.2286 29.9562 15.1118 29.9875 16H28.5V17H29.9875Z" fill="#243746"/>
<path d="M16 13C15.3078 13 14.6311 13.2053 14.0555 13.5899C13.4799 13.9744 13.0313 14.5211 12.7664 15.1606C12.5015 15.8001 12.4322 16.5039 12.5673 17.1828C12.7023 17.8617 13.0356 18.4854 13.5251 18.9749C14.0146 19.4644 14.6383 19.7977 15.3172 19.9327C15.9961 20.0678 16.6999 19.9985 17.3394 19.7336C17.9789 19.4687 18.5256 19.0201 18.9101 18.4445C19.2947 17.8689 19.5 17.1922 19.5 16.5C19.4989 15.5721 19.1299 14.6824 18.4737 14.0263C17.8176 13.3701 16.9279 13.0011 16 13ZM16 19C15.5055 19 15.0222 18.8534 14.6111 18.5787C14.2 18.304 13.8795 17.9135 13.6903 17.4567C13.5011 16.9999 13.4516 16.4972 13.548 16.0123C13.6445 15.5273 13.8826 15.0819 14.2322 14.7322C14.5819 14.3826 15.0273 14.1445 15.5123 14.048C15.9972 13.9516 16.4999 14.0011 16.9567 14.1903C17.4135 14.3795 17.804 14.7 18.0787 15.1111C18.3534 15.5222 18.5 16.0055 18.5 16.5C18.4992 17.1628 18.2356 17.7982 17.7669 18.2669C17.2982 18.7356 16.6628 18.9992 16 19Z" fill="#243746"/>
<path d="M16.5 8H15.5V11H16.5V8Z" fill="#243746"/>
<path d="M21.657 10.1355L19.5356 12.2568L20.2428 12.9639L22.3641 10.8426L21.657 10.1355Z" fill="#243746"/>
<path d="M24.5 16H21.5V17H24.5V16Z" fill="#243746"/>
<path d="M20.2433 20.0351L19.5361 20.7422L21.6573 22.8636L22.3645 22.1565L20.2433 20.0351Z" fill="#243746"/>
<path d="M16.5 22H15.5V25H16.5V22Z" fill="#243746"/>
<path d="M11.7576 20.0359L9.63623 22.1572L10.3433 22.8643L12.4647 20.743L11.7576 20.0359Z" fill="#243746"/>
<path d="M10.5 16H7.5V17H10.5V16Z" fill="#243746"/>
<path d="M10.3434 10.1357L9.63623 10.8428L11.7574 12.9642L12.4646 12.2571L10.3434 10.1357Z" fill="#243746"/>
<path d="M16 5.5C13.8244 5.5 11.6977 6.14514 9.88873 7.35383C8.07979 8.56253 6.66989 10.2805 5.83733 12.2905C5.00477 14.3005 4.78693 16.5122 5.21137 18.646C5.6358 20.7798 6.68345 22.7398 8.22183 24.2782C9.76021 25.8166 11.7202 26.8642 13.854 27.2886C15.9878 27.7131 18.1995 27.4952 20.2095 26.6627C22.2195 25.8301 23.9375 24.4202 25.1462 22.6113C26.3549 20.8023 27 18.6756 27 16.5C26.9967 13.5836 25.8367 10.7877 23.7745 8.72548C21.7123 6.6633 18.9164 5.50331 16 5.5ZM18.5 6.829C19.4028 7.0624 20.2683 7.42159 21.071 7.896L18.5 10.464V6.829ZM13.5 6.829V10.464L10.929 7.896C11.7318 7.42159 12.5972 7.0624 13.5 6.829ZM7.396 11.429L9.964 14H6.32901C6.56241 13.0972 6.92159 12.2318 7.396 11.429ZM6.32901 19H9.964L7.396 21.571C6.92159 20.7682 6.56241 19.9028 6.32901 19ZM13.5 26.171C12.5972 25.9376 11.7318 25.5784 10.929 25.104L13.5 22.536V26.171ZM18.5 26.171V22.536L21.071 25.104C20.2683 25.5784 19.4028 25.9376 18.5 26.171ZM21.9215 24.5395L18.3535 20.9765C18.2836 20.9066 18.1945 20.859 18.0975 20.8397C18.0005 20.8204 17.9 20.8303 17.8087 20.8682C17.7173 20.906 17.6392 20.9701 17.5843 21.0523C17.5294 21.1345 17.5 21.2311 17.5 21.33V26.375C16.5069 26.5417 15.4931 26.5417 14.5 26.375V21.33C14.5 21.2311 14.4706 21.1345 14.4157 21.0523C14.3608 20.9701 14.2827 20.906 14.1913 20.8682C14.1 20.8303 13.9995 20.8204 13.9025 20.8397C13.8055 20.859 13.7164 20.9066 13.6465 20.9765L10.0785 24.5395C9.27071 23.9432 8.55679 23.2293 7.9605 22.4215L11.524 18.8535C11.5939 18.7835 11.6416 18.6944 11.6608 18.5974C11.6801 18.5004 11.6701 18.3998 11.6322 18.3084C11.5944 18.2171 11.5302 18.139 11.4479 18.0841C11.3656 18.0292 11.2689 17.9999 11.17 18H6.12501C5.95834 17.0069 5.95834 15.9931 6.12501 15H11.17C11.2689 15.0001 11.3656 14.9708 11.4479 14.9159C11.5302 14.861 11.5944 14.7829 11.6322 14.6916C11.6701 14.6002 11.6801 14.4996 11.6608 14.4026C11.6416 14.3056 11.5939 14.2165 11.524 14.1465L7.9605 10.5785C8.55679 9.77071 9.27071 9.05679 10.0785 8.4605L13.6465 12.0235C13.7164 12.0934 13.8055 12.141 13.9025 12.1603C13.9995 12.1796 14.1 12.1697 14.1913 12.1318C14.2827 12.094 14.3608 12.0299 14.4157 11.9477C14.4706 11.8655 14.5 11.7689 14.5 11.67V6.625C15.4931 6.45833 16.5069 6.45833 17.5 6.625V11.67C17.5 11.7689 17.5294 11.8655 17.5843 11.9477C17.6392 12.0299 17.7173 12.094 17.8087 12.1318C17.9 12.1697 18.0005 12.1796 18.0975 12.1603C18.1945 12.141 18.2836 12.0934 18.3535 12.0235L21.9215 8.4605C22.7293 9.05679 23.4432 9.77071 24.0395 10.5785L20.476 14.1465C20.4061 14.2165 20.3585 14.3056 20.3392 14.4026C20.3199 14.4996 20.3299 14.6002 20.3678 14.6916C20.4057 14.7829 20.4698 14.861 20.5521 14.9159C20.6344 14.9708 20.7311 15.0001 20.83 15H25.875C26.0417 15.9931 26.0417 17.0069 25.875 18H20.83C20.7311 17.9999 20.6344 18.0292 20.5521 18.0841C20.4698 18.139 20.4057 18.2171 20.3678 18.3084C20.3299 18.3998 20.3199 18.5004 20.3392 18.5974C20.3585 18.6944 20.4061 18.7835 20.476 18.8535L24.0395 22.4215C23.4432 23.2293 22.7293 23.9432 21.9215 24.5395ZM24.604 11.429C25.0784 12.2318 25.4376 13.0972 25.671 14H22.036L24.604 11.429ZM25.671 19C25.4376 19.9028 25.0784 20.7682 24.604 21.571L22.036 19H25.671Z" fill="#243746"/>
</svg>
