<svg width="32" height="33" viewBox="0 0 32 33" fill="none" xmlns="http://www.w3.org/2000/svg">
<g clip-path="url(#clip0_5001_12728)">
<path d="M18.9868 7.96712L20.1708 6.21246C20.2513 6.09641 20.2824 5.9532 20.2574 5.81423C20.2324 5.67526 20.1533 5.55187 20.0375 5.47112L19.1575 4.86312C19.0408 4.78321 18.8971 4.75293 18.7581 4.77894C18.6191 4.80494 18.4961 4.8851 18.4162 5.00179L17.2375 6.74579L18.9868 7.96712ZM6.22951 6.74579L5.05084 5.00179C4.97091 4.8851 4.84791 4.80494 4.70889 4.77894C4.56986 4.75293 4.4262 4.78321 4.30951 4.86312L3.42951 5.47112C3.31367 5.55187 3.23459 5.67526 3.2096 5.81423C3.1846 5.9532 3.21574 6.09641 3.29617 6.21246L4.48017 7.96712L6.22951 6.74579ZM10.1335 2.63379H13.3335V5.83379H10.1335V2.63379Z" fill="#69687C"/>
<path d="M14.5064 27.3531C13.5999 27.5828 12.6683 27.6992 11.7331 27.6998C9.63228 27.6997 7.57385 27.1087 5.79294 25.9943C4.01203 24.8799 2.58044 23.2871 1.6617 21.3979C0.742949 19.5086 0.374089 17.399 0.597249 15.3101C0.820408 13.2212 1.62659 11.2371 2.92371 9.58455C4.22082 7.932 5.95658 6.67758 7.9327 5.96458C9.90883 5.25158 12.0456 5.10875 14.0991 5.5524C16.1525 5.99605 18.0398 7.00829 19.5453 8.4735C21.0508 9.93872 22.1139 11.7978 22.6131 13.8385L14.5064 27.3531Z" fill="#FE4F02"/>
<path d="M13.3333 1.0332H10.1333C9.54421 1.0332 9.06665 1.51077 9.06665 2.09987C9.06665 2.68897 9.54421 3.16654 10.1333 3.16654H13.3333C13.9224 3.16654 14.4 2.68897 14.4 2.09987C14.4 1.51077 13.9224 1.0332 13.3333 1.0332Z" fill="#FE4F02"/>
<path d="M20.4532 14.0411C19.995 12.4178 19.093 10.9546 17.8486 9.81604C16.6042 8.67748 15.0668 7.90874 13.4094 7.59631C11.7519 7.28388 10.0401 7.44014 8.4666 8.04753C6.8931 8.65492 5.5203 9.68933 4.50263 11.0344C3.48497 12.3794 2.86282 13.9818 2.70617 15.6612C2.54952 17.3405 2.8646 19.0303 3.61595 20.5404C4.3673 22.0504 5.52511 23.3209 6.95914 24.2088C8.39316 25.0967 10.0465 25.5669 11.7332 25.5664C12.3843 25.566 13.0335 25.4945 13.6692 25.3531L20.4532 14.0411Z" fill="#F2EDE1"/>
<path d="M22.4002 31.9663C27.4075 31.9663 31.4668 27.9071 31.4668 22.8997C31.4668 17.8923 27.4075 13.833 22.4002 13.833C17.3928 13.833 13.3335 17.8923 13.3335 22.8997C13.3335 27.9071 17.3928 31.9663 22.4002 31.9663Z" fill="#90ECA2"/>
<path d="M20.2666 26.6332C20.1265 26.6335 19.9877 26.606 19.8583 26.5524C19.7288 26.4987 19.6113 26.42 19.5125 26.3207L18.4458 25.254C18.2515 25.0529 18.144 24.7834 18.1464 24.5038C18.1488 24.2241 18.261 23.9565 18.4588 23.7588C18.6566 23.561 18.9241 23.4488 19.2038 23.4464C19.4834 23.444 19.7529 23.5515 19.9541 23.7458L20.2666 24.0578L24.8458 19.4791C25.047 19.2848 25.3164 19.1773 25.5961 19.1797C25.8758 19.1822 26.1433 19.2943 26.3411 19.4921C26.5388 19.6899 26.651 19.9574 26.6534 20.2371C26.6559 20.5168 26.5484 20.7862 26.3541 20.9874L21.0207 26.3207C20.9219 26.42 20.8043 26.4987 20.6749 26.5524C20.5455 26.606 20.4067 26.6335 20.2666 26.6332Z" fill="#FFFDF3"/>
<path d="M11.7332 17.5669C12.3223 17.5669 12.7998 17.0894 12.7998 16.5003C12.7998 15.9112 12.3223 15.4336 11.7332 15.4336C11.1441 15.4336 10.6665 15.9112 10.6665 16.5003C10.6665 17.0894 11.1441 17.5669 11.7332 17.5669Z" fill="#90ECA2"/>
<path d="M1.39942e-05 16.5C-0.00269938 18.2556 0.389197 19.9894 1.14673 21.5731C1.90427 23.1569 3.00807 24.5502 4.37654 25.6499C5.74501 26.7497 7.34315 27.5278 9.05283 27.9268C10.7625 28.3258 12.54 28.3354 14.2539 27.9549C15.1674 29.4476 16.4705 30.663 18.023 31.4706C19.5755 32.2783 21.3188 32.6475 23.0654 32.5387C24.812 32.4298 26.4959 31.8471 27.9362 30.853C29.3764 29.8589 30.5186 28.4911 31.2397 26.8966C31.9609 25.3021 32.2339 23.5412 32.0294 21.8032C31.8249 20.0652 31.1506 18.4158 30.0789 17.0322C29.0073 15.6487 27.5789 14.5834 25.9472 13.9508C24.3155 13.3182 22.5423 13.1423 20.8181 13.4419C20.2543 11.7693 19.24 10.2847 17.8868 9.15139C16.5336 8.01812 14.894 7.28014 13.1484 7.01866C11.4028 6.75718 9.61889 6.98234 7.99302 7.66936C6.36715 8.35639 4.96233 9.47864 3.93316 10.9126C2.904 12.3466 2.29038 14.0367 2.15985 15.7969C2.02931 17.5571 2.38692 19.3193 3.19331 20.8894C3.9997 22.4595 5.22362 23.7766 6.73037 24.696C8.23712 25.6153 9.96828 26.1011 11.7333 26.1C12.2608 26.0951 12.7869 26.046 13.3061 25.9533C13.4252 26.3033 13.5645 26.6461 13.7232 26.98C12.2644 27.2566 10.764 27.2255 9.31789 26.8889C7.87179 26.5522 6.51191 25.9174 5.32526 25.025C4.13862 24.1325 3.15135 23.0022 2.42664 21.7063C1.70194 20.4104 1.25576 18.9775 1.11666 17.4993C0.977562 16.0211 1.14861 14.5301 1.61885 13.1217C2.08909 11.7134 2.84817 10.4188 3.84751 9.32066C4.84685 8.22255 6.06444 7.34517 7.42235 6.74466C8.78026 6.14416 10.2486 5.83376 11.7333 5.83334C13.7507 5.83951 15.7253 6.4148 17.4303 7.49307C19.1353 8.57133 20.5015 10.1088 21.3717 11.9288C21.4324 12.0566 21.5414 12.1551 21.6747 12.2025C21.8079 12.25 21.9546 12.2425 22.0824 12.1819C22.2102 12.1212 22.3087 12.0122 22.3561 11.8789C22.4036 11.7457 22.3962 11.599 22.3355 11.4712C21.6887 10.1177 20.7871 8.9016 19.68 7.88934L20.6112 6.51014C20.7684 6.27755 20.8281 5.99264 20.7775 5.71654C20.7269 5.44043 20.5702 5.19515 20.3408 5.03334L19.4555 4.42C19.2215 4.26127 18.934 4.20193 18.6563 4.25503C18.3786 4.30814 18.1333 4.46934 17.9744 4.7032L17.0565 6.06107C16.051 5.54681 14.9767 5.18003 13.8667 4.972V3.60187C14.2222 3.47663 14.522 3.2296 14.7129 2.90452C14.9038 2.57944 14.9734 2.1973 14.9096 1.82577C14.8457 1.45425 14.6524 1.11732 14.3639 0.874669C14.0754 0.632013 13.7103 0.499289 13.3333 0.500003H10.1333C9.75637 0.499289 9.39131 0.632013 9.10282 0.874669C8.81432 1.11732 8.62102 1.45425 8.55714 1.82577C8.49326 2.1973 8.56293 2.57944 8.75381 2.90452C8.94468 3.2296 9.24445 3.47663 9.60001 3.60187V4.96454C8.48758 5.16979 7.41102 5.53613 6.40428 6.052L5.49335 4.70374C5.41438 4.58738 5.31319 4.48778 5.19559 4.41068C5.078 4.33357 4.94631 4.28048 4.80812 4.25446C4.66993 4.22844 4.52795 4.23 4.39036 4.25905C4.25278 4.2881 4.12229 4.34407 4.00641 4.42374L3.12641 5.03334C2.89623 5.19495 2.73871 5.44048 2.68774 5.71708C2.63677 5.99367 2.69643 6.27922 2.85388 6.51227L3.78028 7.88507C2.58835 8.98129 1.63692 10.313 0.986222 11.7959C0.335519 13.2788 -0.000300653 14.8806 1.39942e-05 16.5ZM30.9333 22.9C30.9333 24.5877 30.4329 26.2376 29.4952 27.6409C28.5576 29.0442 27.2248 30.1379 25.6656 30.7838C24.1063 31.4296 22.3905 31.5986 20.7352 31.2694C19.0799 30.9401 17.5594 30.1274 16.366 28.934C15.1726 27.7406 14.3599 26.2201 14.0306 24.5648C13.7014 22.9095 13.8704 21.1937 14.5162 19.6344C15.1621 18.0752 16.2558 16.7424 17.6591 15.8048C19.0624 14.8671 20.7123 14.3667 22.4 14.3667C24.6624 14.3694 26.8313 15.2693 28.431 16.869C30.0308 18.4687 30.9307 20.6376 30.9333 22.9ZM11.7333 25.0333C10.1676 25.0355 8.6315 24.6068 7.29314 23.7942C5.95478 22.9816 4.86579 21.8165 4.14538 20.4263C3.42496 19.0362 3.10091 17.4746 3.20869 15.9126C3.31647 14.3506 3.85193 12.8483 4.75645 11.5703C5.66096 10.2923 6.89967 9.28777 8.33695 8.66671C9.77423 8.04564 11.3547 7.83199 12.9053 8.04914C14.4559 8.26629 15.9168 8.90587 17.1282 9.89786C18.3396 10.8899 19.2547 12.196 19.7733 13.6733C17.4267 14.3353 15.4211 15.8678 14.1658 17.9581C12.9106 20.0483 12.5003 22.5389 13.0187 24.9213C12.5938 24.9918 12.164 25.0293 11.7333 25.0333ZM18.8544 5.3L19.7285 5.91227L18.8608 7.1976C18.5793 6.98025 18.2881 6.7756 17.9883 6.58427L18.8544 5.3ZM10.1333 1.56667H13.3333C13.4748 1.56667 13.6105 1.62286 13.7105 1.72288C13.8105 1.8229 13.8667 1.95855 13.8667 2.1C13.8667 2.24145 13.8105 2.37711 13.7105 2.47713C13.6105 2.57715 13.4748 2.63334 13.3333 2.63334H10.1333C9.9919 2.63334 9.85624 2.57715 9.75622 2.47713C9.6562 2.37711 9.60001 2.24145 9.60001 2.1C9.60001 1.95855 9.6562 1.8229 9.75622 1.72288C9.85624 1.62286 9.9919 1.56667 10.1333 1.56667ZM10.6667 3.7H12.8V4.82C12.4469 4.78694 12.0917 4.76667 11.7333 4.76667C11.3749 4.76667 11.0181 4.78534 10.6667 4.82V3.7ZM3.73335 5.9096L4.60908 5.3L5.47575 6.58C5.17424 6.77022 4.8825 6.97378 4.60055 7.19067L3.73335 5.9096Z" fill="#243746"/>
<path d="M13.333 16.5005C13.3316 16.1707 13.2284 15.8495 13.0375 15.5806C12.8465 15.3118 12.5772 15.1085 12.2663 14.9986V11.1671C12.2663 11.0257 12.2101 10.89 12.1101 10.79C12.0101 10.69 11.8744 10.6338 11.733 10.6338C11.5915 10.6338 11.4559 10.69 11.3558 10.79C11.2558 10.89 11.1996 11.0257 11.1996 11.1671V14.9986C10.8887 15.1085 10.6194 15.3118 10.4285 15.5806C10.2375 15.8495 10.1343 16.1707 10.133 16.5005C10.1339 16.738 10.1886 16.9723 10.293 17.1858L8.6887 18.7901C8.63776 18.8393 8.59713 18.8981 8.56918 18.9632C8.54123 19.0282 8.52651 19.0982 8.5259 19.169C8.52528 19.2399 8.53878 19.3101 8.56559 19.3756C8.59241 19.4412 8.63201 19.5007 8.68209 19.5508C8.73217 19.6009 8.79171 19.6405 8.85726 19.6673C8.9228 19.6941 8.99303 19.7076 9.06385 19.707C9.13466 19.7064 9.20465 19.6917 9.26972 19.6637C9.33478 19.6358 9.39363 19.5951 9.44283 19.5442L11.0476 17.9405C11.2611 18.0448 11.4954 18.0995 11.733 18.1005C12.1573 18.1005 12.5643 17.9319 12.8643 17.6318C13.1644 17.3318 13.333 16.9248 13.333 16.5005ZM11.733 17.0338C11.5934 17.0343 11.4592 16.9796 11.3596 16.8818V16.8738L11.3532 16.8695C11.268 16.7806 11.2162 16.665 11.2066 16.5422C11.1969 16.4195 11.2301 16.2972 11.3003 16.1961C11.3706 16.095 11.4737 16.0213 11.5921 15.9876C11.7106 15.9538 11.837 15.9621 11.95 16.011C12.063 16.0599 12.1556 16.1464 12.2121 16.2558C12.2686 16.3652 12.2855 16.4907 12.26 16.6112C12.2344 16.7316 12.168 16.8395 12.0719 16.9166C11.9758 16.9936 11.8561 17.035 11.733 17.0338ZM19.1234 26.6983C19.4234 26.9983 19.8303 27.1668 20.2546 27.1668C20.6788 27.1668 21.0857 26.9983 21.3858 26.6983L26.7191 21.365C27.0086 21.0594 27.1699 20.6545 27.1699 20.2335C27.1699 19.8126 27.0086 19.4077 26.7191 19.1021C26.4191 18.8021 26.0122 18.6336 25.5879 18.6336C25.1636 18.6336 24.7567 18.8021 24.4567 19.1021L20.253 23.3058C19.9421 23.0293 19.5357 22.8849 19.1201 22.903C18.7045 22.9211 18.3122 23.1004 18.0266 23.4028C17.7409 23.7053 17.5843 24.1071 17.5899 24.5231C17.5955 24.9391 17.763 25.3365 18.0567 25.6311L19.1234 26.6983ZM18.8114 24.1229C18.9132 24.0267 19.048 23.9731 19.1882 23.9731C19.3283 23.9731 19.4631 24.0267 19.565 24.1229L19.8775 24.4354C19.9775 24.5354 20.1131 24.5915 20.2546 24.5915C20.396 24.5915 20.5316 24.5354 20.6316 24.4354L25.2108 19.8567C25.3108 19.7567 25.4465 19.7006 25.5879 19.7006C25.7293 19.7006 25.865 19.7567 25.965 19.8567C26.0622 19.9582 26.1164 20.0933 26.1164 20.2338C26.1164 20.3743 26.0622 20.5094 25.965 20.6109L20.6316 25.9442C20.53 26.041 20.395 26.095 20.2546 26.095C20.1142 26.095 19.9792 26.041 19.8775 25.9442L18.8108 24.8775C18.7119 24.7768 18.6565 24.6412 18.6566 24.5001C18.6567 24.3589 18.7123 24.2234 18.8114 24.1229Z" fill="#243746"/>
</g>
<defs>
<clipPath id="clip0_5001_12728">
<rect width="32" height="32" fill="white" transform="translate(0 0.5)"/>
</clipPath>
</defs>
</svg>
