<svg width="65" height="64" viewBox="0 0 65 64" fill="none" xmlns="http://www.w3.org/2000/svg">
<path d="M43.6089 50.9L32.4997 57.7763L21.3924 50.9C17.2165 48.3169 12.6903 44.5179 12.6903 37.3358L12.0557 15.1104L32.4997 6.22168L52.9438 15.1104L52.3092 37.3358C52.3092 44.5908 47.783 48.3169 43.6089 50.9Z" fill="#FFFDF3"/>
<path d="M14.7159 18.3412L14.4688 37.3115C14.4688 44.634 19.3078 48.0153 22.7477 50.145L32.5004 56.7316L43.142 50.145C46.5819 48.0153 51.4192 44.634 51.4192 37.3364L52.0378 15.6745L32.5004 7.19824L16.2963 15.7012C15.4358 16.1794 14.7301 17.3616 14.7159 18.3412Z" fill="#90ECA2"/>
<path d="M32.5 7.19824V56.7316L43.1416 50.145C46.5815 48.0153 51.4188 44.634 51.4188 37.3364L52.0374 15.6745L32.5 7.19824Z" fill="#FE4F02"/>
<path d="M32.4997 41.7767C38.8815 41.7767 44.055 36.6032 44.055 30.2214C44.055 23.8395 38.8815 18.666 32.4997 18.666C26.1178 18.666 20.9443 23.8395 20.9443 30.2214C20.9443 36.6032 26.1178 41.7767 32.4997 41.7767Z" fill="#F2EDE1"/>
<path d="M32.4999 42.6658C25.6396 42.6658 20.0557 37.0819 20.0557 30.2216C20.0557 23.3595 25.6396 17.7773 32.4999 17.7773C35.3763 17.7773 38.1816 18.7818 40.4002 20.6075C40.7806 20.9204 40.834 21.4804 40.5211 21.859C40.21 22.2395 39.6482 22.291 39.2713 21.9799C37.3709 20.4155 34.9656 19.5551 32.4999 19.5551C26.6173 19.5551 21.8334 24.339 21.8334 30.2216C21.8334 36.1041 26.6173 40.888 32.4999 40.888C38.3824 40.888 43.1664 36.1041 43.1664 30.2216C43.1664 29.4127 43.0757 28.6056 42.8979 27.8234C42.7877 27.3434 43.0864 26.8687 43.5664 26.7585C44.0481 26.6412 44.5228 26.947 44.6312 27.4269C44.8374 28.3372 44.9441 29.2794 44.9441 30.2216C44.9441 37.0819 39.3602 42.6658 32.4999 42.6658Z" fill="#243746"/>
<path d="M32.5006 35.5543C32.4935 35.5543 32.4864 35.5543 32.4793 35.5543C32.2215 35.5471 31.9815 35.4316 31.8162 35.2343L27.3718 29.901C27.0589 29.5224 27.1105 28.9624 27.4856 28.6477C27.8643 28.3348 28.4225 28.3864 28.7389 28.7615L32.5308 33.3143L41.6222 23.398C41.9564 23.0354 42.5182 23.014 42.8773 23.3429C43.2382 23.6754 43.2631 24.2371 42.9306 24.5998L33.1548 35.2663C32.9859 35.4494 32.7513 35.5543 32.5006 35.5543Z" fill="#243746"/>
<path d="M32.5013 58.6648C32.3395 58.6648 32.176 58.6204 32.032 58.5315L20.9246 51.6552C16.6776 49.0277 11.803 45.026 11.803 37.3355L11.3461 21.3589C11.3319 20.8664 11.7195 20.4575 12.2083 20.4433C12.699 20.3989 13.1097 20.8166 13.1239 21.3055L13.5825 37.3088C13.5825 44.1069 17.7673 47.609 21.8615 50.1441L32.5013 56.7307L43.1429 50.1441C47.237 47.609 51.4201 44.1069 51.4201 37.3355L52.0387 15.6843L32.5013 7.19022L12.9621 15.6861L13.0225 17.75C13.0368 18.2425 12.651 18.6513 12.1603 18.6656C11.675 18.6425 11.259 18.294 11.2448 17.8034L11.1684 15.135C11.1577 14.7723 11.3692 14.4399 11.7035 14.2941L32.1475 5.40536C32.3733 5.30759 32.6293 5.30759 32.8551 5.40536L53.2991 14.2941C53.6334 14.4399 53.8449 14.7741 53.8342 15.1367L53.1996 37.3621C53.1996 45.026 48.325 49.0277 44.078 51.6552L32.9688 58.5315C32.8266 58.6204 32.6631 58.6648 32.5013 58.6648Z" fill="#243746"/>
</svg>
