<svg width="44" height="58" viewBox="0 0 44 58" fill="none" xmlns="http://www.w3.org/2000/svg">
<path d="M22.4531 57.0547H23.1475L23.384 56.9483C24.2313 56.5736 24.9413 55.9369 25.4133 55.1283C30.088 48.4084 34.7645 41.6886 39.4428 34.9687C42.5722 30.6406 43.9502 25.2544 43.2925 19.9217C43.0271 17.262 42.2475 14.682 40.9988 12.3302C39.7501 9.97848 38.0568 7.90148 36.0166 6.21879C29.3675 0.663685 21.6846 -0.433896 13.8036 3.04364C9.78344 4.84478 6.43089 7.90254 4.23179 11.7738C2.03269 15.6451 1.10127 20.1288 1.57251 24.5753C1.87472 28.1028 3.08081 31.4877 5.07026 34.3919C8.17937 38.8718 11.2958 43.3517 14.4196 47.8317L19.5892 55.2627C20.0499 56.0032 20.7159 56.5879 21.5031 56.9427L22.4531 57.0547Z" fill="#FE4F02" stroke="#FE4F02"/>
<path d="M31.4426 22.638C31.4426 16.1427 29.3609 11.0111 26.6566 10.7003C26.6323 10.6928 26.6072 10.6878 26.5819 10.6854H21.3641C20.5337 10.6465 19.7062 10.8077 18.9511 11.1555C16.6602 12.2387 14.2109 15.815 14.2109 22.5966C14.2109 28.3653 15.9849 32.7479 18.8391 34.0428C19.7558 34.41 20.7351 34.5961 21.7227 34.5906H26.5814C26.6067 34.5882 26.6318 34.5832 26.6561 34.5757C29.3604 34.2649 31.4426 29.1332 31.4426 22.638ZM21.3541 33.3595C20.4448 32.9024 19.6883 32.1902 19.1773 31.3101L20.755 31.7872C21.2186 32.5477 21.8334 33.2049 22.5613 33.7181C22.146 33.6476 21.7406 33.5272 21.3541 33.3595ZM18.6588 30.3713C18.3933 29.8127 18.1697 29.235 17.99 28.6432L19.5438 29.1357C19.7295 29.7211 19.9572 30.2923 20.2251 30.8449L18.6588 30.3713ZM18.2698 15.8096L19.4651 16.4411C19.2752 17.0545 19.1209 17.6784 19.0029 18.3096L17.7155 17.5775C17.8607 16.9765 18.0459 16.3859 18.2698 15.8096ZM17.1832 23.5085L18.6772 24.153C18.7096 24.7083 18.7549 25.2486 18.8202 25.7731L17.3097 25.2252C17.2489 24.6704 17.2041 24.0987 17.1832 23.5085ZM17.1677 22.6878C17.1677 22.6574 17.1677 22.6275 17.1677 22.5966C17.1677 22.0294 17.1911 21.495 17.224 20.9751L18.6508 21.6041C18.6389 21.9288 18.6284 22.2555 18.6284 22.5966C18.6284 22.8432 18.6359 23.0832 18.6424 23.3243L17.1677 22.6878ZM17.2823 20.1857C17.3465 19.5318 17.4317 18.9142 17.5462 18.34L18.8685 19.092C18.7893 19.6319 18.734 20.2096 18.6927 20.8072L17.2823 20.1857ZM17.7529 27.7861C17.6181 27.2382 17.5055 26.6627 17.4152 26.0594L18.9422 26.6117C19.0383 27.1924 19.1578 27.7457 19.2958 28.2746L17.7529 27.7861ZM19.7121 15.7259L18.5667 15.1208C18.8864 14.4249 19.2974 13.7748 19.7888 13.1874L20.6006 13.8448C20.2486 14.4439 19.9513 15.0735 19.7121 15.7259ZM21.0095 13.2153L20.3023 12.6426C20.6508 12.314 21.0473 12.0403 21.4781 11.8308C21.8782 11.64 22.3075 11.5178 22.7481 11.4693C22.0675 11.9411 21.4784 12.5327 21.0095 13.2153ZM14.958 22.5966C14.958 16.1637 17.1861 12.8164 19.2704 11.8308C19.6955 11.6282 20.1531 11.5026 20.622 11.4598C20.2403 11.7089 19.8879 12.0005 19.5717 12.3289L18.6981 12.5415C18.6025 12.5649 18.52 12.6251 18.4686 12.7091C18.4172 12.7931 18.4011 12.8939 18.4237 12.9897C18.4441 13.0714 18.492 13.1436 18.5592 13.1942C18.6265 13.2448 18.7091 13.2707 18.7933 13.2676C18.4179 13.8024 18.0947 14.3719 17.8281 14.9684L16.9381 15.1935C16.8905 15.2055 16.8458 15.2268 16.8064 15.256C16.7671 15.2853 16.7339 15.3221 16.7087 15.3642C16.6835 15.4064 16.6669 15.453 16.6598 15.5016C16.6527 15.5501 16.6552 15.5996 16.6672 15.6472C16.6792 15.6948 16.7005 15.7395 16.7298 15.7789C16.759 15.8183 16.7958 15.8515 16.8379 15.8766C16.8801 15.9018 16.9267 15.9184 16.9753 15.9255C17.0238 15.9326 17.0733 15.9301 17.1209 15.9181L17.4785 15.8275C17.2815 16.3654 17.1152 16.9142 16.9805 17.471L16.1692 17.7329C16.0749 17.7634 15.9965 17.83 15.9514 17.9183C15.9062 18.0065 15.8979 18.109 15.9284 18.2033C15.9588 18.2976 16.0255 18.376 16.1137 18.4211C16.2019 18.4663 16.3045 18.4746 16.3988 18.4441L16.7972 18.3156C16.6886 18.8824 16.598 19.4805 16.5362 20.118L15.8061 20.3022C15.7585 20.3142 15.7138 20.3355 15.6744 20.3648C15.6351 20.3941 15.6018 20.4309 15.5767 20.473C15.5515 20.5151 15.5349 20.5618 15.5278 20.6103C15.5207 20.6589 15.5232 20.7084 15.5352 20.7559C15.5472 20.8035 15.5684 20.8483 15.5977 20.8876C15.627 20.927 15.6638 20.9602 15.7059 20.9854C15.7481 21.0105 15.7947 21.0271 15.8433 21.0343C15.8918 21.0414 15.9413 21.0389 15.9889 21.0269L16.477 20.9034C16.4416 21.4457 16.4167 22.003 16.4167 22.5937C16.4167 22.6121 16.4167 22.63 16.4167 22.6484L15.7488 22.8173C15.6527 22.8416 15.5702 22.9031 15.5195 22.9882C15.4687 23.0733 15.4539 23.1751 15.4782 23.2712C15.5025 23.3673 15.5639 23.4498 15.6491 23.5006C15.7342 23.5513 15.836 23.5662 15.9321 23.5419L16.4301 23.4159C16.4491 24.0354 16.4889 24.6361 16.5497 25.2178L15.9087 25.402C15.8613 25.4159 15.8171 25.4389 15.7786 25.4698C15.74 25.5007 15.708 25.539 15.6842 25.5823C15.6605 25.6256 15.6455 25.6731 15.6401 25.7222C15.6348 25.7713 15.6391 25.821 15.653 25.8684C15.6668 25.9158 15.6898 25.9601 15.7208 25.9986C15.7517 26.0371 15.7899 26.0691 15.8332 26.0929C15.8765 26.1166 15.9241 26.1316 15.9732 26.137C16.0223 26.1424 16.072 26.138 16.1194 26.1242L16.6433 25.9748C16.7275 26.5863 16.8335 27.174 16.9625 27.7328L16.4466 27.8633C16.399 27.8753 16.3543 27.8966 16.3149 27.9259C16.2755 27.9552 16.2424 27.992 16.2172 28.0342C16.1921 28.0763 16.1755 28.123 16.1684 28.1716C16.1613 28.2202 16.1639 28.2696 16.1759 28.3172C16.1879 28.3648 16.2092 28.4095 16.2385 28.4489C16.2679 28.4882 16.3047 28.5214 16.3468 28.5466C16.4319 28.5973 16.5338 28.6122 16.6298 28.5879L17.1438 28.4579C17.3298 29.1332 17.567 29.7934 17.8535 30.4326L17.6687 30.4794C17.6212 30.4914 17.5764 30.5127 17.537 30.542C17.4977 30.5712 17.4645 30.608 17.4393 30.6501C17.4141 30.6923 17.3975 30.7389 17.3904 30.7875C17.3833 30.836 17.3858 30.8855 17.3978 30.9331C17.4098 30.9807 17.4311 31.0254 17.4604 31.0648C17.4897 31.1042 17.5264 31.1374 17.5685 31.1625C17.6107 31.1877 17.6573 31.2043 17.7059 31.2114C17.7544 31.2185 17.8039 31.216 17.8515 31.204L18.1917 31.1179C18.719 32.1768 19.5115 33.0812 20.492 33.743C20.0291 33.6752 19.577 33.5471 19.1474 33.362C16.6015 32.2095 14.958 27.9843 14.958 22.5966ZM26.3956 33.8436H24.8956C24.4355 33.7644 23.9874 33.6272 23.5619 33.4352C22.7746 33.0353 22.1051 32.4371 21.6196 31.6996L21.9682 31.6074C22.064 31.5822 22.1459 31.5199 22.1958 31.4343C22.2457 31.3487 22.2596 31.2468 22.2344 31.151C22.2092 31.0552 22.1469 30.9733 22.0613 30.9234C21.9757 30.8734 21.8738 30.8596 21.7779 30.8848L21.1953 31.0382C20.8441 30.4219 20.5529 29.7733 20.3257 29.1014L21.0872 28.9022C21.1346 28.8896 21.1791 28.8679 21.2182 28.8382C21.2572 28.8084 21.29 28.7713 21.3147 28.7289C21.3394 28.6865 21.3555 28.6396 21.3621 28.591C21.3687 28.5424 21.3656 28.4929 21.3531 28.4455C21.3406 28.398 21.3189 28.3535 21.2891 28.3145C21.2594 28.2754 21.2223 28.2426 21.1799 28.2179C21.1375 28.1932 21.0906 28.1771 21.042 28.1705C20.9933 28.1639 20.9439 28.167 20.8964 28.1795L20.0996 28.3897C19.9359 27.8162 19.8029 27.2343 19.7012 26.6466L20.7809 26.3617C20.8283 26.3492 20.8729 26.3275 20.9119 26.2977C20.9509 26.268 20.9838 26.2309 21.0084 26.1885C21.0331 26.1461 21.0492 26.0992 21.0558 26.0506C21.0624 26.0019 21.0594 25.9525 21.0468 25.905C21.0343 25.8576 21.0126 25.8131 20.9828 25.774C20.9531 25.735 20.916 25.7022 20.8736 25.6775C20.8312 25.6528 20.7843 25.6367 20.7357 25.6301C20.687 25.6235 20.6376 25.6266 20.5901 25.6391L19.5821 25.905C19.5084 25.3622 19.4561 24.7825 19.4203 24.1769L20.5712 23.8437C20.6183 23.8301 20.6623 23.8073 20.7006 23.7767C20.739 23.746 20.7709 23.7081 20.7945 23.6652C20.8182 23.6222 20.8332 23.575 20.8386 23.5263C20.8441 23.4775 20.8398 23.4282 20.8262 23.381C20.8126 23.3339 20.7898 23.2899 20.7592 23.2516C20.7285 23.2133 20.6907 23.1814 20.6477 23.1577C20.6047 23.134 20.5575 23.1191 20.5088 23.1136C20.46 23.1082 20.4107 23.1124 20.3635 23.126L19.3869 23.4089C19.379 23.142 19.3695 22.8775 19.3695 22.5991C19.3695 22.2849 19.379 21.9617 19.3929 21.635L20.6036 21.3152C20.6994 21.29 20.7813 21.2277 20.8312 21.1421C20.8811 21.0565 20.895 20.9546 20.8698 20.8588C20.8446 20.763 20.7823 20.6811 20.6967 20.6312C20.6111 20.5812 20.5092 20.5674 20.4133 20.5926L19.4402 20.8496C19.483 20.3017 19.5468 19.7435 19.6324 19.1872L20.9084 18.8311C20.9997 18.8011 21.076 18.7371 21.1214 18.6523C21.1667 18.5676 21.1778 18.4687 21.1521 18.376C21.1265 18.2834 21.0662 18.2042 20.9837 18.1548C20.9012 18.1054 20.8029 18.0897 20.7092 18.1109L19.7779 18.3714C19.898 17.7604 20.0513 17.1564 20.237 16.5621L21.4273 16.2722C21.4759 16.2615 21.5219 16.2412 21.5625 16.2125C21.6032 16.1838 21.6377 16.1473 21.664 16.1051C21.6903 16.0629 21.7079 16.0158 21.7158 15.9667C21.7237 15.9176 21.7217 15.8673 21.71 15.819C21.6982 15.7707 21.6769 15.7252 21.6473 15.6852C21.6176 15.6452 21.5804 15.6115 21.5376 15.5861C21.4948 15.5608 21.4473 15.5442 21.398 15.5374C21.3487 15.5306 21.2986 15.5337 21.2505 15.5466L20.5284 15.7224C20.7487 15.1394 21.0208 14.5774 21.3417 14.0431L22.3417 13.809C22.3895 13.7978 22.4346 13.7773 22.4744 13.7487C22.5143 13.7201 22.5481 13.6839 22.574 13.6422C22.5999 13.6005 22.6173 13.5541 22.6252 13.5057C22.6332 13.4573 22.6315 13.4078 22.6204 13.36C22.6092 13.3122 22.5887 13.2671 22.5601 13.2273C22.5315 13.1874 22.4953 13.1536 22.4536 13.1277C22.4119 13.1018 22.3655 13.0844 22.3171 13.0765C22.2687 13.0685 22.2192 13.0702 22.1714 13.0814L22.005 13.1207C22.4635 12.5593 23.0372 12.1029 23.6874 11.7825C24.0384 11.6133 24.4119 11.4954 24.7965 11.4324H26.3956C28.7264 11.4324 30.6956 16.5621 30.6956 22.638C30.6956 28.7139 28.7264 33.8436 26.3956 33.8436Z" fill="white"/>
<path d="M22.0968 22.6375C22.0684 18.4994 22.9688 14.691 24.446 12.6999C24.4994 12.6203 24.5203 12.5233 24.5043 12.4288C24.4883 12.3343 24.4367 12.2495 24.36 12.192C24.2833 12.1345 24.1875 12.1086 24.0922 12.1197C23.997 12.1308 23.9097 12.178 23.8483 12.2517C22.2795 14.3673 21.3228 18.348 21.3522 22.64C21.3826 27.1167 22.4055 31.1771 24.0216 33.237C24.0565 33.2816 24.1011 33.3177 24.152 33.3424C24.2029 33.3672 24.2588 33.38 24.3155 33.3799C24.3992 33.3804 24.4805 33.3523 24.5461 33.3002C24.5847 33.27 24.617 33.2324 24.6411 33.1897C24.6652 33.1469 24.6806 33.0998 24.6865 33.0511C24.6924 33.0024 24.6886 32.953 24.6753 32.9058C24.6621 32.8585 24.6397 32.8144 24.6093 32.7758C23.1107 30.8694 22.1257 26.8891 22.0968 22.6375Z" fill="white"/>
<path d="M26.9326 14.5742C26.3847 14.5742 25.5934 14.9228 24.9111 16.5758C24.2239 18.5074 23.8954 20.5483 23.9419 22.5979C23.8949 24.6491 24.2242 26.6916 24.9136 28.624C25.5934 30.275 26.3867 30.6211 26.9326 30.6211C28.8749 30.6211 29.9232 26.4875 29.9232 22.5974C29.9232 18.7073 28.8749 14.5742 26.9326 14.5742ZM26.9326 29.8746C26.4903 29.8746 26.0062 29.3153 25.6048 28.3401C24.9519 26.4979 24.6415 24.5518 24.6889 22.5979C24.6425 20.6464 24.952 18.7027 25.6023 16.8621C26.0052 15.884 26.4903 15.3232 26.9326 15.3232C27.9938 15.3232 29.1762 18.3114 29.1762 22.5999C29.1762 26.8884 27.9938 29.8746 26.9326 29.8746Z" fill="white"/>
<path d="M25.7518 19.1474C25.7046 19.1608 25.6606 19.1834 25.6221 19.2139C25.5837 19.2444 25.5516 19.2822 25.5278 19.325C25.504 19.3679 25.4889 19.4151 25.4833 19.4638C25.4777 19.5126 25.4818 19.5619 25.4953 19.6091C25.7552 20.582 25.8812 21.5858 25.8698 22.5928C25.8847 23.6813 25.7346 24.7659 25.4246 25.8095C25.4094 25.8561 25.4036 25.9053 25.4074 25.9542C25.4112 26.0031 25.4247 26.0507 25.447 26.0944C25.4693 26.1381 25.5 26.1769 25.5374 26.2087C25.5747 26.2405 25.618 26.2646 25.6647 26.2796C25.7019 26.2922 25.7409 26.2986 25.7802 26.2986C25.8591 26.2984 25.9359 26.2734 25.9997 26.2269C26.0635 26.1805 26.1109 26.1151 26.1353 26.0401C26.4691 24.9219 26.6315 23.7596 26.6169 22.5928C26.6281 21.5169 26.4924 20.4445 26.2135 19.4054C26.2003 19.358 26.1779 19.3137 26.1475 19.275C26.1172 19.2363 26.0794 19.2041 26.0365 19.1801C25.9935 19.1561 25.9463 19.1408 25.8974 19.1352C25.8486 19.1296 25.7991 19.1338 25.7518 19.1474Z" fill="white"/>
<path d="M23.4531 18.0547C23.4531 18.3826 23.4531 18.7235 23.4531 19.0547" stroke="white" stroke-width="2" stroke-linecap="round"/>
<path d="M24.4531 16.0547C23.9705 17.0372 23.6476 17.9609 23.4531 19.0547" stroke="white" stroke-width="2" stroke-linecap="round"/>
<path d="M23.4531 18.0547C23.4531 18.29 23.4531 18.5001 23.4531 18.7214C23.4531 18.8435 23.4531 18.9786 23.4531 19.0547" stroke="white" stroke-width="2" stroke-linecap="round"/>
<path d="M23.4531 17.0547C23.4446 17.4038 23.3215 17.7521 23.126 18.0819C22.873 18.5085 22.4909 18.9112 22.4716 19.3744C22.4661 19.5069 22.359 20.0547 22.7299 20.0547" stroke="white" stroke-width="2" stroke-linecap="round"/>
<path d="M23.3725 19.0547C23.4039 19.2782 23.5049 19.5295 23.4198 19.7543C23.3458 19.9496 23.0025 20.1031 22.9334 20.2947C22.8241 20.5983 22.8498 20.8964 22.822 21.2015C22.809 21.3436 22.7224 21.4866 22.5788 21.613C22.4397 21.7354 22.4606 21.8375 22.4606 21.971C22.4606 22.0125 22.4417 22.0632 22.464 22.1041C22.483 22.1387 22.577 22.1526 22.5822 22.1905C22.5934 22.2722 22.5822 22.3556 22.5822 22.4374C22.5822 22.556 22.4558 22.8162 22.643 22.9065C22.7853 22.9752 22.7038 23.1287 22.7038 23.2138C22.7038 23.341 22.504 23.5277 22.643 23.6349C22.7488 23.7165 22.7646 23.8156 22.7646 23.9065C22.7646 24.0226 22.8637 24.1082 22.9334 24.2152C23.0248 24.3553 22.8287 24.5378 22.9774 24.6706C23.0798 24.7621 23.2869 24.998 23.0077 25.0547" stroke="white" stroke-width="2" stroke-linecap="round"/>
<path d="M22.4531 25.0547C22.7196 25.4247 23.0633 25.7714 23.2576 26.1674C23.4307 26.5205 23.4964 27.0019 23.8576 27.2916C23.9583 27.3724 24.1081 27.4562 24.1642 27.5612C24.1957 27.6201 24.1903 27.7018 24.2309 27.754C24.3065 27.8513 24.4056 27.9498 24.4531 28.0547" stroke="white" stroke-width="2" stroke-linecap="round"/>
<path d="M23.4531 27.0547C23.5032 27.2507 23.5318 27.4785 23.6253 27.6616C23.6811 27.7709 23.7594 27.8584 23.7912 27.9788C23.8501 28.2025 24.0124 28.414 24.101 28.6332C24.2336 28.9614 24.3592 29.2841 24.4672 29.6202C24.5329 29.8244 24.6289 30.1106 24.7645 30.2715C24.8423 30.3639 24.9632 30.4084 25.0525 30.4876C25.1448 30.5695 25.1764 30.6892 25.2559 30.7788C25.3364 30.8695 25.3987 30.9481 25.4531 31.0547" stroke="white" stroke-width="2" stroke-linecap="round"/>
<path d="M25.4531 30.0547C25.5378 30.2268 25.6692 30.4656 25.842 30.5817C26.0227 30.7032 26.1871 30.8286 26.3482 30.969C26.4883 31.091 26.7749 31.0469 26.9531 31.0469C27.1615 31.0469 27.2753 31.0018 27.4531 30.9501" stroke="white" stroke-width="2" stroke-linecap="round"/>
<path d="M26.4531 32.0547C26.9074 32.0547 27.4177 31.8761 27.7925 31.674C28.0889 31.5142 28.2452 31.2789 28.4531 31.0547" stroke="white" stroke-width="2" stroke-linecap="round"/>
<path d="M28.4531 30.0547C28.5927 29.9918 28.6936 29.9624 28.7997 29.8514C28.9131 29.7329 29.0176 29.5949 29.1005 29.4512C29.1844 29.3055 29.1671 29.1036 29.2599 28.965C29.2989 28.9068 29.3838 28.8235 29.3879 28.7491C29.3952 28.6157 29.4096 28.4865 29.4096 28.3501C29.4096 28.3029 29.4165 28.0738 29.4531 28.0547" stroke="white" stroke-width="2" stroke-linecap="round"/>
<path d="M28.4531 30.0547C28.45 30.3292 28.3864 30.5644 28.3637 30.8301C28.3537 30.9466 28.3302 31.1623 28.2767 31.2474C28.2364 31.3114 28.1793 31.3669 28.1541 31.4479C28.1269 31.5353 28.1105 31.6182 28.0561 31.6807C27.9952 31.7507 27.9712 31.8721 27.9127 31.9386C27.8185 32.0457 27.7229 32.1372 27.6468 32.2789C27.5661 32.4288 27.4227 32.4806 27.3673 32.6334C27.3469 32.6897 27.2392 32.7453 27.1982 32.7624C27.1463 32.784 27.0916 32.8823 27.0414 32.9235C26.8639 33.0694 26.6515 33.0525 26.4494 33.0525C26.3234 33.0525 26.1968 33.0575 26.0708 33.0525C25.9532 33.0478 25.8674 32.9245 25.7816 32.8268C25.7218 32.759 25.6369 32.7402 25.5806 32.6728C25.5309 32.6134 25.5004 32.5183 25.4531 32.4723" stroke="white" stroke-width="2" stroke-linecap="round"/>
<path d="M26.4531 32.0493C26.021 32.0493 25.5856 32.0893 25.1698 31.9518C24.8009 31.8297 24.5486 31.412 24.2132 31.2263C24.1112 31.1698 23.988 31.1227 23.8983 31.049C23.8382 30.9996 23.8611 30.8974 23.7835 30.8584C23.7172 30.8251 23.6452 30.6613 23.6452 30.5865C23.6452 30.5037 23.6351 30.4175 23.6172 30.3368C23.6094 30.3014 23.524 30.2616 23.5142 30.1979C23.4913 30.0483 23.4902 29.8874 23.4862 29.7355C23.4819 29.5683 23.431 29.3176 23.2493 29.2568C23.0787 29.1997 23.1472 29.0221 23.0624 28.9051C22.8584 28.6235 22.9035 28.2679 22.9035 27.9388C22.9035 27.729 22.9035 27.5192 22.9035 27.3094C22.9035 27.2277 22.897 27.1334 22.8711 27.0553C22.852 26.9977 22.7975 26.9357 22.7975 26.875C22.7975 26.7402 22.771 26.6025 22.771 26.4642C22.771 26.3928 22.771 26.3214 22.771 26.25C22.771 26.0784 22.6368 26.0905 22.5591 25.9648C22.5049 25.8773 22.5443 25.7549 22.5267 25.6575C22.5107 25.5692 22.5061 25.4904 22.5061 25.4004C22.5061 25.3256 22.4531 25.3171 22.4531 25.2409C22.4531 25.1788 22.4531 25.1167 22.4531 25.0547" stroke="white" stroke-width="2" stroke-linecap="round"/>
<path d="M23.4531 29.0547C23.5214 29.2364 23.5704 29.4496 23.6845 29.6153C23.7558 29.7187 23.7355 29.8021 23.769 29.9167C23.7938 30.0016 23.8378 30.0833 23.8663 30.1677C23.9016 30.2721 24.0055 30.334 24.0408 30.4333C24.1705 30.7977 24.2232 31.1889 24.4302 31.53C24.5291 31.693 24.6034 31.8428 24.6689 32.0237C24.6959 32.0981 24.645 32.1967 24.6799 32.2665C24.7367 32.3798 24.8347 32.5172 24.9573 32.5876C25.0622 32.6478 25.1645 32.6971 25.2529 32.7668C25.3046 32.8075 25.4158 32.812 25.4715 32.8532C25.6381 32.9764 25.8999 32.9508 26.0978 33.021C26.3187 33.0994 26.5629 33.0208 26.7736 32.9868C26.9971 32.9507 27.2889 32.8669 27.4531 32.7212" stroke="white" stroke-width="2" stroke-linecap="round"/>
<path d="M27.4531 32.0547C27.1645 32.3416 26.7743 32.5686 26.3675 32.7411C26.1748 32.8228 25.9338 33.0391 25.71 33.0511C25.5606 33.0591 25.407 33.0511 25.2574 33.0511C25.1344 33.0511 25.0103 33.0549 24.8874 33.0511C24.8326 33.0494 24.7676 32.972 24.7284 32.9404C24.6774 32.8994 24.653 32.8332 24.603 32.7854C24.5532 32.7379 24.4896 32.667 24.4531 32.6083" stroke="white" stroke-width="2" stroke-linecap="round"/>
<path d="M23.294 27.0547C23.0912 26.8219 22.9394 26.4508 22.8009 26.1672C22.7097 25.9806 22.7424 25.849 22.614 25.6943C22.5908 25.6664 22.55 25.4632 22.5466 25.418C22.5355 25.2711 22.4531 25.1591 22.4531 25.0088C22.4531 24.7646 22.5466 24.5483 22.5466 24.2914C22.5466 24.2435 22.7117 24.5268 22.7438 24.5996C22.8628 24.8694 23.0528 25.0588 23.1798 25.3117C23.2978 25.5466 23.315 25.8028 23.4238 26.0503C23.5257 26.2823 23.3315 25.9597 23.3044 25.8856C23.1673 25.5115 22.9869 25.1361 22.8995 24.7484C22.7718 24.182 22.8268 23.5733 22.8268 22.9921C22.8268 22.2181 22.8268 21.444 22.8268 20.6699C22.8268 20.3577 22.9203 20.1093 22.9203 19.8117C22.9203 19.5956 22.9203 19.3795 22.9203 19.1634C22.9203 18.9243 22.9203 18.6851 22.9203 18.446C22.9203 18.0812 23.1071 17.7617 23.1071 17.3938C23.1071 17.2112 23.1768 17.0089 23.2032 16.8199C23.2204 16.6966 23.294 16.5893 23.294 16.4586C23.294 16.3213 23.2654 16.1704 23.3407 16.0547" stroke="white" stroke-width="2" stroke-linecap="round"/>
<path d="M26.4531 12.0547C26.2946 12.0911 26.2281 12.1591 26.1061 12.25C26.0077 12.3232 25.8778 12.3603 25.7745 12.4287C25.7077 12.4729 25.6312 12.54 25.5718 12.5942C25.5254 12.6365 25.5011 12.6908 25.4618 12.7381C25.3924 12.8217 25.2829 12.8524 25.1921 12.9086C24.9144 13.0804 24.7651 13.2526 24.5942 13.4994C24.5388 13.5795 24.4568 13.6389 24.3984 13.7112C24.3485 13.773 24.3345 13.8406 24.2713 13.9015C24.0048 14.1582 23.7984 14.4637 23.6253 14.7786C23.5419 14.9303 23.5312 15.074 23.5136 15.2436C23.4937 15.4359 23.3635 15.574 23.2851 15.7466C23.1728 15.9939 23.1197 16.2334 23.036 16.4913C22.9939 16.6212 23.0172 16.7736 22.9587 16.8968C22.8976 17.0255 22.9308 17.1705 22.8797 17.2972C22.7573 17.6004 22.6374 17.9298 22.5893 18.2537C22.568 18.3978 22.5152 18.5164 22.4708 18.6608C22.4355 18.7755 22.4639 18.9345 22.4639 19.0547" stroke="white" stroke-width="2" stroke-linecap="round"/>
<path d="M23.4531 16.0547C23.6757 15.9486 23.7735 15.7798 23.8725 15.5984C23.9935 15.3764 24.2121 15.2331 24.3725 15.0356C24.4983 14.8806 24.5824 14.7021 24.7506 14.5738C24.9047 14.4564 25.0135 14.2951 25.1807 14.1858C25.3178 14.0963 25.452 13.9823 25.5499 13.8662C25.6041 13.8019 25.6595 13.708 25.7434 13.664C25.8377 13.6146 25.9743 13.5573 26.0481 13.485C26.1546 13.3806 26.4045 13.3341 26.5427 13.2432C26.8212 13.0602 27.1009 13.0547 27.4531 13.0547" stroke="white" stroke-width="2" stroke-linecap="round"/>
<path d="M27.4531 13.0547C27.2765 13.2645 27.0456 13.438 26.8752 13.6449C26.7945 13.7429 26.6381 13.8114 26.5404 13.903C26.4125 14.0229 26.2702 14.1206 26.1198 14.2159C25.9949 14.295 25.8856 14.3872 25.7833 14.4932C25.6632 14.6178 25.4822 14.6754 25.3721 14.8006C25.2555 14.9332 25.0849 15.0536 24.9469 15.1694C24.8935 15.2142 24.818 15.2706 24.774 15.3197C24.7387 15.3591 24.6809 15.4579 24.6369 15.4836C24.451 15.5924 24.4531 15.8766 24.4531 16.0547" stroke="white" stroke-width="2" stroke-linecap="round"/>
<path d="M28.3946 14.1577C28.4406 14.2846 28.5203 14.4038 28.5584 14.5294C28.6191 14.7299 28.7463 14.892 28.8053 15.0899C28.8333 15.1838 28.8668 15.2446 28.9222 15.3193C28.9671 15.3798 28.9396 15.4516 28.9664 15.5168C29.0168 15.6394 29.0846 15.748 29.1536 15.858C29.2128 15.9526 29.2382 16.0578 29.3069 16.1455C29.3345 16.1808 29.3553 16.2205 29.3771 16.2602C29.422 16.3423 29.5062 16.3608 29.559 16.4316C29.6138 16.505 29.5971 16.5937 29.6578 16.6567C29.7313 16.7329 29.7713 16.8225 29.7929 16.9282C29.8101 17.012 29.7981 17.1098 29.7981 17.1954C29.7981 17.3234 29.83 17.4095 29.8553 17.5308C29.9023 17.7557 29.9514 17.9661 30.01 18.1842C30.0521 18.3412 30.0789 18.5268 30.0789 18.6924C30.0789 18.7761 30.0773 18.8476 30.0607 18.9291C30.0447 19.0073 30.0789 19.0647 30.0789 19.1368C30.0789 19.282 30.1022 19.418 30.1022 19.5622C30.1022 19.6729 30.149 19.7618 30.149 19.8715C30.149 20.1082 30.149 20.3449 30.149 20.5816C30.149 20.9376 30.2289 21.3232 30.136 21.6721C30.0777 21.8911 30.0203 22.1049 29.9723 22.327C29.913 22.6014 29.8917 22.9012 29.8917 23.1837C29.8917 23.3505 29.8323 23.4984 29.8228 23.6614C29.8112 23.8622 29.823 24.0602 29.8033 24.2611C29.779 24.5094 29.8295 24.7602 29.8215 25.0104C29.8192 25.0846 29.7853 25.1556 29.7735 25.2282C29.7664 25.2713 29.7417 25.3095 29.728 25.3501C29.6991 25.4356 29.7147 25.5272 29.6838 25.6115C29.6227 25.7779 29.5381 25.9818 29.5174 26.1604C29.5099 26.2256 29.5082 26.3466 29.4811 26.4029C29.4004 26.5703 29.4384 26.7727 29.3641 26.9387C29.3151 27.0481 29.2835 27.2264 29.2835 27.3511C29.2835 27.532 29.2479 27.6634 29.164 27.8157C29.1438 27.8523 29.1164 28.0273 29.19 27.958C29.2766 27.8765 29.3543 27.8034 29.4369 27.7112C29.508 27.6317 29.5791 27.58 29.6344 27.4818C29.6722 27.4147 29.6834 27.3228 29.7163 27.2494C29.7854 27.095 29.8296 26.8681 29.8462 26.7006C29.8539 26.6239 29.8855 26.4832 29.9151 26.4131C29.9798 26.2599 29.9706 26.1466 29.9983 25.9789C30.0178 25.8607 30.0789 25.7715 30.0789 25.6464C30.0789 25.4586 30.0789 25.2708 30.0789 25.083C30.0789 25.0117 30.1002 24.875 30.0672 24.8085C30.0263 24.7264 30.0789 24.5307 30.0789 24.4382C30.0789 24.1068 30.1852 23.808 30.2426 23.4871C30.3024 23.1532 30.3359 22.839 30.3011 22.4968C30.2861 22.3499 30.2894 22.2031 30.2894 22.0554C30.2894 21.9446 30.2817 21.9457 30.2946 22.0685C30.331 22.4167 30.4297 22.7269 30.4297 23.0835C30.4297 23.4459 30.4531 23.806 30.4531 24.1682C30.4531 24.7168 30.4297 25.2654 30.4297 25.8148C30.4297 26.1284 30.3149 26.3141 30.2062 26.5873C30.1565 26.7124 30.1983 26.841 30.162 26.9648C30.127 27.0846 30.0973 27.1943 30.0672 27.3177C30.0311 27.4655 30.0095 27.6318 29.9151 27.7489C29.8771 27.7961 29.8777 27.8663 29.8332 27.9159C29.7999 27.9532 29.7992 28.0006 29.7631 28.0365C29.7299 28.0694 29.7264 28.0571 29.728 28.0045C29.7327 27.8417 29.7977 27.6712 29.8319 27.5137C30.0273 26.6157 30.149 25.7218 30.149 24.7955C30.149 23.9416 30.0574 23.1082 29.9515 22.2631C29.9213 22.022 29.9385 21.7712 29.9385 21.5283C29.9385 21.2854 29.9169 21.0638 29.893 20.8241C29.8686 20.5786 29.7786 20.3033 29.6929 20.0748C29.5877 19.7946 29.5165 19.5067 29.4473 19.2166C29.4144 19.0789 29.3503 18.9725 29.3069 18.8406C29.24 18.6371 29.2133 18.3998 29.2133 18.1828C29.2133 17.9357 29.1177 17.7148 29.0964 17.4771C29.0777 17.2678 29.0969 17.0166 29.0041 16.8265C28.9474 16.7105 28.9459 16.6053 28.8677 16.4955C28.7585 16.3423 28.7288 16.1292 28.6844 15.9422C28.6292 15.7095 28.5086 15.5699 28.4037 15.3701C28.3621 15.2907 28.3243 15.1918 28.2673 15.1247C28.2194 15.0685 28.1544 15.0498 28.1243 14.9737C28.039 14.758 27.8953 14.6033 27.7396 14.4568C27.7137 14.4324 27.4618 14.2629 27.4589 14.3464C27.4576 14.3863 27.4366 14.5395 27.4836 14.5483C27.5584 14.5622 27.6264 14.5947 27.6981 14.6223C27.8881 14.6955 28.0365 14.8564 28.2101 14.9534C28.2584 14.9804 28.3197 14.964 28.3712 14.9795C28.4354 14.9988 28.4733 15.0572 28.535 15.0783C28.6848 15.1294 28.7561 15.2672 28.8625 15.3861C28.9529 15.4871 28.943 15.5785 28.9989 15.6925C29.0846 15.8671 29.1777 16.0047 29.2419 16.1934C29.2723 16.2827 29.3173 16.3766 29.3277 16.4722C29.3438 16.6208 29.3237 16.7591 29.368 16.905C29.4205 17.0779 29.4637 17.2526 29.5434 17.4132C29.6686 17.6652 29.8273 17.908 29.9177 18.1799C29.9973 18.4192 29.9853 18.7657 29.9853 19.0192C29.9853 19.0593 30.0075 19.2545 29.9749 19.2747C29.8413 19.3576 29.8162 19.1359 29.7955 19.0526C29.6886 18.6212 29.5247 18.2136 29.4161 17.782C29.3298 17.4394 29.1576 17.1385 29.0184 16.8193C28.9481 16.6579 28.8426 16.5254 28.7793 16.359C28.6945 16.1362 28.6448 15.8692 28.5948 15.6344C28.4971 15.176 28.4093 14.7188 28.4596 14.2477C28.4919 13.9456 28.5072 13.6846 28.3998 13.3997C28.3809 13.3494 28.406 13.2885 28.3894 13.237C28.3751 13.1927 28.288 13.0149 28.34 13.0628C28.5478 13.254 28.671 13.5184 28.8235 13.7598C29.0244 14.0778 29.2432 14.4745 29.3368 14.8561C29.3903 15.0739 29.5097 15.2784 29.546 15.4965C29.6128 15.8977 29.6344 16.2968 29.6344 16.7075C29.6344 16.9622 29.7194 17.1947 29.728 17.4451C29.7321 17.5652 29.7098 17.3423 29.7046 17.3188C29.6699 17.1639 29.6398 16.9957 29.5876 16.8498" stroke="white" stroke-linecap="round"/>
<path d="M26.4531 12.0547C26.3404 12.0652 26.1992 12.0449 26.1037 12.1139C26.0071 12.1838 25.8891 12.2284 25.7905 12.2989C25.7497 12.328 25.6995 12.3377 25.6586 12.3667C25.6099 12.4013 25.5637 12.4259 25.5087 12.4499C25.4157 12.4905 25.2931 12.5258 25.2135 12.587C25.1811 12.6119 25.1418 12.6192 25.1399 12.6681C25.1384 12.7055 25.1215 12.7279 25.1064 12.7613C25.0768 12.8266 25.0349 12.8757 24.9926 12.9343C24.9632 12.9749 24.951 13.0216 24.923 13.0633C24.8868 13.1174 24.8393 13.1574 24.7911 13.1997C24.7477 13.2379 24.7203 13.2966 24.676 13.3308C24.6224 13.3722 24.6054 13.454 24.5796 13.5104C24.5659 13.5406 24.576 13.577 24.5642 13.6089C24.5401 13.6744 24.5229 13.7042 24.5254 13.7766C24.5274 13.8326 24.5419 13.8543 24.516 13.911C24.4931 13.9613 24.4849 14.0074 24.4531 14.0547" stroke="white" stroke-linecap="round"/>
<path d="M25.4531 12.0547C25.3972 12.0967 25.3449 12.1428 25.2869 12.1827C25.2115 12.2347 25.1268 12.2734 25.0456 12.3179C24.981 12.3533 24.9239 12.3947 24.8654 12.4365C24.8307 12.4612 24.7878 12.4752 24.7556 12.5023C24.7101 12.5407 24.6771 12.5662 24.6585 12.6177C24.6454 12.6541 24.6037 12.6808 24.5838 12.7143C24.5601 12.7543 24.5058 12.7947 24.5035 12.8403C24.5019 12.8736 24.4992 12.9107 24.5101 12.9428C24.5268 12.9922 24.4913 13.0225 24.4531 13.0547" stroke="white" stroke-linecap="round"/>
</svg>
