<svg width="44" height="58" viewBox="0 0 44 58" fill="none" xmlns="http://www.w3.org/2000/svg">
<path d="M21.3741 57.0547H22.749L22.9855 56.9483C23.8328 56.5736 24.5428 55.9369 25.0149 55.1283C29.6895 48.4084 34.366 41.6886 39.0444 34.9687C42.1738 30.6406 43.5518 25.2544 42.8941 19.9217C42.6286 17.262 41.8491 14.682 40.6004 12.3302C39.3516 9.97848 37.6584 7.90148 35.6181 6.21879C28.9691 0.663685 21.2861 -0.433896 13.4052 3.04364C9.38501 4.84478 6.03246 7.90254 3.83335 11.7738C1.63425 15.6451 0.702835 20.1288 1.17407 24.5753C1.47628 28.1027 2.68237 31.4877 4.67182 34.3919C7.78094 38.8718 10.8974 43.3517 14.0212 47.8317L19.1908 55.2627C19.6514 56.0032 20.3175 56.5879 21.1047 56.9427L21.3741 57.0547Z" fill="white" stroke="#FE4F02"/>
<path d="M31.0442 22.638C31.0442 16.1427 28.9624 11.0111 26.2582 10.7003C26.2338 10.6928 26.2088 10.6878 26.1835 10.6854H20.9656C20.1353 10.6465 19.3077 10.8077 18.5527 11.1555C16.2618 12.2387 13.8125 15.815 13.8125 22.5966C13.8125 28.3653 15.5865 32.7479 18.4407 34.0428C19.3574 34.41 20.3367 34.5961 21.3242 34.5906H26.183C26.2083 34.5882 26.2333 34.5832 26.2577 34.5757C28.9619 34.2649 31.0442 29.1332 31.0442 22.638ZM20.9557 33.3595C20.0463 32.9024 19.2899 32.1902 18.7788 31.3101L20.3566 31.7872C20.8201 32.5477 21.4349 33.2049 22.1629 33.7181C21.7475 33.6476 21.3422 33.5272 20.9557 33.3595ZM18.2604 30.3713C17.9949 29.8127 17.7713 29.235 17.5915 28.6432L19.1454 29.1357C19.3311 29.7211 19.5588 30.2923 19.8267 30.8449L18.2604 30.3713ZM17.8714 15.8096L19.0667 16.4411C18.8768 17.0545 18.7224 17.6784 18.6045 18.3096L17.3171 17.5775C17.4623 16.9765 17.6474 16.3859 17.8714 15.8096ZM16.7847 23.5085L18.2788 24.153C18.3112 24.7083 18.3565 25.2486 18.4217 25.7731L16.9112 25.2252C16.8505 24.6704 16.8056 24.0987 16.7847 23.5085ZM16.7693 22.6878C16.7693 22.6574 16.7693 22.6275 16.7693 22.5966C16.7693 22.0294 16.7927 21.495 16.8256 20.9751L18.2524 21.6041C18.2404 21.9288 18.23 22.2555 18.23 22.5966C18.23 22.8432 18.2375 23.0832 18.2439 23.3243L16.7693 22.6878ZM16.8838 20.1857C16.9481 19.5318 17.0332 18.9142 17.1478 18.34L18.47 19.092C18.3909 19.6319 18.3356 20.2096 18.2942 20.8072L16.8838 20.1857ZM17.3545 27.7861C17.2197 27.2382 17.1071 26.6627 17.0168 26.0594L18.5437 26.6117C18.6399 27.1924 18.7594 27.7457 18.8973 28.2746L17.3545 27.7861ZM19.3137 15.7259L18.1682 15.1208C18.488 14.4249 18.899 13.7748 19.3904 13.1874L20.2022 13.8448C19.8502 14.4439 19.5528 15.0735 19.3137 15.7259ZM20.611 13.2153L19.9039 12.6426C20.2524 12.314 20.6489 12.0403 21.0797 11.8308C21.4798 11.64 21.9091 11.5178 22.3497 11.4693C21.6691 11.9411 21.0799 12.5327 20.611 13.2153ZM14.5595 22.5966C14.5595 16.1637 16.7877 12.8164 18.8719 11.8308C19.297 11.6282 19.7547 11.5026 20.2236 11.4598C19.8418 11.7089 19.4895 12.0005 19.1732 12.3289L18.2997 12.5415C18.2041 12.5649 18.1216 12.6251 18.0702 12.7091C18.0188 12.7931 18.0026 12.8939 18.0253 12.9897C18.0457 13.0714 18.0935 13.1436 18.1608 13.1942C18.2281 13.2448 18.3107 13.2707 18.3948 13.2676C18.0195 13.8024 17.6963 14.3719 17.4297 14.9684L16.5397 15.1935C16.4921 15.2055 16.4474 15.2268 16.408 15.256C16.3686 15.2853 16.3354 15.3221 16.3103 15.3642C16.2851 15.4064 16.2685 15.453 16.2614 15.5016C16.2542 15.5501 16.2568 15.5996 16.2688 15.6472C16.2808 15.6948 16.302 15.7395 16.3313 15.7789C16.3606 15.8183 16.3974 15.8515 16.4395 15.8766C16.4816 15.9018 16.5283 15.9184 16.5769 15.9255C16.6254 15.9326 16.6749 15.9301 16.7225 15.9181L17.08 15.8275C16.8831 16.3654 16.7168 16.9142 16.582 17.471L15.7707 17.7329C15.6764 17.7634 15.5981 17.83 15.5529 17.9183C15.5078 18.0065 15.4995 18.109 15.5299 18.2033C15.5604 18.2976 15.627 18.376 15.7153 18.4211C15.8035 18.4663 15.906 18.4746 16.0003 18.4441L16.3987 18.3156C16.2902 18.8824 16.1995 19.4805 16.1378 20.118L15.4077 20.3022C15.3601 20.3142 15.3153 20.3355 15.276 20.3648C15.2366 20.3941 15.2034 20.4309 15.1782 20.473C15.1531 20.5151 15.1365 20.5618 15.1294 20.6103C15.1222 20.6589 15.1247 20.7084 15.1368 20.7559C15.1488 20.8035 15.17 20.8483 15.1993 20.8876C15.2286 20.927 15.2654 20.9602 15.3075 20.9854C15.3496 21.0105 15.3963 21.0271 15.4448 21.0343C15.4934 21.0414 15.5429 21.0389 15.5905 21.0269L16.0785 20.9034C16.0432 21.4457 16.0183 22.003 16.0183 22.5937C16.0183 22.6121 16.0183 22.63 16.0183 22.6484L15.3504 22.8173C15.2543 22.8416 15.1718 22.9031 15.121 22.9882C15.0703 23.0733 15.0554 23.1751 15.0797 23.2712C15.104 23.3673 15.1655 23.4498 15.2506 23.5006C15.3358 23.5513 15.4376 23.5662 15.5337 23.5419L16.0317 23.4159C16.0506 24.0354 16.0905 24.6361 16.1512 25.2178L15.5103 25.402C15.4629 25.4159 15.4186 25.4389 15.3801 25.4698C15.3416 25.5007 15.3096 25.539 15.2858 25.5823C15.2621 25.6256 15.2471 25.6731 15.2417 25.7222C15.2363 25.7713 15.2407 25.821 15.2545 25.8684C15.2684 25.9158 15.2914 25.9601 15.3223 25.9986C15.3533 26.0371 15.3915 26.0691 15.4348 26.0929C15.4781 26.1166 15.5256 26.1316 15.5747 26.137C15.6238 26.1424 15.6735 26.138 15.7209 26.1242L16.2449 25.9748C16.329 26.5863 16.4351 27.174 16.5641 27.7328L16.0481 27.8633C16.0006 27.8753 15.9558 27.8966 15.9165 27.9259C15.8771 27.9552 15.8439 27.992 15.8188 28.0342C15.7936 28.0763 15.7771 28.123 15.77 28.1716C15.7629 28.2202 15.7654 28.2696 15.7775 28.3172C15.7895 28.3648 15.8108 28.4095 15.8401 28.4489C15.8694 28.4882 15.9062 28.5214 15.9484 28.5466C16.0335 28.5973 16.1353 28.6122 16.2314 28.5879L16.7454 28.4579C16.9313 29.1332 17.1686 29.7934 17.4551 30.4326L17.2703 30.4794C17.2227 30.4914 17.178 30.5127 17.1386 30.542C17.0992 30.5712 17.066 30.608 17.0409 30.6501C17.0157 30.6923 16.9991 30.7389 16.992 30.7875C16.9849 30.836 16.9874 30.8855 16.9994 30.9331C17.0114 30.9807 17.0326 31.0254 17.0619 31.0648C17.0912 31.1042 17.128 31.1374 17.1701 31.1625C17.2122 31.1877 17.2589 31.2043 17.3075 31.2114C17.356 31.2185 17.4055 31.216 17.4531 31.204L17.7932 31.1179C18.3205 32.1768 19.1131 33.0812 20.0936 33.743C19.6307 33.6752 19.1786 33.5471 18.7489 33.362C16.203 32.2095 14.5595 27.9843 14.5595 22.5966ZM25.9972 33.8436H24.4971C24.0371 33.7644 23.5889 33.6272 23.1634 33.4352C22.3762 33.0353 21.7067 32.4371 21.2211 31.6996L21.5697 31.6074C21.6656 31.5822 21.7475 31.5199 21.7974 31.4343C21.8473 31.3487 21.8612 31.2468 21.8359 31.151C21.8107 31.0552 21.7485 30.9733 21.6629 30.9234C21.5773 30.8734 21.4753 30.8596 21.3795 30.8848L20.7968 31.0382C20.4457 30.4219 20.1545 29.7733 19.9273 29.1014L20.6887 28.9022C20.7362 28.8896 20.7807 28.8679 20.8198 28.8382C20.8588 28.8084 20.8916 28.7713 20.9163 28.7289C20.941 28.6865 20.9571 28.6396 20.9637 28.591C20.9703 28.5424 20.9672 28.4929 20.9547 28.4455C20.9422 28.398 20.9204 28.3535 20.8907 28.3145C20.861 28.2754 20.8238 28.2426 20.7814 28.2179C20.739 28.1932 20.6922 28.1771 20.6435 28.1705C20.5949 28.1639 20.5454 28.167 20.498 28.1795L19.7012 28.3897C19.5374 27.8162 19.4044 27.2343 19.3027 26.6466L20.3825 26.3617C20.4299 26.3492 20.4744 26.3275 20.5135 26.2977C20.5525 26.268 20.5853 26.2309 20.61 26.1885C20.6347 26.1461 20.6508 26.0992 20.6574 26.0506C20.664 26.0019 20.6609 25.9525 20.6484 25.905C20.6359 25.8576 20.6141 25.8131 20.5844 25.774C20.5547 25.735 20.5175 25.7022 20.4751 25.6775C20.4327 25.6528 20.3859 25.6367 20.3372 25.6301C20.2886 25.6235 20.2392 25.6266 20.1917 25.6391L19.1837 25.905C19.11 25.3622 19.0577 24.7825 19.0218 24.1769L20.1728 23.8437C20.2199 23.8301 20.2639 23.8073 20.3022 23.7767C20.3405 23.746 20.3724 23.7081 20.3961 23.6652C20.4198 23.6222 20.4348 23.575 20.4402 23.5263C20.4456 23.4775 20.4414 23.4282 20.4278 23.381C20.4141 23.3339 20.3914 23.2899 20.3607 23.2516C20.3301 23.2133 20.2922 23.1814 20.2493 23.1577C20.2063 23.134 20.1591 23.1191 20.1103 23.1136C20.0616 23.1082 20.0122 23.1124 19.9651 23.126L18.9885 23.4089C18.9805 23.142 18.9711 22.8775 18.9711 22.5991C18.9711 22.2849 18.9805 21.9617 18.9945 21.635L20.2052 21.3152C20.301 21.29 20.3829 21.2277 20.4328 21.1421C20.4827 21.0565 20.4966 20.9546 20.4714 20.8588C20.4461 20.763 20.3839 20.6811 20.2983 20.6312C20.2127 20.5812 20.1107 20.5674 20.0149 20.5926L19.0418 20.8496C19.0846 20.3017 19.1483 19.7435 19.234 19.1872L20.51 18.8311C20.6013 18.8011 20.6775 18.7371 20.7229 18.6523C20.7683 18.5676 20.7793 18.4687 20.7537 18.376C20.7281 18.2834 20.6678 18.2042 20.5853 18.1548C20.5028 18.1054 20.4045 18.0897 20.3107 18.1109L19.3794 18.3714C19.4996 17.7604 19.6529 17.1564 19.8386 16.5621L21.0289 16.2722C21.0775 16.2615 21.1234 16.2412 21.1641 16.2125C21.2047 16.1838 21.2392 16.1473 21.2656 16.1051C21.2919 16.0629 21.3095 16.0158 21.3174 15.9667C21.3253 15.9176 21.3233 15.8673 21.3115 15.819C21.2997 15.7707 21.2784 15.7252 21.2488 15.6852C21.2192 15.6452 21.1819 15.6115 21.1391 15.5861C21.0963 15.5608 21.0489 15.5442 20.9996 15.5374C20.9503 15.5306 20.9002 15.5337 20.8521 15.5466L20.13 15.7224C20.3502 15.1394 20.6224 14.5774 20.9432 14.0431L21.9433 13.809C21.991 13.7978 22.0361 13.7773 22.076 13.7487C22.1159 13.7201 22.1497 13.6839 22.1756 13.6422C22.2015 13.6005 22.2189 13.5541 22.2268 13.5057C22.2348 13.4573 22.2331 13.4078 22.2219 13.36C22.2107 13.3122 22.1902 13.2671 22.1616 13.2273C22.133 13.1874 22.0968 13.1536 22.0551 13.1277C22.0134 13.1018 21.9671 13.0844 21.9186 13.0765C21.8702 13.0685 21.8207 13.0702 21.7729 13.0814L21.6066 13.1207C22.065 12.5593 22.6388 12.1029 23.2889 11.7825C23.64 11.6133 24.0135 11.4954 24.398 11.4324H25.9972C28.328 11.4324 30.2971 16.5621 30.2971 22.638C30.2971 28.7139 28.328 33.8436 25.9972 33.8436Z" fill="#FE4F02"/>
<path d="M21.6983 22.6375C21.6699 18.4994 22.5704 14.691 24.0475 12.6999C24.101 12.6203 24.1219 12.5233 24.1059 12.4288C24.0899 12.3343 24.0382 12.2495 23.9615 12.192C23.8849 12.1345 23.789 12.1086 23.6938 12.1197C23.5986 12.1308 23.5113 12.178 23.4499 12.2517C21.8811 14.3673 20.9244 18.348 20.9538 22.64C20.9842 27.1167 22.0071 31.1771 23.6232 33.237C23.6581 33.2816 23.7027 33.3177 23.7536 33.3424C23.8045 33.3672 23.8604 33.38 23.917 33.3799C24.0007 33.3804 24.0821 33.3523 24.1476 33.3002C24.1863 33.27 24.2186 33.2324 24.2427 33.1897C24.2668 33.1469 24.2822 33.0998 24.2881 33.0511C24.2939 33.0024 24.2901 32.953 24.2769 32.9058C24.2636 32.8585 24.2412 32.8144 24.2109 32.7758C22.7123 30.8694 21.7272 26.8891 21.6983 22.6375Z" fill="#FE4F02"/>
<path d="M26.5341 14.5742C25.9863 14.5742 25.1949 14.9228 24.5126 16.5758C23.8254 18.5074 23.497 20.5483 23.5435 22.5979C23.4965 24.6491 23.8258 26.6916 24.5151 28.624C25.1949 30.275 25.9883 30.6211 26.5341 30.6211C28.4764 30.6211 29.5248 26.4875 29.5248 22.5974C29.5248 18.7073 28.4764 14.5742 26.5341 14.5742ZM26.5341 29.8746C26.0919 29.8746 25.6078 29.3153 25.2064 28.3401C24.5535 26.4979 24.2431 24.5518 24.2905 22.5979C24.244 20.6464 24.5536 18.7027 25.2039 16.8621C25.6068 15.884 26.0919 15.3232 26.5341 15.3232C27.5954 15.3232 28.7777 18.3114 28.7777 22.5999C28.7777 26.8884 27.5954 29.8746 26.5341 29.8746Z" fill="#FE4F02"/>
<path d="M25.3534 19.1474C25.3062 19.1608 25.2621 19.1834 25.2237 19.2139C25.1852 19.2444 25.1532 19.2822 25.1294 19.325C25.1055 19.3679 25.0904 19.4151 25.0848 19.4638C25.0793 19.5126 25.0834 19.5619 25.0969 19.6091C25.3568 20.582 25.4828 21.5858 25.4714 22.5928C25.4862 23.6813 25.3361 24.7659 25.0262 25.8095C25.011 25.8561 25.0051 25.9053 25.009 25.9542C25.0128 26.0031 25.0263 26.0507 25.0486 26.0944C25.0709 26.1381 25.1016 26.1769 25.1389 26.2087C25.1763 26.2405 25.2195 26.2646 25.2662 26.2796C25.3034 26.2922 25.3425 26.2986 25.3818 26.2986C25.4607 26.2984 25.5375 26.2734 25.6012 26.2269C25.665 26.1805 25.7125 26.1151 25.7369 26.0401C26.0707 24.9219 26.233 23.7596 26.2185 22.5928C26.2297 21.5169 26.094 20.4445 25.8151 19.4054C25.8019 19.358 25.7795 19.3137 25.7491 19.275C25.7187 19.2363 25.681 19.2041 25.638 19.1801C25.5951 19.1561 25.5478 19.1408 25.499 19.1352C25.4501 19.1296 25.4006 19.1338 25.3534 19.1474Z" fill="#FE4F02"/>
<path d="M23.0547 18.0547C23.0547 18.3826 23.0547 18.7235 23.0547 19.0547" stroke="#FE4F02" stroke-width="2" stroke-linecap="round"/>
<path d="M24.0547 16.0547C23.5721 17.0372 23.2491 17.9609 23.0547 19.0547" stroke="#FE4F02" stroke-width="2" stroke-linecap="round"/>
<path d="M23.0547 18.0547C23.0547 18.29 23.0547 18.5001 23.0547 18.7214C23.0547 18.8435 23.0547 18.9786 23.0547 19.0547" stroke="#FE4F02" stroke-width="2" stroke-linecap="round"/>
<path d="M23.0547 17.0547C23.0461 17.4038 22.923 17.7521 22.7275 18.0819C22.4746 18.5085 22.0925 18.9112 22.0732 19.3744C22.0677 19.5069 21.9605 20.0547 22.3315 20.0547" stroke="#FE4F02" stroke-width="2" stroke-linecap="round"/>
<path d="M22.9741 19.0547C23.0055 19.2782 23.1065 19.5295 23.0213 19.7543C22.9473 19.9496 22.6041 20.1031 22.535 20.2947C22.4256 20.5983 22.4514 20.8964 22.4236 21.2015C22.4106 21.3436 22.324 21.4866 22.1804 21.613C22.0413 21.7354 22.0622 21.8375 22.0622 21.971C22.0622 22.0125 22.0432 22.0632 22.0656 22.1041C22.0845 22.1387 22.1786 22.1526 22.1838 22.1905C22.195 22.2722 22.1838 22.3556 22.1838 22.4374C22.1838 22.556 22.0573 22.8162 22.2446 22.9065C22.3869 22.9752 22.3054 23.1287 22.3054 23.2138C22.3054 23.341 22.1056 23.5277 22.2446 23.6349C22.3503 23.7165 22.3661 23.8156 22.3661 23.9065C22.3661 24.0226 22.4653 24.1082 22.535 24.2152C22.6263 24.3553 22.4303 24.5378 22.5789 24.6706C22.6813 24.7621 22.8884 24.998 22.6093 25.0547" stroke="#FE4F02" stroke-width="2" stroke-linecap="round"/>
<path d="M22.0547 25.0547C22.3211 25.4247 22.6649 25.7714 22.8591 26.1674C23.0323 26.5205 23.098 27.0019 23.4591 27.2916C23.5598 27.3724 23.7097 27.4562 23.7658 27.5612C23.7972 27.6201 23.7919 27.7018 23.8325 27.754C23.908 27.8513 24.0071 27.9498 24.0547 28.0547" stroke="#FE4F02" stroke-width="2" stroke-linecap="round"/>
<path d="M23.0547 27.0547C23.1047 27.2507 23.1334 27.4785 23.2268 27.6616C23.2826 27.7709 23.361 27.8584 23.3927 27.9788C23.4517 28.2025 23.614 28.414 23.7026 28.6332C23.8352 28.9614 23.9607 29.2841 24.0688 29.6202C24.1344 29.8244 24.2305 30.1106 24.3661 30.2715C24.4439 30.3639 24.5648 30.4084 24.6541 30.4876C24.7463 30.5695 24.7779 30.6892 24.8575 30.7788C24.938 30.8695 25.0003 30.9481 25.0547 31.0547" stroke="#FE4F02" stroke-width="2" stroke-linecap="round"/>
<path d="M25.0547 30.0547C25.1394 30.2268 25.2707 30.4656 25.4436 30.5817C25.6242 30.7032 25.7886 30.8286 25.9497 30.969C26.0898 31.091 26.3764 31.0469 26.5547 31.0469C26.763 31.0469 26.8768 31.0018 27.0547 30.9501" stroke="#FE4F02" stroke-width="2" stroke-linecap="round"/>
<path d="M26.0547 32.0547C26.509 32.0547 27.0193 31.8761 27.3941 31.674C27.6904 31.5142 27.8468 31.2789 28.0547 31.0547" stroke="#FE4F02" stroke-width="2" stroke-linecap="round"/>
<path d="M28.0547 30.0547C28.1943 29.9918 28.2951 29.9624 28.4013 29.8514C28.5147 29.7329 28.6192 29.5949 28.702 29.4512C28.786 29.3055 28.7687 29.1036 28.8615 28.965C28.9004 28.9068 28.9854 28.8235 28.9895 28.7491C28.9968 28.6157 29.0112 28.4865 29.0112 28.3501C29.0112 28.3029 29.0181 28.0738 29.0547 28.0547" stroke="#FE4F02" stroke-width="2" stroke-linecap="round"/>
<path d="M28.0547 30.0547C28.0516 30.3292 27.988 30.5644 27.9652 30.8301C27.9553 30.9466 27.9317 31.1623 27.8782 31.2474C27.8379 31.3114 27.7809 31.3669 27.7557 31.4479C27.7285 31.5353 27.712 31.6182 27.6576 31.6807C27.5967 31.7507 27.5728 31.8721 27.5142 31.9386C27.42 32.0457 27.3245 32.1372 27.2483 32.2789C27.1677 32.4288 27.0243 32.4806 26.9689 32.6334C26.9485 32.6897 26.8407 32.7453 26.7998 32.7624C26.7479 32.784 26.6931 32.8823 26.6429 32.9235C26.4655 33.0694 26.2531 33.0525 26.051 33.0525C25.925 33.0525 25.7983 33.0575 25.6723 33.0525C25.5548 33.0478 25.469 32.9245 25.3831 32.8268C25.3234 32.759 25.2385 32.7402 25.1821 32.6728C25.1324 32.6134 25.1019 32.5183 25.0547 32.4723" stroke="#FE4F02" stroke-width="2" stroke-linecap="round"/>
<path d="M26.0547 32.0493C25.6225 32.0493 25.1872 32.0893 24.7714 31.9518C24.4024 31.8297 24.1501 31.412 23.8148 31.2263C23.7128 31.1698 23.5896 31.1227 23.4999 31.049C23.4398 30.9996 23.4627 30.8974 23.3851 30.8584C23.3188 30.8251 23.2467 30.6613 23.2467 30.5865C23.2467 30.5037 23.2366 30.4175 23.2188 30.3368C23.2109 30.3014 23.1255 30.2616 23.1158 30.1979C23.0928 30.0483 23.0918 29.8874 23.0878 29.7355C23.0834 29.5683 23.0325 29.3176 22.8509 29.2568C22.6803 29.1997 22.7487 29.0221 22.664 28.9051C22.4599 28.6235 22.505 28.2679 22.505 27.9388C22.505 27.729 22.505 27.5192 22.505 27.3094C22.505 27.2277 22.4986 27.1334 22.4726 27.0553C22.4535 26.9977 22.3991 26.9357 22.3991 26.875C22.3991 26.7402 22.3726 26.6025 22.3726 26.4642C22.3726 26.3928 22.3726 26.3214 22.3726 26.25C22.3726 26.0784 22.2384 26.0905 22.1606 25.9648C22.1065 25.8773 22.1459 25.7549 22.1283 25.6575C22.1123 25.5692 22.1077 25.4904 22.1077 25.4004C22.1077 25.3256 22.0547 25.3171 22.0547 25.2409C22.0547 25.1788 22.0547 25.1167 22.0547 25.0547" stroke="#FE4F02" stroke-width="2" stroke-linecap="round"/>
<path d="M23.0547 29.0547C23.1229 29.2364 23.172 29.4496 23.2861 29.6153C23.3573 29.7187 23.3371 29.8021 23.3706 29.9167C23.3954 30.0016 23.4394 30.0833 23.4679 30.1677C23.5032 30.2721 23.6071 30.334 23.6424 30.4333C23.7721 30.7977 23.8248 31.1889 24.0317 31.53C24.1306 31.693 24.2049 31.8428 24.2705 32.0237C24.2974 32.0981 24.2465 32.1967 24.2815 32.2665C24.3382 32.3798 24.4362 32.5172 24.5588 32.5876C24.6638 32.6478 24.7661 32.6971 24.8545 32.7668C24.9061 32.8075 25.0173 32.812 25.0731 32.8532C25.2397 32.9764 25.5015 32.9508 25.6993 33.021C25.9203 33.0994 26.1645 33.0208 26.3752 32.9868C26.5987 32.9507 26.8904 32.8669 27.0547 32.7212" stroke="#FE4F02" stroke-width="2" stroke-linecap="round"/>
<path d="M24.6924 12.3857C24.8195 12.5514 24.9685 12.6801 25.125 12.7773L24.2021 13.7012L24.1543 13.748L24.1211 13.8066L22.1211 17.3066L22.0557 17.4219V20.0547C22.0557 20.1434 22.0772 20.3314 22.1035 20.5449C22.1322 20.778 22.1737 21.0908 22.2246 21.4629C22.3264 22.2076 22.4667 23.1968 22.623 24.2764C22.9357 26.4358 23.3114 28.9617 23.5615 30.6289L23.5771 30.7344L23.6338 30.8232L25.168 33.2266L25.2998 33.4346L25.207 33.5049L23.917 33.1377C22.812 30.6656 21.5836 26.7391 21.3867 22.7549C21.1951 18.8766 21.9815 15.0372 24.6924 12.3857Z" stroke="#FE4F02" stroke-linecap="round"/>
<path d="M22.8956 27.0547C22.6928 26.8219 22.541 26.4508 22.4025 26.1672C22.3113 25.9806 22.344 25.849 22.2156 25.6943C22.1924 25.6664 22.1515 25.4632 22.1481 25.418C22.1371 25.2711 22.0547 25.1591 22.0547 25.0088C22.0547 24.7646 22.1481 24.5483 22.1481 24.2914C22.1481 24.2435 22.3132 24.5268 22.3454 24.5996C22.4644 24.8694 22.6543 25.0588 22.7814 25.3117C22.8994 25.5466 22.9165 25.8028 23.0253 26.0503C23.1273 26.2823 22.9331 25.9597 22.9059 25.8856C22.7689 25.5115 22.8688 24.9873 22.7814 24.5996C22.6537 24.0332 22.5547 23.6359 22.5547 23.0547C22.5547 22.2806 22.9076 21.5467 22.7814 20.6619C22.7814 20.3497 22.5218 20.1093 22.5218 19.8117C22.5218 19.5956 22.5218 19.3795 22.5218 19.1634C22.5218 18.9243 22.5218 18.6851 22.5218 18.446C22.5218 18.0812 22.7087 17.7617 22.7087 17.3938C22.7087 17.2112 22.7783 17.0089 22.8047 16.8199C22.8219 16.6966 22.8956 16.5893 22.8956 16.4586C22.8956 16.3213 22.8669 16.1704 22.9423 16.0547" stroke="#FE4F02" stroke-width="2" stroke-linecap="round"/>
<path d="M26.0547 12.0547C25.8961 12.0911 25.8297 12.1591 25.7077 12.25C25.6092 12.3232 25.4794 12.3603 25.3761 12.4287C25.3093 12.4729 25.2327 12.54 25.1734 12.5942C25.127 12.6365 25.1027 12.6908 25.0634 12.7381C24.994 12.8217 24.8845 12.8524 24.7937 12.9086C24.516 13.0804 24.3666 13.2526 24.1958 13.4994C24.1404 13.5795 24.0583 13.6389 24 13.7112C23.9501 13.773 23.936 13.8406 23.8728 13.9015C23.6063 14.1582 23.3999 14.4637 23.2269 14.7786C23.1435 14.9303 23.1328 15.074 23.1152 15.2436C23.0952 15.4359 22.9651 15.574 22.8867 15.7466C22.7744 15.9939 22.7213 16.2334 22.6376 16.4913C22.5954 16.6212 22.6187 16.7736 22.5603 16.8968C22.4992 17.0255 22.5324 17.1705 22.4812 17.2972C22.3589 17.6004 22.239 17.9298 22.1909 18.2537C22.1695 18.3978 22.1168 18.5164 22.0724 18.6608C22.0371 18.7755 22.0655 18.9345 22.0655 19.0547" stroke="#FE4F02" stroke-width="2" stroke-linecap="round"/>
<path d="M23.0547 16.0547C23.2773 15.9486 23.3751 15.7798 23.474 15.5984C23.5951 15.3764 23.8136 15.2331 23.974 15.0356C24.0999 14.8806 24.1839 14.7021 24.3522 14.5738C24.5062 14.4564 24.6151 14.2951 24.7823 14.1858C24.9194 14.0963 25.0535 13.9823 25.1515 13.8662C25.2056 13.8019 25.261 13.708 25.345 13.664C25.4393 13.6146 25.5759 13.5573 25.6497 13.485C25.7562 13.3806 26.006 13.3341 26.1443 13.2432C26.4228 13.0602 26.7025 13.0547 27.0547 13.0547" stroke="#FE4F02" stroke-width="2" stroke-linecap="round"/>
<path d="M27.0547 13.0547C26.878 13.2645 26.6472 13.438 26.4768 13.6449C26.3961 13.7429 26.2397 13.8114 26.1419 13.903C26.014 14.0229 25.8718 14.1206 25.7214 14.2159C25.5965 14.295 25.4872 14.3872 25.3849 14.4932C25.2647 14.6178 25.0838 14.6754 24.9737 14.8006C24.857 14.9332 24.6865 15.0536 24.5485 15.1694C24.4951 15.2142 24.4196 15.2706 24.3756 15.3197C24.3403 15.3591 24.2825 15.4579 24.2385 15.4836C24.0526 15.5924 24.0547 15.8766 24.0547 16.0547" stroke="#FE4F02" stroke-width="2" stroke-linecap="round"/>
<path d="M27.9962 14.1577C28.0422 14.2846 28.1219 14.4038 28.1599 14.5294C28.2207 14.7299 28.3478 14.892 28.4068 15.0899C28.4349 15.1838 28.4683 15.2446 28.5238 15.3193C28.5687 15.3798 28.5412 15.4516 28.568 15.5168C28.6184 15.6394 28.6862 15.748 28.7551 15.858C28.8144 15.9526 28.8397 16.0578 28.9085 16.1455C28.9361 16.1808 28.9569 16.2205 28.9787 16.2602C29.0236 16.3423 29.1078 16.3608 29.1606 16.4316C29.2154 16.505 29.1987 16.5937 29.2594 16.6567C29.3329 16.7329 29.3729 16.8225 29.3945 16.9282C29.4117 17.012 29.3997 17.1098 29.3997 17.1954C29.3997 17.3234 29.4316 17.4095 29.4569 17.5308C29.5039 17.7557 29.553 17.9661 29.6115 18.1842C29.6537 18.3412 29.6804 18.5268 29.6804 18.6924C29.6804 18.7761 29.6789 18.8476 29.6622 18.9291C29.6462 19.0073 29.6804 19.0647 29.6804 19.1368C29.6804 19.282 29.7038 19.418 29.7038 19.5622C29.7038 19.6729 29.7506 19.7618 29.7506 19.8715C29.7506 20.1082 29.7506 20.3449 29.7506 20.5816C29.7506 20.9376 29.8304 21.3232 29.7376 21.6721C29.6793 21.8911 29.6218 22.1049 29.5739 22.327C29.5146 22.6014 29.4933 22.9012 29.4933 23.1837C29.4933 23.3505 29.4338 23.4984 29.4244 23.6614C29.4128 23.8622 29.4246 24.0602 29.4049 24.2611C29.3806 24.5094 29.4311 24.7602 29.4231 25.0104C29.4207 25.0846 29.3868 25.1556 29.375 25.2282C29.368 25.2713 29.3433 25.3095 29.3295 25.3501C29.3007 25.4356 29.3163 25.5272 29.2853 25.6115C29.2242 25.7779 29.1396 25.9818 29.119 26.1604C29.1115 26.2256 29.1098 26.3466 29.0826 26.4029C29.002 26.5703 29.0399 26.7727 28.9657 26.9387C28.9167 27.0481 28.8851 27.2264 28.8851 27.3511C28.8851 27.532 28.8495 27.6634 28.7655 27.8157C28.7454 27.8523 28.7179 28.0273 28.7915 27.958C28.8782 27.8765 28.9559 27.8034 29.0384 27.7112C29.1096 27.6317 29.1806 27.58 29.236 27.4818C29.2738 27.4147 29.285 27.3228 29.3178 27.2494C29.387 27.095 29.4311 26.8681 29.4478 26.7006C29.4554 26.6239 29.487 26.4832 29.5167 26.4131C29.5814 26.2599 29.5722 26.1466 29.5998 25.9789C29.6193 25.8607 29.6804 25.7715 29.6804 25.6464C29.6804 25.4586 29.6804 25.2708 29.6804 25.083C29.6804 25.0117 29.7018 24.875 29.6687 24.8085C29.6279 24.7264 29.6804 24.5307 29.6804 24.4382C29.6804 24.1068 29.7867 23.808 29.8442 23.4871C29.9039 23.1532 29.9374 22.839 29.9026 22.4968C29.8877 22.3499 29.8909 22.2031 29.8909 22.0554C29.8909 21.9446 29.8833 21.9457 29.8961 22.0685C29.9326 22.4167 30.0313 22.7269 30.0313 23.0835C30.0313 23.4459 30.0547 23.806 30.0547 24.1682C30.0547 24.7168 30.0313 25.2654 30.0313 25.8148C30.0313 26.1284 29.9165 26.3141 29.8078 26.5873C29.758 26.7124 29.7998 26.841 29.7636 26.9648C29.7285 27.0846 29.6988 27.1943 29.6687 27.3177C29.6326 27.4655 29.611 27.6318 29.5167 27.7489C29.4787 27.7961 29.4792 27.8663 29.4348 27.9159C29.4015 27.9532 29.4008 28.0006 29.3646 28.0365C29.3315 28.0694 29.328 28.0571 29.3295 28.0045C29.3343 27.8417 29.3993 27.6712 29.4335 27.5137C29.6289 26.6157 29.7506 25.7218 29.7506 24.7955C29.7506 23.9416 29.6589 23.1082 29.5531 22.2631C29.5229 22.022 29.5401 21.7712 29.5401 21.5283C29.5401 21.2854 29.5184 21.0638 29.4946 20.8241C29.4702 20.5786 29.3802 20.3033 29.2944 20.0748C29.1893 19.7946 29.118 19.5067 29.0488 19.2166C29.0159 19.0789 28.9519 18.9725 28.9085 18.8406C28.8416 18.6371 28.8149 18.3998 28.8149 18.1828C28.8149 17.9357 28.7192 17.7148 28.698 17.4771C28.6792 17.2678 28.6985 17.0166 28.6057 16.8265C28.549 16.7105 28.5475 16.6053 28.4692 16.4955C28.36 16.3423 28.3304 16.1292 28.286 15.9422C28.2307 15.7095 28.1101 15.5699 28.0053 15.3701C27.9636 15.2907 27.9258 15.1918 27.8688 15.1247C27.821 15.0685 27.756 15.0498 27.7259 14.9737C27.6406 14.758 27.4969 14.6033 27.3412 14.4568C27.3153 14.4324 27.0634 14.2629 27.0605 14.3464C27.0591 14.3863 27.0382 14.5395 27.0852 14.5483C27.1599 14.5622 27.228 14.5947 27.2996 14.6223C27.4897 14.6955 27.6381 14.8564 27.8117 14.9534C27.8599 14.9804 27.9213 14.964 27.9728 14.9795C28.037 14.9988 28.0748 15.0572 28.1365 15.0783C28.2864 15.1294 28.3576 15.2672 28.464 15.3861C28.5545 15.4871 28.5445 15.5785 28.6005 15.6925C28.6862 15.8671 28.7792 16.0047 28.8435 16.1934C28.8739 16.2827 28.9189 16.3766 28.9293 16.4722C28.9454 16.6208 28.9253 16.7591 28.9696 16.905C29.0221 17.0779 29.0652 17.2526 29.145 17.4132C29.2702 17.6652 29.4289 17.908 29.5193 18.1799C29.5988 18.4192 29.5868 18.7657 29.5868 19.0192C29.5868 19.0593 29.609 19.2545 29.5765 19.2747C29.4429 19.3576 29.4178 19.1359 29.3971 19.0526C29.2902 18.6212 29.1263 18.2136 29.0176 17.782C28.9314 17.4394 28.7592 17.1385 28.62 16.8193C28.5496 16.6579 28.4442 16.5254 28.3809 16.359C28.2961 16.1362 28.2464 15.8692 28.1963 15.6344C28.0986 15.176 28.0108 14.7188 28.0612 14.2477C28.0934 13.9456 28.1087 13.6846 28.0014 13.3997C27.9824 13.3494 28.0076 13.2885 27.991 13.237C27.9767 13.1927 27.8896 13.0149 27.9416 13.0628C28.1493 13.254 28.2725 13.5184 28.425 13.7598C28.626 14.0778 28.8447 14.4745 28.9384 14.8561C28.9918 15.0739 29.1113 15.2784 29.1476 15.4965C29.2144 15.8977 29.236 16.2968 29.236 16.7075C29.236 16.9622 29.3209 17.1947 29.3295 17.4451C29.3337 17.5652 29.3114 17.3423 29.3061 17.3188C29.2715 17.1639 29.2414 16.9957 29.1892 16.8498" stroke="#FE4F02" stroke-linecap="round"/>
<path d="M26.0547 12.0547C25.9419 12.0652 25.8007 12.0449 25.7053 12.1139C25.6086 12.1838 25.4907 12.2284 25.392 12.2989C25.3512 12.328 25.301 12.3377 25.2602 12.3667C25.2114 12.4013 25.1652 12.4259 25.1102 12.4499C25.0173 12.4905 24.8947 12.5258 24.8151 12.587C24.7826 12.6119 24.7433 12.6192 24.7414 12.6681C24.74 12.7055 24.7231 12.7279 24.708 12.7613C24.6784 12.8266 24.6364 12.8757 24.5942 12.9343C24.5648 12.9749 24.5526 13.0216 24.5246 13.0633C24.4883 13.1174 24.4408 13.1574 24.3927 13.1997C24.3493 13.2379 24.3219 13.2966 24.2776 13.3308C24.224 13.3722 24.207 13.454 24.1812 13.5104C24.1674 13.5406 24.1776 13.577 24.1658 13.6089C24.1417 13.6744 24.1245 13.7042 24.127 13.7766C24.1289 13.8326 24.1434 13.8543 24.1176 13.911C24.0947 13.9613 24.0864 14.0074 24.0547 14.0547" stroke="#FE4F02" stroke-linecap="round"/>
<path d="M25.0547 12.0547C24.9988 12.0967 24.9465 12.1428 24.8885 12.1827C24.8131 12.2347 24.7284 12.2734 24.6471 12.3179C24.5825 12.3533 24.5255 12.3947 24.4669 12.4365C24.4323 12.4612 24.3894 12.4752 24.3572 12.5023C24.3117 12.5407 24.2787 12.5662 24.2601 12.6177C24.247 12.6541 24.2053 12.6808 24.1854 12.7143C24.1617 12.7543 24.1074 12.7947 24.1051 12.8403C24.1034 12.8736 24.1008 12.9107 24.1116 12.9428C24.1284 12.9922 24.0929 13.0225 24.0547 13.0547" stroke="#FE4F02" stroke-linecap="round"/>
</svg>
