<svg width="50" height="50" viewBox="0 0 50 50" fill="none" xmlns="http://www.w3.org/2000/svg">
<path d="M38.5 33.7C40.9 33.7 42.8 31.8 42.8 29.4C42.8 27 40.9 25.1 38.5 25.1C36.1 25.1 34.2 27 34.2 29.4C34.2 31.7 36.1 33.7 38.5 33.7ZM10.5 25C8.10001 25 6.20001 26.9 6.20001 29.3C6.20001 31.7 8.10001 33.6 10.5 33.6C12.9 33.6 14.8 31.7 14.8 29.3C14.9 27 12.9 25 10.5 25Z" fill="#352F2E"/>
<path d="M49 26.9003C48.5 23.7003 47.8 21.6003 46.7 20.2003C46.4 19.7003 45.8 19.4003 45.2 19.4003H43.7L43.8 19.2003L46.2 18.8003C46.7 18.7003 47.1 18.2003 47 17.7003C46.9 17.2003 46.4 16.8003 45.9 16.9003L43 17.4003C41.5 17.6003 42.6 20.1003 40.6 19.2003C30.6 14.7003 22.9 16.0003 16 19.8003C15.7 19.9003 15.5 20.0003 15.2 20.1003C14.2 20.3003 6.3 19.5003 1.3 25.5003C1.1 25.6003 1 25.8003 1 26.1003V28.6003C1 29.6003 1.8 30.4003 2.8 30.4003H4.3C4.2 30.1003 4.2 29.7003 4.2 29.4003C4.2 25.9003 7 23.1003 10.5 23.1003C14 23.1003 16.8 25.9003 16.8 29.4003C16.8 29.7003 16.8 30.1003 16.7 30.4003H32.2C32.1 30.1003 32.1 29.7003 32.1 29.4003C32.1 25.9003 34.9 23.1003 38.4 23.1003C41.9 23.1003 44.7 25.9003 44.7 29.4003C44.7 29.7003 44.7 30.1003 44.6 30.4003H46C46.9 30.4003 47.7 30.0003 48.3 29.3003C48.8 28.7003 49.1 27.8003 49 26.9003ZM28 20.8003L17.9 21.7003L17.4 21.3003C22.2 18.8003 24.6 18.3003 28.7 18.4003L28 20.8003ZM30.2 20.6003L30.8 18.6003C31.4 18.7003 32 18.7003 32.6 18.9003L33.2 20.4003L30.2 20.6003Z" fill="#352F2E"/>
</svg>
