<svg width="32" height="33" viewBox="0 0 32 33" fill="none" xmlns="http://www.w3.org/2000/svg">
<path d="M19.369 22.1949C20.0897 21.1554 20.4916 19.9284 20.5257 18.664C20.5598 17.3996 20.2246 16.1527 19.561 15.0759L22.06 12.5769C22.8925 12.873 23.8054 12.8488 24.621 12.5089C25.251 12.2439 25.367 11.3889 24.884 10.9059L21.58 7.60289C21.096 7.11889 20.24 7.23589 19.975 7.86789C19.6291 8.69804 19.6101 9.62836 19.922 10.4719L17.439 12.9549C16.3622 12.2913 15.1153 11.9561 13.8509 11.9902C12.5865 12.0243 11.3595 12.4262 10.32 13.1469C9.81901 13.4959 9.77801 14.2309 10.21 14.6629L17.853 22.3059C18.285 22.7369 19.019 22.6959 19.369 22.1949Z" fill="#FE4F02"/>
<path d="M6.26392 26.2501L12.9819 17.4121L15.1029 19.5331L6.26392 26.2501Z" fill="#F2EDE1"/>
<path d="M25.2362 10.5532L21.9332 7.25025C21.7559 7.07314 21.5376 6.94251 21.2978 6.86994C21.0579 6.79738 20.8039 6.78512 20.5582 6.83425C20.0792 6.92825 19.6982 7.23524 19.5132 7.67524C19.1592 8.51827 19.1021 9.45651 19.3512 10.3362L17.3562 12.3312C16.2179 11.7133 14.9301 11.4241 13.6369 11.4959C12.3437 11.5678 11.0959 11.9979 10.0332 12.7382C9.8583 12.8605 9.71249 13.0198 9.60603 13.2047C9.49958 13.3896 9.4351 13.5956 9.41715 13.8082C9.37715 14.2582 9.53715 14.6992 9.85515 15.0172L12.3092 17.4712L5.86515 25.9502C5.80935 26.0245 5.77529 26.1128 5.76676 26.2053C5.75824 26.2977 5.77559 26.3908 5.81687 26.474C5.85816 26.5572 5.92175 26.6272 6.00056 26.6764C6.07937 26.7255 6.17028 26.7518 6.26315 26.7522C6.37253 26.752 6.47887 26.7162 6.56615 26.6502L15.0452 20.2062L17.4992 22.6602C17.6562 22.8175 17.8459 22.9383 18.0548 23.014C18.2638 23.0897 18.4868 23.1184 18.7082 23.0982C18.9208 23.0804 19.1269 23.0159 19.3118 22.9095C19.4967 22.803 19.6559 22.6571 19.7782 22.4822C20.5182 21.4194 20.9482 20.1716 21.0201 18.8785C21.092 17.5853 20.8029 16.2976 20.1852 15.1592L22.1992 13.1452C23.0658 13.3805 23.9863 13.3193 24.8142 12.9712C25.2532 12.7872 25.5592 12.4072 25.6532 11.9282C25.7021 11.6824 25.6896 11.4284 25.6169 11.1885C25.5441 10.9487 25.4134 10.7305 25.2362 10.5532ZM8.88115 23.6342L13.0242 18.1832L14.3322 19.4912L8.88115 23.6342ZM24.4272 12.0492C23.7263 12.3421 22.9414 12.3627 22.2262 12.1072C22.1372 12.0755 22.0411 12.0697 21.949 12.0906C21.8569 12.1115 21.7727 12.1582 21.7062 12.2252L19.2072 14.7242C19.1276 14.8038 19.0772 14.9079 19.0641 15.0197C19.051 15.1315 19.0761 15.2444 19.1352 15.3402C19.7499 16.3334 20.0608 17.4846 20.0293 18.6522C19.9979 19.8198 19.6255 20.9527 18.9582 21.9112C18.9193 21.966 18.8689 22.0115 18.8105 22.0445C18.7521 22.0775 18.6871 22.0972 18.6202 22.1022C18.5444 22.1095 18.468 22.0998 18.3965 22.0741C18.3249 22.0483 18.2599 22.0071 18.2062 21.9532L15.4962 19.2432C15.4812 19.2232 15.4742 19.1992 15.4562 19.1812L13.3352 17.0602C13.3172 17.0422 13.2932 17.0352 13.2732 17.0202L10.5632 14.3102C10.5095 14.2564 10.4683 14.1914 10.4425 14.1199C10.4168 14.0483 10.4071 13.972 10.4142 13.8962C10.4191 13.8293 10.4388 13.7643 10.4718 13.7059C10.5048 13.6474 10.5504 13.597 10.6052 13.5582C11.6074 12.8591 12.8002 12.4846 14.0222 12.4852C15.1122 12.4852 16.2062 12.7832 17.1752 13.3812C17.271 13.4402 17.3839 13.4651 17.4956 13.452C17.6074 13.439 17.7115 13.3887 17.7912 13.3092L20.2742 10.8272C20.3417 10.7598 20.3885 10.6744 20.409 10.5812C20.4296 10.488 20.423 10.3908 20.3902 10.3012C20.1202 9.5767 20.136 8.77662 20.4342 8.06324C20.462 7.99899 20.5056 7.94273 20.5608 7.89959C20.616 7.85645 20.6811 7.8278 20.7502 7.81625C20.8349 7.7994 20.9225 7.80353 21.0053 7.82828C21.0881 7.85303 21.1636 7.89765 21.2252 7.95824L24.5282 11.2612C24.5886 11.3229 24.6332 11.3984 24.6582 11.4811C24.6831 11.5639 24.6875 11.6514 24.6712 11.7362C24.66 11.8047 24.6319 11.8693 24.5892 11.924C24.5466 11.9787 24.4908 12.0218 24.4272 12.0492Z" fill="#243746"/>
</svg>
