<svg width="14" height="15" viewBox="0 0 14 15" fill="none" xmlns="http://www.w3.org/2000/svg">
<path d="M6.49339 0.885489C6.65285 0.371503 7.34715 0.371504 7.50661 0.885491L8.79391 5.03488C8.86522 5.26474 9.06974 5.42037 9.30051 5.42037H13.4663C13.9823 5.42037 14.1969 6.11194 13.7794 6.4296L10.4092 8.99406C10.2225 9.13612 10.1444 9.38794 10.2157 9.6178L11.503 13.7672C11.6625 14.2812 11.1008 14.7086 10.6833 14.3909L7.3131 11.8265C7.1264 11.6844 6.8736 11.6844 6.6869 11.8265L3.31671 14.3909C2.89924 14.7086 2.33754 14.2812 2.497 13.7672L3.7843 9.6178C3.85561 9.38794 3.77749 9.13612 3.59079 8.99406L0.220598 6.4296C-0.196869 6.11193 0.0176825 5.42037 0.5337 5.42037H4.69949C4.93026 5.42037 5.13478 5.26474 5.20609 5.03488L6.49339 0.885489Z" fill="#C8C8C8"/>
</svg>
