<svg width="51" height="50" viewBox="0 0 51 50" fill="none" xmlns="http://www.w3.org/2000/svg">
<path d="M26.0164 13.9994C26.0268 13.1039 25.6759 11.1229 26.7429 11.0065C29.3874 11.0506 32.0381 11.016 34.6831 11.0149L36.9168 11.0134C38.3854 11.0124 38.647 10.7603 38.6401 12.4911L38.6403 13.9959C39.8308 13.9572 41.0271 13.9785 42.2183 13.9804C45.0814 13.985 44.6464 15.6056 44.6453 17.8701L44.6452 29.8704C44.6455 30.527 44.6382 31.1844 44.6483 31.8409C44.6811 33.965 44.2202 34.125 42.1365 33.9792C41.3386 29.5611 36.1274 27.6565 32.7815 30.4729C31.7543 31.3374 30.8735 32.7011 30.7546 34.0643C29.4732 34.0169 28.1823 34.046 26.8996 34.0459L20.5505 34.05C19.7606 34.043 18.9699 34.0609 18.1804 34.0314C17.939 31.4344 15.4945 29.3377 12.9582 29.178C10.1259 28.9996 7.07013 31.1427 6.90951 34.0714C6.03402 34.0171 5.14635 34.0476 4.26919 34.0478C3.79896 34.0478 2.6669 34.2222 2.58697 33.5287C2.4433 32.2823 2.50854 29.607 2.56402 28.3212C2.6011 27.4619 3.12121 27.3996 3.86466 27.4359C3.93883 24.4332 3.11937 23.1131 6.94518 23.1137L16.0179 23.1121C16.5713 21.5208 17.298 19.9653 17.9556 18.4154L18.6456 16.7718C19.1119 15.6474 19.5398 14.458 20.8614 14.1144C21.826 13.8636 24.8446 13.9468 26.0164 13.9994ZM27.3257 12.3102C27.3149 12.8627 27.3165 13.4149 27.3183 13.9673C30.5393 14.074 34.1274 14.0455 37.3514 13.971C37.3694 13.4232 37.3591 12.8754 37.375 12.3279L27.3257 12.3102ZM22.0163 17.1057C21.4296 17.3084 20.8903 19.1582 20.6437 19.7457C20.3347 20.4817 19.9772 21.2057 19.7005 21.9536C21.6612 22.0185 23.6824 21.9955 25.6447 21.9613L27.9485 21.9699C27.9834 21.0243 27.9675 20.0749 27.9674 19.1287C27.9673 18.2324 28.2953 17.1463 27.142 17.1024C25.6733 17.0465 23.4706 17.0012 22.0163 17.1057ZM32.4625 17.1058C32.136 17.1616 31.863 17.3194 31.8286 17.6691C31.7714 18.2516 31.7804 20.9965 31.8657 21.44C32.0189 22.236 33.3479 21.969 34.0232 21.968L39.1485 21.9668C39.6631 21.9666 40.1816 21.9786 40.6955 21.9491C41.5634 21.8402 41.2806 20.6045 41.2802 19.9931C41.2797 19.3023 41.3416 18.1151 41.2363 17.4806C40.7703 16.9079 39.8044 17.094 39.1367 17.0952L33.9984 17.0968C33.4903 17.0967 32.9686 17.0727 32.4625 17.1058ZM46.5333 33.0433C45.0122 32.9551 45.1531 31.9606 45.1536 30.829L45.1539 25.9793C45.1542 24.8678 44.8973 23.4972 46.3714 23.2878C48.0527 23.1252 47.7387 24.3036 47.7381 25.4626L47.7376 30.7549C47.7378 31.9348 48.0625 33.0049 46.5333 33.0433Z" fill="white"/>
<path d="M12.7982 39.1957C11.627 39.2246 10.6841 38.9872 9.76311 38.2252C6.58665 35.598 8.44029 30.8588 12.3194 30.5283C14.5828 30.417 16.7226 32.2304 16.8946 34.5062C17.0832 37.0006 15.267 39.0112 12.7982 39.1957ZM12.3746 33.875C10.9108 34.2736 11.2958 36.2288 12.7321 36.0379C14.0959 35.6408 13.7947 33.775 12.3746 33.875ZM36.536 39.2218C34.2363 39.2619 32.212 37.428 32.0526 35.1206C31.8777 32.5885 33.9485 30.6753 36.3799 30.5287C41.8426 30.4095 42.6348 38.7904 36.536 39.2218ZM36.4115 33.8524C34.8991 34.0823 35.0361 36.0944 36.5466 36.0667C37.961 35.836 37.7968 33.8126 36.4115 33.8524Z" fill="white"/>
</svg>
