<svg width="29" height="24" viewBox="0 0 29 24" fill="none" xmlns="http://www.w3.org/2000/svg">
<path d="M25.8082 0.205848C22.0879 1.74646 6.13647 8.35388 1.72895 10.1548C-1.22701 11.3083 0.503289 12.3897 0.503289 12.3897C0.503289 12.3897 3.02645 13.2547 5.18924 13.9036C7.35204 14.5525 8.50557 13.8315 8.50557 13.8315L18.6706 6.98246C22.2752 4.53144 21.4102 6.54996 20.5452 7.41496C18.6706 9.28952 15.5707 12.2452 12.9754 14.6244C11.8219 15.6336 12.3987 16.4989 12.9033 16.9314C14.7778 18.5175 19.8963 21.7617 20.1848 21.9781C21.7079 23.0562 24.7037 24.6084 25.1593 21.3292L26.9617 10.0106C27.5385 6.1896 28.1153 2.65688 28.1874 1.64761C28.4035 -0.803417 25.8082 0.205848 25.8082 0.205848Z" fill="white"/>
</svg>
