<svg width="32" height="33" viewBox="0 0 32 33" fill="none" xmlns="http://www.w3.org/2000/svg">
<path d="M17.15 18.105L14.5 20H9.5V18H13.5L15.25 16.75L17.15 18.105Z" fill="#FFFDF3"/>
<path d="M27.4999 16.5V15H21.4999L19.0499 16.75L17.1499 15.395L20.4999 13H27.4999V11.5L30.9999 14L27.4999 16.5Z" fill="#FFFDF3"/>
<path d="M28 19.5L24.5 17V18.5H21.5L14.5 13.5H9.5V15.5H13.5L20.5 20.5H24.5V22L28 19.5Z" fill="#FE4F02"/>
<path d="M19 21.5L18.615 22C17.2795 23.2415 15.488 24 13.52 24C9.38002 24 6.02002 20.64 6.02002 16.5C6.02002 12.36 9.38002 9 13.52 9C15.2075 9 16.765 9.558 18.0565 10.7385L19 11.5L22.018 9.255L20.6235 8.176L21.5 6.675L18.04 4.675L17.195 6.13C16.655 5.94 16.095 5.79 15.52 5.685V4H11.52V5.685C10.945 5.79 10.385 5.94 9.84502 6.13L9.00002 4.675L5.54002 6.675L6.38002 8.135C5.94002 8.51 5.53002 8.92 5.15502 9.36L3.69502 8.52L1.69502 11.98L3.15002 12.825C2.96002 13.365 2.81002 13.925 2.70502 14.5H1.02002V18.5H2.70502C2.81002 19.075 2.96002 19.635 3.15002 20.175L1.69502 21.02L3.69502 24.48L5.15502 23.64C5.53002 24.08 5.94002 24.49 6.38002 24.865L5.54002 26.325L9.00002 28.325L9.84502 26.87C10.385 27.06 10.945 27.21 11.52 27.315V29H15.52V27.315C16.095 27.21 16.655 27.06 17.195 26.87L18.04 28.325L21.5 26.325L20.5 25L21.7745 23.587L19 21.5Z" fill="#69687C"/>
<path d="M13.5 9.5C15.4895 9.5 17.389 10.35 18.712 11.833L19.458 11.167C17.9455 9.472 15.774 8.5 13.5 8.5C9.089 8.5 5.5 12.089 5.5 16.5C5.5 20.911 9.089 24.5 13.5 24.5C15.774 24.5 17.9455 23.528 19.458 21.833L18.712 21.167C17.389 22.65 15.4895 23.5 13.5 23.5C9.64 23.5 6.5 20.36 6.5 16.5C6.5 12.64 9.64 9.5 13.5 9.5Z" fill="#243746"/>
<path d="M2.276 19C2.3465 19.3185 2.4305 19.6345 2.5275 19.9465L1.4235 20.588C1.185 20.726 1.104 21.032 1.242 21.27L3.242 24.73C3.3795 24.969 3.6845 25.0505 3.924 24.9135L5.0305 24.277C5.2515 24.5175 5.483 24.749 5.723 24.9695L5.0865 26.076C4.949 26.3155 5.031 26.6205 5.2695 26.7585L8.7295 28.7585C8.968 28.8955 9.2735 28.8145 9.412 28.5765L10.053 27.473C10.365 27.57 10.6815 27.654 11 27.7245V29C11 29.2765 11.224 29.5 11.5 29.5H15.5C15.776 29.5 16 29.2765 16 29V27.724C16.3185 27.6535 16.635 27.5695 16.947 27.4725L17.588 28.576C17.7265 28.815 18.0325 28.8965 18.2705 28.758L21.7305 26.758C21.9695 26.62 22.051 26.3145 21.9135 26.0755L21.277 24.969C21.6195 24.655 21.9445 24.318 22.246 23.964L21.485 23.3155C21.1275 23.735 20.7345 24.128 20.3165 24.4845C20.133 24.6405 20.0875 24.9055 20.2075 25.1145L20.7985 26.142L18.203 27.6425L17.6085 26.619C17.4875 26.411 17.236 26.3195 17.01 26.3985C16.4895 26.5815 15.9515 26.7245 15.411 26.8235C15.1735 26.8665 15.001 27.0735 15.001 27.315V28.5H12.001V27.315C12.001 27.0735 11.8285 26.8665 11.591 26.8235C11.0505 26.725 10.5125 26.582 9.992 26.3985C9.7655 26.3195 9.514 26.411 9.3935 26.619L8.799 27.6425L6.2035 26.142L6.7945 25.1145C6.9145 24.9055 6.8685 24.641 6.6855 24.4845C6.2675 24.128 5.874 23.735 5.517 23.3155C5.3605 23.1325 5.0965 23.086 4.887 23.206L3.8595 23.7975L2.359 21.2015L3.3825 20.607C3.59 20.4865 3.6825 20.2355 3.603 20.009C3.418 19.488 3.2755 18.95 3.177 18.41C3.1335 18.173 2.9265 18 2.685 18H1.5V15H2.685C2.9265 15 3.1335 14.827 3.177 14.59C3.2755 14.05 3.418 13.5125 3.6015 12.9915C3.681 12.765 3.5885 12.514 3.381 12.3935L2.3575 11.799L3.858 9.203L4.8855 9.7945C5.0945 9.9145 5.359 9.8685 5.5155 9.685C5.873 9.2655 6.266 8.8725 6.684 8.516C6.8675 8.36 6.913 8.095 6.793 7.886L6.202 6.8585L8.7975 5.358L9.392 6.3815C9.5125 6.5895 9.764 6.681 9.9905 6.602C10.511 6.419 11.049 6.276 11.5895 6.177C11.827 6.134 11.9995 5.927 11.9995 5.6855V4.5H14.9995V5.685C14.9995 5.9265 15.172 6.1335 15.4095 6.1765C15.95 6.275 16.488 6.418 17.0085 6.6015C17.234 6.68 17.486 6.589 17.607 6.381L18.2015 5.3575L20.797 6.858L20.206 7.8855C20.086 8.0945 20.132 8.359 20.315 8.5155C20.733 8.872 21.1265 9.265 21.4835 9.6845L22.2445 9.036C21.943 8.682 21.618 8.345 21.2755 8.031L21.912 6.9245C22.0495 6.685 21.9675 6.38 21.729 6.242L18.269 4.242C18.03 4.1045 17.725 4.1855 17.5865 4.424L16.9455 5.5275C16.635 5.43 16.3185 5.346 16 5.276V4C16 3.7235 15.776 3.5 15.5 3.5H11.5C11.224 3.5 11 3.7235 11 4V5.276C10.6815 5.3465 10.365 5.4305 10.053 5.5275L9.412 4.424C9.2735 4.1855 8.9685 4.1045 8.7295 4.242L5.2695 6.242C5.0305 6.38 4.949 6.6855 5.0865 6.9245L5.723 8.031C5.483 8.251 5.2515 8.4825 5.0305 8.7235L3.924 8.087C3.685 7.949 3.38 8.031 3.242 8.27L1.242 11.73C1.104 11.9685 1.1855 12.274 1.4235 12.412L2.5275 13.0535C2.43 13.3655 2.346 13.6815 2.276 14H1C0.724 14 0.5 14.2235 0.5 14.5V18.5C0.5 18.7765 0.724 19 1 19H2.276Z" fill="#243746"/>
<path d="M31.2905 13.5928L27.7905 11.0928C27.638 10.9838 27.4375 10.9703 27.271 11.0548C27.1045 11.1403 27 11.3118 27 11.4993V12.4993H20.5C20.396 12.4993 20.294 12.5318 20.209 12.5928L17.15 14.7798L14.791 13.0928C14.706 13.0318 14.604 12.9993 14.5 12.9993H9.5C9.224 12.9993 9 13.2228 9 13.4993V15.4993C9 15.7758 9.224 15.9993 9.5 15.9993H13.34L14.39 16.7493L13.34 17.4993H9.5C9.224 17.4993 9 17.7228 9 17.9993V19.9993C9 20.2758 9.224 20.4993 9.5 20.4993H14.5C14.604 20.4993 14.706 20.4668 14.791 20.4058L17.15 18.7188L20.2095 20.9058C20.294 20.9668 20.396 20.9993 20.5 20.9993H24V21.9993C24 22.1868 24.1045 22.3583 24.271 22.4443C24.3435 22.4813 24.422 22.4993 24.5 22.4993C24.6025 22.4993 24.704 22.4683 24.7905 22.4058L28.2905 19.9058C28.422 19.8123 28.5 19.6608 28.5 19.4993C28.5 19.3378 28.422 19.1863 28.2905 19.0928L24.7905 16.5928C24.638 16.4833 24.4375 16.4703 24.271 16.5548C24.1045 16.6403 24 16.8118 24 16.9993V17.9993H21.66L19.91 16.7493L21.66 15.4993H27V16.4993C27 16.6868 27.1045 16.8583 27.271 16.9443C27.4375 17.0303 27.638 17.0158 27.7905 16.9063L31.2905 14.4063C31.422 14.3123 31.5 14.1608 31.5 13.9993C31.5 13.8378 31.422 13.6863 31.2905 13.5928ZM14.3395 19.4993H10V18.4993H13.5C13.604 18.4993 13.706 18.4668 13.7905 18.4058L15.25 17.3633L16.2895 18.1043L14.3395 19.4993ZM21.5 18.9993H24.5C24.776 18.9993 25 18.7758 25 18.4993V17.9708L27.1395 19.4993L25 21.0278V20.4993C25 20.2228 24.776 19.9993 24.5 19.9993H20.6605L17.441 17.6978L17.4405 17.6973L15.5405 16.3423L15.539 16.3418L13.7905 15.0928C13.706 15.0318 13.604 14.9993 13.5 14.9993H10V13.9993H14.3395L16.859 15.8008L16.8595 15.8013L18.7595 17.1563L18.761 17.1568L21.209 18.9058C21.294 18.9668 21.396 18.9993 21.5 18.9993ZM28 15.5278V14.9993C28 14.7228 27.776 14.4993 27.5 14.4993H21.5C21.396 14.4993 21.294 14.5318 21.2095 14.5928L19.05 16.1348L18.0105 15.3938L20.6605 13.4993H27.5C27.776 13.4993 28 13.2758 28 12.9993V12.4708L30.1395 13.9993L28 15.5278Z" fill="#243746"/>
</svg>
