<svg width="50" height="50" viewBox="0 0 50 50" fill="none" xmlns="http://www.w3.org/2000/svg">
<g clip-path="url(#clip0_2398_12734)">
<path fill-rule="evenodd" clip-rule="evenodd" d="M6.05872 35.5585C6.05872 34.9367 6.1812 34.3209 6.41917 33.7464C6.65714 33.1719 7.00594 32.6499 7.44565 32.2102C7.88536 31.7705 8.40738 31.4217 8.98189 31.1837C9.5564 30.9457 10.1722 30.8232 10.794 30.8232C11.4159 30.8232 12.0316 30.9457 12.6061 31.1837C13.1806 31.4217 13.7027 31.7705 14.1424 32.2102C14.5821 32.6499 14.9309 33.1719 15.1689 33.7464C15.4068 34.3209 15.5293 34.9367 15.5293 35.5585C15.5293 36.8144 15.0304 38.0189 14.1424 38.9069C13.2543 39.7949 12.0499 40.2938 10.794 40.2938C9.53813 40.2938 8.33369 39.7949 7.44565 38.9069C6.55761 38.0189 6.05872 36.8144 6.05872 35.5585ZM12.8234 35.5585C12.8234 35.0203 12.6096 34.5041 12.229 34.1235C11.8484 33.7429 11.3322 33.5291 10.794 33.5291C10.2558 33.5291 9.73959 33.7429 9.359 34.1235C8.97841 34.5041 8.7646 35.0203 8.7646 35.5585C8.7646 36.0968 8.97841 36.613 9.359 36.9935C9.73959 37.3741 10.2558 37.5879 10.794 37.5879C11.3322 37.5879 11.8484 37.3741 12.229 36.9935C12.6096 36.613 12.8234 36.0968 12.8234 35.5585ZM34.4705 35.5585C34.4705 34.9367 34.593 34.3209 34.8309 33.7464C35.0689 33.1719 35.4177 32.6499 35.8574 32.2102C36.2971 31.7705 36.8191 31.4217 37.3937 31.1837C37.9682 30.9457 38.5839 30.8232 39.2058 30.8232C39.8276 30.8232 40.4434 30.9457 41.0179 31.1837C41.5924 31.4217 42.1144 31.7705 42.5541 32.2102C42.9939 32.6499 43.3426 33.1719 43.5806 33.7464C43.8186 34.3209 43.9411 34.9367 43.9411 35.5585C43.9411 36.8144 43.4422 38.0189 42.5541 38.9069C41.6661 39.7949 40.4617 40.2938 39.2058 40.2938C37.9499 40.2938 36.7455 39.7949 35.8574 38.9069C34.9694 38.0189 34.4705 36.8144 34.4705 35.5585ZM41.2352 35.5585C41.2352 35.0203 41.0214 34.5041 40.6408 34.1235C40.2602 33.7429 39.744 33.5291 39.2058 33.5291C38.6675 33.5291 38.1514 33.7429 37.7708 34.1235C37.3902 34.5041 37.1764 35.0203 37.1764 35.5585C37.1764 36.0968 37.3902 36.613 37.7708 36.9935C38.1514 37.3741 38.6675 37.5879 39.2058 37.5879C39.744 37.5879 40.2602 37.3741 40.6408 36.9935C41.0214 36.613 41.2352 36.0968 41.2352 35.5585Z" fill="#352F2E"/>
<path fill-rule="evenodd" clip-rule="evenodd" d="M44.6176 13.2354H23.6471C23.3214 13.2353 23.0066 13.3528 22.7606 13.5661C22.5146 13.7795 22.3537 14.0745 22.3076 14.3969L21.3369 21.1913C21.2219 22.0024 20.4095 22.7059 19.5889 22.7059H8.08824C7.8106 22.706 7.53971 22.7915 7.31232 22.9508C7.04782 23.1355 6.69335 23.3905 6.22997 23.7274C5.74918 24.0773 5.26978 24.429 4.79179 24.7827C3.20682 25.8921 2 28.2124 2 30.1478V34.2059C2 34.5648 2.14254 34.9089 2.39627 35.1626C2.64999 35.4163 2.99412 35.5589 3.35294 35.5589H4.70588C4.70588 33.9442 5.34732 32.3956 6.48909 31.2539C7.63085 30.1121 9.17942 29.4706 10.7941 29.4706C12.4088 29.4706 13.9574 30.1121 15.0991 31.2539C16.2409 32.3956 16.8824 33.9442 16.8824 35.5589H33.1176C33.1176 33.9442 33.7591 32.3956 34.9008 31.2539C36.0426 30.1121 37.5912 29.4706 39.2059 29.4706C40.8206 29.4706 42.3691 30.1121 43.5109 31.2539C44.6527 32.3956 45.2941 33.9442 45.2941 35.5589H46.6471C47.0059 35.5589 47.35 35.4163 47.6037 35.1626C47.8575 34.9089 48 34.5648 48 34.2059V27.4412C48.0001 27.3706 47.9947 27.3 47.9838 27.2302L46.1979 15.9223C46.5325 15.8657 46.8336 15.6854 47.0416 15.4172C47.2495 15.149 47.349 14.8124 47.3204 14.4743C47.2918 14.1361 47.1372 13.821 46.8871 13.5915C46.6371 13.3621 46.31 13.2349 45.9706 13.2354H44.6176Z" fill="#352F2E"/>
<path fill-rule="evenodd" clip-rule="evenodd" d="M13.4996 15.9412C14.651 14.4063 16.9916 13.2354 18.9114 13.2354H23.6467C24.0055 13.2354 24.3496 13.3779 24.6034 13.6316C24.8571 13.8853 24.9996 14.2295 24.9996 14.5883C24.9996 14.9471 24.8571 15.2912 24.6034 15.545C24.3496 15.7987 24.0055 15.9412 23.6467 15.9412H18.9114C17.8439 15.9412 16.3043 16.7111 15.6643 17.5648L11.1996 23.5177C11.1077 23.6404 10.9956 23.7465 10.8682 23.8316L8.83874 25.1845C8.69092 25.2831 8.52512 25.3517 8.35081 25.3862C8.17651 25.4207 7.99711 25.4206 7.82286 25.3858C7.64861 25.351 7.48291 25.2822 7.33524 25.1834C7.18757 25.0845 7.06082 24.9576 6.96221 24.8098C6.76306 24.5112 6.69067 24.1458 6.76095 23.7939C6.83123 23.442 7.03843 23.1324 7.33697 22.9332L9.17021 21.7109L13.4996 15.9412Z" fill="#352F2E"/>
</g>
<defs>
<clipPath id="clip0_2398_12734">
<rect width="46" height="27.0588" fill="white" transform="translate(2 13.2354)"/>
</clipPath>
</defs>
</svg>
