<svg width="32" height="33" viewBox="0 0 32 33" fill="none" xmlns="http://www.w3.org/2000/svg">
<path d="M16 31.5C24.2843 31.5 31 24.7843 31 16.5C31 8.21573 24.2843 1.5 16 1.5C7.71573 1.5 1 8.21573 1 16.5C1 24.7843 7.71573 31.5 16 31.5Z" fill="#243746"/>
<path fill-rule="evenodd" clip-rule="evenodd" d="M29.7639 16.5004C29.7639 8.8987 23.6015 2.73633 15.9999 2.73633C8.39828 2.73633 2.23584 8.8987 2.23584 16.5004C2.23584 24.1021 8.39822 30.2644 15.9999 30.2644C23.6016 30.2644 29.7639 24.102 29.7639 16.5004ZM24.0933 12.5251C24.0933 12.1838 24.37 11.9071 24.7113 11.9071C25.0526 11.9071 25.3293 12.1838 25.3293 12.5251V19.4172C25.3293 19.7585 25.0526 20.0352 24.7113 20.0352C24.37 20.0352 24.0933 19.7585 24.0933 19.4172V12.5251ZM21.9154 14.2102C21.9154 13.8689 22.1921 13.5922 22.5334 13.5922C22.8747 13.5922 23.1514 13.8689 23.1514 14.2102V19.4171C23.1514 19.7585 22.8747 20.0351 22.5334 20.0351C22.1921 20.0351 21.9154 19.7585 21.9154 19.4171V14.2102ZM19.7376 14.2102C19.7376 13.8689 20.0143 13.5922 20.3556 13.5922C20.6969 13.5922 20.9736 13.8689 20.9736 14.2102V17.8865C20.9736 18.2278 20.6969 18.5045 20.3556 18.5045C20.0143 18.5045 19.7376 18.2278 19.7376 17.8865V14.2102ZM17.5598 11.3362C17.5598 10.9949 17.8365 10.7182 18.1778 10.7182C18.5191 10.7182 18.7958 10.9949 18.7958 11.3362V19.3141C18.7958 19.6554 18.5191 19.9321 18.1778 19.9321C17.8365 19.9321 17.5598 19.6554 17.5598 19.3141V11.3362ZM15.3819 13.3188C15.3819 12.9775 15.6586 12.7008 15.9999 12.7008C16.3412 12.7008 16.6179 12.9775 16.6179 13.3188V16.7879C16.6179 17.1292 16.3412 17.4059 15.9999 17.4059C15.6586 17.4059 15.3819 17.1292 15.3819 16.7879V13.3188ZM13.2041 14.2102C13.2041 13.8689 13.4808 13.5922 13.8221 13.5922C14.1634 13.5922 14.4401 13.8689 14.4401 14.2102V19.4171C14.4401 19.7585 14.1634 20.0351 13.8221 20.0351C13.4808 20.0351 13.2041 19.7585 13.2041 19.4171V14.2102ZM11.0262 11.9628C11.0262 11.6215 11.3029 11.3448 11.6442 11.3448C11.9855 11.3448 12.2622 11.6215 12.2622 11.9628V21.6646C12.2622 22.0059 11.9855 22.2826 11.6442 22.2826C11.3029 22.2826 11.0262 22.0059 11.0262 21.6646V11.9628ZM8.8484 14.2102C8.8484 13.8689 9.12509 13.5922 9.4664 13.5922C9.80771 13.5922 10.0844 13.8689 10.0844 14.2102V19.4171C10.0844 19.7585 9.80771 20.0351 9.4664 20.0351C9.12509 20.0351 8.8484 19.7585 8.8484 19.4171V14.2102ZM6.67053 15.9446C6.67053 15.6033 6.94721 15.3266 7.28853 15.3266C7.62984 15.3266 7.90653 15.6033 7.90653 15.9446V18.55C7.90653 18.8913 7.62984 19.168 7.28853 19.168C6.94721 19.168 6.67053 18.8913 6.67053 18.55V15.9446Z" fill="#69687C"/>
<path fill-rule="evenodd" clip-rule="evenodd" d="M29.7642 16.5014C29.7642 10.4798 25.897 5.36203 20.5109 3.49447C19.8062 3.37797 19.0829 3.31641 18.3452 3.31641C11.0633 3.31641 5.16016 9.21953 5.16016 16.5015C5.16016 23.7834 11.0633 29.6865 18.3452 29.6865C19.0829 29.6865 19.8062 29.6248 20.5109 29.5084C25.897 27.6408 29.7642 22.5231 29.7642 16.5015V16.5014ZM24.0936 12.5262C24.0936 12.1848 24.3703 11.9082 24.7116 11.9082C25.0529 11.9082 25.3296 12.1848 25.3296 12.5262V19.4182C25.3296 19.7595 25.0529 20.0362 24.7116 20.0362C24.3703 20.0362 24.0936 19.7595 24.0936 19.4182V12.5262ZM21.9157 14.2112C21.9157 13.8699 22.1924 13.5932 22.5337 13.5932C22.875 13.5932 23.1517 13.8699 23.1517 14.2112V19.4182C23.1517 19.7595 22.875 20.0362 22.5337 20.0362C22.1924 20.0362 21.9157 19.7595 21.9157 19.4182V14.2112ZM19.7379 14.2112C19.7379 13.8699 20.0146 13.5932 20.3559 13.5932C20.6972 13.5932 20.9739 13.8699 20.9739 14.2112V17.8875C20.9739 18.2288 20.6972 18.5055 20.3559 18.5055C20.0146 18.5055 19.7379 18.2288 19.7379 17.8875V14.2112ZM17.5601 11.3372C17.5601 10.9959 17.8368 10.7192 18.1781 10.7192C18.5194 10.7192 18.7961 10.9959 18.7961 11.3372V19.3151C18.7961 19.6564 18.5194 19.9331 18.1781 19.9331C17.8368 19.9331 17.5601 19.6564 17.5601 19.3151V11.3372ZM15.3822 13.3198C15.3822 12.9785 15.6589 12.7018 16.0002 12.7018C16.3415 12.7018 16.6182 12.9785 16.6182 13.3198V16.7889C16.6182 17.1302 16.3415 17.4069 16.0002 17.4069C15.6589 17.4069 15.3822 17.1302 15.3822 16.7889V13.3198ZM13.2044 14.2112C13.2044 13.8699 13.4811 13.5932 13.8224 13.5932C14.1637 13.5932 14.4404 13.8699 14.4404 14.2112V19.4182C14.4404 19.7595 14.1637 20.0362 13.8224 20.0362C13.4811 20.0362 13.2044 19.7595 13.2044 19.4182V14.2112ZM11.0265 11.9638C11.0265 11.6225 11.3032 11.3458 11.6445 11.3458C11.9858 11.3458 12.2625 11.6225 12.2625 11.9638V21.6656C12.2625 22.0069 11.9858 22.2836 11.6445 22.2836C11.3032 22.2836 11.0265 22.0069 11.0265 21.6656V11.9638ZM8.84872 14.2112C8.84872 13.8699 9.12541 13.5932 9.46672 13.5932C9.80803 13.5932 10.0847 13.8699 10.0847 14.2112V19.4182C10.0847 19.7595 9.80803 20.0362 9.46672 20.0362C9.12541 20.0362 8.84872 19.7595 8.84872 19.4182V14.2112ZM6.67084 15.9456C6.67084 15.6043 6.94753 15.3276 7.28884 15.3276C7.63016 15.3276 7.90684 15.6043 7.90684 15.9456V18.551C7.90684 18.8923 7.63016 19.169 7.28884 19.169C6.94753 19.169 6.67084 18.8923 6.67084 18.551V15.9456Z" fill="#FE4F02"/>
</svg>
