<svg width="37" height="36" viewBox="0 0 37 36" fill="none" xmlns="http://www.w3.org/2000/svg">
<path d="M3.56006 18C3.56006 9.7155 10.2741 3 18.5601 3C26.8431 3 33.5601 9.7155 33.5601 18C33.5601 26.2845 26.8431 33 18.5601 33C10.2741 33 3.56006 26.2845 3.56006 18Z" fill="#FC3F1D"/>
<path d="M20.4799 11.4984H19.0939C16.5529 11.4984 15.2164 12.7854 15.2164 14.6829C15.2164 16.8279 16.1404 17.8329 18.0379 19.1214L19.6054 20.1774L15.1009 26.9079H11.7349L15.7774 20.8869C13.4524 19.2204 12.1474 17.6019 12.1474 14.8644C12.1474 11.4324 14.5399 9.08936 19.0774 9.08936H23.5819V26.8914H20.4799V11.4984Z" fill="white"/>
</svg>
