<svg width="72" height="92" viewBox="0 0 72 92" fill="none" xmlns="http://www.w3.org/2000/svg">
<g clip-path="url(#clip0_5177_3240)">
<path d="M0 35.6666C0 15.9684 16.1177 0 36 0C55.8823 0 72 15.9684 72 35.6666V85.1779C72 90.0769 66.9394 93.3749 62.3996 91.4352L37.0183 80.5958C36.6966 80.4584 36.3501 80.3875 36 80.3875C35.6499 80.3875 35.3034 80.4584 34.9817 80.5958L9.60171 91.4352C5.05929 93.3749 0 90.0769 0 85.1779V35.6666Z" fill="#F6F6F6"/>
<path d="M19.8887 29.9783C19.8887 21.4145 26.8946 14.4727 35.5408 14.4727C44.184 14.4727 51.193 21.4145 51.193 29.9783C51.193 38.542 44.184 45.4839 35.5408 45.4839C26.8946 45.4839 19.8887 38.542 19.8887 29.9783Z" fill="#FC3F1D"/>
<path d="M37.5447 23.2568H36.0984C33.4469 23.2568 32.0523 24.5872 32.0523 26.5486C32.0523 28.766 33.0165 29.8048 34.9965 31.1368L36.6321 32.2284L31.9318 39.1857H28.4194L32.6377 32.9618C30.2116 31.2391 28.8499 29.566 28.8499 26.7363C28.8499 23.1886 31.3464 20.7666 36.0812 20.7666H40.7815V39.1687H37.5447V23.2568Z" fill="white"/>
<path d="M25.6529 66.6855H18.7299V65.6811L21.5555 62.8121C22.0806 62.2822 22.5214 61.81 22.8779 61.3957C23.2393 60.9814 23.5139 60.5743 23.7018 60.1744C23.8896 59.7697 23.9836 59.3265 23.9836 58.8447C23.9836 58.2473 23.8053 57.7921 23.4488 57.4789C23.0971 57.1609 22.6322 57.002 22.0541 57.002C21.5482 57.002 21.1002 57.0887 20.71 57.2621C20.3197 57.4355 19.9199 57.6812 19.5104 57.9992L18.8672 57.1898C19.1466 56.9538 19.4501 56.7442 19.7777 56.5611C20.1102 56.3781 20.4643 56.2335 20.84 56.1275C21.2206 56.0215 21.6253 55.9686 22.0541 55.9686C22.7045 55.9686 23.2658 56.0818 23.7379 56.3082C24.21 56.5346 24.5738 56.8574 24.8291 57.2766C25.0893 57.6957 25.2193 58.1943 25.2193 58.7725C25.2193 59.3313 25.1085 59.8516 24.8869 60.3334C24.6653 60.8104 24.3546 61.2849 23.9547 61.757C23.5548 62.2243 23.0875 62.7206 22.5527 63.2457L20.2547 65.5365V65.5871H25.6529V66.6855ZM34.1803 61.3885C34.1803 62.246 34.1152 63.012 33.9852 63.6865C33.8551 64.361 33.6503 64.9319 33.3709 65.3992C33.0915 65.8665 32.7301 66.223 32.2869 66.4687C31.8437 66.7096 31.3113 66.8301 30.6898 66.8301C29.9046 66.8301 29.2542 66.6157 28.7387 66.1869C28.228 65.7581 27.845 65.1391 27.5896 64.3297C27.3391 63.5155 27.2139 62.5351 27.2139 61.3885C27.2139 60.2611 27.3271 59.2928 27.5535 58.4834C27.7848 57.6692 28.1557 57.0453 28.6664 56.6117C29.1771 56.1733 29.8516 55.9541 30.6898 55.9541C31.4848 55.9541 32.14 56.1709 32.6555 56.6045C33.171 57.0333 33.554 57.6548 33.8045 58.4689C34.055 59.2783 34.1803 60.2515 34.1803 61.3885ZM28.4207 61.3885C28.4207 62.3713 28.4954 63.1903 28.6447 63.8455C28.7941 64.5007 29.035 64.9921 29.3674 65.3197C29.7046 65.6425 30.1454 65.8039 30.6898 65.8039C31.2342 65.8039 31.6727 65.6425 32.0051 65.3197C32.3423 64.9969 32.5856 64.5079 32.735 63.8527C32.8891 63.1975 32.9662 62.3761 32.9662 61.3885C32.9662 60.4201 32.8915 59.6107 32.7422 58.9604C32.5928 58.3051 32.352 57.8137 32.0195 57.4861C31.6871 57.1537 31.2439 56.9875 30.6898 56.9875C30.1358 56.9875 29.6926 57.1537 29.3602 57.4861C29.0277 57.8137 28.7868 58.3051 28.6375 58.9604C28.493 59.6107 28.4207 60.4201 28.4207 61.3885ZM42.592 66.6855H35.6689V65.6811L38.4945 62.8121C39.0197 62.2822 39.4605 61.81 39.817 61.3957C40.1783 60.9814 40.4529 60.5743 40.6408 60.1744C40.8287 59.7697 40.9227 59.3265 40.9227 58.8447C40.9227 58.2473 40.7444 57.7921 40.3879 57.4789C40.0362 57.1609 39.5713 57.002 38.9932 57.002C38.4873 57.002 38.0393 57.0887 37.649 57.2621C37.2588 57.4355 36.8589 57.6812 36.4494 57.9992L35.8062 57.1898C36.0857 56.9538 36.3892 56.7442 36.7168 56.5611C37.0492 56.3781 37.4033 56.2335 37.7791 56.1275C38.1597 56.0215 38.5644 55.9686 38.9932 55.9686C39.6436 55.9686 40.2048 56.0818 40.677 56.3082C41.1491 56.5346 41.5128 56.8574 41.7682 57.2766C42.0283 57.6957 42.1584 58.1943 42.1584 58.7725C42.1584 59.3313 42.0476 59.8516 41.826 60.3334C41.6044 60.8104 41.2936 61.2849 40.8937 61.757C40.4939 62.2243 40.0266 62.7206 39.4918 63.2457L37.1937 65.5365V65.5871H42.592V66.6855ZM47.4771 60.225C48.195 60.225 48.8189 60.3479 49.3488 60.5936C49.8788 60.8344 50.2883 61.1861 50.5773 61.6486C50.8712 62.1111 51.0182 62.6724 51.0182 63.3324C51.0182 64.0551 50.8616 64.679 50.5484 65.2041C50.2353 65.7244 49.7848 66.1267 49.1971 66.4109C48.6093 66.6904 47.9059 66.8301 47.0869 66.8301C46.5377 66.8301 46.027 66.7819 45.5549 66.6855C45.0827 66.5892 44.6853 66.4447 44.3625 66.252V65.1102C44.7142 65.3221 45.1406 65.4908 45.6416 65.616C46.1426 65.7413 46.6292 65.8039 47.1014 65.8039C47.6361 65.8039 48.1034 65.7196 48.5033 65.551C48.908 65.3775 49.2212 65.1174 49.4428 64.7705C49.6692 64.4188 49.7824 63.978 49.7824 63.448C49.7824 62.7447 49.5656 62.2027 49.132 61.8221C48.7033 61.4367 48.024 61.2439 47.0941 61.2439C46.7954 61.2439 46.4678 61.268 46.1113 61.3162C45.7548 61.3644 45.4609 61.4174 45.2297 61.4752L44.6227 61.0777L45.0273 56.1203H50.2811V57.2187H46.0535L45.7861 60.4057C45.9692 60.3671 46.2053 60.3286 46.4943 60.29C46.7834 60.2467 47.111 60.225 47.4771 60.225Z" fill="#878787"/>
</g>
<defs>
<clipPath id="clip0_5177_3240">
<rect width="72" height="92" fill="white"/>
</clipPath>
</defs>
</svg>
